G04 #@! TF.GenerationSoftware,KiCad,Pcbnew,(5.1.5)-3*
G04 #@! TF.CreationDate,2020-05-13T01:52:56+04:00*
G04 #@! TF.ProjectId,redox_rev2_ng-TOP,7265646f-785f-4726-9576-325f6e672d54,2.0 NG*
G04 #@! TF.SameCoordinates,Original*
G04 #@! TF.FileFunction,Legend,Top*
G04 #@! TF.FilePolarity,Positive*
%FSLAX46Y46*%
G04 Gerber Fmt 4.6, Leading zero omitted, Abs format (unit mm)*
G04 Created by KiCad (PCBNEW (5.1.5)-3) date 2020-05-13 01:52:56*
%MOMM*%
%LPD*%
G04 APERTURE LIST*
%ADD10C,0.150000*%
G04 APERTURE END LIST*
D10*
X127680952Y-146552380D02*
X127680952Y-147266666D01*
X127633333Y-147409523D01*
X127538095Y-147504761D01*
X127395238Y-147552380D01*
X127300000Y-147552380D01*
X128633333Y-147552380D02*
X128157142Y-147552380D01*
X128157142Y-146552380D01*
X129538095Y-147457142D02*
X129490476Y-147504761D01*
X129347619Y-147552380D01*
X129252380Y-147552380D01*
X129109523Y-147504761D01*
X129014285Y-147409523D01*
X128966666Y-147314285D01*
X128919047Y-147123809D01*
X128919047Y-146980952D01*
X128966666Y-146790476D01*
X129014285Y-146695238D01*
X129109523Y-146600000D01*
X129252380Y-146552380D01*
X129347619Y-146552380D01*
X129490476Y-146600000D01*
X129538095Y-146647619D01*
X130252380Y-146552380D02*
X130252380Y-147266666D01*
X130204761Y-147409523D01*
X130109523Y-147504761D01*
X129966666Y-147552380D01*
X129871428Y-147552380D01*
X131204761Y-147552380D02*
X130728571Y-147552380D01*
X130728571Y-146552380D01*
X132109523Y-147457142D02*
X132061904Y-147504761D01*
X131919047Y-147552380D01*
X131823809Y-147552380D01*
X131680952Y-147504761D01*
X131585714Y-147409523D01*
X131538095Y-147314285D01*
X131490476Y-147123809D01*
X131490476Y-146980952D01*
X131538095Y-146790476D01*
X131585714Y-146695238D01*
X131680952Y-146600000D01*
X131823809Y-146552380D01*
X131919047Y-146552380D01*
X132061904Y-146600000D01*
X132109523Y-146647619D01*
X132823809Y-146552380D02*
X132823809Y-147266666D01*
X132776190Y-147409523D01*
X132680952Y-147504761D01*
X132538095Y-147552380D01*
X132442857Y-147552380D01*
X133776190Y-147552380D02*
X133300000Y-147552380D01*
X133300000Y-146552380D01*
X134680952Y-147457142D02*
X134633333Y-147504761D01*
X134490476Y-147552380D01*
X134395238Y-147552380D01*
X134252380Y-147504761D01*
X134157142Y-147409523D01*
X134109523Y-147314285D01*
X134061904Y-147123809D01*
X134061904Y-146980952D01*
X134109523Y-146790476D01*
X134157142Y-146695238D01*
X134252380Y-146600000D01*
X134395238Y-146552380D01*
X134490476Y-146552380D01*
X134633333Y-146600000D01*
X134680952Y-146647619D01*
X135395238Y-146552380D02*
X135395238Y-147266666D01*
X135347619Y-147409523D01*
X135252380Y-147504761D01*
X135109523Y-147552380D01*
X135014285Y-147552380D01*
X136347619Y-147552380D02*
X135871428Y-147552380D01*
X135871428Y-146552380D01*
X137252380Y-147457142D02*
X137204761Y-147504761D01*
X137061904Y-147552380D01*
X136966666Y-147552380D01*
X136823809Y-147504761D01*
X136728571Y-147409523D01*
X136680952Y-147314285D01*
X136633333Y-147123809D01*
X136633333Y-146980952D01*
X136680952Y-146790476D01*
X136728571Y-146695238D01*
X136823809Y-146600000D01*
X136966666Y-146552380D01*
X137061904Y-146552380D01*
X137204761Y-146600000D01*
X137252380Y-146647619D01*
M02*
