G04 #@! TF.GenerationSoftware,KiCad,Pcbnew,(5.1.5)-3*
G04 #@! TF.CreationDate,2020-05-15T01:32:17+04:00*
G04 #@! TF.ProjectId,redox_rev2_ng-BOTTOM,7265646f-785f-4726-9576-325f6e672d42,2.0 NG*
G04 #@! TF.SameCoordinates,Original*
G04 #@! TF.FileFunction,Legend,Bot*
G04 #@! TF.FilePolarity,Positive*
%FSLAX46Y46*%
G04 Gerber Fmt 4.6, Leading zero omitted, Abs format (unit mm)*
G04 Created by KiCad (PCBNEW (5.1.5)-3) date 2020-05-15 01:32:17*
%MOMM*%
%LPD*%
G04 APERTURE LIST*
%ADD10C,0.300000*%
%ADD11C,0.010000*%
G04 APERTURE END LIST*
D10*
X133932071Y-105979071D02*
X133932071Y-104979071D01*
X133932071Y-105264785D02*
X133860642Y-105121928D01*
X133789214Y-105050500D01*
X133646357Y-104979071D01*
X133503500Y-104979071D01*
X132432071Y-105907642D02*
X132574928Y-105979071D01*
X132860642Y-105979071D01*
X133003500Y-105907642D01*
X133074928Y-105764785D01*
X133074928Y-105193357D01*
X133003500Y-105050500D01*
X132860642Y-104979071D01*
X132574928Y-104979071D01*
X132432071Y-105050500D01*
X132360642Y-105193357D01*
X132360642Y-105336214D01*
X133074928Y-105479071D01*
X131860642Y-104979071D02*
X131503500Y-105979071D01*
X131146357Y-104979071D01*
X129503500Y-104621928D02*
X129432071Y-104550500D01*
X129289214Y-104479071D01*
X128932071Y-104479071D01*
X128789214Y-104550500D01*
X128717785Y-104621928D01*
X128646357Y-104764785D01*
X128646357Y-104907642D01*
X128717785Y-105121928D01*
X129574928Y-105979071D01*
X128646357Y-105979071D01*
X128003500Y-105836214D02*
X127932071Y-105907642D01*
X128003500Y-105979071D01*
X128074928Y-105907642D01*
X128003500Y-105836214D01*
X128003500Y-105979071D01*
X127003500Y-104479071D02*
X126860642Y-104479071D01*
X126717785Y-104550500D01*
X126646357Y-104621928D01*
X126574928Y-104764785D01*
X126503500Y-105050500D01*
X126503500Y-105407642D01*
X126574928Y-105693357D01*
X126646357Y-105836214D01*
X126717785Y-105907642D01*
X126860642Y-105979071D01*
X127003500Y-105979071D01*
X127146357Y-105907642D01*
X127217785Y-105836214D01*
X127289214Y-105693357D01*
X127360642Y-105407642D01*
X127360642Y-105050500D01*
X127289214Y-104764785D01*
X127217785Y-104621928D01*
X127146357Y-104550500D01*
X127003500Y-104479071D01*
D11*
G36*
X170534044Y-95630386D02*
G01*
X170102030Y-95642723D01*
X169696710Y-95662449D01*
X169340955Y-95689365D01*
X169057634Y-95723274D01*
X168907553Y-95752883D01*
X168174595Y-96008678D01*
X167520364Y-96368916D01*
X166951831Y-96825246D01*
X166475967Y-97369316D01*
X166099744Y-97992775D01*
X165830132Y-98687270D01*
X165674102Y-99444451D01*
X165652885Y-99651961D01*
X165635904Y-99905320D01*
X165641470Y-100065887D01*
X165677851Y-100173787D01*
X165753316Y-100269147D01*
X165787173Y-100303671D01*
X165960424Y-100476921D01*
X168908573Y-100476921D01*
X167738326Y-102036698D01*
X167439499Y-102439360D01*
X167168839Y-102812455D01*
X166936471Y-103141351D01*
X166752519Y-103411421D01*
X166627106Y-103608033D01*
X166570357Y-103716557D01*
X166568079Y-103727803D01*
X166596410Y-103867887D01*
X166694788Y-103957098D01*
X166883290Y-104004584D01*
X167181995Y-104019493D01*
X167208396Y-104019553D01*
X167688291Y-104019553D01*
X167916506Y-103735474D01*
X168016930Y-103606039D01*
X168183428Y-103386301D01*
X168402950Y-103093711D01*
X168662447Y-102745717D01*
X168948869Y-102359771D01*
X169241177Y-101964158D01*
X170337632Y-100476921D01*
X171313869Y-100476921D01*
X171313869Y-103758261D01*
X171477936Y-103922328D01*
X171699555Y-104053894D01*
X171978800Y-104079168D01*
X172247771Y-104011987D01*
X172391882Y-103933220D01*
X172463984Y-103865829D01*
X172473185Y-103786184D01*
X172481885Y-103584757D01*
X172489934Y-103273451D01*
X172497179Y-102864167D01*
X172503467Y-102368806D01*
X172508646Y-101799272D01*
X172512565Y-101167466D01*
X172515070Y-100485289D01*
X172516003Y-99799974D01*
X172515971Y-98965818D01*
X172515233Y-98255247D01*
X172513515Y-97658164D01*
X172510546Y-97164471D01*
X172507213Y-96867448D01*
X171313869Y-96867448D01*
X171313869Y-99206921D01*
X169141500Y-99206921D01*
X168544325Y-99206517D01*
X168067416Y-99204823D01*
X167697353Y-99201115D01*
X167420719Y-99194673D01*
X167224097Y-99184772D01*
X167094068Y-99170692D01*
X167017214Y-99151708D01*
X166980117Y-99127099D01*
X166969359Y-99096142D01*
X166969184Y-99089948D01*
X167007953Y-98914660D01*
X167111283Y-98670285D01*
X167259889Y-98391856D01*
X167434483Y-98114404D01*
X167615779Y-97872961D01*
X167677778Y-97802878D01*
X168020671Y-97479567D01*
X168382150Y-97233730D01*
X168784730Y-97057504D01*
X169250922Y-96943030D01*
X169803241Y-96882445D01*
X170356790Y-96867448D01*
X171313869Y-96867448D01*
X172507213Y-96867448D01*
X172506052Y-96764071D01*
X172499762Y-96446864D01*
X172491403Y-96202755D01*
X172480702Y-96021644D01*
X172467387Y-95893433D01*
X172451186Y-95808026D01*
X172431826Y-95755325D01*
X172409035Y-95725230D01*
X172405993Y-95722606D01*
X172294083Y-95686456D01*
X172071646Y-95658881D01*
X171761554Y-95639685D01*
X171386676Y-95628669D01*
X170969883Y-95625635D01*
X170534044Y-95630386D01*
G37*
X170534044Y-95630386D02*
X170102030Y-95642723D01*
X169696710Y-95662449D01*
X169340955Y-95689365D01*
X169057634Y-95723274D01*
X168907553Y-95752883D01*
X168174595Y-96008678D01*
X167520364Y-96368916D01*
X166951831Y-96825246D01*
X166475967Y-97369316D01*
X166099744Y-97992775D01*
X165830132Y-98687270D01*
X165674102Y-99444451D01*
X165652885Y-99651961D01*
X165635904Y-99905320D01*
X165641470Y-100065887D01*
X165677851Y-100173787D01*
X165753316Y-100269147D01*
X165787173Y-100303671D01*
X165960424Y-100476921D01*
X168908573Y-100476921D01*
X167738326Y-102036698D01*
X167439499Y-102439360D01*
X167168839Y-102812455D01*
X166936471Y-103141351D01*
X166752519Y-103411421D01*
X166627106Y-103608033D01*
X166570357Y-103716557D01*
X166568079Y-103727803D01*
X166596410Y-103867887D01*
X166694788Y-103957098D01*
X166883290Y-104004584D01*
X167181995Y-104019493D01*
X167208396Y-104019553D01*
X167688291Y-104019553D01*
X167916506Y-103735474D01*
X168016930Y-103606039D01*
X168183428Y-103386301D01*
X168402950Y-103093711D01*
X168662447Y-102745717D01*
X168948869Y-102359771D01*
X169241177Y-101964158D01*
X170337632Y-100476921D01*
X171313869Y-100476921D01*
X171313869Y-103758261D01*
X171477936Y-103922328D01*
X171699555Y-104053894D01*
X171978800Y-104079168D01*
X172247771Y-104011987D01*
X172391882Y-103933220D01*
X172463984Y-103865829D01*
X172473185Y-103786184D01*
X172481885Y-103584757D01*
X172489934Y-103273451D01*
X172497179Y-102864167D01*
X172503467Y-102368806D01*
X172508646Y-101799272D01*
X172512565Y-101167466D01*
X172515070Y-100485289D01*
X172516003Y-99799974D01*
X172515971Y-98965818D01*
X172515233Y-98255247D01*
X172513515Y-97658164D01*
X172510546Y-97164471D01*
X172507213Y-96867448D01*
X171313869Y-96867448D01*
X171313869Y-99206921D01*
X169141500Y-99206921D01*
X168544325Y-99206517D01*
X168067416Y-99204823D01*
X167697353Y-99201115D01*
X167420719Y-99194673D01*
X167224097Y-99184772D01*
X167094068Y-99170692D01*
X167017214Y-99151708D01*
X166980117Y-99127099D01*
X166969359Y-99096142D01*
X166969184Y-99089948D01*
X167007953Y-98914660D01*
X167111283Y-98670285D01*
X167259889Y-98391856D01*
X167434483Y-98114404D01*
X167615779Y-97872961D01*
X167677778Y-97802878D01*
X168020671Y-97479567D01*
X168382150Y-97233730D01*
X168784730Y-97057504D01*
X169250922Y-96943030D01*
X169803241Y-96882445D01*
X170356790Y-96867448D01*
X171313869Y-96867448D01*
X172507213Y-96867448D01*
X172506052Y-96764071D01*
X172499762Y-96446864D01*
X172491403Y-96202755D01*
X172480702Y-96021644D01*
X172467387Y-95893433D01*
X172451186Y-95808026D01*
X172431826Y-95755325D01*
X172409035Y-95725230D01*
X172405993Y-95722606D01*
X172294083Y-95686456D01*
X172071646Y-95658881D01*
X171761554Y-95639685D01*
X171386676Y-95628669D01*
X170969883Y-95625635D01*
X170534044Y-95630386D01*
G36*
X158240671Y-95665620D02*
G01*
X157820438Y-95672181D01*
X157496458Y-95687028D01*
X157256258Y-95713428D01*
X157087364Y-95754645D01*
X156977302Y-95813947D01*
X156913597Y-95894600D01*
X156883777Y-95999869D01*
X156875367Y-96133021D01*
X156875893Y-96297322D01*
X156875974Y-96330359D01*
X156884160Y-96566706D01*
X156915264Y-96705547D01*
X156979104Y-96782416D01*
X157005264Y-96798254D01*
X157112885Y-96819163D01*
X157346228Y-96836643D01*
X157697368Y-96850447D01*
X158158382Y-96860329D01*
X158721343Y-96866043D01*
X159230431Y-96867448D01*
X159886134Y-96868793D01*
X160425225Y-96874268D01*
X160864762Y-96886028D01*
X161221802Y-96906231D01*
X161513404Y-96937031D01*
X161756624Y-96980587D01*
X161968521Y-97039053D01*
X162166151Y-97114588D01*
X162366574Y-97209346D01*
X162504784Y-97281395D01*
X162941535Y-97580208D01*
X163340407Y-97977759D01*
X163673473Y-98439473D01*
X163912811Y-98930773D01*
X163965437Y-99089948D01*
X164018747Y-99273764D01*
X157084081Y-99273764D01*
X156980027Y-99422321D01*
X156907746Y-99607303D01*
X156879546Y-99853876D01*
X156896041Y-100102589D01*
X156957846Y-100293994D01*
X156970817Y-100313751D01*
X156996417Y-100342586D01*
X157034898Y-100366976D01*
X157097251Y-100387423D01*
X157194470Y-100404430D01*
X157337548Y-100418500D01*
X157537477Y-100430137D01*
X157805252Y-100439843D01*
X158151865Y-100448120D01*
X158588308Y-100455473D01*
X159125575Y-100462404D01*
X159774659Y-100469416D01*
X160537186Y-100476921D01*
X164008712Y-100510343D01*
X163917679Y-100822460D01*
X163718313Y-101289885D01*
X163410453Y-101736471D01*
X163019157Y-102135444D01*
X162569483Y-102460030D01*
X162223342Y-102632762D01*
X162120108Y-102672540D01*
X162015680Y-102704896D01*
X161894932Y-102730849D01*
X161742736Y-102751413D01*
X161543965Y-102767605D01*
X161283491Y-102780441D01*
X160946188Y-102790936D01*
X160516927Y-102800107D01*
X159980582Y-102808969D01*
X159493525Y-102816102D01*
X157131339Y-102849816D01*
X157003657Y-103007616D01*
X156900567Y-103221177D01*
X156869904Y-103481215D01*
X156910145Y-103735128D01*
X157019768Y-103930317D01*
X157030677Y-103941059D01*
X157076370Y-103980945D01*
X157128986Y-104012731D01*
X157203062Y-104037295D01*
X157313135Y-104055512D01*
X157473742Y-104068259D01*
X157699420Y-104076412D01*
X158004706Y-104080848D01*
X158404138Y-104082442D01*
X158912251Y-104082072D01*
X159353440Y-104081081D01*
X160042511Y-104077455D01*
X160610024Y-104069968D01*
X161068060Y-104058161D01*
X161428703Y-104041577D01*
X161704034Y-104019758D01*
X161906135Y-103992246D01*
X161955974Y-103982453D01*
X162612538Y-103775808D01*
X163237799Y-103452858D01*
X163809938Y-103030647D01*
X164307133Y-102526219D01*
X164707564Y-101956617D01*
X164820991Y-101744659D01*
X165106435Y-101026534D01*
X165260246Y-100305157D01*
X165283929Y-99589358D01*
X165178987Y-98887967D01*
X164946924Y-98209813D01*
X164589246Y-97563724D01*
X164107457Y-96958530D01*
X163983747Y-96830542D01*
X163689831Y-96561544D01*
X163389070Y-96346954D01*
X163025634Y-96148073D01*
X162937566Y-96105370D01*
X162637153Y-95969695D01*
X162342923Y-95849860D01*
X162099874Y-95763668D01*
X162009927Y-95738354D01*
X161843399Y-95716186D01*
X161551941Y-95697619D01*
X161144266Y-95682902D01*
X160629085Y-95672284D01*
X160015112Y-95666014D01*
X159419796Y-95664290D01*
X158769633Y-95664078D01*
X158240671Y-95665620D01*
G37*
X158240671Y-95665620D02*
X157820438Y-95672181D01*
X157496458Y-95687028D01*
X157256258Y-95713428D01*
X157087364Y-95754645D01*
X156977302Y-95813947D01*
X156913597Y-95894600D01*
X156883777Y-95999869D01*
X156875367Y-96133021D01*
X156875893Y-96297322D01*
X156875974Y-96330359D01*
X156884160Y-96566706D01*
X156915264Y-96705547D01*
X156979104Y-96782416D01*
X157005264Y-96798254D01*
X157112885Y-96819163D01*
X157346228Y-96836643D01*
X157697368Y-96850447D01*
X158158382Y-96860329D01*
X158721343Y-96866043D01*
X159230431Y-96867448D01*
X159886134Y-96868793D01*
X160425225Y-96874268D01*
X160864762Y-96886028D01*
X161221802Y-96906231D01*
X161513404Y-96937031D01*
X161756624Y-96980587D01*
X161968521Y-97039053D01*
X162166151Y-97114588D01*
X162366574Y-97209346D01*
X162504784Y-97281395D01*
X162941535Y-97580208D01*
X163340407Y-97977759D01*
X163673473Y-98439473D01*
X163912811Y-98930773D01*
X163965437Y-99089948D01*
X164018747Y-99273764D01*
X157084081Y-99273764D01*
X156980027Y-99422321D01*
X156907746Y-99607303D01*
X156879546Y-99853876D01*
X156896041Y-100102589D01*
X156957846Y-100293994D01*
X156970817Y-100313751D01*
X156996417Y-100342586D01*
X157034898Y-100366976D01*
X157097251Y-100387423D01*
X157194470Y-100404430D01*
X157337548Y-100418500D01*
X157537477Y-100430137D01*
X157805252Y-100439843D01*
X158151865Y-100448120D01*
X158588308Y-100455473D01*
X159125575Y-100462404D01*
X159774659Y-100469416D01*
X160537186Y-100476921D01*
X164008712Y-100510343D01*
X163917679Y-100822460D01*
X163718313Y-101289885D01*
X163410453Y-101736471D01*
X163019157Y-102135444D01*
X162569483Y-102460030D01*
X162223342Y-102632762D01*
X162120108Y-102672540D01*
X162015680Y-102704896D01*
X161894932Y-102730849D01*
X161742736Y-102751413D01*
X161543965Y-102767605D01*
X161283491Y-102780441D01*
X160946188Y-102790936D01*
X160516927Y-102800107D01*
X159980582Y-102808969D01*
X159493525Y-102816102D01*
X157131339Y-102849816D01*
X157003657Y-103007616D01*
X156900567Y-103221177D01*
X156869904Y-103481215D01*
X156910145Y-103735128D01*
X157019768Y-103930317D01*
X157030677Y-103941059D01*
X157076370Y-103980945D01*
X157128986Y-104012731D01*
X157203062Y-104037295D01*
X157313135Y-104055512D01*
X157473742Y-104068259D01*
X157699420Y-104076412D01*
X158004706Y-104080848D01*
X158404138Y-104082442D01*
X158912251Y-104082072D01*
X159353440Y-104081081D01*
X160042511Y-104077455D01*
X160610024Y-104069968D01*
X161068060Y-104058161D01*
X161428703Y-104041577D01*
X161704034Y-104019758D01*
X161906135Y-103992246D01*
X161955974Y-103982453D01*
X162612538Y-103775808D01*
X163237799Y-103452858D01*
X163809938Y-103030647D01*
X164307133Y-102526219D01*
X164707564Y-101956617D01*
X164820991Y-101744659D01*
X165106435Y-101026534D01*
X165260246Y-100305157D01*
X165283929Y-99589358D01*
X165178987Y-98887967D01*
X164946924Y-98209813D01*
X164589246Y-97563724D01*
X164107457Y-96958530D01*
X163983747Y-96830542D01*
X163689831Y-96561544D01*
X163389070Y-96346954D01*
X163025634Y-96148073D01*
X162937566Y-96105370D01*
X162637153Y-95969695D01*
X162342923Y-95849860D01*
X162099874Y-95763668D01*
X162009927Y-95738354D01*
X161843399Y-95716186D01*
X161551941Y-95697619D01*
X161144266Y-95682902D01*
X160629085Y-95672284D01*
X160015112Y-95666014D01*
X159419796Y-95664290D01*
X158769633Y-95664078D01*
X158240671Y-95665620D01*
G36*
X155075542Y-95599480D02*
G01*
X155057565Y-95599512D01*
X154340272Y-95610153D01*
X153734820Y-95641954D01*
X153220472Y-95698911D01*
X152776491Y-95785017D01*
X152382139Y-95904269D01*
X152016680Y-96060661D01*
X151669047Y-96252311D01*
X151067741Y-96693876D01*
X150553949Y-97231759D01*
X150137973Y-97853145D01*
X149833476Y-98535548D01*
X149672513Y-99177232D01*
X149616485Y-99852899D01*
X149666291Y-100521690D01*
X149778992Y-101011658D01*
X150061146Y-101707791D01*
X150450413Y-102336946D01*
X150934935Y-102886971D01*
X151502852Y-103345714D01*
X152142307Y-103701024D01*
X152559417Y-103860808D01*
X152747285Y-103918661D01*
X152919835Y-103962712D01*
X153100432Y-103995289D01*
X153312442Y-104018719D01*
X153579232Y-104035331D01*
X153924168Y-104047450D01*
X154370616Y-104057406D01*
X154569921Y-104061073D01*
X155037212Y-104066422D01*
X155450140Y-104065346D01*
X155789840Y-104058278D01*
X156037447Y-104045655D01*
X156174096Y-104027911D01*
X156186473Y-104023777D01*
X156329927Y-103922841D01*
X156394735Y-103839508D01*
X156407081Y-103751217D01*
X156419854Y-103540674D01*
X156432769Y-103219305D01*
X156445539Y-102798542D01*
X156457880Y-102289811D01*
X156469505Y-101704543D01*
X156480130Y-101054166D01*
X156489468Y-100350110D01*
X156495218Y-99818023D01*
X156524147Y-96867448D01*
X155271763Y-96867448D01*
X155271763Y-102816395D01*
X154343015Y-102816395D01*
X153915021Y-102811795D01*
X153587381Y-102795856D01*
X153327011Y-102765369D01*
X153100826Y-102717125D01*
X152989462Y-102685109D01*
X152403184Y-102438215D01*
X151897840Y-102084923D01*
X151473423Y-101625227D01*
X151141195Y-101081967D01*
X151034614Y-100862353D01*
X150964065Y-100689140D01*
X150922119Y-100524224D01*
X150901348Y-100329500D01*
X150894323Y-100066862D01*
X150893605Y-99811967D01*
X150895881Y-99471143D01*
X150907112Y-99226181D01*
X150933910Y-99039280D01*
X150982883Y-98872639D01*
X151060641Y-98688456D01*
X151107597Y-98588062D01*
X151416899Y-98074820D01*
X151816257Y-97632826D01*
X152284692Y-97279248D01*
X152801224Y-97031257D01*
X153119395Y-96941556D01*
X153323290Y-96913245D01*
X153621829Y-96889923D01*
X153976000Y-96873899D01*
X154346792Y-96867478D01*
X154372685Y-96867448D01*
X155271763Y-96867448D01*
X156524147Y-96867448D01*
X156533464Y-95917283D01*
X156373547Y-95757365D01*
X156311076Y-95699498D01*
X156242966Y-95657641D01*
X156148008Y-95629252D01*
X156004995Y-95611784D01*
X155792719Y-95602696D01*
X155489970Y-95599442D01*
X155075542Y-95599480D01*
G37*
X155075542Y-95599480D02*
X155057565Y-95599512D01*
X154340272Y-95610153D01*
X153734820Y-95641954D01*
X153220472Y-95698911D01*
X152776491Y-95785017D01*
X152382139Y-95904269D01*
X152016680Y-96060661D01*
X151669047Y-96252311D01*
X151067741Y-96693876D01*
X150553949Y-97231759D01*
X150137973Y-97853145D01*
X149833476Y-98535548D01*
X149672513Y-99177232D01*
X149616485Y-99852899D01*
X149666291Y-100521690D01*
X149778992Y-101011658D01*
X150061146Y-101707791D01*
X150450413Y-102336946D01*
X150934935Y-102886971D01*
X151502852Y-103345714D01*
X152142307Y-103701024D01*
X152559417Y-103860808D01*
X152747285Y-103918661D01*
X152919835Y-103962712D01*
X153100432Y-103995289D01*
X153312442Y-104018719D01*
X153579232Y-104035331D01*
X153924168Y-104047450D01*
X154370616Y-104057406D01*
X154569921Y-104061073D01*
X155037212Y-104066422D01*
X155450140Y-104065346D01*
X155789840Y-104058278D01*
X156037447Y-104045655D01*
X156174096Y-104027911D01*
X156186473Y-104023777D01*
X156329927Y-103922841D01*
X156394735Y-103839508D01*
X156407081Y-103751217D01*
X156419854Y-103540674D01*
X156432769Y-103219305D01*
X156445539Y-102798542D01*
X156457880Y-102289811D01*
X156469505Y-101704543D01*
X156480130Y-101054166D01*
X156489468Y-100350110D01*
X156495218Y-99818023D01*
X156524147Y-96867448D01*
X155271763Y-96867448D01*
X155271763Y-102816395D01*
X154343015Y-102816395D01*
X153915021Y-102811795D01*
X153587381Y-102795856D01*
X153327011Y-102765369D01*
X153100826Y-102717125D01*
X152989462Y-102685109D01*
X152403184Y-102438215D01*
X151897840Y-102084923D01*
X151473423Y-101625227D01*
X151141195Y-101081967D01*
X151034614Y-100862353D01*
X150964065Y-100689140D01*
X150922119Y-100524224D01*
X150901348Y-100329500D01*
X150894323Y-100066862D01*
X150893605Y-99811967D01*
X150895881Y-99471143D01*
X150907112Y-99226181D01*
X150933910Y-99039280D01*
X150982883Y-98872639D01*
X151060641Y-98688456D01*
X151107597Y-98588062D01*
X151416899Y-98074820D01*
X151816257Y-97632826D01*
X152284692Y-97279248D01*
X152801224Y-97031257D01*
X153119395Y-96941556D01*
X153323290Y-96913245D01*
X153621829Y-96889923D01*
X153976000Y-96873899D01*
X154346792Y-96867478D01*
X154372685Y-96867448D01*
X155271763Y-96867448D01*
X156524147Y-96867448D01*
X156533464Y-95917283D01*
X156373547Y-95757365D01*
X156311076Y-95699498D01*
X156242966Y-95657641D01*
X156148008Y-95629252D01*
X156004995Y-95611784D01*
X155792719Y-95602696D01*
X155489970Y-95599442D01*
X155075542Y-95599480D01*
G36*
X144335023Y-95716868D02*
G01*
X143636493Y-95898106D01*
X142990320Y-96191210D01*
X142407858Y-96586937D01*
X141900460Y-97076043D01*
X141479479Y-97649283D01*
X141156269Y-98297415D01*
X140942184Y-99011193D01*
X140939656Y-99023348D01*
X140857755Y-99530936D01*
X140841328Y-99984470D01*
X140890123Y-100446306D01*
X140932993Y-100672034D01*
X141146797Y-101380957D01*
X141469433Y-102025223D01*
X141888670Y-102596047D01*
X142392278Y-103084640D01*
X142968025Y-103482217D01*
X143603680Y-103779990D01*
X144287012Y-103969172D01*
X145005791Y-104040976D01*
X145579658Y-104010275D01*
X146222379Y-103870858D01*
X146859411Y-103617517D01*
X147458678Y-103267381D01*
X147988102Y-102837580D01*
X148210175Y-102605522D01*
X148606818Y-102061032D01*
X148915237Y-101447550D01*
X149128789Y-100791103D01*
X149240832Y-100117716D01*
X149241464Y-100009654D01*
X148114174Y-100009654D01*
X148027231Y-100584138D01*
X148026418Y-100587198D01*
X147809939Y-101147336D01*
X147480487Y-101651406D01*
X147051810Y-102085923D01*
X146537654Y-102437404D01*
X145951767Y-102692364D01*
X145847026Y-102724845D01*
X145585968Y-102771938D01*
X145232397Y-102793230D01*
X144926022Y-102790443D01*
X144608376Y-102773515D01*
X144372429Y-102741708D01*
X144166217Y-102682658D01*
X143937778Y-102583999D01*
X143823127Y-102527985D01*
X143396830Y-102292794D01*
X143067115Y-102051369D01*
X142798860Y-101774554D01*
X142617528Y-101527162D01*
X142347898Y-101046246D01*
X142184125Y-100559777D01*
X142115554Y-100028252D01*
X142115830Y-99667318D01*
X142133375Y-99346457D01*
X142164032Y-99108774D01*
X142219899Y-98903770D01*
X142313073Y-98680940D01*
X142390554Y-98520438D01*
X142724747Y-97986672D01*
X143146101Y-97548761D01*
X143641639Y-97213993D01*
X144198385Y-96989657D01*
X144803362Y-96883039D01*
X145300172Y-96886269D01*
X145892595Y-96997059D01*
X146437797Y-97216988D01*
X146925007Y-97531435D01*
X147343453Y-97925778D01*
X147682364Y-98385393D01*
X147930969Y-98895659D01*
X148078496Y-99441954D01*
X148114174Y-100009654D01*
X149241464Y-100009654D01*
X149244721Y-99453417D01*
X149155046Y-98903465D01*
X149017089Y-98483414D01*
X148815928Y-98029587D01*
X148576460Y-97590294D01*
X148323579Y-97213845D01*
X148217361Y-97083829D01*
X147671428Y-96561055D01*
X147060084Y-96153717D01*
X146390943Y-95865271D01*
X145671616Y-95699173D01*
X145074556Y-95656742D01*
X144335023Y-95716868D01*
G37*
X144335023Y-95716868D02*
X143636493Y-95898106D01*
X142990320Y-96191210D01*
X142407858Y-96586937D01*
X141900460Y-97076043D01*
X141479479Y-97649283D01*
X141156269Y-98297415D01*
X140942184Y-99011193D01*
X140939656Y-99023348D01*
X140857755Y-99530936D01*
X140841328Y-99984470D01*
X140890123Y-100446306D01*
X140932993Y-100672034D01*
X141146797Y-101380957D01*
X141469433Y-102025223D01*
X141888670Y-102596047D01*
X142392278Y-103084640D01*
X142968025Y-103482217D01*
X143603680Y-103779990D01*
X144287012Y-103969172D01*
X145005791Y-104040976D01*
X145579658Y-104010275D01*
X146222379Y-103870858D01*
X146859411Y-103617517D01*
X147458678Y-103267381D01*
X147988102Y-102837580D01*
X148210175Y-102605522D01*
X148606818Y-102061032D01*
X148915237Y-101447550D01*
X149128789Y-100791103D01*
X149240832Y-100117716D01*
X149241464Y-100009654D01*
X148114174Y-100009654D01*
X148027231Y-100584138D01*
X148026418Y-100587198D01*
X147809939Y-101147336D01*
X147480487Y-101651406D01*
X147051810Y-102085923D01*
X146537654Y-102437404D01*
X145951767Y-102692364D01*
X145847026Y-102724845D01*
X145585968Y-102771938D01*
X145232397Y-102793230D01*
X144926022Y-102790443D01*
X144608376Y-102773515D01*
X144372429Y-102741708D01*
X144166217Y-102682658D01*
X143937778Y-102583999D01*
X143823127Y-102527985D01*
X143396830Y-102292794D01*
X143067115Y-102051369D01*
X142798860Y-101774554D01*
X142617528Y-101527162D01*
X142347898Y-101046246D01*
X142184125Y-100559777D01*
X142115554Y-100028252D01*
X142115830Y-99667318D01*
X142133375Y-99346457D01*
X142164032Y-99108774D01*
X142219899Y-98903770D01*
X142313073Y-98680940D01*
X142390554Y-98520438D01*
X142724747Y-97986672D01*
X143146101Y-97548761D01*
X143641639Y-97213993D01*
X144198385Y-96989657D01*
X144803362Y-96883039D01*
X145300172Y-96886269D01*
X145892595Y-96997059D01*
X146437797Y-97216988D01*
X146925007Y-97531435D01*
X147343453Y-97925778D01*
X147682364Y-98385393D01*
X147930969Y-98895659D01*
X148078496Y-99441954D01*
X148114174Y-100009654D01*
X149241464Y-100009654D01*
X149244721Y-99453417D01*
X149155046Y-98903465D01*
X149017089Y-98483414D01*
X148815928Y-98029587D01*
X148576460Y-97590294D01*
X148323579Y-97213845D01*
X148217361Y-97083829D01*
X147671428Y-96561055D01*
X147060084Y-96153717D01*
X146390943Y-95865271D01*
X145671616Y-95699173D01*
X145074556Y-95656742D01*
X144335023Y-95716868D01*
G36*
X134842466Y-95668414D02*
G01*
X134638030Y-95800547D01*
X134551952Y-95928662D01*
X134531760Y-95987574D01*
X134526169Y-96051118D01*
X134541948Y-96132264D01*
X134585870Y-96243983D01*
X134664707Y-96399244D01*
X134785229Y-96611021D01*
X134954208Y-96892282D01*
X135178415Y-97255999D01*
X135464623Y-97715143D01*
X135585607Y-97908641D01*
X135874401Y-98375214D01*
X136129739Y-98797298D01*
X136344292Y-99162122D01*
X136510735Y-99456918D01*
X136621739Y-99668915D01*
X136669977Y-99785342D01*
X136670992Y-99800216D01*
X136629958Y-99883022D01*
X136528252Y-100064951D01*
X136374688Y-100330919D01*
X136178080Y-100665844D01*
X135947241Y-101054641D01*
X135690986Y-101482227D01*
X135597609Y-101637119D01*
X135265893Y-102190731D01*
X135001284Y-102643458D01*
X134798508Y-103006805D01*
X134652290Y-103292280D01*
X134557357Y-103511392D01*
X134508435Y-103675648D01*
X134500250Y-103796555D01*
X134527527Y-103885621D01*
X134551319Y-103920023D01*
X134658224Y-103970830D01*
X134851268Y-104005485D01*
X135083622Y-104021663D01*
X135308459Y-104017039D01*
X135478950Y-103989289D01*
X135525819Y-103968398D01*
X135578965Y-103899872D01*
X135690759Y-103732500D01*
X135851159Y-103482126D01*
X136050127Y-103164593D01*
X136277621Y-102795743D01*
X136488912Y-102448764D01*
X136731760Y-102048516D01*
X136952930Y-101685604D01*
X137142686Y-101375878D01*
X137291288Y-101135187D01*
X137388997Y-100979382D01*
X137424976Y-100925275D01*
X137472810Y-100960629D01*
X137574351Y-101094493D01*
X137718592Y-101308400D01*
X137894529Y-101583883D01*
X138091155Y-101902475D01*
X138297464Y-102245709D01*
X138502450Y-102595119D01*
X138695106Y-102932236D01*
X138864427Y-103238595D01*
X138999407Y-103495727D01*
X139089038Y-103685167D01*
X139118857Y-103767417D01*
X139221041Y-103921150D01*
X139417670Y-104027248D01*
X139675628Y-104078081D01*
X139961802Y-104066015D01*
X140175427Y-104010950D01*
X140328552Y-103903175D01*
X140433867Y-103749647D01*
X140453248Y-103692234D01*
X140458624Y-103628902D01*
X140443738Y-103547033D01*
X140402332Y-103434012D01*
X140328148Y-103277221D01*
X140214927Y-103064045D01*
X140056413Y-102781866D01*
X139846346Y-102418068D01*
X139578469Y-101960035D01*
X139371125Y-101607063D01*
X139099863Y-101144284D01*
X138851568Y-100718092D01*
X138634090Y-100342166D01*
X138455281Y-100030183D01*
X138322990Y-99795822D01*
X138245069Y-99652761D01*
X138227026Y-99613729D01*
X138260253Y-99546728D01*
X138354279Y-99379861D01*
X138500626Y-99127595D01*
X138690812Y-98804396D01*
X138916359Y-98424729D01*
X139168785Y-98003061D01*
X139263079Y-97846300D01*
X139523865Y-97409406D01*
X139760579Y-97005380D01*
X139964651Y-96649443D01*
X140127514Y-96356818D01*
X140240598Y-96142727D01*
X140295334Y-96022394D01*
X140299132Y-96005783D01*
X140252302Y-95874022D01*
X140158430Y-95758202D01*
X139989097Y-95674075D01*
X139749404Y-95632400D01*
X139494427Y-95634862D01*
X139279240Y-95683144D01*
X139198964Y-95728869D01*
X139132287Y-95812642D01*
X139009409Y-95994397D01*
X138841438Y-96256611D01*
X138639482Y-96581763D01*
X138414649Y-96952331D01*
X138276474Y-97183977D01*
X138049056Y-97563322D01*
X137843185Y-97898489D01*
X137668694Y-98174137D01*
X137535420Y-98374922D01*
X137453196Y-98485502D01*
X137431784Y-98501738D01*
X137386386Y-98436399D01*
X137280229Y-98273704D01*
X137123509Y-98029593D01*
X136926426Y-97720008D01*
X136699178Y-97360891D01*
X136522258Y-97080051D01*
X136249184Y-96647270D01*
X136035679Y-96314320D01*
X135871006Y-96067329D01*
X135744427Y-95892422D01*
X135645205Y-95775729D01*
X135562604Y-95703375D01*
X135485886Y-95661488D01*
X135404874Y-95636333D01*
X135109864Y-95609638D01*
X134842466Y-95668414D01*
G37*
X134842466Y-95668414D02*
X134638030Y-95800547D01*
X134551952Y-95928662D01*
X134531760Y-95987574D01*
X134526169Y-96051118D01*
X134541948Y-96132264D01*
X134585870Y-96243983D01*
X134664707Y-96399244D01*
X134785229Y-96611021D01*
X134954208Y-96892282D01*
X135178415Y-97255999D01*
X135464623Y-97715143D01*
X135585607Y-97908641D01*
X135874401Y-98375214D01*
X136129739Y-98797298D01*
X136344292Y-99162122D01*
X136510735Y-99456918D01*
X136621739Y-99668915D01*
X136669977Y-99785342D01*
X136670992Y-99800216D01*
X136629958Y-99883022D01*
X136528252Y-100064951D01*
X136374688Y-100330919D01*
X136178080Y-100665844D01*
X135947241Y-101054641D01*
X135690986Y-101482227D01*
X135597609Y-101637119D01*
X135265893Y-102190731D01*
X135001284Y-102643458D01*
X134798508Y-103006805D01*
X134652290Y-103292280D01*
X134557357Y-103511392D01*
X134508435Y-103675648D01*
X134500250Y-103796555D01*
X134527527Y-103885621D01*
X134551319Y-103920023D01*
X134658224Y-103970830D01*
X134851268Y-104005485D01*
X135083622Y-104021663D01*
X135308459Y-104017039D01*
X135478950Y-103989289D01*
X135525819Y-103968398D01*
X135578965Y-103899872D01*
X135690759Y-103732500D01*
X135851159Y-103482126D01*
X136050127Y-103164593D01*
X136277621Y-102795743D01*
X136488912Y-102448764D01*
X136731760Y-102048516D01*
X136952930Y-101685604D01*
X137142686Y-101375878D01*
X137291288Y-101135187D01*
X137388997Y-100979382D01*
X137424976Y-100925275D01*
X137472810Y-100960629D01*
X137574351Y-101094493D01*
X137718592Y-101308400D01*
X137894529Y-101583883D01*
X138091155Y-101902475D01*
X138297464Y-102245709D01*
X138502450Y-102595119D01*
X138695106Y-102932236D01*
X138864427Y-103238595D01*
X138999407Y-103495727D01*
X139089038Y-103685167D01*
X139118857Y-103767417D01*
X139221041Y-103921150D01*
X139417670Y-104027248D01*
X139675628Y-104078081D01*
X139961802Y-104066015D01*
X140175427Y-104010950D01*
X140328552Y-103903175D01*
X140433867Y-103749647D01*
X140453248Y-103692234D01*
X140458624Y-103628902D01*
X140443738Y-103547033D01*
X140402332Y-103434012D01*
X140328148Y-103277221D01*
X140214927Y-103064045D01*
X140056413Y-102781866D01*
X139846346Y-102418068D01*
X139578469Y-101960035D01*
X139371125Y-101607063D01*
X139099863Y-101144284D01*
X138851568Y-100718092D01*
X138634090Y-100342166D01*
X138455281Y-100030183D01*
X138322990Y-99795822D01*
X138245069Y-99652761D01*
X138227026Y-99613729D01*
X138260253Y-99546728D01*
X138354279Y-99379861D01*
X138500626Y-99127595D01*
X138690812Y-98804396D01*
X138916359Y-98424729D01*
X139168785Y-98003061D01*
X139263079Y-97846300D01*
X139523865Y-97409406D01*
X139760579Y-97005380D01*
X139964651Y-96649443D01*
X140127514Y-96356818D01*
X140240598Y-96142727D01*
X140295334Y-96022394D01*
X140299132Y-96005783D01*
X140252302Y-95874022D01*
X140158430Y-95758202D01*
X139989097Y-95674075D01*
X139749404Y-95632400D01*
X139494427Y-95634862D01*
X139279240Y-95683144D01*
X139198964Y-95728869D01*
X139132287Y-95812642D01*
X139009409Y-95994397D01*
X138841438Y-96256611D01*
X138639482Y-96581763D01*
X138414649Y-96952331D01*
X138276474Y-97183977D01*
X138049056Y-97563322D01*
X137843185Y-97898489D01*
X137668694Y-98174137D01*
X137535420Y-98374922D01*
X137453196Y-98485502D01*
X137431784Y-98501738D01*
X137386386Y-98436399D01*
X137280229Y-98273704D01*
X137123509Y-98029593D01*
X136926426Y-97720008D01*
X136699178Y-97360891D01*
X136522258Y-97080051D01*
X136249184Y-96647270D01*
X136035679Y-96314320D01*
X135871006Y-96067329D01*
X135744427Y-95892422D01*
X135645205Y-95775729D01*
X135562604Y-95703375D01*
X135485886Y-95661488D01*
X135404874Y-95636333D01*
X135109864Y-95609638D01*
X134842466Y-95668414D01*
G36*
X128272283Y-96340639D02*
G01*
X126395974Y-97421146D01*
X126395974Y-101713535D01*
X127846061Y-102549044D01*
X128273229Y-102794731D01*
X128687949Y-103032454D01*
X129067848Y-103249451D01*
X129390557Y-103432958D01*
X129633703Y-103570215D01*
X129734351Y-103626303D01*
X130172553Y-103868053D01*
X133884083Y-101720795D01*
X133881468Y-101399441D01*
X133282802Y-101399441D01*
X131727677Y-102297947D01*
X130172553Y-103196453D01*
X129866900Y-103023134D01*
X129717756Y-102938157D01*
X129474876Y-102799301D01*
X129160447Y-102619269D01*
X128796657Y-102410769D01*
X128405690Y-102186506D01*
X128280321Y-102114553D01*
X126999395Y-101379290D01*
X126997553Y-97761960D01*
X128551632Y-96869356D01*
X128964737Y-96632189D01*
X129339205Y-96417403D01*
X129659588Y-96233845D01*
X129910435Y-96090359D01*
X130076298Y-95995789D01*
X130141729Y-95958981D01*
X130141743Y-95958974D01*
X130206882Y-95986271D01*
X130372074Y-96072284D01*
X130621844Y-96208472D01*
X130940713Y-96386289D01*
X131313205Y-96597192D01*
X131712532Y-96826115D01*
X133247290Y-97711033D01*
X133282802Y-101399441D01*
X133881468Y-101399441D01*
X133866476Y-99557417D01*
X133848869Y-97394040D01*
X130148591Y-95260132D01*
X128272283Y-96340639D01*
G37*
X128272283Y-96340639D02*
X126395974Y-97421146D01*
X126395974Y-101713535D01*
X127846061Y-102549044D01*
X128273229Y-102794731D01*
X128687949Y-103032454D01*
X129067848Y-103249451D01*
X129390557Y-103432958D01*
X129633703Y-103570215D01*
X129734351Y-103626303D01*
X130172553Y-103868053D01*
X133884083Y-101720795D01*
X133881468Y-101399441D01*
X133282802Y-101399441D01*
X131727677Y-102297947D01*
X130172553Y-103196453D01*
X129866900Y-103023134D01*
X129717756Y-102938157D01*
X129474876Y-102799301D01*
X129160447Y-102619269D01*
X128796657Y-102410769D01*
X128405690Y-102186506D01*
X128280321Y-102114553D01*
X126999395Y-101379290D01*
X126997553Y-97761960D01*
X128551632Y-96869356D01*
X128964737Y-96632189D01*
X129339205Y-96417403D01*
X129659588Y-96233845D01*
X129910435Y-96090359D01*
X130076298Y-95995789D01*
X130141729Y-95958981D01*
X130141743Y-95958974D01*
X130206882Y-95986271D01*
X130372074Y-96072284D01*
X130621844Y-96208472D01*
X130940713Y-96386289D01*
X131313205Y-96597192D01*
X131712532Y-96826115D01*
X133247290Y-97711033D01*
X133282802Y-101399441D01*
X133881468Y-101399441D01*
X133866476Y-99557417D01*
X133848869Y-97394040D01*
X130148591Y-95260132D01*
X128272283Y-96340639D01*
G36*
X144751226Y-98805448D02*
G01*
X144453602Y-98988037D01*
X144206890Y-99282385D01*
X144190937Y-99309161D01*
X144080197Y-99600308D01*
X144049041Y-99923015D01*
X144095375Y-100232137D01*
X144217105Y-100482526D01*
X144247015Y-100518042D01*
X144543435Y-100749328D01*
X144883396Y-100859774D01*
X145247255Y-100846347D01*
X145582330Y-100724054D01*
X145858333Y-100513436D01*
X146051313Y-100234631D01*
X146152915Y-99917914D01*
X146154780Y-99593562D01*
X146048550Y-99291852D01*
X145998625Y-99215996D01*
X145723461Y-98939893D01*
X145408766Y-98780211D01*
X145077150Y-98735785D01*
X144751226Y-98805448D01*
G37*
X144751226Y-98805448D02*
X144453602Y-98988037D01*
X144206890Y-99282385D01*
X144190937Y-99309161D01*
X144080197Y-99600308D01*
X144049041Y-99923015D01*
X144095375Y-100232137D01*
X144217105Y-100482526D01*
X144247015Y-100518042D01*
X144543435Y-100749328D01*
X144883396Y-100859774D01*
X145247255Y-100846347D01*
X145582330Y-100724054D01*
X145858333Y-100513436D01*
X146051313Y-100234631D01*
X146152915Y-99917914D01*
X146154780Y-99593562D01*
X146048550Y-99291852D01*
X145998625Y-99215996D01*
X145723461Y-98939893D01*
X145408766Y-98780211D01*
X145077150Y-98735785D01*
X144751226Y-98805448D01*
G36*
X132427089Y-100508828D02*
G01*
X132259400Y-100598356D01*
X132009451Y-100736219D01*
X131693980Y-100913131D01*
X131329724Y-101119805D01*
X131093205Y-101255100D01*
X129736863Y-102033278D01*
X129855057Y-102235655D01*
X129952128Y-102377471D01*
X130032676Y-102455783D01*
X130039481Y-102458644D01*
X130114353Y-102432600D01*
X130286794Y-102348167D01*
X130539159Y-102214764D01*
X130853806Y-102041806D01*
X131213089Y-101838711D01*
X131368508Y-101749318D01*
X131741878Y-101532323D01*
X132077278Y-101335161D01*
X132356946Y-101168458D01*
X132563121Y-101042834D01*
X132678042Y-100968915D01*
X132694327Y-100956357D01*
X132705096Y-100865912D01*
X132664222Y-100720139D01*
X132594717Y-100574602D01*
X132519590Y-100484866D01*
X132495781Y-100476921D01*
X132427089Y-100508828D01*
G37*
X132427089Y-100508828D02*
X132259400Y-100598356D01*
X132009451Y-100736219D01*
X131693980Y-100913131D01*
X131329724Y-101119805D01*
X131093205Y-101255100D01*
X129736863Y-102033278D01*
X129855057Y-102235655D01*
X129952128Y-102377471D01*
X130032676Y-102455783D01*
X130039481Y-102458644D01*
X130114353Y-102432600D01*
X130286794Y-102348167D01*
X130539159Y-102214764D01*
X130853806Y-102041806D01*
X131213089Y-101838711D01*
X131368508Y-101749318D01*
X131741878Y-101532323D01*
X132077278Y-101335161D01*
X132356946Y-101168458D01*
X132563121Y-101042834D01*
X132678042Y-100968915D01*
X132694327Y-100956357D01*
X132705096Y-100865912D01*
X132664222Y-100720139D01*
X132594717Y-100574602D01*
X132519590Y-100484866D01*
X132495781Y-100476921D01*
X132427089Y-100508828D01*
G36*
X127665974Y-101145343D02*
G01*
X128200711Y-101145343D01*
X128200711Y-97936921D01*
X127665974Y-97936921D01*
X127665974Y-101145343D01*
G37*
X127665974Y-101145343D02*
X128200711Y-101145343D01*
X128200711Y-97936921D01*
X127665974Y-97936921D01*
X127665974Y-101145343D01*
G36*
X129751800Y-97102596D02*
G01*
X131085923Y-97870680D01*
X131468682Y-98090582D01*
X131813000Y-98287522D01*
X132101900Y-98451861D01*
X132318405Y-98573961D01*
X132445537Y-98644182D01*
X132471280Y-98657222D01*
X132531883Y-98616329D01*
X132620168Y-98491747D01*
X132648023Y-98442624D01*
X132720343Y-98289482D01*
X132746647Y-98193646D01*
X132743042Y-98182669D01*
X132678259Y-98142556D01*
X132515649Y-98046592D01*
X132273389Y-97905366D01*
X131969658Y-97729470D01*
X131622632Y-97529495D01*
X131576237Y-97502828D01*
X131209591Y-97291876D01*
X130869258Y-97095559D01*
X130577459Y-96926732D01*
X130356413Y-96798253D01*
X130228340Y-96722979D01*
X130225832Y-96721476D01*
X130011742Y-96593066D01*
X129751800Y-97102596D01*
G37*
X129751800Y-97102596D02*
X131085923Y-97870680D01*
X131468682Y-98090582D01*
X131813000Y-98287522D01*
X132101900Y-98451861D01*
X132318405Y-98573961D01*
X132445537Y-98644182D01*
X132471280Y-98657222D01*
X132531883Y-98616329D01*
X132620168Y-98491747D01*
X132648023Y-98442624D01*
X132720343Y-98289482D01*
X132746647Y-98193646D01*
X132743042Y-98182669D01*
X132678259Y-98142556D01*
X132515649Y-98046592D01*
X132273389Y-97905366D01*
X131969658Y-97729470D01*
X131622632Y-97529495D01*
X131576237Y-97502828D01*
X131209591Y-97291876D01*
X130869258Y-97095559D01*
X130577459Y-96926732D01*
X130356413Y-96798253D01*
X130228340Y-96722979D01*
X130225832Y-96721476D01*
X130011742Y-96593066D01*
X129751800Y-97102596D01*
G36*
X149925128Y-106439145D02*
G01*
X149882686Y-106458037D01*
X149864242Y-106493680D01*
X149860538Y-106519311D01*
X149861924Y-106578301D01*
X149883677Y-106605623D01*
X149929932Y-106605150D01*
X149947343Y-106600707D01*
X150026689Y-106596977D01*
X150102621Y-106631705D01*
X150174059Y-106704344D01*
X150186997Y-106722330D01*
X150247846Y-106810771D01*
X150247846Y-107438731D01*
X150404825Y-107438731D01*
X150399604Y-106945385D01*
X150394384Y-106452038D01*
X150326000Y-106452038D01*
X150280821Y-106455271D01*
X150259298Y-106472639D01*
X150249209Y-106515651D01*
X150247846Y-106525628D01*
X150238077Y-106599217D01*
X150184050Y-106531186D01*
X150113435Y-106469842D01*
X150027295Y-106436731D01*
X149937861Y-106436201D01*
X149925128Y-106439145D01*
G37*
X149925128Y-106439145D02*
X149882686Y-106458037D01*
X149864242Y-106493680D01*
X149860538Y-106519311D01*
X149861924Y-106578301D01*
X149883677Y-106605623D01*
X149929932Y-106605150D01*
X149947343Y-106600707D01*
X150026689Y-106596977D01*
X150102621Y-106631705D01*
X150174059Y-106704344D01*
X150186997Y-106722330D01*
X150247846Y-106810771D01*
X150247846Y-107438731D01*
X150404825Y-107438731D01*
X150399604Y-106945385D01*
X150394384Y-106452038D01*
X150326000Y-106452038D01*
X150280821Y-106455271D01*
X150259298Y-106472639D01*
X150249209Y-106515651D01*
X150247846Y-106525628D01*
X150238077Y-106599217D01*
X150184050Y-106531186D01*
X150113435Y-106469842D01*
X150027295Y-106436731D01*
X149937861Y-106436201D01*
X149925128Y-106439145D01*
G36*
X152963030Y-106452201D02*
G01*
X152929962Y-106472410D01*
X152927295Y-106476461D01*
X152916250Y-106505507D01*
X152896586Y-106565549D01*
X152870353Y-106649991D01*
X152839602Y-106752239D01*
X152807350Y-106862346D01*
X152774616Y-106973891D01*
X152744799Y-107072428D01*
X152719832Y-107151813D01*
X152701646Y-107205902D01*
X152692174Y-107228552D01*
X152692163Y-107228564D01*
X152683255Y-107215293D01*
X152666500Y-107169684D01*
X152643643Y-107097282D01*
X152616430Y-107003630D01*
X152586607Y-106894273D01*
X152585051Y-106888385D01*
X152547720Y-106746817D01*
X152518707Y-106638564D01*
X152496012Y-106559253D01*
X152477637Y-106504508D01*
X152461585Y-106469955D01*
X152445857Y-106451219D01*
X152428455Y-106443924D01*
X152407382Y-106443697D01*
X152382992Y-106445972D01*
X152310224Y-106452038D01*
X152218637Y-106764654D01*
X152186073Y-106876390D01*
X152155733Y-106981570D01*
X152130070Y-107071603D01*
X152111542Y-107137897D01*
X152104876Y-107162684D01*
X152089940Y-107211386D01*
X152077368Y-107237419D01*
X152073366Y-107238763D01*
X152065350Y-107218011D01*
X152048315Y-107165401D01*
X152024014Y-107086639D01*
X151994200Y-106987431D01*
X151960626Y-106873483D01*
X151951087Y-106840733D01*
X151838144Y-106452038D01*
X151773203Y-106445731D01*
X151723656Y-106446244D01*
X151691721Y-106456066D01*
X151690682Y-106457002D01*
X151691045Y-106480534D01*
X151702728Y-106537287D01*
X151724713Y-106623406D01*
X151755986Y-106735032D01*
X151795529Y-106868310D01*
X151820167Y-106948575D01*
X151860136Y-107077741D01*
X151895975Y-107194214D01*
X151926137Y-107292915D01*
X151949075Y-107368762D01*
X151963241Y-107416674D01*
X151967230Y-107431625D01*
X151984895Y-107435583D01*
X152030589Y-107436452D01*
X152077910Y-107434821D01*
X152188590Y-107428961D01*
X152286632Y-107082465D01*
X152318104Y-106973812D01*
X152346586Y-106880302D01*
X152370245Y-106807574D01*
X152387248Y-106761263D01*
X152395760Y-106747004D01*
X152404174Y-106768589D01*
X152420695Y-106821695D01*
X152443493Y-106900052D01*
X152470740Y-106997391D01*
X152496870Y-107093501D01*
X152586895Y-107428961D01*
X152697140Y-107434821D01*
X152756808Y-107436662D01*
X152796841Y-107435349D01*
X152807384Y-107432376D01*
X152812893Y-107412208D01*
X152828398Y-107359779D01*
X152852364Y-107280163D01*
X152883257Y-107178435D01*
X152919542Y-107059670D01*
X152953272Y-106949790D01*
X152992571Y-106820135D01*
X153027058Y-106702691D01*
X153055302Y-106602638D01*
X153075872Y-106525155D01*
X153087337Y-106475423D01*
X153088888Y-106458889D01*
X153059752Y-106443564D01*
X153012046Y-106441960D01*
X152963030Y-106452201D01*
G37*
X152963030Y-106452201D02*
X152929962Y-106472410D01*
X152927295Y-106476461D01*
X152916250Y-106505507D01*
X152896586Y-106565549D01*
X152870353Y-106649991D01*
X152839602Y-106752239D01*
X152807350Y-106862346D01*
X152774616Y-106973891D01*
X152744799Y-107072428D01*
X152719832Y-107151813D01*
X152701646Y-107205902D01*
X152692174Y-107228552D01*
X152692163Y-107228564D01*
X152683255Y-107215293D01*
X152666500Y-107169684D01*
X152643643Y-107097282D01*
X152616430Y-107003630D01*
X152586607Y-106894273D01*
X152585051Y-106888385D01*
X152547720Y-106746817D01*
X152518707Y-106638564D01*
X152496012Y-106559253D01*
X152477637Y-106504508D01*
X152461585Y-106469955D01*
X152445857Y-106451219D01*
X152428455Y-106443924D01*
X152407382Y-106443697D01*
X152382992Y-106445972D01*
X152310224Y-106452038D01*
X152218637Y-106764654D01*
X152186073Y-106876390D01*
X152155733Y-106981570D01*
X152130070Y-107071603D01*
X152111542Y-107137897D01*
X152104876Y-107162684D01*
X152089940Y-107211386D01*
X152077368Y-107237419D01*
X152073366Y-107238763D01*
X152065350Y-107218011D01*
X152048315Y-107165401D01*
X152024014Y-107086639D01*
X151994200Y-106987431D01*
X151960626Y-106873483D01*
X151951087Y-106840733D01*
X151838144Y-106452038D01*
X151773203Y-106445731D01*
X151723656Y-106446244D01*
X151691721Y-106456066D01*
X151690682Y-106457002D01*
X151691045Y-106480534D01*
X151702728Y-106537287D01*
X151724713Y-106623406D01*
X151755986Y-106735032D01*
X151795529Y-106868310D01*
X151820167Y-106948575D01*
X151860136Y-107077741D01*
X151895975Y-107194214D01*
X151926137Y-107292915D01*
X151949075Y-107368762D01*
X151963241Y-107416674D01*
X151967230Y-107431625D01*
X151984895Y-107435583D01*
X152030589Y-107436452D01*
X152077910Y-107434821D01*
X152188590Y-107428961D01*
X152286632Y-107082465D01*
X152318104Y-106973812D01*
X152346586Y-106880302D01*
X152370245Y-106807574D01*
X152387248Y-106761263D01*
X152395760Y-106747004D01*
X152404174Y-106768589D01*
X152420695Y-106821695D01*
X152443493Y-106900052D01*
X152470740Y-106997391D01*
X152496870Y-107093501D01*
X152586895Y-107428961D01*
X152697140Y-107434821D01*
X152756808Y-107436662D01*
X152796841Y-107435349D01*
X152807384Y-107432376D01*
X152812893Y-107412208D01*
X152828398Y-107359779D01*
X152852364Y-107280163D01*
X152883257Y-107178435D01*
X152919542Y-107059670D01*
X152953272Y-106949790D01*
X152992571Y-106820135D01*
X153027058Y-106702691D01*
X153055302Y-106602638D01*
X153075872Y-106525155D01*
X153087337Y-106475423D01*
X153088888Y-106458889D01*
X153059752Y-106443564D01*
X153012046Y-106441960D01*
X152963030Y-106452201D01*
G36*
X154909927Y-106092383D02*
G01*
X154844117Y-106094208D01*
X154731042Y-106100757D01*
X154646682Y-106111618D01*
X154580765Y-106128473D01*
X154542843Y-106143483D01*
X154450714Y-106204126D01*
X154385641Y-106285975D01*
X154347186Y-106382470D01*
X154334908Y-106487050D01*
X154348371Y-106593156D01*
X154387134Y-106694226D01*
X154450758Y-106783700D01*
X154538805Y-106855017D01*
X154592253Y-106881985D01*
X154648108Y-106898360D01*
X154727563Y-106913179D01*
X154815160Y-106923669D01*
X154831599Y-106924955D01*
X154995692Y-106936535D01*
X154995692Y-107438731D01*
X155152000Y-107438731D01*
X155152000Y-106778479D01*
X154996821Y-106778479D01*
X154828678Y-106771566D01*
X154746857Y-106767545D01*
X154693260Y-106761211D01*
X154657056Y-106748882D01*
X154627416Y-106726878D01*
X154593652Y-106691671D01*
X154555747Y-106646383D01*
X154535677Y-106606090D01*
X154527889Y-106554820D01*
X154526769Y-106499218D01*
X154528820Y-106429738D01*
X154538489Y-106384213D01*
X154561051Y-106347590D01*
X154591224Y-106315291D01*
X154633868Y-106278074D01*
X154678207Y-106255840D01*
X154738958Y-106242616D01*
X154783794Y-106237117D01*
X154861503Y-106228677D01*
X154916295Y-106226346D01*
X154952301Y-106235518D01*
X154973654Y-106261587D01*
X154984486Y-106309945D01*
X154988930Y-106385987D01*
X154991118Y-106495106D01*
X154991372Y-106508040D01*
X154996821Y-106778479D01*
X155152000Y-106778479D01*
X155152000Y-106110860D01*
X155103002Y-106098562D01*
X155063477Y-106094170D01*
X154995572Y-106092051D01*
X154909927Y-106092383D01*
G37*
X154909927Y-106092383D02*
X154844117Y-106094208D01*
X154731042Y-106100757D01*
X154646682Y-106111618D01*
X154580765Y-106128473D01*
X154542843Y-106143483D01*
X154450714Y-106204126D01*
X154385641Y-106285975D01*
X154347186Y-106382470D01*
X154334908Y-106487050D01*
X154348371Y-106593156D01*
X154387134Y-106694226D01*
X154450758Y-106783700D01*
X154538805Y-106855017D01*
X154592253Y-106881985D01*
X154648108Y-106898360D01*
X154727563Y-106913179D01*
X154815160Y-106923669D01*
X154831599Y-106924955D01*
X154995692Y-106936535D01*
X154995692Y-107438731D01*
X155152000Y-107438731D01*
X155152000Y-106778479D01*
X154996821Y-106778479D01*
X154828678Y-106771566D01*
X154746857Y-106767545D01*
X154693260Y-106761211D01*
X154657056Y-106748882D01*
X154627416Y-106726878D01*
X154593652Y-106691671D01*
X154555747Y-106646383D01*
X154535677Y-106606090D01*
X154527889Y-106554820D01*
X154526769Y-106499218D01*
X154528820Y-106429738D01*
X154538489Y-106384213D01*
X154561051Y-106347590D01*
X154591224Y-106315291D01*
X154633868Y-106278074D01*
X154678207Y-106255840D01*
X154738958Y-106242616D01*
X154783794Y-106237117D01*
X154861503Y-106228677D01*
X154916295Y-106226346D01*
X154952301Y-106235518D01*
X154973654Y-106261587D01*
X154984486Y-106309945D01*
X154988930Y-106385987D01*
X154991118Y-106495106D01*
X154991372Y-106508040D01*
X154996821Y-106778479D01*
X155152000Y-106778479D01*
X155152000Y-106110860D01*
X155103002Y-106098562D01*
X155063477Y-106094170D01*
X154995572Y-106092051D01*
X154909927Y-106092383D01*
G36*
X146921423Y-105996646D02*
G01*
X146838384Y-106002654D01*
X146832975Y-106291345D01*
X146827565Y-106580036D01*
X146754821Y-106522551D01*
X146647946Y-106459428D01*
X146536251Y-106434846D01*
X146443064Y-106443289D01*
X146354987Y-106470738D01*
X146290783Y-106512723D01*
X146239155Y-106578472D01*
X146208766Y-106634691D01*
X146182372Y-106693187D01*
X146166171Y-106745885D01*
X146157776Y-106805831D01*
X146154799Y-106886068D01*
X146154590Y-106930731D01*
X146157601Y-107027785D01*
X146165701Y-107115159D01*
X146177568Y-107179859D01*
X146181081Y-107191291D01*
X146224251Y-107275840D01*
X146287417Y-107354395D01*
X146359133Y-107413960D01*
X146392952Y-107431872D01*
X146472091Y-107451600D01*
X146564422Y-107455748D01*
X146649058Y-107443968D01*
X146671724Y-107436531D01*
X146719641Y-107411625D01*
X146774569Y-107375500D01*
X146782766Y-107369385D01*
X146831012Y-107334592D01*
X146856388Y-107325574D01*
X146866180Y-107343250D01*
X146867692Y-107380115D01*
X146871504Y-107419497D01*
X146890840Y-107435649D01*
X146936077Y-107438731D01*
X147004461Y-107438731D01*
X147004461Y-106743012D01*
X146828615Y-106743012D01*
X146828615Y-107161719D01*
X146765115Y-107215238D01*
X146668493Y-107281001D01*
X146578259Y-107311118D01*
X146496790Y-107305218D01*
X146431484Y-107267537D01*
X146377467Y-107197063D01*
X146341413Y-107103826D01*
X146323199Y-106997126D01*
X146322705Y-106886264D01*
X146339809Y-106780538D01*
X146374388Y-106689250D01*
X146426321Y-106621698D01*
X146440079Y-106610935D01*
X146505017Y-106585211D01*
X146583359Y-106580969D01*
X146655287Y-106599115D01*
X146658938Y-106600921D01*
X146700062Y-106628192D01*
X146750429Y-106669443D01*
X146765115Y-106682908D01*
X146828615Y-106743012D01*
X147004461Y-106743012D01*
X147004461Y-105990638D01*
X146921423Y-105996646D01*
G37*
X146921423Y-105996646D02*
X146838384Y-106002654D01*
X146832975Y-106291345D01*
X146827565Y-106580036D01*
X146754821Y-106522551D01*
X146647946Y-106459428D01*
X146536251Y-106434846D01*
X146443064Y-106443289D01*
X146354987Y-106470738D01*
X146290783Y-106512723D01*
X146239155Y-106578472D01*
X146208766Y-106634691D01*
X146182372Y-106693187D01*
X146166171Y-106745885D01*
X146157776Y-106805831D01*
X146154799Y-106886068D01*
X146154590Y-106930731D01*
X146157601Y-107027785D01*
X146165701Y-107115159D01*
X146177568Y-107179859D01*
X146181081Y-107191291D01*
X146224251Y-107275840D01*
X146287417Y-107354395D01*
X146359133Y-107413960D01*
X146392952Y-107431872D01*
X146472091Y-107451600D01*
X146564422Y-107455748D01*
X146649058Y-107443968D01*
X146671724Y-107436531D01*
X146719641Y-107411625D01*
X146774569Y-107375500D01*
X146782766Y-107369385D01*
X146831012Y-107334592D01*
X146856388Y-107325574D01*
X146866180Y-107343250D01*
X146867692Y-107380115D01*
X146871504Y-107419497D01*
X146890840Y-107435649D01*
X146936077Y-107438731D01*
X147004461Y-107438731D01*
X147004461Y-106743012D01*
X146828615Y-106743012D01*
X146828615Y-107161719D01*
X146765115Y-107215238D01*
X146668493Y-107281001D01*
X146578259Y-107311118D01*
X146496790Y-107305218D01*
X146431484Y-107267537D01*
X146377467Y-107197063D01*
X146341413Y-107103826D01*
X146323199Y-106997126D01*
X146322705Y-106886264D01*
X146339809Y-106780538D01*
X146374388Y-106689250D01*
X146426321Y-106621698D01*
X146440079Y-106610935D01*
X146505017Y-106585211D01*
X146583359Y-106580969D01*
X146655287Y-106599115D01*
X146658938Y-106600921D01*
X146700062Y-106628192D01*
X146750429Y-106669443D01*
X146765115Y-106682908D01*
X146828615Y-106743012D01*
X147004461Y-106743012D01*
X147004461Y-105990638D01*
X146921423Y-105996646D01*
G36*
X147825077Y-107438731D02*
G01*
X147892282Y-107438731D01*
X147937015Y-107435462D01*
X147957230Y-107417844D01*
X147964953Y-107374157D01*
X147965551Y-107367314D01*
X147971615Y-107295897D01*
X148030230Y-107345027D01*
X148142171Y-107419563D01*
X148253828Y-107455094D01*
X148365627Y-107451684D01*
X148471657Y-107412803D01*
X148531640Y-107373071D01*
X148578063Y-107319737D01*
X148614680Y-107256325D01*
X148643518Y-107195043D01*
X148660740Y-107140606D01*
X148669269Y-107078673D01*
X148672032Y-106994902D01*
X148672148Y-106974521D01*
X148670139Y-106944491D01*
X148502221Y-106944491D01*
X148497077Y-107033042D01*
X148471708Y-107145605D01*
X148426122Y-107232520D01*
X148363901Y-107290653D01*
X148288627Y-107316868D01*
X148203882Y-107308032D01*
X148188832Y-107302833D01*
X148146090Y-107278994D01*
X148091326Y-107238805D01*
X148060560Y-107212637D01*
X147981384Y-107141107D01*
X147981384Y-106959363D01*
X147982651Y-106875777D01*
X147986043Y-106804791D01*
X147990948Y-106757104D01*
X147993625Y-106745722D01*
X148015295Y-106716679D01*
X148058051Y-106675843D01*
X148094127Y-106646431D01*
X148183952Y-106595584D01*
X148268392Y-106580796D01*
X148344374Y-106599116D01*
X148408822Y-106647596D01*
X148458662Y-106723285D01*
X148490820Y-106823233D01*
X148502221Y-106944491D01*
X148670139Y-106944491D01*
X148661214Y-106811110D01*
X148626627Y-106677502D01*
X148567466Y-106571715D01*
X148482808Y-106491766D01*
X148433911Y-106462532D01*
X148356412Y-106439935D01*
X148264412Y-106438298D01*
X148171293Y-106455358D01*
X148090438Y-106488856D01*
X148041069Y-106528904D01*
X148012595Y-106554169D01*
X147998530Y-106559500D01*
X147992468Y-106541108D01*
X147987348Y-106490511D01*
X147983584Y-106414578D01*
X147981592Y-106320177D01*
X147981384Y-106276192D01*
X147981384Y-105992885D01*
X147825077Y-105992885D01*
X147825077Y-107438731D01*
G37*
X147825077Y-107438731D02*
X147892282Y-107438731D01*
X147937015Y-107435462D01*
X147957230Y-107417844D01*
X147964953Y-107374157D01*
X147965551Y-107367314D01*
X147971615Y-107295897D01*
X148030230Y-107345027D01*
X148142171Y-107419563D01*
X148253828Y-107455094D01*
X148365627Y-107451684D01*
X148471657Y-107412803D01*
X148531640Y-107373071D01*
X148578063Y-107319737D01*
X148614680Y-107256325D01*
X148643518Y-107195043D01*
X148660740Y-107140606D01*
X148669269Y-107078673D01*
X148672032Y-106994902D01*
X148672148Y-106974521D01*
X148670139Y-106944491D01*
X148502221Y-106944491D01*
X148497077Y-107033042D01*
X148471708Y-107145605D01*
X148426122Y-107232520D01*
X148363901Y-107290653D01*
X148288627Y-107316868D01*
X148203882Y-107308032D01*
X148188832Y-107302833D01*
X148146090Y-107278994D01*
X148091326Y-107238805D01*
X148060560Y-107212637D01*
X147981384Y-107141107D01*
X147981384Y-106959363D01*
X147982651Y-106875777D01*
X147986043Y-106804791D01*
X147990948Y-106757104D01*
X147993625Y-106745722D01*
X148015295Y-106716679D01*
X148058051Y-106675843D01*
X148094127Y-106646431D01*
X148183952Y-106595584D01*
X148268392Y-106580796D01*
X148344374Y-106599116D01*
X148408822Y-106647596D01*
X148458662Y-106723285D01*
X148490820Y-106823233D01*
X148502221Y-106944491D01*
X148670139Y-106944491D01*
X148661214Y-106811110D01*
X148626627Y-106677502D01*
X148567466Y-106571715D01*
X148482808Y-106491766D01*
X148433911Y-106462532D01*
X148356412Y-106439935D01*
X148264412Y-106438298D01*
X148171293Y-106455358D01*
X148090438Y-106488856D01*
X148041069Y-106528904D01*
X148012595Y-106554169D01*
X147998530Y-106559500D01*
X147992468Y-106541108D01*
X147987348Y-106490511D01*
X147983584Y-106414578D01*
X147981592Y-106320177D01*
X147981384Y-106276192D01*
X147981384Y-105992885D01*
X147825077Y-105992885D01*
X147825077Y-107438731D01*
G36*
X149204421Y-106443761D02*
G01*
X149092555Y-106480050D01*
X149006342Y-106543306D01*
X148943821Y-106635712D01*
X148903033Y-106759450D01*
X148897828Y-106785328D01*
X148886380Y-106848734D01*
X148881998Y-106895565D01*
X148889382Y-106928432D01*
X148913233Y-106949947D01*
X148958251Y-106962722D01*
X149029137Y-106969368D01*
X149130590Y-106972496D01*
X149237850Y-106974236D01*
X149573664Y-106979577D01*
X149567285Y-107057731D01*
X149542418Y-107160034D01*
X149488661Y-107238852D01*
X149409477Y-107292614D01*
X149308329Y-107319747D01*
X149188681Y-107318681D01*
X149057533Y-107288995D01*
X148981131Y-107270657D01*
X148935952Y-107275360D01*
X148921471Y-107303362D01*
X148934508Y-107349258D01*
X148972013Y-107389037D01*
X149039142Y-107420895D01*
X149127004Y-107443525D01*
X149226710Y-107455618D01*
X149329370Y-107455869D01*
X149426094Y-107442968D01*
X149476077Y-107428908D01*
X149556552Y-107384529D01*
X149632452Y-107315557D01*
X149691806Y-107234645D01*
X149718597Y-107172550D01*
X149728841Y-107115661D01*
X149736358Y-107035848D01*
X149739688Y-106949244D01*
X149739737Y-106939119D01*
X149737614Y-106852577D01*
X149579423Y-106852577D01*
X149317711Y-106852577D01*
X149205257Y-106851602D01*
X149127476Y-106848405D01*
X149080010Y-106842580D01*
X149058497Y-106833719D01*
X149056109Y-106828154D01*
X149067888Y-106758780D01*
X149097132Y-106684831D01*
X149135511Y-106626507D01*
X149141973Y-106619947D01*
X149206771Y-106581971D01*
X149289571Y-106563973D01*
X149373365Y-106568566D01*
X149407830Y-106579096D01*
X149476777Y-106626671D01*
X149532314Y-106701387D01*
X149564337Y-106785687D01*
X149579423Y-106852577D01*
X149737614Y-106852577D01*
X149737560Y-106850414D01*
X149728757Y-106785018D01*
X149710144Y-106727315D01*
X149686115Y-106676329D01*
X149610257Y-106565278D01*
X149514269Y-106487358D01*
X149400351Y-106443631D01*
X149270705Y-106435160D01*
X149204421Y-106443761D01*
G37*
X149204421Y-106443761D02*
X149092555Y-106480050D01*
X149006342Y-106543306D01*
X148943821Y-106635712D01*
X148903033Y-106759450D01*
X148897828Y-106785328D01*
X148886380Y-106848734D01*
X148881998Y-106895565D01*
X148889382Y-106928432D01*
X148913233Y-106949947D01*
X148958251Y-106962722D01*
X149029137Y-106969368D01*
X149130590Y-106972496D01*
X149237850Y-106974236D01*
X149573664Y-106979577D01*
X149567285Y-107057731D01*
X149542418Y-107160034D01*
X149488661Y-107238852D01*
X149409477Y-107292614D01*
X149308329Y-107319747D01*
X149188681Y-107318681D01*
X149057533Y-107288995D01*
X148981131Y-107270657D01*
X148935952Y-107275360D01*
X148921471Y-107303362D01*
X148934508Y-107349258D01*
X148972013Y-107389037D01*
X149039142Y-107420895D01*
X149127004Y-107443525D01*
X149226710Y-107455618D01*
X149329370Y-107455869D01*
X149426094Y-107442968D01*
X149476077Y-107428908D01*
X149556552Y-107384529D01*
X149632452Y-107315557D01*
X149691806Y-107234645D01*
X149718597Y-107172550D01*
X149728841Y-107115661D01*
X149736358Y-107035848D01*
X149739688Y-106949244D01*
X149739737Y-106939119D01*
X149737614Y-106852577D01*
X149579423Y-106852577D01*
X149317711Y-106852577D01*
X149205257Y-106851602D01*
X149127476Y-106848405D01*
X149080010Y-106842580D01*
X149058497Y-106833719D01*
X149056109Y-106828154D01*
X149067888Y-106758780D01*
X149097132Y-106684831D01*
X149135511Y-106626507D01*
X149141973Y-106619947D01*
X149206771Y-106581971D01*
X149289571Y-106563973D01*
X149373365Y-106568566D01*
X149407830Y-106579096D01*
X149476777Y-106626671D01*
X149532314Y-106701387D01*
X149564337Y-106785687D01*
X149579423Y-106852577D01*
X149737614Y-106852577D01*
X149737560Y-106850414D01*
X149728757Y-106785018D01*
X149710144Y-106727315D01*
X149686115Y-106676329D01*
X149610257Y-106565278D01*
X149514269Y-106487358D01*
X149400351Y-106443631D01*
X149270705Y-106435160D01*
X149204421Y-106443761D01*
G36*
X150956013Y-106451795D02*
G01*
X150849116Y-106498451D01*
X150767702Y-106573668D01*
X150713922Y-106675308D01*
X150689928Y-106801232D01*
X150688870Y-106830916D01*
X150687461Y-106960038D01*
X151024500Y-106965384D01*
X151146421Y-106967459D01*
X151234699Y-106969750D01*
X151294761Y-106973042D01*
X151332037Y-106978125D01*
X151351954Y-106985784D01*
X151359943Y-106996807D01*
X151361430Y-107011980D01*
X151361429Y-107014230D01*
X151345354Y-107114257D01*
X151302252Y-107206342D01*
X151263631Y-107253322D01*
X151223120Y-107286240D01*
X151178835Y-107305140D01*
X151116346Y-107315067D01*
X151078978Y-107317918D01*
X150938855Y-107313038D01*
X150860914Y-107294399D01*
X150788781Y-107271736D01*
X150745579Y-107265336D01*
X150724095Y-107276605D01*
X150717118Y-107306948D01*
X150716769Y-107322497D01*
X150722775Y-107364471D01*
X150747749Y-107391993D01*
X150790038Y-107412954D01*
X150844637Y-107428560D01*
X150923217Y-107442088D01*
X151010684Y-107451067D01*
X151029384Y-107452175D01*
X151116654Y-107455040D01*
X151178836Y-107451748D01*
X151229704Y-107440257D01*
X151283031Y-107418528D01*
X151295098Y-107412825D01*
X151397294Y-107343434D01*
X151471865Y-107246656D01*
X151518541Y-107123007D01*
X151537053Y-106973008D01*
X151537384Y-106947847D01*
X151524173Y-106815730D01*
X151361012Y-106815730D01*
X151349625Y-106835245D01*
X151317096Y-106846264D01*
X151258328Y-106851215D01*
X151168222Y-106852527D01*
X151107538Y-106852577D01*
X150853538Y-106852577D01*
X150853611Y-106789077D01*
X150871253Y-106702440D01*
X150919364Y-106632377D01*
X150991039Y-106584041D01*
X151079376Y-106562587D01*
X151151077Y-106566984D01*
X151223391Y-106597897D01*
X151289280Y-106656431D01*
X151336732Y-106731532D01*
X151340757Y-106741503D01*
X151356357Y-106785292D01*
X151361012Y-106815730D01*
X151524173Y-106815730D01*
X151522378Y-106797782D01*
X151478857Y-106670237D01*
X151409066Y-106567761D01*
X151315251Y-106492902D01*
X151199655Y-106448208D01*
X151086241Y-106435839D01*
X150956013Y-106451795D01*
G37*
X150956013Y-106451795D02*
X150849116Y-106498451D01*
X150767702Y-106573668D01*
X150713922Y-106675308D01*
X150689928Y-106801232D01*
X150688870Y-106830916D01*
X150687461Y-106960038D01*
X151024500Y-106965384D01*
X151146421Y-106967459D01*
X151234699Y-106969750D01*
X151294761Y-106973042D01*
X151332037Y-106978125D01*
X151351954Y-106985784D01*
X151359943Y-106996807D01*
X151361430Y-107011980D01*
X151361429Y-107014230D01*
X151345354Y-107114257D01*
X151302252Y-107206342D01*
X151263631Y-107253322D01*
X151223120Y-107286240D01*
X151178835Y-107305140D01*
X151116346Y-107315067D01*
X151078978Y-107317918D01*
X150938855Y-107313038D01*
X150860914Y-107294399D01*
X150788781Y-107271736D01*
X150745579Y-107265336D01*
X150724095Y-107276605D01*
X150717118Y-107306948D01*
X150716769Y-107322497D01*
X150722775Y-107364471D01*
X150747749Y-107391993D01*
X150790038Y-107412954D01*
X150844637Y-107428560D01*
X150923217Y-107442088D01*
X151010684Y-107451067D01*
X151029384Y-107452175D01*
X151116654Y-107455040D01*
X151178836Y-107451748D01*
X151229704Y-107440257D01*
X151283031Y-107418528D01*
X151295098Y-107412825D01*
X151397294Y-107343434D01*
X151471865Y-107246656D01*
X151518541Y-107123007D01*
X151537053Y-106973008D01*
X151537384Y-106947847D01*
X151524173Y-106815730D01*
X151361012Y-106815730D01*
X151349625Y-106835245D01*
X151317096Y-106846264D01*
X151258328Y-106851215D01*
X151168222Y-106852527D01*
X151107538Y-106852577D01*
X150853538Y-106852577D01*
X150853611Y-106789077D01*
X150871253Y-106702440D01*
X150919364Y-106632377D01*
X150991039Y-106584041D01*
X151079376Y-106562587D01*
X151151077Y-106566984D01*
X151223391Y-106597897D01*
X151289280Y-106656431D01*
X151336732Y-106731532D01*
X151340757Y-106741503D01*
X151356357Y-106785292D01*
X151361012Y-106815730D01*
X151524173Y-106815730D01*
X151522378Y-106797782D01*
X151478857Y-106670237D01*
X151409066Y-106567761D01*
X151315251Y-106492902D01*
X151199655Y-106448208D01*
X151086241Y-106435839D01*
X150956013Y-106451795D01*
G36*
X153568037Y-106451245D02*
G01*
X153452285Y-106493822D01*
X153362658Y-106565448D01*
X153299143Y-106666137D01*
X153261727Y-106795903D01*
X153250398Y-106954761D01*
X153250400Y-106954869D01*
X153266943Y-107103884D01*
X153312394Y-107229982D01*
X153385252Y-107330900D01*
X153484018Y-107404370D01*
X153570956Y-107439181D01*
X153668481Y-107454943D01*
X153778848Y-107454400D01*
X153880943Y-107438144D01*
X153908275Y-107429769D01*
X154012234Y-107373312D01*
X154090778Y-107287521D01*
X154143430Y-107173150D01*
X154169713Y-107030951D01*
X154170835Y-107015810D01*
X154169727Y-106954526D01*
X153999200Y-106954526D01*
X153990416Y-107075701D01*
X153962244Y-107168227D01*
X153911870Y-107238844D01*
X153864456Y-107277149D01*
X153775092Y-107314948D01*
X153678742Y-107318894D01*
X153587287Y-107288975D01*
X153568446Y-107277472D01*
X153500354Y-107219906D01*
X153456264Y-107151143D01*
X153432592Y-107062745D01*
X153425754Y-106946275D01*
X153425776Y-106941549D01*
X153435967Y-106808323D01*
X153465761Y-106707655D01*
X153516843Y-106637377D01*
X153590894Y-106595323D01*
X153689599Y-106579325D01*
X153707289Y-106579038D01*
X153813449Y-106593393D01*
X153895142Y-106636952D01*
X153952944Y-106710459D01*
X153987435Y-106814659D01*
X153999192Y-106950295D01*
X153999200Y-106954526D01*
X154169727Y-106954526D01*
X154167886Y-106852771D01*
X154136810Y-106714859D01*
X154078590Y-106603309D01*
X153994210Y-106519353D01*
X153884654Y-106464226D01*
X153750905Y-106439162D01*
X153709926Y-106437703D01*
X153568037Y-106451245D01*
G37*
X153568037Y-106451245D02*
X153452285Y-106493822D01*
X153362658Y-106565448D01*
X153299143Y-106666137D01*
X153261727Y-106795903D01*
X153250398Y-106954761D01*
X153250400Y-106954869D01*
X153266943Y-107103884D01*
X153312394Y-107229982D01*
X153385252Y-107330900D01*
X153484018Y-107404370D01*
X153570956Y-107439181D01*
X153668481Y-107454943D01*
X153778848Y-107454400D01*
X153880943Y-107438144D01*
X153908275Y-107429769D01*
X154012234Y-107373312D01*
X154090778Y-107287521D01*
X154143430Y-107173150D01*
X154169713Y-107030951D01*
X154170835Y-107015810D01*
X154169727Y-106954526D01*
X153999200Y-106954526D01*
X153990416Y-107075701D01*
X153962244Y-107168227D01*
X153911870Y-107238844D01*
X153864456Y-107277149D01*
X153775092Y-107314948D01*
X153678742Y-107318894D01*
X153587287Y-107288975D01*
X153568446Y-107277472D01*
X153500354Y-107219906D01*
X153456264Y-107151143D01*
X153432592Y-107062745D01*
X153425754Y-106946275D01*
X153425776Y-106941549D01*
X153435967Y-106808323D01*
X153465761Y-106707655D01*
X153516843Y-106637377D01*
X153590894Y-106595323D01*
X153689599Y-106579325D01*
X153707289Y-106579038D01*
X153813449Y-106593393D01*
X153895142Y-106636952D01*
X153952944Y-106710459D01*
X153987435Y-106814659D01*
X153999192Y-106950295D01*
X153999200Y-106954526D01*
X154169727Y-106954526D01*
X154167886Y-106852771D01*
X154136810Y-106714859D01*
X154078590Y-106603309D01*
X153994210Y-106519353D01*
X153884654Y-106464226D01*
X153750905Y-106439162D01*
X153709926Y-106437703D01*
X153568037Y-106451245D01*
G36*
X145155200Y-106453427D02*
G01*
X145135575Y-106472252D01*
X145139813Y-106495337D01*
X145155616Y-106549988D01*
X145181188Y-106631049D01*
X145214734Y-106733362D01*
X145254458Y-106851773D01*
X145298567Y-106981124D01*
X145345264Y-107116258D01*
X145392755Y-107252020D01*
X145439245Y-107383254D01*
X145482937Y-107504802D01*
X145522038Y-107611508D01*
X145554752Y-107698217D01*
X145579283Y-107759770D01*
X145593838Y-107791014D01*
X145595466Y-107793249D01*
X145629994Y-107809899D01*
X145682450Y-107819088D01*
X145732005Y-107818335D01*
X145751953Y-107811905D01*
X145762557Y-107797469D01*
X145761846Y-107769865D01*
X145748317Y-107722246D01*
X145720467Y-107647765D01*
X145710348Y-107622285D01*
X145674234Y-107524597D01*
X145656972Y-107458590D01*
X145657996Y-107422038D01*
X145659011Y-107420038D01*
X145676335Y-107383382D01*
X145702869Y-107318732D01*
X145736443Y-107232157D01*
X145774890Y-107129726D01*
X145816040Y-107017510D01*
X145857723Y-106901576D01*
X145897771Y-106787995D01*
X145934015Y-106682836D01*
X145964285Y-106592167D01*
X145986414Y-106522059D01*
X145998231Y-106478580D01*
X145999399Y-106467575D01*
X145972578Y-106448012D01*
X145915349Y-106445965D01*
X145841923Y-106452038D01*
X145705154Y-106837647D01*
X145663884Y-106952462D01*
X145626452Y-107053690D01*
X145594945Y-107135921D01*
X145571450Y-107193744D01*
X145558055Y-107221750D01*
X145556277Y-107223532D01*
X145546670Y-107205983D01*
X145526963Y-107156889D01*
X145499214Y-107081839D01*
X145465481Y-106986426D01*
X145427823Y-106876240D01*
X145421520Y-106857461D01*
X145382809Y-106743419D01*
X145347153Y-106641342D01*
X145316768Y-106557334D01*
X145293865Y-106497499D01*
X145280659Y-106467939D01*
X145279813Y-106466692D01*
X145245828Y-106447255D01*
X145198348Y-106443063D01*
X145155200Y-106453427D01*
G37*
X145155200Y-106453427D02*
X145135575Y-106472252D01*
X145139813Y-106495337D01*
X145155616Y-106549988D01*
X145181188Y-106631049D01*
X145214734Y-106733362D01*
X145254458Y-106851773D01*
X145298567Y-106981124D01*
X145345264Y-107116258D01*
X145392755Y-107252020D01*
X145439245Y-107383254D01*
X145482937Y-107504802D01*
X145522038Y-107611508D01*
X145554752Y-107698217D01*
X145579283Y-107759770D01*
X145593838Y-107791014D01*
X145595466Y-107793249D01*
X145629994Y-107809899D01*
X145682450Y-107819088D01*
X145732005Y-107818335D01*
X145751953Y-107811905D01*
X145762557Y-107797469D01*
X145761846Y-107769865D01*
X145748317Y-107722246D01*
X145720467Y-107647765D01*
X145710348Y-107622285D01*
X145674234Y-107524597D01*
X145656972Y-107458590D01*
X145657996Y-107422038D01*
X145659011Y-107420038D01*
X145676335Y-107383382D01*
X145702869Y-107318732D01*
X145736443Y-107232157D01*
X145774890Y-107129726D01*
X145816040Y-107017510D01*
X145857723Y-106901576D01*
X145897771Y-106787995D01*
X145934015Y-106682836D01*
X145964285Y-106592167D01*
X145986414Y-106522059D01*
X145998231Y-106478580D01*
X145999399Y-106467575D01*
X145972578Y-106448012D01*
X145915349Y-106445965D01*
X145841923Y-106452038D01*
X145705154Y-106837647D01*
X145663884Y-106952462D01*
X145626452Y-107053690D01*
X145594945Y-107135921D01*
X145571450Y-107193744D01*
X145558055Y-107221750D01*
X145556277Y-107223532D01*
X145546670Y-107205983D01*
X145526963Y-107156889D01*
X145499214Y-107081839D01*
X145465481Y-106986426D01*
X145427823Y-106876240D01*
X145421520Y-106857461D01*
X145382809Y-106743419D01*
X145347153Y-106641342D01*
X145316768Y-106557334D01*
X145293865Y-106497499D01*
X145280659Y-106467939D01*
X145279813Y-106466692D01*
X145245828Y-106447255D01*
X145198348Y-106443063D01*
X145155200Y-106453427D01*
G36*
X147377476Y-108125466D02*
G01*
X147330016Y-108139269D01*
X147320984Y-108146023D01*
X147302805Y-108186482D01*
X147298433Y-108245289D01*
X147307214Y-108304489D01*
X147328241Y-108345874D01*
X147373581Y-108368573D01*
X147436549Y-108375788D01*
X147498894Y-108367517D01*
X147540373Y-108345874D01*
X147561876Y-108305487D01*
X147571072Y-108250750D01*
X147571077Y-108249577D01*
X147562237Y-108194800D01*
X147540920Y-108153838D01*
X147540373Y-108153280D01*
X147499642Y-108133033D01*
X147439681Y-108123574D01*
X147377476Y-108125466D01*
G37*
X147377476Y-108125466D02*
X147330016Y-108139269D01*
X147320984Y-108146023D01*
X147302805Y-108186482D01*
X147298433Y-108245289D01*
X147307214Y-108304489D01*
X147328241Y-108345874D01*
X147373581Y-108368573D01*
X147436549Y-108375788D01*
X147498894Y-108367517D01*
X147540373Y-108345874D01*
X147561876Y-108305487D01*
X147571072Y-108250750D01*
X147571077Y-108249577D01*
X147562237Y-108194800D01*
X147540920Y-108153838D01*
X147540373Y-108153280D01*
X147499642Y-108133033D01*
X147439681Y-108123574D01*
X147377476Y-108125466D01*
G36*
X139701961Y-108623353D02*
G01*
X139676200Y-108634993D01*
X139663009Y-108659145D01*
X139658369Y-108706501D01*
X139658000Y-108740317D01*
X139660303Y-108804987D01*
X139672881Y-108837092D01*
X139704233Y-108843104D01*
X139762862Y-108829494D01*
X139771795Y-108826947D01*
X139855960Y-108822242D01*
X139941062Y-108856254D01*
X140027309Y-108929102D01*
X140094516Y-109011577D01*
X140108410Y-109033163D01*
X140119084Y-109057956D01*
X140127124Y-109091462D01*
X140133116Y-109139184D01*
X140137645Y-109206629D01*
X140141296Y-109299302D01*
X140144654Y-109422707D01*
X140146461Y-109500038D01*
X140156230Y-109929885D01*
X140244881Y-109935670D01*
X140301092Y-109936327D01*
X140339813Y-109931253D01*
X140347458Y-109927529D01*
X140350804Y-109905316D01*
X140353861Y-109848721D01*
X140356529Y-109762437D01*
X140358710Y-109651158D01*
X140360304Y-109519579D01*
X140361211Y-109372394D01*
X140361384Y-109271019D01*
X140361384Y-108628436D01*
X140268577Y-108634391D01*
X140175769Y-108640346D01*
X140166000Y-108737132D01*
X140156230Y-108833918D01*
X140104285Y-108771947D01*
X140007201Y-108679923D01*
X139902335Y-108625879D01*
X139790295Y-108610039D01*
X139701961Y-108623353D01*
G37*
X139701961Y-108623353D02*
X139676200Y-108634993D01*
X139663009Y-108659145D01*
X139658369Y-108706501D01*
X139658000Y-108740317D01*
X139660303Y-108804987D01*
X139672881Y-108837092D01*
X139704233Y-108843104D01*
X139762862Y-108829494D01*
X139771795Y-108826947D01*
X139855960Y-108822242D01*
X139941062Y-108856254D01*
X140027309Y-108929102D01*
X140094516Y-109011577D01*
X140108410Y-109033163D01*
X140119084Y-109057956D01*
X140127124Y-109091462D01*
X140133116Y-109139184D01*
X140137645Y-109206629D01*
X140141296Y-109299302D01*
X140144654Y-109422707D01*
X140146461Y-109500038D01*
X140156230Y-109929885D01*
X140244881Y-109935670D01*
X140301092Y-109936327D01*
X140339813Y-109931253D01*
X140347458Y-109927529D01*
X140350804Y-109905316D01*
X140353861Y-109848721D01*
X140356529Y-109762437D01*
X140358710Y-109651158D01*
X140360304Y-109519579D01*
X140361211Y-109372394D01*
X140361384Y-109271019D01*
X140361384Y-108628436D01*
X140268577Y-108634391D01*
X140175769Y-108640346D01*
X140166000Y-108737132D01*
X140156230Y-108833918D01*
X140104285Y-108771947D01*
X140007201Y-108679923D01*
X139902335Y-108625879D01*
X139790295Y-108610039D01*
X139701961Y-108623353D01*
G36*
X143558446Y-108791769D02*
G01*
X143536791Y-108864291D01*
X143507202Y-108964546D01*
X143472560Y-109082719D01*
X143435743Y-109208991D01*
X143406574Y-109309538D01*
X143373870Y-109420674D01*
X143344289Y-109517674D01*
X143319677Y-109594756D01*
X143301885Y-109646141D01*
X143292760Y-109666048D01*
X143292529Y-109666115D01*
X143284826Y-109648031D01*
X143268573Y-109597013D01*
X143245176Y-109517918D01*
X143216038Y-109415599D01*
X143182564Y-109294913D01*
X143146159Y-109160715D01*
X143144151Y-109153231D01*
X143006634Y-108640346D01*
X142794376Y-108640346D01*
X142643912Y-109158115D01*
X142604512Y-109293727D01*
X142568781Y-109416773D01*
X142538140Y-109522352D01*
X142514012Y-109605561D01*
X142497818Y-109661497D01*
X142490982Y-109685258D01*
X142490873Y-109685654D01*
X142484983Y-109670742D01*
X142469953Y-109623527D01*
X142447379Y-109549282D01*
X142418854Y-109453278D01*
X142385974Y-109340785D01*
X142372690Y-109294885D01*
X142335443Y-109166141D01*
X142299130Y-109041170D01*
X142266119Y-108928078D01*
X142238777Y-108834977D01*
X142219472Y-108769974D01*
X142217209Y-108762461D01*
X142177337Y-108630577D01*
X142081360Y-108630577D01*
X142023537Y-108633898D01*
X141983692Y-108642353D01*
X141974431Y-108648297D01*
X141977458Y-108670303D01*
X141990752Y-108724198D01*
X142012690Y-108804645D01*
X142041649Y-108906311D01*
X142076009Y-109023858D01*
X142114145Y-109151951D01*
X142154437Y-109285255D01*
X142195261Y-109418434D01*
X142234995Y-109546152D01*
X142272017Y-109663074D01*
X142304704Y-109763864D01*
X142331435Y-109843187D01*
X142350587Y-109895706D01*
X142359650Y-109915231D01*
X142389927Y-109929837D01*
X142446025Y-109938437D01*
X142479965Y-109939654D01*
X142544577Y-109935112D01*
X142596277Y-109923539D01*
X142613204Y-109915231D01*
X142628833Y-109888639D01*
X142652736Y-109828637D01*
X142683401Y-109739643D01*
X142719316Y-109626080D01*
X142758969Y-109492367D01*
X142765116Y-109470951D01*
X142800579Y-109347942D01*
X142833180Y-109236852D01*
X142861179Y-109143452D01*
X142882837Y-109073509D01*
X142896413Y-109032794D01*
X142899435Y-109025523D01*
X142908368Y-109035997D01*
X142925587Y-109080082D01*
X142949737Y-109153517D01*
X142979461Y-109252044D01*
X143013402Y-109371404D01*
X143036246Y-109455034D01*
X143071368Y-109582716D01*
X143104451Y-109697763D01*
X143133829Y-109794793D01*
X143157839Y-109868424D01*
X143174814Y-109913275D01*
X143181488Y-109924586D01*
X143217177Y-109934056D01*
X143275591Y-109938355D01*
X143340734Y-109937572D01*
X143396610Y-109931795D01*
X143424519Y-109923250D01*
X143435456Y-109901826D01*
X143455819Y-109848325D01*
X143483916Y-109768133D01*
X143518051Y-109666634D01*
X143556530Y-109549212D01*
X143597659Y-109421253D01*
X143639745Y-109288141D01*
X143681093Y-109155261D01*
X143720009Y-109027997D01*
X143754798Y-108911734D01*
X143783767Y-108811857D01*
X143805221Y-108733751D01*
X143817467Y-108682800D01*
X143819692Y-108667220D01*
X143814206Y-108645840D01*
X143791676Y-108634760D01*
X143742999Y-108630842D01*
X143713413Y-108630577D01*
X143607134Y-108630577D01*
X143558446Y-108791769D01*
G37*
X143558446Y-108791769D02*
X143536791Y-108864291D01*
X143507202Y-108964546D01*
X143472560Y-109082719D01*
X143435743Y-109208991D01*
X143406574Y-109309538D01*
X143373870Y-109420674D01*
X143344289Y-109517674D01*
X143319677Y-109594756D01*
X143301885Y-109646141D01*
X143292760Y-109666048D01*
X143292529Y-109666115D01*
X143284826Y-109648031D01*
X143268573Y-109597013D01*
X143245176Y-109517918D01*
X143216038Y-109415599D01*
X143182564Y-109294913D01*
X143146159Y-109160715D01*
X143144151Y-109153231D01*
X143006634Y-108640346D01*
X142794376Y-108640346D01*
X142643912Y-109158115D01*
X142604512Y-109293727D01*
X142568781Y-109416773D01*
X142538140Y-109522352D01*
X142514012Y-109605561D01*
X142497818Y-109661497D01*
X142490982Y-109685258D01*
X142490873Y-109685654D01*
X142484983Y-109670742D01*
X142469953Y-109623527D01*
X142447379Y-109549282D01*
X142418854Y-109453278D01*
X142385974Y-109340785D01*
X142372690Y-109294885D01*
X142335443Y-109166141D01*
X142299130Y-109041170D01*
X142266119Y-108928078D01*
X142238777Y-108834977D01*
X142219472Y-108769974D01*
X142217209Y-108762461D01*
X142177337Y-108630577D01*
X142081360Y-108630577D01*
X142023537Y-108633898D01*
X141983692Y-108642353D01*
X141974431Y-108648297D01*
X141977458Y-108670303D01*
X141990752Y-108724198D01*
X142012690Y-108804645D01*
X142041649Y-108906311D01*
X142076009Y-109023858D01*
X142114145Y-109151951D01*
X142154437Y-109285255D01*
X142195261Y-109418434D01*
X142234995Y-109546152D01*
X142272017Y-109663074D01*
X142304704Y-109763864D01*
X142331435Y-109843187D01*
X142350587Y-109895706D01*
X142359650Y-109915231D01*
X142389927Y-109929837D01*
X142446025Y-109938437D01*
X142479965Y-109939654D01*
X142544577Y-109935112D01*
X142596277Y-109923539D01*
X142613204Y-109915231D01*
X142628833Y-109888639D01*
X142652736Y-109828637D01*
X142683401Y-109739643D01*
X142719316Y-109626080D01*
X142758969Y-109492367D01*
X142765116Y-109470951D01*
X142800579Y-109347942D01*
X142833180Y-109236852D01*
X142861179Y-109143452D01*
X142882837Y-109073509D01*
X142896413Y-109032794D01*
X142899435Y-109025523D01*
X142908368Y-109035997D01*
X142925587Y-109080082D01*
X142949737Y-109153517D01*
X142979461Y-109252044D01*
X143013402Y-109371404D01*
X143036246Y-109455034D01*
X143071368Y-109582716D01*
X143104451Y-109697763D01*
X143133829Y-109794793D01*
X143157839Y-109868424D01*
X143174814Y-109913275D01*
X143181488Y-109924586D01*
X143217177Y-109934056D01*
X143275591Y-109938355D01*
X143340734Y-109937572D01*
X143396610Y-109931795D01*
X143424519Y-109923250D01*
X143435456Y-109901826D01*
X143455819Y-109848325D01*
X143483916Y-109768133D01*
X143518051Y-109666634D01*
X143556530Y-109549212D01*
X143597659Y-109421253D01*
X143639745Y-109288141D01*
X143681093Y-109155261D01*
X143720009Y-109027997D01*
X143754798Y-108911734D01*
X143783767Y-108811857D01*
X143805221Y-108733751D01*
X143817467Y-108682800D01*
X143819692Y-108667220D01*
X143814206Y-108645840D01*
X143791676Y-108634760D01*
X143742999Y-108630842D01*
X143713413Y-108630577D01*
X143607134Y-108630577D01*
X143558446Y-108791769D01*
G36*
X145272740Y-108615161D02*
G01*
X145149370Y-108638572D01*
X145050375Y-108692517D01*
X144975710Y-108777019D01*
X144971438Y-108784005D01*
X144932336Y-108849510D01*
X144846879Y-108770739D01*
X144747364Y-108689442D01*
X144655425Y-108639224D01*
X144561450Y-108616068D01*
X144473234Y-108614636D01*
X144349996Y-108637333D01*
X144252037Y-108689082D01*
X144176819Y-108771491D01*
X144149328Y-108819788D01*
X144135270Y-108849613D01*
X144124386Y-108878498D01*
X144116272Y-108911723D01*
X144110522Y-108954564D01*
X144106728Y-109012300D01*
X144104486Y-109090208D01*
X144103388Y-109193566D01*
X144103029Y-109327653D01*
X144103000Y-109421885D01*
X144103000Y-109929885D01*
X144298384Y-109929885D01*
X144308621Y-109460961D01*
X144312716Y-109297916D01*
X144317718Y-109169094D01*
X144324606Y-109069644D01*
X144334358Y-108994712D01*
X144347955Y-108939446D01*
X144366374Y-108898993D01*
X144390595Y-108868501D01*
X144421597Y-108843116D01*
X144435113Y-108833961D01*
X144516111Y-108802543D01*
X144604341Y-108808869D01*
X144698500Y-108852546D01*
X144797287Y-108933183D01*
X144810891Y-108946864D01*
X144893551Y-109031823D01*
X144904077Y-109929885D01*
X145099461Y-109929885D01*
X145110117Y-109470731D01*
X145114662Y-109305050D01*
X145120333Y-109173675D01*
X145128025Y-109071836D01*
X145138633Y-108994762D01*
X145153051Y-108937685D01*
X145172175Y-108895833D01*
X145196898Y-108864436D01*
X145228117Y-108838725D01*
X145228745Y-108838284D01*
X145292278Y-108813339D01*
X145371984Y-108808086D01*
X145450112Y-108822819D01*
X145476547Y-108834164D01*
X145519393Y-108863607D01*
X145574042Y-108910155D01*
X145611967Y-108946864D01*
X145694628Y-109031823D01*
X145705154Y-109929885D01*
X145793804Y-109935670D01*
X145850015Y-109936327D01*
X145888736Y-109931253D01*
X145896381Y-109927529D01*
X145899727Y-109905316D01*
X145902784Y-109848721D01*
X145905453Y-109762437D01*
X145907634Y-109651158D01*
X145909227Y-109519579D01*
X145910134Y-109372394D01*
X145910307Y-109271019D01*
X145910307Y-108628436D01*
X145817500Y-108634391D01*
X145724692Y-108640346D01*
X145712664Y-108828856D01*
X145627189Y-108750068D01*
X145531373Y-108674398D01*
X145438090Y-108630611D01*
X145335565Y-108614225D01*
X145272740Y-108615161D01*
G37*
X145272740Y-108615161D02*
X145149370Y-108638572D01*
X145050375Y-108692517D01*
X144975710Y-108777019D01*
X144971438Y-108784005D01*
X144932336Y-108849510D01*
X144846879Y-108770739D01*
X144747364Y-108689442D01*
X144655425Y-108639224D01*
X144561450Y-108616068D01*
X144473234Y-108614636D01*
X144349996Y-108637333D01*
X144252037Y-108689082D01*
X144176819Y-108771491D01*
X144149328Y-108819788D01*
X144135270Y-108849613D01*
X144124386Y-108878498D01*
X144116272Y-108911723D01*
X144110522Y-108954564D01*
X144106728Y-109012300D01*
X144104486Y-109090208D01*
X144103388Y-109193566D01*
X144103029Y-109327653D01*
X144103000Y-109421885D01*
X144103000Y-109929885D01*
X144298384Y-109929885D01*
X144308621Y-109460961D01*
X144312716Y-109297916D01*
X144317718Y-109169094D01*
X144324606Y-109069644D01*
X144334358Y-108994712D01*
X144347955Y-108939446D01*
X144366374Y-108898993D01*
X144390595Y-108868501D01*
X144421597Y-108843116D01*
X144435113Y-108833961D01*
X144516111Y-108802543D01*
X144604341Y-108808869D01*
X144698500Y-108852546D01*
X144797287Y-108933183D01*
X144810891Y-108946864D01*
X144893551Y-109031823D01*
X144904077Y-109929885D01*
X145099461Y-109929885D01*
X145110117Y-109470731D01*
X145114662Y-109305050D01*
X145120333Y-109173675D01*
X145128025Y-109071836D01*
X145138633Y-108994762D01*
X145153051Y-108937685D01*
X145172175Y-108895833D01*
X145196898Y-108864436D01*
X145228117Y-108838725D01*
X145228745Y-108838284D01*
X145292278Y-108813339D01*
X145371984Y-108808086D01*
X145450112Y-108822819D01*
X145476547Y-108834164D01*
X145519393Y-108863607D01*
X145574042Y-108910155D01*
X145611967Y-108946864D01*
X145694628Y-109031823D01*
X145705154Y-109929885D01*
X145793804Y-109935670D01*
X145850015Y-109936327D01*
X145888736Y-109931253D01*
X145896381Y-109927529D01*
X145899727Y-109905316D01*
X145902784Y-109848721D01*
X145905453Y-109762437D01*
X145907634Y-109651158D01*
X145909227Y-109519579D01*
X145910134Y-109372394D01*
X145910307Y-109271019D01*
X145910307Y-108628436D01*
X145817500Y-108634391D01*
X145724692Y-108640346D01*
X145712664Y-108828856D01*
X145627189Y-108750068D01*
X145531373Y-108674398D01*
X145438090Y-108630611D01*
X145335565Y-108614225D01*
X145272740Y-108615161D01*
G36*
X146272343Y-108615493D02*
G01*
X146220717Y-108632616D01*
X146193668Y-108668047D01*
X146184263Y-108727426D01*
X146183846Y-108750669D01*
X146183846Y-108849849D01*
X146257115Y-108834579D01*
X146352047Y-108821466D01*
X146427192Y-108829942D01*
X146492559Y-108864112D01*
X146558155Y-108928078D01*
X146594445Y-108972878D01*
X146672307Y-109073802D01*
X146672307Y-109494868D01*
X146672313Y-109637713D01*
X146673216Y-109746200D01*
X146676345Y-109825046D01*
X146683030Y-109878969D01*
X146694600Y-109912685D01*
X146712384Y-109930911D01*
X146737712Y-109938364D01*
X146771912Y-109939760D01*
X146797649Y-109939654D01*
X146845362Y-109935992D01*
X146873656Y-109927130D01*
X146874205Y-109926628D01*
X146877334Y-109904638D01*
X146880193Y-109848257D01*
X146882689Y-109762169D01*
X146884728Y-109651062D01*
X146886219Y-109519619D01*
X146887068Y-109372526D01*
X146887230Y-109271019D01*
X146887230Y-108628436D01*
X146794423Y-108634391D01*
X146701615Y-108640346D01*
X146691846Y-108738038D01*
X146682077Y-108835731D01*
X146643760Y-108779135D01*
X146566399Y-108693475D01*
X146472824Y-108635925D01*
X146371685Y-108611528D01*
X146355476Y-108611038D01*
X146272343Y-108615493D01*
G37*
X146272343Y-108615493D02*
X146220717Y-108632616D01*
X146193668Y-108668047D01*
X146184263Y-108727426D01*
X146183846Y-108750669D01*
X146183846Y-108849849D01*
X146257115Y-108834579D01*
X146352047Y-108821466D01*
X146427192Y-108829942D01*
X146492559Y-108864112D01*
X146558155Y-108928078D01*
X146594445Y-108972878D01*
X146672307Y-109073802D01*
X146672307Y-109494868D01*
X146672313Y-109637713D01*
X146673216Y-109746200D01*
X146676345Y-109825046D01*
X146683030Y-109878969D01*
X146694600Y-109912685D01*
X146712384Y-109930911D01*
X146737712Y-109938364D01*
X146771912Y-109939760D01*
X146797649Y-109939654D01*
X146845362Y-109935992D01*
X146873656Y-109927130D01*
X146874205Y-109926628D01*
X146877334Y-109904638D01*
X146880193Y-109848257D01*
X146882689Y-109762169D01*
X146884728Y-109651062D01*
X146886219Y-109519619D01*
X146887068Y-109372526D01*
X146887230Y-109271019D01*
X146887230Y-108628436D01*
X146794423Y-108634391D01*
X146701615Y-108640346D01*
X146691846Y-108738038D01*
X146682077Y-108835731D01*
X146643760Y-108779135D01*
X146566399Y-108693475D01*
X146472824Y-108635925D01*
X146371685Y-108611528D01*
X146355476Y-108611038D01*
X146272343Y-108615493D01*
G36*
X147429423Y-108634440D02*
G01*
X147326846Y-108640346D01*
X147321686Y-109274023D01*
X147320523Y-109456937D01*
X147320387Y-109604121D01*
X147321381Y-109718910D01*
X147323603Y-109804638D01*
X147327154Y-109864642D01*
X147332135Y-109902256D01*
X147338646Y-109920816D01*
X147341224Y-109923377D01*
X147377043Y-109934133D01*
X147429772Y-109938829D01*
X147481964Y-109937148D01*
X147516174Y-109928769D01*
X147518974Y-109926628D01*
X147522103Y-109904638D01*
X147524962Y-109848257D01*
X147527458Y-109762170D01*
X147529498Y-109651063D01*
X147530989Y-109519622D01*
X147531837Y-109372532D01*
X147532000Y-109271069D01*
X147532000Y-108628535D01*
X147429423Y-108634440D01*
G37*
X147429423Y-108634440D02*
X147326846Y-108640346D01*
X147321686Y-109274023D01*
X147320523Y-109456937D01*
X147320387Y-109604121D01*
X147321381Y-109718910D01*
X147323603Y-109804638D01*
X147327154Y-109864642D01*
X147332135Y-109902256D01*
X147338646Y-109920816D01*
X147341224Y-109923377D01*
X147377043Y-109934133D01*
X147429772Y-109938829D01*
X147481964Y-109937148D01*
X147516174Y-109928769D01*
X147518974Y-109926628D01*
X147522103Y-109904638D01*
X147524962Y-109848257D01*
X147527458Y-109762170D01*
X147529498Y-109651063D01*
X147530989Y-109519622D01*
X147531837Y-109372532D01*
X147532000Y-109271069D01*
X147532000Y-108628535D01*
X147429423Y-108634440D01*
G36*
X148320838Y-108166151D02*
G01*
X147893461Y-108171423D01*
X147893461Y-108347269D01*
X148230500Y-108352615D01*
X148567538Y-108357961D01*
X148567538Y-108961763D01*
X148250038Y-108967131D01*
X147932538Y-108972500D01*
X147932538Y-109148346D01*
X148250038Y-109153715D01*
X148567538Y-109159083D01*
X148567538Y-109525922D01*
X148568492Y-109671705D01*
X148571459Y-109781136D01*
X148576602Y-109856897D01*
X148584081Y-109901671D01*
X148590984Y-109916208D01*
X148623306Y-109930036D01*
X148676222Y-109938032D01*
X148733010Y-109939315D01*
X148776948Y-109933005D01*
X148788974Y-109926628D01*
X148791700Y-109904960D01*
X148794233Y-109848253D01*
X148796511Y-109760543D01*
X148798474Y-109645869D01*
X148800062Y-109508268D01*
X148801214Y-109351776D01*
X148801869Y-109180433D01*
X148802000Y-109059559D01*
X148801811Y-108848479D01*
X148801179Y-108673288D01*
X148800005Y-108530799D01*
X148798194Y-108417825D01*
X148795645Y-108331181D01*
X148792262Y-108267678D01*
X148787947Y-108224132D01*
X148782603Y-108197354D01*
X148776130Y-108184159D01*
X148775107Y-108183197D01*
X148749271Y-108175069D01*
X148692931Y-108169381D01*
X148603957Y-108166055D01*
X148480214Y-108165010D01*
X148320838Y-108166151D01*
G37*
X148320838Y-108166151D02*
X147893461Y-108171423D01*
X147893461Y-108347269D01*
X148230500Y-108352615D01*
X148567538Y-108357961D01*
X148567538Y-108961763D01*
X148250038Y-108967131D01*
X147932538Y-108972500D01*
X147932538Y-109148346D01*
X148250038Y-109153715D01*
X148567538Y-109159083D01*
X148567538Y-109525922D01*
X148568492Y-109671705D01*
X148571459Y-109781136D01*
X148576602Y-109856897D01*
X148584081Y-109901671D01*
X148590984Y-109916208D01*
X148623306Y-109930036D01*
X148676222Y-109938032D01*
X148733010Y-109939315D01*
X148776948Y-109933005D01*
X148788974Y-109926628D01*
X148791700Y-109904960D01*
X148794233Y-109848253D01*
X148796511Y-109760543D01*
X148798474Y-109645869D01*
X148800062Y-109508268D01*
X148801214Y-109351776D01*
X148801869Y-109180433D01*
X148802000Y-109059559D01*
X148801811Y-108848479D01*
X148801179Y-108673288D01*
X148800005Y-108530799D01*
X148798194Y-108417825D01*
X148795645Y-108331181D01*
X148792262Y-108267678D01*
X148787947Y-108224132D01*
X148782603Y-108197354D01*
X148776130Y-108184159D01*
X148775107Y-108183197D01*
X148749271Y-108175069D01*
X148692931Y-108169381D01*
X148603957Y-108166055D01*
X148480214Y-108165010D01*
X148320838Y-108166151D01*
G36*
X150673196Y-108572846D02*
G01*
X150667923Y-108984039D01*
X150341063Y-108572846D01*
X150014202Y-108161654D01*
X149907485Y-108161654D01*
X149846496Y-108164565D01*
X149803115Y-108172055D01*
X149790124Y-108178876D01*
X149788616Y-108193444D01*
X149798555Y-108218207D01*
X149822197Y-108256209D01*
X149861797Y-108310493D01*
X149919609Y-108384103D01*
X149997888Y-108480081D01*
X150098891Y-108601471D01*
X150136570Y-108646407D01*
X150215803Y-108741628D01*
X150285721Y-108827294D01*
X150342636Y-108898753D01*
X150382859Y-108951348D01*
X150402704Y-108980427D01*
X150404154Y-108984136D01*
X150392778Y-109004126D01*
X150360683Y-109050941D01*
X150310913Y-109120387D01*
X150246516Y-109208269D01*
X150170536Y-109310392D01*
X150086020Y-109422563D01*
X150079985Y-109430521D01*
X149974522Y-109571218D01*
X149889033Y-109688820D01*
X149824628Y-109781709D01*
X149782413Y-109848268D01*
X149763497Y-109886878D01*
X149762645Y-109893869D01*
X149784737Y-109923295D01*
X149835517Y-109936209D01*
X149880359Y-109938963D01*
X149918768Y-109935325D01*
X149954958Y-109921650D01*
X149993147Y-109894293D01*
X150037553Y-109849611D01*
X150092390Y-109783960D01*
X150161876Y-109693696D01*
X150244791Y-109582511D01*
X150325169Y-109474068D01*
X150403608Y-109368239D01*
X150474990Y-109271928D01*
X150534194Y-109192044D01*
X150576103Y-109135493D01*
X150581057Y-109128808D01*
X150667923Y-109011577D01*
X150687461Y-109929885D01*
X150775486Y-109935644D01*
X150838883Y-109933980D01*
X150881944Y-109921571D01*
X150887832Y-109917083D01*
X150894079Y-109901719D01*
X150899251Y-109867391D01*
X150903428Y-109811309D01*
X150906688Y-109730686D01*
X150909110Y-109622734D01*
X150910774Y-109484667D01*
X150911759Y-109313695D01*
X150912142Y-109107031D01*
X150912154Y-109058113D01*
X150911883Y-108880363D01*
X150911111Y-108714112D01*
X150909893Y-108563562D01*
X150908289Y-108432916D01*
X150906355Y-108326374D01*
X150904149Y-108248141D01*
X150901729Y-108202417D01*
X150900294Y-108192559D01*
X150880530Y-108172986D01*
X150835485Y-108163451D01*
X150783452Y-108161654D01*
X150678469Y-108161654D01*
X150673196Y-108572846D01*
G37*
X150673196Y-108572846D02*
X150667923Y-108984039D01*
X150341063Y-108572846D01*
X150014202Y-108161654D01*
X149907485Y-108161654D01*
X149846496Y-108164565D01*
X149803115Y-108172055D01*
X149790124Y-108178876D01*
X149788616Y-108193444D01*
X149798555Y-108218207D01*
X149822197Y-108256209D01*
X149861797Y-108310493D01*
X149919609Y-108384103D01*
X149997888Y-108480081D01*
X150098891Y-108601471D01*
X150136570Y-108646407D01*
X150215803Y-108741628D01*
X150285721Y-108827294D01*
X150342636Y-108898753D01*
X150382859Y-108951348D01*
X150402704Y-108980427D01*
X150404154Y-108984136D01*
X150392778Y-109004126D01*
X150360683Y-109050941D01*
X150310913Y-109120387D01*
X150246516Y-109208269D01*
X150170536Y-109310392D01*
X150086020Y-109422563D01*
X150079985Y-109430521D01*
X149974522Y-109571218D01*
X149889033Y-109688820D01*
X149824628Y-109781709D01*
X149782413Y-109848268D01*
X149763497Y-109886878D01*
X149762645Y-109893869D01*
X149784737Y-109923295D01*
X149835517Y-109936209D01*
X149880359Y-109938963D01*
X149918768Y-109935325D01*
X149954958Y-109921650D01*
X149993147Y-109894293D01*
X150037553Y-109849611D01*
X150092390Y-109783960D01*
X150161876Y-109693696D01*
X150244791Y-109582511D01*
X150325169Y-109474068D01*
X150403608Y-109368239D01*
X150474990Y-109271928D01*
X150534194Y-109192044D01*
X150576103Y-109135493D01*
X150581057Y-109128808D01*
X150667923Y-109011577D01*
X150687461Y-109929885D01*
X150775486Y-109935644D01*
X150838883Y-109933980D01*
X150881944Y-109921571D01*
X150887832Y-109917083D01*
X150894079Y-109901719D01*
X150899251Y-109867391D01*
X150903428Y-109811309D01*
X150906688Y-109730686D01*
X150909110Y-109622734D01*
X150910774Y-109484667D01*
X150911759Y-109313695D01*
X150912142Y-109107031D01*
X150912154Y-109058113D01*
X150911883Y-108880363D01*
X150911111Y-108714112D01*
X150909893Y-108563562D01*
X150908289Y-108432916D01*
X150906355Y-108326374D01*
X150904149Y-108248141D01*
X150901729Y-108202417D01*
X150900294Y-108192559D01*
X150880530Y-108172986D01*
X150835485Y-108163451D01*
X150783452Y-108161654D01*
X150678469Y-108161654D01*
X150673196Y-108572846D01*
G36*
X151467296Y-108168081D02*
G01*
X151418007Y-108187116D01*
X151411780Y-108192357D01*
X151404290Y-108203563D01*
X151398106Y-108223122D01*
X151393105Y-108254490D01*
X151389167Y-108301125D01*
X151386170Y-108366484D01*
X151383994Y-108454022D01*
X151382518Y-108567198D01*
X151381621Y-108709469D01*
X151381181Y-108884290D01*
X151381077Y-109069497D01*
X151380994Y-109276818D01*
X151381050Y-109448425D01*
X151381695Y-109587679D01*
X151383384Y-109697941D01*
X151386569Y-109782575D01*
X151391703Y-109844941D01*
X151399239Y-109888400D01*
X151409630Y-109916314D01*
X151423328Y-109932046D01*
X151440787Y-109938955D01*
X151462460Y-109940405D01*
X151488798Y-109939756D01*
X151498307Y-109939654D01*
X151527185Y-109940200D01*
X151550901Y-109939511D01*
X151569966Y-109934097D01*
X151584888Y-109920469D01*
X151596176Y-109895137D01*
X151604339Y-109854611D01*
X151609886Y-109795402D01*
X151613327Y-109714019D01*
X151615169Y-109606974D01*
X151615923Y-109470775D01*
X151616098Y-109301934D01*
X151616169Y-109131602D01*
X151616800Y-108347269D01*
X151931910Y-109128808D01*
X151998837Y-109293935D01*
X152061889Y-109447838D01*
X152119461Y-109586724D01*
X152169949Y-109706798D01*
X152211751Y-109804268D01*
X152243263Y-109875338D01*
X152262881Y-109916215D01*
X152268318Y-109924701D01*
X152301181Y-109934466D01*
X152352691Y-109939013D01*
X152358000Y-109939055D01*
X152410349Y-109935195D01*
X152446144Y-109925790D01*
X152447980Y-109924701D01*
X152459364Y-109903954D01*
X152483087Y-109850512D01*
X152517597Y-109768204D01*
X152561343Y-109660859D01*
X152612773Y-109532308D01*
X152670337Y-109386380D01*
X152732484Y-109226904D01*
X152770365Y-109128808D01*
X153071154Y-108347269D01*
X153090692Y-109929885D01*
X153178717Y-109935644D01*
X153242114Y-109933980D01*
X153285174Y-109921571D01*
X153291063Y-109917083D01*
X153297469Y-109891522D01*
X153302970Y-109831893D01*
X153307568Y-109743194D01*
X153311265Y-109630421D01*
X153314064Y-109498572D01*
X153315968Y-109352646D01*
X153316979Y-109197640D01*
X153317100Y-109038552D01*
X153316333Y-108880380D01*
X153314682Y-108728121D01*
X153312148Y-108586773D01*
X153308734Y-108461334D01*
X153304443Y-108356802D01*
X153299278Y-108278174D01*
X153293240Y-108230448D01*
X153290182Y-108220269D01*
X153272130Y-108193099D01*
X153245273Y-108177420D01*
X153198779Y-108169267D01*
X153140665Y-108165521D01*
X153037960Y-108166582D01*
X152964489Y-108183429D01*
X152912393Y-108219555D01*
X152873812Y-108278452D01*
X152870451Y-108285606D01*
X152854397Y-108323159D01*
X152826073Y-108392112D01*
X152787477Y-108487486D01*
X152740610Y-108604305D01*
X152687471Y-108737590D01*
X152630061Y-108882363D01*
X152592305Y-108977973D01*
X152534882Y-109122255D01*
X152481596Y-109253507D01*
X152434185Y-109367657D01*
X152394384Y-109460634D01*
X152363927Y-109528363D01*
X152344551Y-109566772D01*
X152338341Y-109573896D01*
X152328197Y-109552897D01*
X152305055Y-109499837D01*
X152270649Y-109418852D01*
X152226713Y-109314074D01*
X152174980Y-109189638D01*
X152117183Y-109049679D01*
X152055056Y-108898329D01*
X152054891Y-108897926D01*
X151975225Y-108704806D01*
X151908361Y-108546171D01*
X151853346Y-108419927D01*
X151809224Y-108323984D01*
X151775043Y-108256249D01*
X151749850Y-108214632D01*
X151736442Y-108199426D01*
X151685751Y-108176064D01*
X151614865Y-108162853D01*
X151537481Y-108160093D01*
X151467296Y-108168081D01*
G37*
X151467296Y-108168081D02*
X151418007Y-108187116D01*
X151411780Y-108192357D01*
X151404290Y-108203563D01*
X151398106Y-108223122D01*
X151393105Y-108254490D01*
X151389167Y-108301125D01*
X151386170Y-108366484D01*
X151383994Y-108454022D01*
X151382518Y-108567198D01*
X151381621Y-108709469D01*
X151381181Y-108884290D01*
X151381077Y-109069497D01*
X151380994Y-109276818D01*
X151381050Y-109448425D01*
X151381695Y-109587679D01*
X151383384Y-109697941D01*
X151386569Y-109782575D01*
X151391703Y-109844941D01*
X151399239Y-109888400D01*
X151409630Y-109916314D01*
X151423328Y-109932046D01*
X151440787Y-109938955D01*
X151462460Y-109940405D01*
X151488798Y-109939756D01*
X151498307Y-109939654D01*
X151527185Y-109940200D01*
X151550901Y-109939511D01*
X151569966Y-109934097D01*
X151584888Y-109920469D01*
X151596176Y-109895137D01*
X151604339Y-109854611D01*
X151609886Y-109795402D01*
X151613327Y-109714019D01*
X151615169Y-109606974D01*
X151615923Y-109470775D01*
X151616098Y-109301934D01*
X151616169Y-109131602D01*
X151616800Y-108347269D01*
X151931910Y-109128808D01*
X151998837Y-109293935D01*
X152061889Y-109447838D01*
X152119461Y-109586724D01*
X152169949Y-109706798D01*
X152211751Y-109804268D01*
X152243263Y-109875338D01*
X152262881Y-109916215D01*
X152268318Y-109924701D01*
X152301181Y-109934466D01*
X152352691Y-109939013D01*
X152358000Y-109939055D01*
X152410349Y-109935195D01*
X152446144Y-109925790D01*
X152447980Y-109924701D01*
X152459364Y-109903954D01*
X152483087Y-109850512D01*
X152517597Y-109768204D01*
X152561343Y-109660859D01*
X152612773Y-109532308D01*
X152670337Y-109386380D01*
X152732484Y-109226904D01*
X152770365Y-109128808D01*
X153071154Y-108347269D01*
X153090692Y-109929885D01*
X153178717Y-109935644D01*
X153242114Y-109933980D01*
X153285174Y-109921571D01*
X153291063Y-109917083D01*
X153297469Y-109891522D01*
X153302970Y-109831893D01*
X153307568Y-109743194D01*
X153311265Y-109630421D01*
X153314064Y-109498572D01*
X153315968Y-109352646D01*
X153316979Y-109197640D01*
X153317100Y-109038552D01*
X153316333Y-108880380D01*
X153314682Y-108728121D01*
X153312148Y-108586773D01*
X153308734Y-108461334D01*
X153304443Y-108356802D01*
X153299278Y-108278174D01*
X153293240Y-108230448D01*
X153290182Y-108220269D01*
X153272130Y-108193099D01*
X153245273Y-108177420D01*
X153198779Y-108169267D01*
X153140665Y-108165521D01*
X153037960Y-108166582D01*
X152964489Y-108183429D01*
X152912393Y-108219555D01*
X152873812Y-108278452D01*
X152870451Y-108285606D01*
X152854397Y-108323159D01*
X152826073Y-108392112D01*
X152787477Y-108487486D01*
X152740610Y-108604305D01*
X152687471Y-108737590D01*
X152630061Y-108882363D01*
X152592305Y-108977973D01*
X152534882Y-109122255D01*
X152481596Y-109253507D01*
X152434185Y-109367657D01*
X152394384Y-109460634D01*
X152363927Y-109528363D01*
X152344551Y-109566772D01*
X152338341Y-109573896D01*
X152328197Y-109552897D01*
X152305055Y-109499837D01*
X152270649Y-109418852D01*
X152226713Y-109314074D01*
X152174980Y-109189638D01*
X152117183Y-109049679D01*
X152055056Y-108898329D01*
X152054891Y-108897926D01*
X151975225Y-108704806D01*
X151908361Y-108546171D01*
X151853346Y-108419927D01*
X151809224Y-108323984D01*
X151775043Y-108256249D01*
X151749850Y-108214632D01*
X151736442Y-108199426D01*
X151685751Y-108176064D01*
X151614865Y-108162853D01*
X151537481Y-108160093D01*
X151467296Y-108168081D01*
G36*
X138795050Y-108621398D02*
G01*
X138663055Y-108659587D01*
X138554455Y-108728693D01*
X138470286Y-108827801D01*
X138411584Y-108955996D01*
X138379385Y-109112362D01*
X138378678Y-109119038D01*
X138372507Y-109181868D01*
X138371330Y-109230336D01*
X138379460Y-109266384D01*
X138401210Y-109291949D01*
X138440891Y-109308971D01*
X138502816Y-109319390D01*
X138591297Y-109325144D01*
X138710646Y-109328173D01*
X138848167Y-109330175D01*
X139272471Y-109336157D01*
X139261457Y-109442874D01*
X139234354Y-109563660D01*
X139180574Y-109656296D01*
X139099605Y-109721193D01*
X138990939Y-109758763D01*
X138856923Y-109769463D01*
X138734491Y-109759648D01*
X138615266Y-109736296D01*
X138584823Y-109727482D01*
X138519091Y-109708688D01*
X138468108Y-109697951D01*
X138443169Y-109697552D01*
X138430253Y-109724676D01*
X138427547Y-109771661D01*
X138434131Y-109820911D01*
X138449087Y-109854829D01*
X138451500Y-109857114D01*
X138509214Y-109887690D01*
X138595715Y-109913387D01*
X138700885Y-109932990D01*
X138814603Y-109945286D01*
X138926754Y-109949060D01*
X139027217Y-109943099D01*
X139083434Y-109932932D01*
X139216732Y-109883688D01*
X139322773Y-109809915D01*
X139402810Y-109709822D01*
X139458092Y-109581618D01*
X139489873Y-109423511D01*
X139496904Y-109340978D01*
X139493669Y-109162374D01*
X139492796Y-109158115D01*
X139272376Y-109158115D01*
X138602923Y-109158115D01*
X138603244Y-109084846D01*
X138619726Y-108998074D01*
X138662575Y-108912174D01*
X138722980Y-108842653D01*
X138753177Y-108821056D01*
X138832950Y-108792796D01*
X138929561Y-108785045D01*
X139026474Y-108797989D01*
X139081371Y-108817386D01*
X139156897Y-108872485D01*
X139218002Y-108953585D01*
X139255942Y-109048022D01*
X139261706Y-109078564D01*
X139272376Y-109158115D01*
X139492796Y-109158115D01*
X139462163Y-109008734D01*
X139401585Y-108877231D01*
X139343422Y-108799062D01*
X139256270Y-108714643D01*
X139164431Y-108659119D01*
X139056607Y-108627215D01*
X138949403Y-108615041D01*
X138795050Y-108621398D01*
G37*
X138795050Y-108621398D02*
X138663055Y-108659587D01*
X138554455Y-108728693D01*
X138470286Y-108827801D01*
X138411584Y-108955996D01*
X138379385Y-109112362D01*
X138378678Y-109119038D01*
X138372507Y-109181868D01*
X138371330Y-109230336D01*
X138379460Y-109266384D01*
X138401210Y-109291949D01*
X138440891Y-109308971D01*
X138502816Y-109319390D01*
X138591297Y-109325144D01*
X138710646Y-109328173D01*
X138848167Y-109330175D01*
X139272471Y-109336157D01*
X139261457Y-109442874D01*
X139234354Y-109563660D01*
X139180574Y-109656296D01*
X139099605Y-109721193D01*
X138990939Y-109758763D01*
X138856923Y-109769463D01*
X138734491Y-109759648D01*
X138615266Y-109736296D01*
X138584823Y-109727482D01*
X138519091Y-109708688D01*
X138468108Y-109697951D01*
X138443169Y-109697552D01*
X138430253Y-109724676D01*
X138427547Y-109771661D01*
X138434131Y-109820911D01*
X138449087Y-109854829D01*
X138451500Y-109857114D01*
X138509214Y-109887690D01*
X138595715Y-109913387D01*
X138700885Y-109932990D01*
X138814603Y-109945286D01*
X138926754Y-109949060D01*
X139027217Y-109943099D01*
X139083434Y-109932932D01*
X139216732Y-109883688D01*
X139322773Y-109809915D01*
X139402810Y-109709822D01*
X139458092Y-109581618D01*
X139489873Y-109423511D01*
X139496904Y-109340978D01*
X139493669Y-109162374D01*
X139492796Y-109158115D01*
X139272376Y-109158115D01*
X138602923Y-109158115D01*
X138603244Y-109084846D01*
X138619726Y-108998074D01*
X138662575Y-108912174D01*
X138722980Y-108842653D01*
X138753177Y-108821056D01*
X138832950Y-108792796D01*
X138929561Y-108785045D01*
X139026474Y-108797989D01*
X139081371Y-108817386D01*
X139156897Y-108872485D01*
X139218002Y-108953585D01*
X139255942Y-109048022D01*
X139261706Y-109078564D01*
X139272376Y-109158115D01*
X139492796Y-109158115D01*
X139462163Y-109008734D01*
X139401585Y-108877231D01*
X139343422Y-108799062D01*
X139256270Y-108714643D01*
X139164431Y-108659119D01*
X139056607Y-108627215D01*
X138949403Y-108615041D01*
X138795050Y-108621398D01*
G36*
X141147452Y-108615905D02*
G01*
X141055440Y-108632831D01*
X140971601Y-108673256D01*
X140894305Y-108740328D01*
X140835469Y-108821989D01*
X140812302Y-108878884D01*
X140804642Y-108930390D01*
X140799138Y-109018688D01*
X140795854Y-109141548D01*
X140794857Y-109296740D01*
X140795770Y-109444791D01*
X140801000Y-109929885D01*
X140879154Y-109929885D01*
X140929414Y-109927638D01*
X140952785Y-109913838D01*
X140961441Y-109877891D01*
X140963371Y-109856615D01*
X140969564Y-109809505D01*
X140977318Y-109784545D01*
X140979171Y-109783346D01*
X140998750Y-109794535D01*
X141037710Y-109823021D01*
X141063213Y-109843061D01*
X141174287Y-109909987D01*
X141299192Y-109947775D01*
X141427208Y-109954433D01*
X141538399Y-109931390D01*
X141649364Y-109877489D01*
X141726257Y-109805684D01*
X141770961Y-109713099D01*
X141785357Y-109596858D01*
X141784785Y-109579730D01*
X141567271Y-109579730D01*
X141555462Y-109627295D01*
X141514427Y-109702924D01*
X141448710Y-109755051D01*
X141366616Y-109781120D01*
X141276451Y-109778575D01*
X141186520Y-109744861D01*
X141182000Y-109742204D01*
X141121082Y-109700774D01*
X141064266Y-109654748D01*
X141059884Y-109650698D01*
X141031105Y-109619761D01*
X141014916Y-109586921D01*
X141007778Y-109539903D01*
X141006154Y-109466426D01*
X141006154Y-109328279D01*
X141198633Y-109338885D01*
X141321967Y-109349763D01*
X141412928Y-109368507D01*
X141477862Y-109397697D01*
X141523114Y-109439913D01*
X141547494Y-109480705D01*
X141566852Y-109532382D01*
X141567271Y-109579730D01*
X141784785Y-109579730D01*
X141783995Y-109556106D01*
X141762713Y-109443770D01*
X141713543Y-109352746D01*
X141634944Y-109282020D01*
X141525374Y-109230574D01*
X141383290Y-109197393D01*
X141216192Y-109181835D01*
X141006154Y-109172634D01*
X141006263Y-109101875D01*
X141018756Y-108991258D01*
X141053645Y-108898715D01*
X141094678Y-108844935D01*
X141163335Y-108805265D01*
X141255548Y-108787776D01*
X141362568Y-108792664D01*
X141475644Y-108820127D01*
X141515831Y-108835445D01*
X141586336Y-108863889D01*
X141648257Y-108886778D01*
X141686361Y-108898648D01*
X141714227Y-108902130D01*
X141726186Y-108889023D01*
X141727112Y-108850085D01*
X141725438Y-108824557D01*
X141716471Y-108766187D01*
X141694021Y-108729878D01*
X141655901Y-108703067D01*
X141549033Y-108657159D01*
X141419379Y-108626243D01*
X141280873Y-108611948D01*
X141147452Y-108615905D01*
G37*
X141147452Y-108615905D02*
X141055440Y-108632831D01*
X140971601Y-108673256D01*
X140894305Y-108740328D01*
X140835469Y-108821989D01*
X140812302Y-108878884D01*
X140804642Y-108930390D01*
X140799138Y-109018688D01*
X140795854Y-109141548D01*
X140794857Y-109296740D01*
X140795770Y-109444791D01*
X140801000Y-109929885D01*
X140879154Y-109929885D01*
X140929414Y-109927638D01*
X140952785Y-109913838D01*
X140961441Y-109877891D01*
X140963371Y-109856615D01*
X140969564Y-109809505D01*
X140977318Y-109784545D01*
X140979171Y-109783346D01*
X140998750Y-109794535D01*
X141037710Y-109823021D01*
X141063213Y-109843061D01*
X141174287Y-109909987D01*
X141299192Y-109947775D01*
X141427208Y-109954433D01*
X141538399Y-109931390D01*
X141649364Y-109877489D01*
X141726257Y-109805684D01*
X141770961Y-109713099D01*
X141785357Y-109596858D01*
X141784785Y-109579730D01*
X141567271Y-109579730D01*
X141555462Y-109627295D01*
X141514427Y-109702924D01*
X141448710Y-109755051D01*
X141366616Y-109781120D01*
X141276451Y-109778575D01*
X141186520Y-109744861D01*
X141182000Y-109742204D01*
X141121082Y-109700774D01*
X141064266Y-109654748D01*
X141059884Y-109650698D01*
X141031105Y-109619761D01*
X141014916Y-109586921D01*
X141007778Y-109539903D01*
X141006154Y-109466426D01*
X141006154Y-109328279D01*
X141198633Y-109338885D01*
X141321967Y-109349763D01*
X141412928Y-109368507D01*
X141477862Y-109397697D01*
X141523114Y-109439913D01*
X141547494Y-109480705D01*
X141566852Y-109532382D01*
X141567271Y-109579730D01*
X141784785Y-109579730D01*
X141783995Y-109556106D01*
X141762713Y-109443770D01*
X141713543Y-109352746D01*
X141634944Y-109282020D01*
X141525374Y-109230574D01*
X141383290Y-109197393D01*
X141216192Y-109181835D01*
X141006154Y-109172634D01*
X141006263Y-109101875D01*
X141018756Y-108991258D01*
X141053645Y-108898715D01*
X141094678Y-108844935D01*
X141163335Y-108805265D01*
X141255548Y-108787776D01*
X141362568Y-108792664D01*
X141475644Y-108820127D01*
X141515831Y-108835445D01*
X141586336Y-108863889D01*
X141648257Y-108886778D01*
X141686361Y-108898648D01*
X141714227Y-108902130D01*
X141726186Y-108889023D01*
X141727112Y-108850085D01*
X141725438Y-108824557D01*
X141716471Y-108766187D01*
X141694021Y-108729878D01*
X141655901Y-108703067D01*
X141549033Y-108657159D01*
X141419379Y-108626243D01*
X141280873Y-108611948D01*
X141147452Y-108615905D01*
G36*
X154326074Y-108152863D02*
G01*
X154186834Y-108186412D01*
X154065285Y-108245182D01*
X154017209Y-108278255D01*
X153917765Y-108367007D01*
X153842123Y-108469569D01*
X153781587Y-108597928D01*
X153777568Y-108608514D01*
X153761201Y-108657419D01*
X153749718Y-108707741D01*
X153742282Y-108767754D01*
X153738061Y-108845735D01*
X153736217Y-108949958D01*
X153735915Y-109021346D01*
X153736350Y-109141907D01*
X153738672Y-109232040D01*
X153743786Y-109300384D01*
X153752595Y-109355575D01*
X153766003Y-109406252D01*
X153780730Y-109449572D01*
X153814053Y-109530072D01*
X153853685Y-109609305D01*
X153882626Y-109657257D01*
X153939254Y-109739562D01*
X153827588Y-109817551D01*
X153751484Y-109867608D01*
X153669752Y-109916678D01*
X153615678Y-109946052D01*
X153541569Y-109993656D01*
X153503023Y-110046804D01*
X153496530Y-110111670D01*
X153502746Y-110144808D01*
X153515206Y-110177587D01*
X153537041Y-110190146D01*
X153577622Y-110184065D01*
X153631044Y-110166423D01*
X153740357Y-110117315D01*
X153864785Y-110044260D01*
X153994283Y-109953206D01*
X154005028Y-109944963D01*
X154118287Y-109857473D01*
X154219951Y-109903140D01*
X154317306Y-109932615D01*
X154438547Y-109948102D01*
X154571088Y-109949645D01*
X154702342Y-109937287D01*
X154819724Y-109911073D01*
X154849154Y-109900968D01*
X154974672Y-109834109D01*
X155086568Y-109737350D01*
X155176273Y-109619540D01*
X155228886Y-109508849D01*
X155253994Y-109411189D01*
X155272653Y-109287253D01*
X155284154Y-109149421D01*
X155286986Y-109040885D01*
X155043217Y-109040885D01*
X155039309Y-109200576D01*
X155024864Y-109329183D01*
X154998310Y-109433658D01*
X154958078Y-109520949D01*
X154923011Y-109572860D01*
X154832875Y-109659728D01*
X154720783Y-109718982D01*
X154593621Y-109749370D01*
X154458276Y-109749641D01*
X154321636Y-109718545D01*
X154260066Y-109693280D01*
X154160545Y-109629107D01*
X154080754Y-109538148D01*
X154016171Y-109415145D01*
X154011992Y-109404924D01*
X153994800Y-109356007D01*
X153983178Y-109304182D01*
X153976129Y-109240415D01*
X153972653Y-109155673D01*
X153971753Y-109040922D01*
X153971753Y-109040885D01*
X153976139Y-108883139D01*
X153990558Y-108756617D01*
X154017114Y-108654278D01*
X154057912Y-108569080D01*
X154115057Y-108493983D01*
X154144228Y-108463965D01*
X154233352Y-108395621D01*
X154335369Y-108354794D01*
X154459359Y-108338233D01*
X154497461Y-108337500D01*
X154624774Y-108347115D01*
X154728421Y-108378737D01*
X154819501Y-108436527D01*
X154861111Y-108473900D01*
X154930533Y-108552073D01*
X154980953Y-108635884D01*
X155014824Y-108732964D01*
X155034593Y-108850941D01*
X155042713Y-108997443D01*
X155043217Y-109040885D01*
X155286986Y-109040885D01*
X155287791Y-109010069D01*
X155282858Y-108881574D01*
X155270279Y-108784290D01*
X155218652Y-108603815D01*
X155140831Y-108452274D01*
X155037445Y-108330186D01*
X154909128Y-108238073D01*
X154756511Y-108176453D01*
X154580225Y-108145848D01*
X154490699Y-108142327D01*
X154326074Y-108152863D01*
G37*
X154326074Y-108152863D02*
X154186834Y-108186412D01*
X154065285Y-108245182D01*
X154017209Y-108278255D01*
X153917765Y-108367007D01*
X153842123Y-108469569D01*
X153781587Y-108597928D01*
X153777568Y-108608514D01*
X153761201Y-108657419D01*
X153749718Y-108707741D01*
X153742282Y-108767754D01*
X153738061Y-108845735D01*
X153736217Y-108949958D01*
X153735915Y-109021346D01*
X153736350Y-109141907D01*
X153738672Y-109232040D01*
X153743786Y-109300384D01*
X153752595Y-109355575D01*
X153766003Y-109406252D01*
X153780730Y-109449572D01*
X153814053Y-109530072D01*
X153853685Y-109609305D01*
X153882626Y-109657257D01*
X153939254Y-109739562D01*
X153827588Y-109817551D01*
X153751484Y-109867608D01*
X153669752Y-109916678D01*
X153615678Y-109946052D01*
X153541569Y-109993656D01*
X153503023Y-110046804D01*
X153496530Y-110111670D01*
X153502746Y-110144808D01*
X153515206Y-110177587D01*
X153537041Y-110190146D01*
X153577622Y-110184065D01*
X153631044Y-110166423D01*
X153740357Y-110117315D01*
X153864785Y-110044260D01*
X153994283Y-109953206D01*
X154005028Y-109944963D01*
X154118287Y-109857473D01*
X154219951Y-109903140D01*
X154317306Y-109932615D01*
X154438547Y-109948102D01*
X154571088Y-109949645D01*
X154702342Y-109937287D01*
X154819724Y-109911073D01*
X154849154Y-109900968D01*
X154974672Y-109834109D01*
X155086568Y-109737350D01*
X155176273Y-109619540D01*
X155228886Y-109508849D01*
X155253994Y-109411189D01*
X155272653Y-109287253D01*
X155284154Y-109149421D01*
X155286986Y-109040885D01*
X155043217Y-109040885D01*
X155039309Y-109200576D01*
X155024864Y-109329183D01*
X154998310Y-109433658D01*
X154958078Y-109520949D01*
X154923011Y-109572860D01*
X154832875Y-109659728D01*
X154720783Y-109718982D01*
X154593621Y-109749370D01*
X154458276Y-109749641D01*
X154321636Y-109718545D01*
X154260066Y-109693280D01*
X154160545Y-109629107D01*
X154080754Y-109538148D01*
X154016171Y-109415145D01*
X154011992Y-109404924D01*
X153994800Y-109356007D01*
X153983178Y-109304182D01*
X153976129Y-109240415D01*
X153972653Y-109155673D01*
X153971753Y-109040922D01*
X153971753Y-109040885D01*
X153976139Y-108883139D01*
X153990558Y-108756617D01*
X154017114Y-108654278D01*
X154057912Y-108569080D01*
X154115057Y-108493983D01*
X154144228Y-108463965D01*
X154233352Y-108395621D01*
X154335369Y-108354794D01*
X154459359Y-108338233D01*
X154497461Y-108337500D01*
X154624774Y-108347115D01*
X154728421Y-108378737D01*
X154819501Y-108436527D01*
X154861111Y-108473900D01*
X154930533Y-108552073D01*
X154980953Y-108635884D01*
X155014824Y-108732964D01*
X155034593Y-108850941D01*
X155042713Y-108997443D01*
X155043217Y-109040885D01*
X155286986Y-109040885D01*
X155287791Y-109010069D01*
X155282858Y-108881574D01*
X155270279Y-108784290D01*
X155218652Y-108603815D01*
X155140831Y-108452274D01*
X155037445Y-108330186D01*
X154909128Y-108238073D01*
X154756511Y-108176453D01*
X154580225Y-108145848D01*
X154490699Y-108142327D01*
X154326074Y-108152863D01*
G36*
X159507822Y-106287648D02*
G01*
X159366795Y-106281920D01*
X159225769Y-106276192D01*
X159216000Y-106051500D01*
X159206230Y-105826808D01*
X158991307Y-105826808D01*
X158980283Y-106287648D01*
X158839257Y-106281920D01*
X158698230Y-106276192D01*
X158678692Y-105826808D01*
X158463769Y-105826808D01*
X158452745Y-106287648D01*
X158311719Y-106281920D01*
X158170692Y-106276192D01*
X158151154Y-105826808D01*
X157936230Y-105826808D01*
X157930719Y-106057228D01*
X157925207Y-106287648D01*
X157784180Y-106281920D01*
X157643154Y-106276192D01*
X157633384Y-106051500D01*
X157623615Y-105826808D01*
X157408692Y-105826808D01*
X157403187Y-106056384D01*
X157397683Y-106285961D01*
X157304091Y-106285961D01*
X157164839Y-106304138D01*
X157039743Y-106355568D01*
X156933453Y-106435602D01*
X156850618Y-106539592D01*
X156795888Y-106662887D01*
X156773910Y-106800840D01*
X156773692Y-106816360D01*
X156773692Y-106909952D01*
X156544115Y-106915457D01*
X156314538Y-106920961D01*
X156308527Y-107026574D01*
X156309295Y-107102802D01*
X156322521Y-107143442D01*
X156328066Y-107148390D01*
X156357266Y-107155080D01*
X156416216Y-107160486D01*
X156495592Y-107163955D01*
X156563654Y-107164893D01*
X156773692Y-107165192D01*
X156773692Y-107437491D01*
X156544115Y-107442995D01*
X156314538Y-107448500D01*
X156308527Y-107554112D01*
X156309295Y-107630340D01*
X156322521Y-107670980D01*
X156328066Y-107675928D01*
X156357266Y-107682619D01*
X156416216Y-107688025D01*
X156495592Y-107691493D01*
X156563654Y-107692431D01*
X156773692Y-107692731D01*
X156773692Y-107965029D01*
X156544115Y-107970534D01*
X156314538Y-107976038D01*
X156308754Y-108085870D01*
X156307134Y-108138086D01*
X156312566Y-108174570D01*
X156330843Y-108198155D01*
X156367757Y-108211672D01*
X156429103Y-108217952D01*
X156520673Y-108219827D01*
X156583192Y-108220002D01*
X156773692Y-108220269D01*
X156773692Y-108492567D01*
X156314538Y-108503577D01*
X156308754Y-108613409D01*
X156307134Y-108665624D01*
X156312566Y-108702109D01*
X156330843Y-108725694D01*
X156367757Y-108739210D01*
X156429103Y-108745490D01*
X156520673Y-108747365D01*
X156583192Y-108747541D01*
X156773692Y-108747808D01*
X156773692Y-109020106D01*
X156544115Y-109025611D01*
X156314538Y-109031115D01*
X156308754Y-109140947D01*
X156307134Y-109193163D01*
X156312566Y-109229647D01*
X156330843Y-109253232D01*
X156367757Y-109266749D01*
X156429103Y-109273029D01*
X156520673Y-109274904D01*
X156583192Y-109275079D01*
X156773692Y-109275346D01*
X156773883Y-109377923D01*
X156792457Y-109511858D01*
X156844843Y-109632562D01*
X156926813Y-109735749D01*
X157034139Y-109817131D01*
X157162591Y-109872419D01*
X157284361Y-109895616D01*
X157398923Y-109906004D01*
X157398923Y-110115821D01*
X157400350Y-110220854D01*
X157406819Y-110292696D01*
X157421609Y-110337194D01*
X157447998Y-110360195D01*
X157489265Y-110367546D01*
X157539133Y-110365809D01*
X157623615Y-110359731D01*
X157633384Y-110135038D01*
X157643154Y-109910346D01*
X157784807Y-109904605D01*
X157926461Y-109898865D01*
X157926461Y-110112252D01*
X157927835Y-110218113D01*
X157934099Y-110290751D01*
X157948470Y-110335980D01*
X157974165Y-110359618D01*
X158014400Y-110367482D01*
X158066671Y-110365809D01*
X158151154Y-110359731D01*
X158156658Y-110130154D01*
X158162163Y-109900577D01*
X158454000Y-109900577D01*
X158454000Y-110113108D01*
X158455386Y-110218771D01*
X158461698Y-110291218D01*
X158476168Y-110336273D01*
X158502027Y-110359758D01*
X158542506Y-110367499D01*
X158594210Y-110365809D01*
X158678692Y-110359731D01*
X158684197Y-110130154D01*
X158689701Y-109900577D01*
X158981538Y-109900577D01*
X158981538Y-110113108D01*
X158982924Y-110218771D01*
X158989237Y-110291218D01*
X159003707Y-110336273D01*
X159029566Y-110359758D01*
X159070045Y-110367499D01*
X159121748Y-110365809D01*
X159206230Y-110359731D01*
X159217240Y-109900577D01*
X159509077Y-109900577D01*
X159509077Y-110111592D01*
X159511445Y-110224485D01*
X159518444Y-110302058D01*
X159529912Y-110342699D01*
X159532523Y-110346054D01*
X159564845Y-110359882D01*
X159617761Y-110367878D01*
X159674549Y-110369161D01*
X159718487Y-110362851D01*
X159730513Y-110356474D01*
X159735738Y-110332780D01*
X159739964Y-110278464D01*
X159742715Y-110201979D01*
X159743538Y-110124838D01*
X159743538Y-109906228D01*
X159869556Y-109894460D01*
X160020495Y-109863478D01*
X160147672Y-109801903D01*
X160249487Y-109711327D01*
X160324337Y-109593342D01*
X160370624Y-109449539D01*
X160380665Y-109386148D01*
X160393688Y-109275346D01*
X160587667Y-109275346D01*
X160695642Y-109273673D01*
X160770517Y-109266848D01*
X160818192Y-109252162D01*
X160844569Y-109226904D01*
X160855548Y-109188367D01*
X160857230Y-109151566D01*
X160852031Y-109094192D01*
X160839043Y-109052179D01*
X160833784Y-109044792D01*
X160800186Y-109032512D01*
X160729356Y-109024670D01*
X160622907Y-109021429D01*
X160599323Y-109021346D01*
X160388307Y-109021346D01*
X160388307Y-108747808D01*
X160584977Y-108747808D01*
X160693554Y-108746174D01*
X160769004Y-108739490D01*
X160817204Y-108725085D01*
X160844032Y-108700287D01*
X160855364Y-108662423D01*
X160857230Y-108624028D01*
X160852031Y-108566653D01*
X160839043Y-108524640D01*
X160833784Y-108517254D01*
X160800186Y-108504973D01*
X160729356Y-108497132D01*
X160622907Y-108493890D01*
X160599323Y-108493808D01*
X160388307Y-108493808D01*
X160388307Y-108220269D01*
X160584977Y-108220269D01*
X160693554Y-108218635D01*
X160769004Y-108211952D01*
X160817204Y-108197547D01*
X160844032Y-108172749D01*
X160855364Y-108134885D01*
X160857231Y-108096489D01*
X160852031Y-108039115D01*
X160839043Y-107997102D01*
X160833784Y-107989715D01*
X160800186Y-107977435D01*
X160729356Y-107969593D01*
X160622907Y-107966352D01*
X160599323Y-107966269D01*
X160388307Y-107966269D01*
X160388307Y-107716384D01*
X159603392Y-107716384D01*
X159603019Y-107855134D01*
X159600917Y-107964223D01*
X159596920Y-108048347D01*
X159590857Y-108112199D01*
X159582561Y-108160477D01*
X159579636Y-108172531D01*
X159519929Y-108328820D01*
X159429237Y-108462238D01*
X159309137Y-108571520D01*
X159161207Y-108655399D01*
X158987022Y-108712608D01*
X158883133Y-108731891D01*
X158727538Y-108753895D01*
X158727538Y-108952098D01*
X158724850Y-109064480D01*
X158716803Y-109138671D01*
X158703426Y-109174410D01*
X158703282Y-109174556D01*
X158666003Y-109189195D01*
X158596675Y-109194065D01*
X158561628Y-109193117D01*
X158444230Y-109187423D01*
X158438706Y-108967615D01*
X158435845Y-108872252D01*
X158432076Y-108809292D01*
X158426040Y-108772067D01*
X158416379Y-108753906D01*
X158401732Y-108748138D01*
X158393921Y-108747808D01*
X158328624Y-108741452D01*
X158240687Y-108724713D01*
X158144000Y-108701081D01*
X158052455Y-108674046D01*
X157979942Y-108647098D01*
X157964847Y-108639996D01*
X157860363Y-108571934D01*
X157759416Y-108479716D01*
X157675975Y-108376846D01*
X157651213Y-108336788D01*
X157621095Y-108279959D01*
X157597260Y-108225820D01*
X157578984Y-108168896D01*
X157565543Y-108103711D01*
X157556212Y-108024788D01*
X157550267Y-107926651D01*
X157546985Y-107803825D01*
X157545640Y-107650834D01*
X157545461Y-107537263D01*
X157545461Y-107020334D01*
X157613846Y-107006235D01*
X157683536Y-107000421D01*
X157750615Y-107006238D01*
X157819000Y-107020341D01*
X157830437Y-107537267D01*
X157835084Y-107707410D01*
X157840889Y-107854247D01*
X157847634Y-107974097D01*
X157855101Y-108063281D01*
X157863071Y-108118120D01*
X157865411Y-108126968D01*
X157922037Y-108241274D01*
X158009517Y-108340023D01*
X158121007Y-108417943D01*
X158249662Y-108469762D01*
X158331647Y-108486058D01*
X158433987Y-108498779D01*
X158439109Y-107759513D01*
X158444230Y-107020247D01*
X158512615Y-107006191D01*
X158582302Y-107000417D01*
X158649384Y-107006264D01*
X158717769Y-107020394D01*
X158722891Y-107759284D01*
X158728012Y-108498173D01*
X158820583Y-108484807D01*
X158967700Y-108446836D01*
X159094084Y-108379980D01*
X159195370Y-108287234D01*
X159262832Y-108181192D01*
X159275161Y-108152246D01*
X159284933Y-108120858D01*
X159292559Y-108081964D01*
X159298451Y-108030500D01*
X159303023Y-107961402D01*
X159306687Y-107869605D01*
X159309854Y-107750047D01*
X159312938Y-107597663D01*
X159313692Y-107556735D01*
X159323461Y-107020202D01*
X159391846Y-107006168D01*
X159461535Y-107000409D01*
X159528615Y-107006261D01*
X159597000Y-107020386D01*
X159602206Y-107543277D01*
X159603392Y-107716384D01*
X160388307Y-107716384D01*
X160388307Y-107692731D01*
X160584977Y-107692731D01*
X160693554Y-107691097D01*
X160769004Y-107684413D01*
X160817204Y-107670009D01*
X160844032Y-107645210D01*
X160855364Y-107607346D01*
X160857230Y-107568951D01*
X160852031Y-107511576D01*
X160839043Y-107469563D01*
X160833784Y-107462177D01*
X160800186Y-107449896D01*
X160729356Y-107442055D01*
X160622907Y-107438813D01*
X160599323Y-107438731D01*
X160388307Y-107438731D01*
X160388307Y-107165192D01*
X160584977Y-107165192D01*
X160693554Y-107163558D01*
X160769004Y-107156875D01*
X160817204Y-107142470D01*
X160844032Y-107117672D01*
X160855364Y-107079808D01*
X160857230Y-107041412D01*
X160852031Y-106984038D01*
X160839043Y-106942025D01*
X160833784Y-106934638D01*
X160800198Y-106922333D01*
X160729595Y-106914480D01*
X160623805Y-106911264D01*
X160602106Y-106911192D01*
X160393874Y-106911192D01*
X160381634Y-106794081D01*
X160361535Y-106675652D01*
X160325217Y-106580213D01*
X160266355Y-106492952D01*
X160240116Y-106462550D01*
X160143357Y-106376072D01*
X160033694Y-106320432D01*
X159901769Y-106291091D01*
X159882247Y-106288947D01*
X159753307Y-106276192D01*
X159733769Y-105826808D01*
X159518846Y-105826808D01*
X159507822Y-106287648D01*
G37*
X159507822Y-106287648D02*
X159366795Y-106281920D01*
X159225769Y-106276192D01*
X159216000Y-106051500D01*
X159206230Y-105826808D01*
X158991307Y-105826808D01*
X158980283Y-106287648D01*
X158839257Y-106281920D01*
X158698230Y-106276192D01*
X158678692Y-105826808D01*
X158463769Y-105826808D01*
X158452745Y-106287648D01*
X158311719Y-106281920D01*
X158170692Y-106276192D01*
X158151154Y-105826808D01*
X157936230Y-105826808D01*
X157930719Y-106057228D01*
X157925207Y-106287648D01*
X157784180Y-106281920D01*
X157643154Y-106276192D01*
X157633384Y-106051500D01*
X157623615Y-105826808D01*
X157408692Y-105826808D01*
X157403187Y-106056384D01*
X157397683Y-106285961D01*
X157304091Y-106285961D01*
X157164839Y-106304138D01*
X157039743Y-106355568D01*
X156933453Y-106435602D01*
X156850618Y-106539592D01*
X156795888Y-106662887D01*
X156773910Y-106800840D01*
X156773692Y-106816360D01*
X156773692Y-106909952D01*
X156544115Y-106915457D01*
X156314538Y-106920961D01*
X156308527Y-107026574D01*
X156309295Y-107102802D01*
X156322521Y-107143442D01*
X156328066Y-107148390D01*
X156357266Y-107155080D01*
X156416216Y-107160486D01*
X156495592Y-107163955D01*
X156563654Y-107164893D01*
X156773692Y-107165192D01*
X156773692Y-107437491D01*
X156544115Y-107442995D01*
X156314538Y-107448500D01*
X156308527Y-107554112D01*
X156309295Y-107630340D01*
X156322521Y-107670980D01*
X156328066Y-107675928D01*
X156357266Y-107682619D01*
X156416216Y-107688025D01*
X156495592Y-107691493D01*
X156563654Y-107692431D01*
X156773692Y-107692731D01*
X156773692Y-107965029D01*
X156544115Y-107970534D01*
X156314538Y-107976038D01*
X156308754Y-108085870D01*
X156307134Y-108138086D01*
X156312566Y-108174570D01*
X156330843Y-108198155D01*
X156367757Y-108211672D01*
X156429103Y-108217952D01*
X156520673Y-108219827D01*
X156583192Y-108220002D01*
X156773692Y-108220269D01*
X156773692Y-108492567D01*
X156314538Y-108503577D01*
X156308754Y-108613409D01*
X156307134Y-108665624D01*
X156312566Y-108702109D01*
X156330843Y-108725694D01*
X156367757Y-108739210D01*
X156429103Y-108745490D01*
X156520673Y-108747365D01*
X156583192Y-108747541D01*
X156773692Y-108747808D01*
X156773692Y-109020106D01*
X156544115Y-109025611D01*
X156314538Y-109031115D01*
X156308754Y-109140947D01*
X156307134Y-109193163D01*
X156312566Y-109229647D01*
X156330843Y-109253232D01*
X156367757Y-109266749D01*
X156429103Y-109273029D01*
X156520673Y-109274904D01*
X156583192Y-109275079D01*
X156773692Y-109275346D01*
X156773883Y-109377923D01*
X156792457Y-109511858D01*
X156844843Y-109632562D01*
X156926813Y-109735749D01*
X157034139Y-109817131D01*
X157162591Y-109872419D01*
X157284361Y-109895616D01*
X157398923Y-109906004D01*
X157398923Y-110115821D01*
X157400350Y-110220854D01*
X157406819Y-110292696D01*
X157421609Y-110337194D01*
X157447998Y-110360195D01*
X157489265Y-110367546D01*
X157539133Y-110365809D01*
X157623615Y-110359731D01*
X157633384Y-110135038D01*
X157643154Y-109910346D01*
X157784807Y-109904605D01*
X157926461Y-109898865D01*
X157926461Y-110112252D01*
X157927835Y-110218113D01*
X157934099Y-110290751D01*
X157948470Y-110335980D01*
X157974165Y-110359618D01*
X158014400Y-110367482D01*
X158066671Y-110365809D01*
X158151154Y-110359731D01*
X158156658Y-110130154D01*
X158162163Y-109900577D01*
X158454000Y-109900577D01*
X158454000Y-110113108D01*
X158455386Y-110218771D01*
X158461698Y-110291218D01*
X158476168Y-110336273D01*
X158502027Y-110359758D01*
X158542506Y-110367499D01*
X158594210Y-110365809D01*
X158678692Y-110359731D01*
X158684197Y-110130154D01*
X158689701Y-109900577D01*
X158981538Y-109900577D01*
X158981538Y-110113108D01*
X158982924Y-110218771D01*
X158989237Y-110291218D01*
X159003707Y-110336273D01*
X159029566Y-110359758D01*
X159070045Y-110367499D01*
X159121748Y-110365809D01*
X159206230Y-110359731D01*
X159217240Y-109900577D01*
X159509077Y-109900577D01*
X159509077Y-110111592D01*
X159511445Y-110224485D01*
X159518444Y-110302058D01*
X159529912Y-110342699D01*
X159532523Y-110346054D01*
X159564845Y-110359882D01*
X159617761Y-110367878D01*
X159674549Y-110369161D01*
X159718487Y-110362851D01*
X159730513Y-110356474D01*
X159735738Y-110332780D01*
X159739964Y-110278464D01*
X159742715Y-110201979D01*
X159743538Y-110124838D01*
X159743538Y-109906228D01*
X159869556Y-109894460D01*
X160020495Y-109863478D01*
X160147672Y-109801903D01*
X160249487Y-109711327D01*
X160324337Y-109593342D01*
X160370624Y-109449539D01*
X160380665Y-109386148D01*
X160393688Y-109275346D01*
X160587667Y-109275346D01*
X160695642Y-109273673D01*
X160770517Y-109266848D01*
X160818192Y-109252162D01*
X160844569Y-109226904D01*
X160855548Y-109188367D01*
X160857230Y-109151566D01*
X160852031Y-109094192D01*
X160839043Y-109052179D01*
X160833784Y-109044792D01*
X160800186Y-109032512D01*
X160729356Y-109024670D01*
X160622907Y-109021429D01*
X160599323Y-109021346D01*
X160388307Y-109021346D01*
X160388307Y-108747808D01*
X160584977Y-108747808D01*
X160693554Y-108746174D01*
X160769004Y-108739490D01*
X160817204Y-108725085D01*
X160844032Y-108700287D01*
X160855364Y-108662423D01*
X160857230Y-108624028D01*
X160852031Y-108566653D01*
X160839043Y-108524640D01*
X160833784Y-108517254D01*
X160800186Y-108504973D01*
X160729356Y-108497132D01*
X160622907Y-108493890D01*
X160599323Y-108493808D01*
X160388307Y-108493808D01*
X160388307Y-108220269D01*
X160584977Y-108220269D01*
X160693554Y-108218635D01*
X160769004Y-108211952D01*
X160817204Y-108197547D01*
X160844032Y-108172749D01*
X160855364Y-108134885D01*
X160857231Y-108096489D01*
X160852031Y-108039115D01*
X160839043Y-107997102D01*
X160833784Y-107989715D01*
X160800186Y-107977435D01*
X160729356Y-107969593D01*
X160622907Y-107966352D01*
X160599323Y-107966269D01*
X160388307Y-107966269D01*
X160388307Y-107716384D01*
X159603392Y-107716384D01*
X159603019Y-107855134D01*
X159600917Y-107964223D01*
X159596920Y-108048347D01*
X159590857Y-108112199D01*
X159582561Y-108160477D01*
X159579636Y-108172531D01*
X159519929Y-108328820D01*
X159429237Y-108462238D01*
X159309137Y-108571520D01*
X159161207Y-108655399D01*
X158987022Y-108712608D01*
X158883133Y-108731891D01*
X158727538Y-108753895D01*
X158727538Y-108952098D01*
X158724850Y-109064480D01*
X158716803Y-109138671D01*
X158703426Y-109174410D01*
X158703282Y-109174556D01*
X158666003Y-109189195D01*
X158596675Y-109194065D01*
X158561628Y-109193117D01*
X158444230Y-109187423D01*
X158438706Y-108967615D01*
X158435845Y-108872252D01*
X158432076Y-108809292D01*
X158426040Y-108772067D01*
X158416379Y-108753906D01*
X158401732Y-108748138D01*
X158393921Y-108747808D01*
X158328624Y-108741452D01*
X158240687Y-108724713D01*
X158144000Y-108701081D01*
X158052455Y-108674046D01*
X157979942Y-108647098D01*
X157964847Y-108639996D01*
X157860363Y-108571934D01*
X157759416Y-108479716D01*
X157675975Y-108376846D01*
X157651213Y-108336788D01*
X157621095Y-108279959D01*
X157597260Y-108225820D01*
X157578984Y-108168896D01*
X157565543Y-108103711D01*
X157556212Y-108024788D01*
X157550267Y-107926651D01*
X157546985Y-107803825D01*
X157545640Y-107650834D01*
X157545461Y-107537263D01*
X157545461Y-107020334D01*
X157613846Y-107006235D01*
X157683536Y-107000421D01*
X157750615Y-107006238D01*
X157819000Y-107020341D01*
X157830437Y-107537267D01*
X157835084Y-107707410D01*
X157840889Y-107854247D01*
X157847634Y-107974097D01*
X157855101Y-108063281D01*
X157863071Y-108118120D01*
X157865411Y-108126968D01*
X157922037Y-108241274D01*
X158009517Y-108340023D01*
X158121007Y-108417943D01*
X158249662Y-108469762D01*
X158331647Y-108486058D01*
X158433987Y-108498779D01*
X158439109Y-107759513D01*
X158444230Y-107020247D01*
X158512615Y-107006191D01*
X158582302Y-107000417D01*
X158649384Y-107006264D01*
X158717769Y-107020394D01*
X158722891Y-107759284D01*
X158728012Y-108498173D01*
X158820583Y-108484807D01*
X158967700Y-108446836D01*
X159094084Y-108379980D01*
X159195370Y-108287234D01*
X159262832Y-108181192D01*
X159275161Y-108152246D01*
X159284933Y-108120858D01*
X159292559Y-108081964D01*
X159298451Y-108030500D01*
X159303023Y-107961402D01*
X159306687Y-107869605D01*
X159309854Y-107750047D01*
X159312938Y-107597663D01*
X159313692Y-107556735D01*
X159323461Y-107020202D01*
X159391846Y-107006168D01*
X159461535Y-107000409D01*
X159528615Y-107006261D01*
X159597000Y-107020386D01*
X159602206Y-107543277D01*
X159603392Y-107716384D01*
X160388307Y-107716384D01*
X160388307Y-107692731D01*
X160584977Y-107692731D01*
X160693554Y-107691097D01*
X160769004Y-107684413D01*
X160817204Y-107670009D01*
X160844032Y-107645210D01*
X160855364Y-107607346D01*
X160857230Y-107568951D01*
X160852031Y-107511576D01*
X160839043Y-107469563D01*
X160833784Y-107462177D01*
X160800186Y-107449896D01*
X160729356Y-107442055D01*
X160622907Y-107438813D01*
X160599323Y-107438731D01*
X160388307Y-107438731D01*
X160388307Y-107165192D01*
X160584977Y-107165192D01*
X160693554Y-107163558D01*
X160769004Y-107156875D01*
X160817204Y-107142470D01*
X160844032Y-107117672D01*
X160855364Y-107079808D01*
X160857230Y-107041412D01*
X160852031Y-106984038D01*
X160839043Y-106942025D01*
X160833784Y-106934638D01*
X160800198Y-106922333D01*
X160729595Y-106914480D01*
X160623805Y-106911264D01*
X160602106Y-106911192D01*
X160393874Y-106911192D01*
X160381634Y-106794081D01*
X160361535Y-106675652D01*
X160325217Y-106580213D01*
X160266355Y-106492952D01*
X160240116Y-106462550D01*
X160143357Y-106376072D01*
X160033694Y-106320432D01*
X159901769Y-106291091D01*
X159882247Y-106288947D01*
X159753307Y-106276192D01*
X159733769Y-105826808D01*
X159518846Y-105826808D01*
X159507822Y-106287648D01*
M02*
