G04 #@! TF.GenerationSoftware,KiCad,Pcbnew,(5.1.5)-3*
G04 #@! TF.CreationDate,2020-05-15T01:34:05+04:00*
G04 #@! TF.ProjectId,redox_rev2_ng-TOP,7265646f-785f-4726-9576-325f6e672d54,2.0 NG*
G04 #@! TF.SameCoordinates,Original*
G04 #@! TF.FileFunction,Soldermask,Bot*
G04 #@! TF.FilePolarity,Negative*
%FSLAX46Y46*%
G04 Gerber Fmt 4.6, Leading zero omitted, Abs format (unit mm)*
G04 Created by KiCad (PCBNEW (5.1.5)-3) date 2020-05-15 01:34:05*
%MOMM*%
%LPD*%
G04 APERTURE LIST*
%ADD10C,0.010000*%
%ADD11C,4.000000*%
G04 APERTURE END LIST*
D10*
G36*
X207553464Y-46000427D02*
G01*
X207440882Y-46597618D01*
X207025469Y-46768865D01*
X206610055Y-46940112D01*
X206111698Y-46601233D01*
X205972131Y-46506877D01*
X205845971Y-46422630D01*
X205739104Y-46352338D01*
X205657417Y-46299847D01*
X205606798Y-46269004D01*
X205593013Y-46262353D01*
X205568179Y-46279458D01*
X205515111Y-46326744D01*
X205439759Y-46398172D01*
X205348070Y-46487700D01*
X205245992Y-46589289D01*
X205139473Y-46696898D01*
X205034463Y-46804487D01*
X204936908Y-46906015D01*
X204852757Y-46995441D01*
X204787959Y-47066726D01*
X204748462Y-47113828D01*
X204739019Y-47129592D01*
X204752608Y-47158653D01*
X204790706Y-47222321D01*
X204849306Y-47314367D01*
X204924402Y-47428564D01*
X205011991Y-47558684D01*
X205062745Y-47632901D01*
X205155254Y-47768422D01*
X205237459Y-47890716D01*
X205305369Y-47993695D01*
X205354999Y-48071273D01*
X205382359Y-48117361D01*
X205386470Y-48127047D01*
X205377150Y-48154574D01*
X205351745Y-48218728D01*
X205314088Y-48310490D01*
X205268013Y-48420839D01*
X205217353Y-48540755D01*
X205165940Y-48661219D01*
X205117610Y-48773209D01*
X205076193Y-48867707D01*
X205045525Y-48935692D01*
X205029438Y-48968143D01*
X205028488Y-48969420D01*
X205003227Y-48975617D01*
X204935954Y-48989440D01*
X204833639Y-49009532D01*
X204703258Y-49034534D01*
X204551783Y-49063086D01*
X204463406Y-49079551D01*
X204301547Y-49110369D01*
X204155350Y-49139694D01*
X204032212Y-49165921D01*
X203939530Y-49187446D01*
X203884698Y-49202665D01*
X203873676Y-49207493D01*
X203862881Y-49240174D01*
X203854170Y-49313985D01*
X203847539Y-49420292D01*
X203842981Y-49550467D01*
X203840490Y-49695876D01*
X203840061Y-49847890D01*
X203841688Y-49997877D01*
X203845364Y-50137206D01*
X203851084Y-50257245D01*
X203858842Y-50349365D01*
X203868631Y-50404932D01*
X203874503Y-50416500D01*
X203909600Y-50430365D01*
X203983971Y-50450188D01*
X204087776Y-50473639D01*
X204211180Y-50498391D01*
X204254258Y-50506398D01*
X204461952Y-50544441D01*
X204626015Y-50575079D01*
X204751869Y-50599529D01*
X204844934Y-50619009D01*
X204910632Y-50634736D01*
X204954382Y-50647928D01*
X204981607Y-50659804D01*
X204997727Y-50671580D01*
X204999982Y-50673908D01*
X205022496Y-50711400D01*
X205056841Y-50784365D01*
X205099588Y-50883867D01*
X205147307Y-51000973D01*
X205196569Y-51126748D01*
X205243944Y-51252257D01*
X205286004Y-51368565D01*
X205319319Y-51466739D01*
X205340458Y-51537843D01*
X205345994Y-51572942D01*
X205345533Y-51574172D01*
X205326776Y-51602861D01*
X205284223Y-51665985D01*
X205222346Y-51756973D01*
X205145617Y-51869255D01*
X205058508Y-51996260D01*
X205033701Y-52032353D01*
X204945247Y-52163203D01*
X204867411Y-52282591D01*
X204804433Y-52383662D01*
X204760554Y-52459559D01*
X204740014Y-52503427D01*
X204739019Y-52508817D01*
X204756277Y-52537144D01*
X204803964Y-52593261D01*
X204875949Y-52671137D01*
X204966102Y-52764740D01*
X205068294Y-52868041D01*
X205176394Y-52975006D01*
X205284271Y-53079606D01*
X205385795Y-53175809D01*
X205474837Y-53257584D01*
X205545266Y-53318900D01*
X205590952Y-53353726D01*
X205603590Y-53359412D01*
X205633008Y-53346020D01*
X205693238Y-53309899D01*
X205774470Y-53257136D01*
X205836969Y-53214667D01*
X205950214Y-53136740D01*
X206084325Y-53044984D01*
X206218844Y-52953375D01*
X206291166Y-52904346D01*
X206535961Y-52738770D01*
X206741449Y-52849875D01*
X206835063Y-52898548D01*
X206914669Y-52936381D01*
X206968532Y-52957958D01*
X206982242Y-52960961D01*
X206998729Y-52938793D01*
X207031254Y-52876149D01*
X207077391Y-52778809D01*
X207134709Y-52652549D01*
X207200783Y-52503150D01*
X207273184Y-52336388D01*
X207349483Y-52158042D01*
X207427253Y-51973891D01*
X207504065Y-51789712D01*
X207577493Y-51611285D01*
X207645107Y-51444387D01*
X207704479Y-51294797D01*
X207753183Y-51168293D01*
X207788789Y-51070654D01*
X207808869Y-51007657D01*
X207812099Y-50986021D01*
X207786503Y-50958424D01*
X207730461Y-50913625D01*
X207655688Y-50860934D01*
X207649412Y-50856765D01*
X207456154Y-50702069D01*
X207300325Y-50521591D01*
X207183275Y-50321102D01*
X207106354Y-50106374D01*
X207070913Y-49883177D01*
X207078302Y-49657281D01*
X207129872Y-49434459D01*
X207226973Y-49220479D01*
X207255541Y-49173664D01*
X207404131Y-48984618D01*
X207579672Y-48832812D01*
X207776089Y-48719034D01*
X207987306Y-48644075D01*
X208207246Y-48608722D01*
X208429836Y-48613767D01*
X208648998Y-48659999D01*
X208858657Y-48748206D01*
X209052738Y-48879179D01*
X209112773Y-48932337D01*
X209265564Y-49098739D01*
X209376902Y-49273912D01*
X209453276Y-49470266D01*
X209495812Y-49664717D01*
X209506313Y-49883342D01*
X209471299Y-50103052D01*
X209394326Y-50316420D01*
X209278952Y-50516022D01*
X209128734Y-50694429D01*
X208947226Y-50844217D01*
X208923372Y-50860006D01*
X208847798Y-50911712D01*
X208790348Y-50956512D01*
X208762882Y-50985117D01*
X208762482Y-50986021D01*
X208768379Y-51016964D01*
X208791754Y-51087191D01*
X208830178Y-51190925D01*
X208881222Y-51322390D01*
X208942457Y-51475807D01*
X209011455Y-51645401D01*
X209085786Y-51825393D01*
X209163021Y-52010008D01*
X209240731Y-52193468D01*
X209316488Y-52369996D01*
X209387862Y-52533814D01*
X209452425Y-52679147D01*
X209507747Y-52800217D01*
X209551399Y-52891247D01*
X209580953Y-52946460D01*
X209592855Y-52960961D01*
X209629222Y-52949669D01*
X209697269Y-52919385D01*
X209785263Y-52875520D01*
X209833649Y-52849875D01*
X210039136Y-52738770D01*
X210283931Y-52904346D01*
X210408893Y-52989170D01*
X210545704Y-53082516D01*
X210673911Y-53170408D01*
X210738128Y-53214667D01*
X210828448Y-53275318D01*
X210904928Y-53323381D01*
X210957592Y-53352770D01*
X210974697Y-53358982D01*
X210999594Y-53342223D01*
X211054694Y-53295436D01*
X211134656Y-53223480D01*
X211234139Y-53131212D01*
X211347799Y-53023490D01*
X211419684Y-52954326D01*
X211545448Y-52830757D01*
X211654136Y-52720234D01*
X211741354Y-52627485D01*
X211802710Y-52557237D01*
X211833808Y-52514220D01*
X211836791Y-52505490D01*
X211822946Y-52472284D01*
X211784687Y-52405142D01*
X211726258Y-52310863D01*
X211651902Y-52196245D01*
X211565864Y-52068083D01*
X211541397Y-52032353D01*
X211452245Y-51902489D01*
X211372261Y-51785569D01*
X211305919Y-51688162D01*
X211257688Y-51616839D01*
X211232042Y-51578170D01*
X211229564Y-51574172D01*
X211233270Y-51543355D01*
X211252938Y-51475599D01*
X211285139Y-51379839D01*
X211326444Y-51265009D01*
X211373424Y-51140044D01*
X211422650Y-51013879D01*
X211470691Y-50895448D01*
X211514118Y-50793685D01*
X211549503Y-50717526D01*
X211573415Y-50675904D01*
X211575115Y-50673908D01*
X211589737Y-50662013D01*
X211614434Y-50650250D01*
X211654627Y-50637401D01*
X211715736Y-50622249D01*
X211803182Y-50603576D01*
X211922387Y-50580165D01*
X212078772Y-50550797D01*
X212277756Y-50514255D01*
X212320839Y-50506398D01*
X212448529Y-50481727D01*
X212559846Y-50457593D01*
X212644954Y-50436324D01*
X212694016Y-50420248D01*
X212700594Y-50416500D01*
X212711435Y-50383273D01*
X212720246Y-50309021D01*
X212727023Y-50202376D01*
X212731759Y-50071967D01*
X212734449Y-49926427D01*
X212735086Y-49774386D01*
X212733665Y-49624476D01*
X212730179Y-49485328D01*
X212724623Y-49365572D01*
X212716991Y-49273841D01*
X212707277Y-49218766D01*
X212701421Y-49207493D01*
X212668819Y-49196123D01*
X212594581Y-49177624D01*
X212486103Y-49153602D01*
X212350782Y-49125662D01*
X212196014Y-49095408D01*
X212111692Y-49079551D01*
X211951703Y-49049644D01*
X211809032Y-49022550D01*
X211690651Y-48999631D01*
X211603534Y-48982243D01*
X211554654Y-48971747D01*
X211546609Y-48969420D01*
X211533012Y-48943186D01*
X211504270Y-48879995D01*
X211464214Y-48788877D01*
X211416675Y-48678857D01*
X211365484Y-48558965D01*
X211314473Y-48438227D01*
X211267473Y-48325671D01*
X211228315Y-48230326D01*
X211200830Y-48161217D01*
X211188850Y-48127374D01*
X211188627Y-48125895D01*
X211202208Y-48099197D01*
X211240284Y-48037760D01*
X211298852Y-47947689D01*
X211373911Y-47835090D01*
X211461459Y-47706070D01*
X211512352Y-47631961D01*
X211605090Y-47496077D01*
X211687458Y-47372709D01*
X211755438Y-47268097D01*
X211805011Y-47188483D01*
X211832157Y-47140107D01*
X211836078Y-47129262D01*
X211819224Y-47104020D01*
X211772631Y-47050124D01*
X211702251Y-46973613D01*
X211614034Y-46880523D01*
X211513934Y-46776895D01*
X211407901Y-46668764D01*
X211301888Y-46562170D01*
X211201847Y-46463150D01*
X211113729Y-46377742D01*
X211043486Y-46311985D01*
X210997071Y-46271916D01*
X210981543Y-46262353D01*
X210956260Y-46275800D01*
X210895788Y-46313575D01*
X210806007Y-46371835D01*
X210692796Y-46446734D01*
X210562036Y-46534425D01*
X210463400Y-46601233D01*
X209965042Y-46940112D01*
X209549629Y-46768865D01*
X209134215Y-46597618D01*
X209021633Y-46000427D01*
X208909050Y-45403235D01*
X207666047Y-45403235D01*
X207553464Y-46000427D01*
G37*
X207553464Y-46000427D02*
X207440882Y-46597618D01*
X207025469Y-46768865D01*
X206610055Y-46940112D01*
X206111698Y-46601233D01*
X205972131Y-46506877D01*
X205845971Y-46422630D01*
X205739104Y-46352338D01*
X205657417Y-46299847D01*
X205606798Y-46269004D01*
X205593013Y-46262353D01*
X205568179Y-46279458D01*
X205515111Y-46326744D01*
X205439759Y-46398172D01*
X205348070Y-46487700D01*
X205245992Y-46589289D01*
X205139473Y-46696898D01*
X205034463Y-46804487D01*
X204936908Y-46906015D01*
X204852757Y-46995441D01*
X204787959Y-47066726D01*
X204748462Y-47113828D01*
X204739019Y-47129592D01*
X204752608Y-47158653D01*
X204790706Y-47222321D01*
X204849306Y-47314367D01*
X204924402Y-47428564D01*
X205011991Y-47558684D01*
X205062745Y-47632901D01*
X205155254Y-47768422D01*
X205237459Y-47890716D01*
X205305369Y-47993695D01*
X205354999Y-48071273D01*
X205382359Y-48117361D01*
X205386470Y-48127047D01*
X205377150Y-48154574D01*
X205351745Y-48218728D01*
X205314088Y-48310490D01*
X205268013Y-48420839D01*
X205217353Y-48540755D01*
X205165940Y-48661219D01*
X205117610Y-48773209D01*
X205076193Y-48867707D01*
X205045525Y-48935692D01*
X205029438Y-48968143D01*
X205028488Y-48969420D01*
X205003227Y-48975617D01*
X204935954Y-48989440D01*
X204833639Y-49009532D01*
X204703258Y-49034534D01*
X204551783Y-49063086D01*
X204463406Y-49079551D01*
X204301547Y-49110369D01*
X204155350Y-49139694D01*
X204032212Y-49165921D01*
X203939530Y-49187446D01*
X203884698Y-49202665D01*
X203873676Y-49207493D01*
X203862881Y-49240174D01*
X203854170Y-49313985D01*
X203847539Y-49420292D01*
X203842981Y-49550467D01*
X203840490Y-49695876D01*
X203840061Y-49847890D01*
X203841688Y-49997877D01*
X203845364Y-50137206D01*
X203851084Y-50257245D01*
X203858842Y-50349365D01*
X203868631Y-50404932D01*
X203874503Y-50416500D01*
X203909600Y-50430365D01*
X203983971Y-50450188D01*
X204087776Y-50473639D01*
X204211180Y-50498391D01*
X204254258Y-50506398D01*
X204461952Y-50544441D01*
X204626015Y-50575079D01*
X204751869Y-50599529D01*
X204844934Y-50619009D01*
X204910632Y-50634736D01*
X204954382Y-50647928D01*
X204981607Y-50659804D01*
X204997727Y-50671580D01*
X204999982Y-50673908D01*
X205022496Y-50711400D01*
X205056841Y-50784365D01*
X205099588Y-50883867D01*
X205147307Y-51000973D01*
X205196569Y-51126748D01*
X205243944Y-51252257D01*
X205286004Y-51368565D01*
X205319319Y-51466739D01*
X205340458Y-51537843D01*
X205345994Y-51572942D01*
X205345533Y-51574172D01*
X205326776Y-51602861D01*
X205284223Y-51665985D01*
X205222346Y-51756973D01*
X205145617Y-51869255D01*
X205058508Y-51996260D01*
X205033701Y-52032353D01*
X204945247Y-52163203D01*
X204867411Y-52282591D01*
X204804433Y-52383662D01*
X204760554Y-52459559D01*
X204740014Y-52503427D01*
X204739019Y-52508817D01*
X204756277Y-52537144D01*
X204803964Y-52593261D01*
X204875949Y-52671137D01*
X204966102Y-52764740D01*
X205068294Y-52868041D01*
X205176394Y-52975006D01*
X205284271Y-53079606D01*
X205385795Y-53175809D01*
X205474837Y-53257584D01*
X205545266Y-53318900D01*
X205590952Y-53353726D01*
X205603590Y-53359412D01*
X205633008Y-53346020D01*
X205693238Y-53309899D01*
X205774470Y-53257136D01*
X205836969Y-53214667D01*
X205950214Y-53136740D01*
X206084325Y-53044984D01*
X206218844Y-52953375D01*
X206291166Y-52904346D01*
X206535961Y-52738770D01*
X206741449Y-52849875D01*
X206835063Y-52898548D01*
X206914669Y-52936381D01*
X206968532Y-52957958D01*
X206982242Y-52960961D01*
X206998729Y-52938793D01*
X207031254Y-52876149D01*
X207077391Y-52778809D01*
X207134709Y-52652549D01*
X207200783Y-52503150D01*
X207273184Y-52336388D01*
X207349483Y-52158042D01*
X207427253Y-51973891D01*
X207504065Y-51789712D01*
X207577493Y-51611285D01*
X207645107Y-51444387D01*
X207704479Y-51294797D01*
X207753183Y-51168293D01*
X207788789Y-51070654D01*
X207808869Y-51007657D01*
X207812099Y-50986021D01*
X207786503Y-50958424D01*
X207730461Y-50913625D01*
X207655688Y-50860934D01*
X207649412Y-50856765D01*
X207456154Y-50702069D01*
X207300325Y-50521591D01*
X207183275Y-50321102D01*
X207106354Y-50106374D01*
X207070913Y-49883177D01*
X207078302Y-49657281D01*
X207129872Y-49434459D01*
X207226973Y-49220479D01*
X207255541Y-49173664D01*
X207404131Y-48984618D01*
X207579672Y-48832812D01*
X207776089Y-48719034D01*
X207987306Y-48644075D01*
X208207246Y-48608722D01*
X208429836Y-48613767D01*
X208648998Y-48659999D01*
X208858657Y-48748206D01*
X209052738Y-48879179D01*
X209112773Y-48932337D01*
X209265564Y-49098739D01*
X209376902Y-49273912D01*
X209453276Y-49470266D01*
X209495812Y-49664717D01*
X209506313Y-49883342D01*
X209471299Y-50103052D01*
X209394326Y-50316420D01*
X209278952Y-50516022D01*
X209128734Y-50694429D01*
X208947226Y-50844217D01*
X208923372Y-50860006D01*
X208847798Y-50911712D01*
X208790348Y-50956512D01*
X208762882Y-50985117D01*
X208762482Y-50986021D01*
X208768379Y-51016964D01*
X208791754Y-51087191D01*
X208830178Y-51190925D01*
X208881222Y-51322390D01*
X208942457Y-51475807D01*
X209011455Y-51645401D01*
X209085786Y-51825393D01*
X209163021Y-52010008D01*
X209240731Y-52193468D01*
X209316488Y-52369996D01*
X209387862Y-52533814D01*
X209452425Y-52679147D01*
X209507747Y-52800217D01*
X209551399Y-52891247D01*
X209580953Y-52946460D01*
X209592855Y-52960961D01*
X209629222Y-52949669D01*
X209697269Y-52919385D01*
X209785263Y-52875520D01*
X209833649Y-52849875D01*
X210039136Y-52738770D01*
X210283931Y-52904346D01*
X210408893Y-52989170D01*
X210545704Y-53082516D01*
X210673911Y-53170408D01*
X210738128Y-53214667D01*
X210828448Y-53275318D01*
X210904928Y-53323381D01*
X210957592Y-53352770D01*
X210974697Y-53358982D01*
X210999594Y-53342223D01*
X211054694Y-53295436D01*
X211134656Y-53223480D01*
X211234139Y-53131212D01*
X211347799Y-53023490D01*
X211419684Y-52954326D01*
X211545448Y-52830757D01*
X211654136Y-52720234D01*
X211741354Y-52627485D01*
X211802710Y-52557237D01*
X211833808Y-52514220D01*
X211836791Y-52505490D01*
X211822946Y-52472284D01*
X211784687Y-52405142D01*
X211726258Y-52310863D01*
X211651902Y-52196245D01*
X211565864Y-52068083D01*
X211541397Y-52032353D01*
X211452245Y-51902489D01*
X211372261Y-51785569D01*
X211305919Y-51688162D01*
X211257688Y-51616839D01*
X211232042Y-51578170D01*
X211229564Y-51574172D01*
X211233270Y-51543355D01*
X211252938Y-51475599D01*
X211285139Y-51379839D01*
X211326444Y-51265009D01*
X211373424Y-51140044D01*
X211422650Y-51013879D01*
X211470691Y-50895448D01*
X211514118Y-50793685D01*
X211549503Y-50717526D01*
X211573415Y-50675904D01*
X211575115Y-50673908D01*
X211589737Y-50662013D01*
X211614434Y-50650250D01*
X211654627Y-50637401D01*
X211715736Y-50622249D01*
X211803182Y-50603576D01*
X211922387Y-50580165D01*
X212078772Y-50550797D01*
X212277756Y-50514255D01*
X212320839Y-50506398D01*
X212448529Y-50481727D01*
X212559846Y-50457593D01*
X212644954Y-50436324D01*
X212694016Y-50420248D01*
X212700594Y-50416500D01*
X212711435Y-50383273D01*
X212720246Y-50309021D01*
X212727023Y-50202376D01*
X212731759Y-50071967D01*
X212734449Y-49926427D01*
X212735086Y-49774386D01*
X212733665Y-49624476D01*
X212730179Y-49485328D01*
X212724623Y-49365572D01*
X212716991Y-49273841D01*
X212707277Y-49218766D01*
X212701421Y-49207493D01*
X212668819Y-49196123D01*
X212594581Y-49177624D01*
X212486103Y-49153602D01*
X212350782Y-49125662D01*
X212196014Y-49095408D01*
X212111692Y-49079551D01*
X211951703Y-49049644D01*
X211809032Y-49022550D01*
X211690651Y-48999631D01*
X211603534Y-48982243D01*
X211554654Y-48971747D01*
X211546609Y-48969420D01*
X211533012Y-48943186D01*
X211504270Y-48879995D01*
X211464214Y-48788877D01*
X211416675Y-48678857D01*
X211365484Y-48558965D01*
X211314473Y-48438227D01*
X211267473Y-48325671D01*
X211228315Y-48230326D01*
X211200830Y-48161217D01*
X211188850Y-48127374D01*
X211188627Y-48125895D01*
X211202208Y-48099197D01*
X211240284Y-48037760D01*
X211298852Y-47947689D01*
X211373911Y-47835090D01*
X211461459Y-47706070D01*
X211512352Y-47631961D01*
X211605090Y-47496077D01*
X211687458Y-47372709D01*
X211755438Y-47268097D01*
X211805011Y-47188483D01*
X211832157Y-47140107D01*
X211836078Y-47129262D01*
X211819224Y-47104020D01*
X211772631Y-47050124D01*
X211702251Y-46973613D01*
X211614034Y-46880523D01*
X211513934Y-46776895D01*
X211407901Y-46668764D01*
X211301888Y-46562170D01*
X211201847Y-46463150D01*
X211113729Y-46377742D01*
X211043486Y-46311985D01*
X210997071Y-46271916D01*
X210981543Y-46262353D01*
X210956260Y-46275800D01*
X210895788Y-46313575D01*
X210806007Y-46371835D01*
X210692796Y-46446734D01*
X210562036Y-46534425D01*
X210463400Y-46601233D01*
X209965042Y-46940112D01*
X209549629Y-46768865D01*
X209134215Y-46597618D01*
X209021633Y-46000427D01*
X208909050Y-45403235D01*
X207666047Y-45403235D01*
X207553464Y-46000427D01*
D11*
X208300000Y-61700000D03*
X102235000Y-75000000D03*
X102235000Y-131725000D03*
X214250000Y-143000000D03*
M02*
