G04 #@! TF.GenerationSoftware,KiCad,Pcbnew,(5.1.5)-3*
G04 #@! TF.CreationDate,2020-05-15T01:34:05+04:00*
G04 #@! TF.ProjectId,redox_rev2_ng-TOP,7265646f-785f-4726-9576-325f6e672d54,2.0 NG*
G04 #@! TF.SameCoordinates,Original*
G04 #@! TF.FileFunction,Soldermask,Top*
G04 #@! TF.FilePolarity,Negative*
%FSLAX46Y46*%
G04 Gerber Fmt 4.6, Leading zero omitted, Abs format (unit mm)*
G04 Created by KiCad (PCBNEW (5.1.5)-3) date 2020-05-15 01:34:05*
%MOMM*%
%LPD*%
G04 APERTURE LIST*
%ADD10C,0.010000*%
%ADD11C,4.000000*%
G04 APERTURE END LIST*
D10*
G36*
X209046536Y-46000427D02*
G01*
X209159118Y-46597618D01*
X209574531Y-46768865D01*
X209989945Y-46940112D01*
X210488302Y-46601233D01*
X210627869Y-46506877D01*
X210754029Y-46422630D01*
X210860896Y-46352338D01*
X210942583Y-46299847D01*
X210993202Y-46269004D01*
X211006987Y-46262353D01*
X211031821Y-46279458D01*
X211084889Y-46326744D01*
X211160241Y-46398172D01*
X211251930Y-46487700D01*
X211354008Y-46589289D01*
X211460527Y-46696898D01*
X211565537Y-46804487D01*
X211663092Y-46906015D01*
X211747243Y-46995441D01*
X211812041Y-47066726D01*
X211851538Y-47113828D01*
X211860981Y-47129592D01*
X211847392Y-47158653D01*
X211809294Y-47222321D01*
X211750694Y-47314367D01*
X211675598Y-47428564D01*
X211588009Y-47558684D01*
X211537255Y-47632901D01*
X211444746Y-47768422D01*
X211362541Y-47890716D01*
X211294631Y-47993695D01*
X211245001Y-48071273D01*
X211217641Y-48117361D01*
X211213530Y-48127047D01*
X211222850Y-48154574D01*
X211248255Y-48218728D01*
X211285912Y-48310490D01*
X211331987Y-48420839D01*
X211382647Y-48540755D01*
X211434060Y-48661219D01*
X211482390Y-48773209D01*
X211523807Y-48867707D01*
X211554475Y-48935692D01*
X211570562Y-48968143D01*
X211571512Y-48969420D01*
X211596773Y-48975617D01*
X211664046Y-48989440D01*
X211766361Y-49009532D01*
X211896742Y-49034534D01*
X212048217Y-49063086D01*
X212136594Y-49079551D01*
X212298453Y-49110369D01*
X212444650Y-49139694D01*
X212567788Y-49165921D01*
X212660470Y-49187446D01*
X212715302Y-49202665D01*
X212726324Y-49207493D01*
X212737119Y-49240174D01*
X212745830Y-49313985D01*
X212752461Y-49420292D01*
X212757019Y-49550467D01*
X212759510Y-49695876D01*
X212759939Y-49847890D01*
X212758312Y-49997877D01*
X212754636Y-50137206D01*
X212748916Y-50257245D01*
X212741158Y-50349365D01*
X212731369Y-50404932D01*
X212725497Y-50416500D01*
X212690400Y-50430365D01*
X212616029Y-50450188D01*
X212512224Y-50473639D01*
X212388820Y-50498391D01*
X212345742Y-50506398D01*
X212138048Y-50544441D01*
X211973985Y-50575079D01*
X211848131Y-50599529D01*
X211755066Y-50619009D01*
X211689368Y-50634736D01*
X211645618Y-50647928D01*
X211618393Y-50659804D01*
X211602273Y-50671580D01*
X211600018Y-50673908D01*
X211577504Y-50711400D01*
X211543159Y-50784365D01*
X211500412Y-50883867D01*
X211452693Y-51000973D01*
X211403431Y-51126748D01*
X211356056Y-51252257D01*
X211313996Y-51368565D01*
X211280681Y-51466739D01*
X211259542Y-51537843D01*
X211254006Y-51572942D01*
X211254467Y-51574172D01*
X211273224Y-51602861D01*
X211315777Y-51665985D01*
X211377654Y-51756973D01*
X211454383Y-51869255D01*
X211541492Y-51996260D01*
X211566299Y-52032353D01*
X211654753Y-52163203D01*
X211732589Y-52282591D01*
X211795567Y-52383662D01*
X211839446Y-52459559D01*
X211859986Y-52503427D01*
X211860981Y-52508817D01*
X211843723Y-52537144D01*
X211796036Y-52593261D01*
X211724051Y-52671137D01*
X211633898Y-52764740D01*
X211531706Y-52868041D01*
X211423606Y-52975006D01*
X211315729Y-53079606D01*
X211214205Y-53175809D01*
X211125163Y-53257584D01*
X211054734Y-53318900D01*
X211009048Y-53353726D01*
X210996410Y-53359412D01*
X210966992Y-53346020D01*
X210906762Y-53309899D01*
X210825530Y-53257136D01*
X210763031Y-53214667D01*
X210649786Y-53136740D01*
X210515675Y-53044984D01*
X210381156Y-52953375D01*
X210308834Y-52904346D01*
X210064039Y-52738770D01*
X209858551Y-52849875D01*
X209764937Y-52898548D01*
X209685331Y-52936381D01*
X209631468Y-52957958D01*
X209617758Y-52960961D01*
X209601271Y-52938793D01*
X209568746Y-52876149D01*
X209522609Y-52778809D01*
X209465291Y-52652549D01*
X209399217Y-52503150D01*
X209326816Y-52336388D01*
X209250517Y-52158042D01*
X209172747Y-51973891D01*
X209095935Y-51789712D01*
X209022507Y-51611285D01*
X208954893Y-51444387D01*
X208895521Y-51294797D01*
X208846817Y-51168293D01*
X208811211Y-51070654D01*
X208791131Y-51007657D01*
X208787901Y-50986021D01*
X208813497Y-50958424D01*
X208869539Y-50913625D01*
X208944312Y-50860934D01*
X208950588Y-50856765D01*
X209143846Y-50702069D01*
X209299675Y-50521591D01*
X209416725Y-50321102D01*
X209493646Y-50106374D01*
X209529087Y-49883177D01*
X209521698Y-49657281D01*
X209470128Y-49434459D01*
X209373027Y-49220479D01*
X209344459Y-49173664D01*
X209195869Y-48984618D01*
X209020328Y-48832812D01*
X208823911Y-48719034D01*
X208612694Y-48644075D01*
X208392754Y-48608722D01*
X208170164Y-48613767D01*
X207951002Y-48659999D01*
X207741343Y-48748206D01*
X207547262Y-48879179D01*
X207487227Y-48932337D01*
X207334436Y-49098739D01*
X207223098Y-49273912D01*
X207146724Y-49470266D01*
X207104188Y-49664717D01*
X207093687Y-49883342D01*
X207128701Y-50103052D01*
X207205674Y-50316420D01*
X207321048Y-50516022D01*
X207471266Y-50694429D01*
X207652774Y-50844217D01*
X207676628Y-50860006D01*
X207752202Y-50911712D01*
X207809652Y-50956512D01*
X207837118Y-50985117D01*
X207837518Y-50986021D01*
X207831621Y-51016964D01*
X207808246Y-51087191D01*
X207769822Y-51190925D01*
X207718778Y-51322390D01*
X207657543Y-51475807D01*
X207588545Y-51645401D01*
X207514214Y-51825393D01*
X207436979Y-52010008D01*
X207359269Y-52193468D01*
X207283512Y-52369996D01*
X207212138Y-52533814D01*
X207147575Y-52679147D01*
X207092253Y-52800217D01*
X207048601Y-52891247D01*
X207019047Y-52946460D01*
X207007145Y-52960961D01*
X206970778Y-52949669D01*
X206902731Y-52919385D01*
X206814737Y-52875520D01*
X206766351Y-52849875D01*
X206560864Y-52738770D01*
X206316069Y-52904346D01*
X206191107Y-52989170D01*
X206054296Y-53082516D01*
X205926089Y-53170408D01*
X205861872Y-53214667D01*
X205771552Y-53275318D01*
X205695072Y-53323381D01*
X205642408Y-53352770D01*
X205625303Y-53358982D01*
X205600406Y-53342223D01*
X205545306Y-53295436D01*
X205465344Y-53223480D01*
X205365861Y-53131212D01*
X205252201Y-53023490D01*
X205180316Y-52954326D01*
X205054552Y-52830757D01*
X204945864Y-52720234D01*
X204858646Y-52627485D01*
X204797290Y-52557237D01*
X204766192Y-52514220D01*
X204763209Y-52505490D01*
X204777054Y-52472284D01*
X204815313Y-52405142D01*
X204873742Y-52310863D01*
X204948098Y-52196245D01*
X205034136Y-52068083D01*
X205058603Y-52032353D01*
X205147755Y-51902489D01*
X205227739Y-51785569D01*
X205294081Y-51688162D01*
X205342312Y-51616839D01*
X205367958Y-51578170D01*
X205370436Y-51574172D01*
X205366730Y-51543355D01*
X205347062Y-51475599D01*
X205314861Y-51379839D01*
X205273556Y-51265009D01*
X205226576Y-51140044D01*
X205177350Y-51013879D01*
X205129309Y-50895448D01*
X205085882Y-50793685D01*
X205050497Y-50717526D01*
X205026585Y-50675904D01*
X205024885Y-50673908D01*
X205010263Y-50662013D01*
X204985566Y-50650250D01*
X204945373Y-50637401D01*
X204884264Y-50622249D01*
X204796818Y-50603576D01*
X204677613Y-50580165D01*
X204521228Y-50550797D01*
X204322244Y-50514255D01*
X204279161Y-50506398D01*
X204151471Y-50481727D01*
X204040154Y-50457593D01*
X203955046Y-50436324D01*
X203905984Y-50420248D01*
X203899406Y-50416500D01*
X203888565Y-50383273D01*
X203879754Y-50309021D01*
X203872977Y-50202376D01*
X203868241Y-50071967D01*
X203865551Y-49926427D01*
X203864914Y-49774386D01*
X203866335Y-49624476D01*
X203869821Y-49485328D01*
X203875377Y-49365572D01*
X203883009Y-49273841D01*
X203892723Y-49218766D01*
X203898579Y-49207493D01*
X203931181Y-49196123D01*
X204005419Y-49177624D01*
X204113897Y-49153602D01*
X204249218Y-49125662D01*
X204403986Y-49095408D01*
X204488308Y-49079551D01*
X204648297Y-49049644D01*
X204790968Y-49022550D01*
X204909349Y-48999631D01*
X204996466Y-48982243D01*
X205045346Y-48971747D01*
X205053391Y-48969420D01*
X205066988Y-48943186D01*
X205095730Y-48879995D01*
X205135786Y-48788877D01*
X205183325Y-48678857D01*
X205234516Y-48558965D01*
X205285527Y-48438227D01*
X205332527Y-48325671D01*
X205371685Y-48230326D01*
X205399170Y-48161217D01*
X205411150Y-48127374D01*
X205411373Y-48125895D01*
X205397792Y-48099197D01*
X205359716Y-48037760D01*
X205301148Y-47947689D01*
X205226089Y-47835090D01*
X205138541Y-47706070D01*
X205087648Y-47631961D01*
X204994910Y-47496077D01*
X204912542Y-47372709D01*
X204844562Y-47268097D01*
X204794989Y-47188483D01*
X204767843Y-47140107D01*
X204763922Y-47129262D01*
X204780776Y-47104020D01*
X204827369Y-47050124D01*
X204897749Y-46973613D01*
X204985966Y-46880523D01*
X205086066Y-46776895D01*
X205192099Y-46668764D01*
X205298112Y-46562170D01*
X205398153Y-46463150D01*
X205486271Y-46377742D01*
X205556514Y-46311985D01*
X205602929Y-46271916D01*
X205618457Y-46262353D01*
X205643740Y-46275800D01*
X205704212Y-46313575D01*
X205793993Y-46371835D01*
X205907204Y-46446734D01*
X206037964Y-46534425D01*
X206136600Y-46601233D01*
X206634958Y-46940112D01*
X207050371Y-46768865D01*
X207465785Y-46597618D01*
X207578367Y-46000427D01*
X207690950Y-45403235D01*
X208933953Y-45403235D01*
X209046536Y-46000427D01*
G37*
X209046536Y-46000427D02*
X209159118Y-46597618D01*
X209574531Y-46768865D01*
X209989945Y-46940112D01*
X210488302Y-46601233D01*
X210627869Y-46506877D01*
X210754029Y-46422630D01*
X210860896Y-46352338D01*
X210942583Y-46299847D01*
X210993202Y-46269004D01*
X211006987Y-46262353D01*
X211031821Y-46279458D01*
X211084889Y-46326744D01*
X211160241Y-46398172D01*
X211251930Y-46487700D01*
X211354008Y-46589289D01*
X211460527Y-46696898D01*
X211565537Y-46804487D01*
X211663092Y-46906015D01*
X211747243Y-46995441D01*
X211812041Y-47066726D01*
X211851538Y-47113828D01*
X211860981Y-47129592D01*
X211847392Y-47158653D01*
X211809294Y-47222321D01*
X211750694Y-47314367D01*
X211675598Y-47428564D01*
X211588009Y-47558684D01*
X211537255Y-47632901D01*
X211444746Y-47768422D01*
X211362541Y-47890716D01*
X211294631Y-47993695D01*
X211245001Y-48071273D01*
X211217641Y-48117361D01*
X211213530Y-48127047D01*
X211222850Y-48154574D01*
X211248255Y-48218728D01*
X211285912Y-48310490D01*
X211331987Y-48420839D01*
X211382647Y-48540755D01*
X211434060Y-48661219D01*
X211482390Y-48773209D01*
X211523807Y-48867707D01*
X211554475Y-48935692D01*
X211570562Y-48968143D01*
X211571512Y-48969420D01*
X211596773Y-48975617D01*
X211664046Y-48989440D01*
X211766361Y-49009532D01*
X211896742Y-49034534D01*
X212048217Y-49063086D01*
X212136594Y-49079551D01*
X212298453Y-49110369D01*
X212444650Y-49139694D01*
X212567788Y-49165921D01*
X212660470Y-49187446D01*
X212715302Y-49202665D01*
X212726324Y-49207493D01*
X212737119Y-49240174D01*
X212745830Y-49313985D01*
X212752461Y-49420292D01*
X212757019Y-49550467D01*
X212759510Y-49695876D01*
X212759939Y-49847890D01*
X212758312Y-49997877D01*
X212754636Y-50137206D01*
X212748916Y-50257245D01*
X212741158Y-50349365D01*
X212731369Y-50404932D01*
X212725497Y-50416500D01*
X212690400Y-50430365D01*
X212616029Y-50450188D01*
X212512224Y-50473639D01*
X212388820Y-50498391D01*
X212345742Y-50506398D01*
X212138048Y-50544441D01*
X211973985Y-50575079D01*
X211848131Y-50599529D01*
X211755066Y-50619009D01*
X211689368Y-50634736D01*
X211645618Y-50647928D01*
X211618393Y-50659804D01*
X211602273Y-50671580D01*
X211600018Y-50673908D01*
X211577504Y-50711400D01*
X211543159Y-50784365D01*
X211500412Y-50883867D01*
X211452693Y-51000973D01*
X211403431Y-51126748D01*
X211356056Y-51252257D01*
X211313996Y-51368565D01*
X211280681Y-51466739D01*
X211259542Y-51537843D01*
X211254006Y-51572942D01*
X211254467Y-51574172D01*
X211273224Y-51602861D01*
X211315777Y-51665985D01*
X211377654Y-51756973D01*
X211454383Y-51869255D01*
X211541492Y-51996260D01*
X211566299Y-52032353D01*
X211654753Y-52163203D01*
X211732589Y-52282591D01*
X211795567Y-52383662D01*
X211839446Y-52459559D01*
X211859986Y-52503427D01*
X211860981Y-52508817D01*
X211843723Y-52537144D01*
X211796036Y-52593261D01*
X211724051Y-52671137D01*
X211633898Y-52764740D01*
X211531706Y-52868041D01*
X211423606Y-52975006D01*
X211315729Y-53079606D01*
X211214205Y-53175809D01*
X211125163Y-53257584D01*
X211054734Y-53318900D01*
X211009048Y-53353726D01*
X210996410Y-53359412D01*
X210966992Y-53346020D01*
X210906762Y-53309899D01*
X210825530Y-53257136D01*
X210763031Y-53214667D01*
X210649786Y-53136740D01*
X210515675Y-53044984D01*
X210381156Y-52953375D01*
X210308834Y-52904346D01*
X210064039Y-52738770D01*
X209858551Y-52849875D01*
X209764937Y-52898548D01*
X209685331Y-52936381D01*
X209631468Y-52957958D01*
X209617758Y-52960961D01*
X209601271Y-52938793D01*
X209568746Y-52876149D01*
X209522609Y-52778809D01*
X209465291Y-52652549D01*
X209399217Y-52503150D01*
X209326816Y-52336388D01*
X209250517Y-52158042D01*
X209172747Y-51973891D01*
X209095935Y-51789712D01*
X209022507Y-51611285D01*
X208954893Y-51444387D01*
X208895521Y-51294797D01*
X208846817Y-51168293D01*
X208811211Y-51070654D01*
X208791131Y-51007657D01*
X208787901Y-50986021D01*
X208813497Y-50958424D01*
X208869539Y-50913625D01*
X208944312Y-50860934D01*
X208950588Y-50856765D01*
X209143846Y-50702069D01*
X209299675Y-50521591D01*
X209416725Y-50321102D01*
X209493646Y-50106374D01*
X209529087Y-49883177D01*
X209521698Y-49657281D01*
X209470128Y-49434459D01*
X209373027Y-49220479D01*
X209344459Y-49173664D01*
X209195869Y-48984618D01*
X209020328Y-48832812D01*
X208823911Y-48719034D01*
X208612694Y-48644075D01*
X208392754Y-48608722D01*
X208170164Y-48613767D01*
X207951002Y-48659999D01*
X207741343Y-48748206D01*
X207547262Y-48879179D01*
X207487227Y-48932337D01*
X207334436Y-49098739D01*
X207223098Y-49273912D01*
X207146724Y-49470266D01*
X207104188Y-49664717D01*
X207093687Y-49883342D01*
X207128701Y-50103052D01*
X207205674Y-50316420D01*
X207321048Y-50516022D01*
X207471266Y-50694429D01*
X207652774Y-50844217D01*
X207676628Y-50860006D01*
X207752202Y-50911712D01*
X207809652Y-50956512D01*
X207837118Y-50985117D01*
X207837518Y-50986021D01*
X207831621Y-51016964D01*
X207808246Y-51087191D01*
X207769822Y-51190925D01*
X207718778Y-51322390D01*
X207657543Y-51475807D01*
X207588545Y-51645401D01*
X207514214Y-51825393D01*
X207436979Y-52010008D01*
X207359269Y-52193468D01*
X207283512Y-52369996D01*
X207212138Y-52533814D01*
X207147575Y-52679147D01*
X207092253Y-52800217D01*
X207048601Y-52891247D01*
X207019047Y-52946460D01*
X207007145Y-52960961D01*
X206970778Y-52949669D01*
X206902731Y-52919385D01*
X206814737Y-52875520D01*
X206766351Y-52849875D01*
X206560864Y-52738770D01*
X206316069Y-52904346D01*
X206191107Y-52989170D01*
X206054296Y-53082516D01*
X205926089Y-53170408D01*
X205861872Y-53214667D01*
X205771552Y-53275318D01*
X205695072Y-53323381D01*
X205642408Y-53352770D01*
X205625303Y-53358982D01*
X205600406Y-53342223D01*
X205545306Y-53295436D01*
X205465344Y-53223480D01*
X205365861Y-53131212D01*
X205252201Y-53023490D01*
X205180316Y-52954326D01*
X205054552Y-52830757D01*
X204945864Y-52720234D01*
X204858646Y-52627485D01*
X204797290Y-52557237D01*
X204766192Y-52514220D01*
X204763209Y-52505490D01*
X204777054Y-52472284D01*
X204815313Y-52405142D01*
X204873742Y-52310863D01*
X204948098Y-52196245D01*
X205034136Y-52068083D01*
X205058603Y-52032353D01*
X205147755Y-51902489D01*
X205227739Y-51785569D01*
X205294081Y-51688162D01*
X205342312Y-51616839D01*
X205367958Y-51578170D01*
X205370436Y-51574172D01*
X205366730Y-51543355D01*
X205347062Y-51475599D01*
X205314861Y-51379839D01*
X205273556Y-51265009D01*
X205226576Y-51140044D01*
X205177350Y-51013879D01*
X205129309Y-50895448D01*
X205085882Y-50793685D01*
X205050497Y-50717526D01*
X205026585Y-50675904D01*
X205024885Y-50673908D01*
X205010263Y-50662013D01*
X204985566Y-50650250D01*
X204945373Y-50637401D01*
X204884264Y-50622249D01*
X204796818Y-50603576D01*
X204677613Y-50580165D01*
X204521228Y-50550797D01*
X204322244Y-50514255D01*
X204279161Y-50506398D01*
X204151471Y-50481727D01*
X204040154Y-50457593D01*
X203955046Y-50436324D01*
X203905984Y-50420248D01*
X203899406Y-50416500D01*
X203888565Y-50383273D01*
X203879754Y-50309021D01*
X203872977Y-50202376D01*
X203868241Y-50071967D01*
X203865551Y-49926427D01*
X203864914Y-49774386D01*
X203866335Y-49624476D01*
X203869821Y-49485328D01*
X203875377Y-49365572D01*
X203883009Y-49273841D01*
X203892723Y-49218766D01*
X203898579Y-49207493D01*
X203931181Y-49196123D01*
X204005419Y-49177624D01*
X204113897Y-49153602D01*
X204249218Y-49125662D01*
X204403986Y-49095408D01*
X204488308Y-49079551D01*
X204648297Y-49049644D01*
X204790968Y-49022550D01*
X204909349Y-48999631D01*
X204996466Y-48982243D01*
X205045346Y-48971747D01*
X205053391Y-48969420D01*
X205066988Y-48943186D01*
X205095730Y-48879995D01*
X205135786Y-48788877D01*
X205183325Y-48678857D01*
X205234516Y-48558965D01*
X205285527Y-48438227D01*
X205332527Y-48325671D01*
X205371685Y-48230326D01*
X205399170Y-48161217D01*
X205411150Y-48127374D01*
X205411373Y-48125895D01*
X205397792Y-48099197D01*
X205359716Y-48037760D01*
X205301148Y-47947689D01*
X205226089Y-47835090D01*
X205138541Y-47706070D01*
X205087648Y-47631961D01*
X204994910Y-47496077D01*
X204912542Y-47372709D01*
X204844562Y-47268097D01*
X204794989Y-47188483D01*
X204767843Y-47140107D01*
X204763922Y-47129262D01*
X204780776Y-47104020D01*
X204827369Y-47050124D01*
X204897749Y-46973613D01*
X204985966Y-46880523D01*
X205086066Y-46776895D01*
X205192099Y-46668764D01*
X205298112Y-46562170D01*
X205398153Y-46463150D01*
X205486271Y-46377742D01*
X205556514Y-46311985D01*
X205602929Y-46271916D01*
X205618457Y-46262353D01*
X205643740Y-46275800D01*
X205704212Y-46313575D01*
X205793993Y-46371835D01*
X205907204Y-46446734D01*
X206037964Y-46534425D01*
X206136600Y-46601233D01*
X206634958Y-46940112D01*
X207050371Y-46768865D01*
X207465785Y-46597618D01*
X207578367Y-46000427D01*
X207690950Y-45403235D01*
X208933953Y-45403235D01*
X209046536Y-46000427D01*
D11*
X208300000Y-61700000D03*
X102235000Y-75000000D03*
X102235000Y-131725000D03*
X214250000Y-143000000D03*
M02*
