M48
; DRILL file {KiCad (5.1.5)-3} date 05/12/20 17:07:14
; FORMAT={3:3/ absolute / metric / suppress leading zeros}
; #@! TF.CreationDate,2020-05-12T17:07:14+04:00
; #@! TF.GenerationSoftware,Kicad,Pcbnew,(5.1.5)-3
FMAT,2
METRIC,TZ
T1C0.200
T2C0.300
T3C0.600
T4C0.813
T5C0.900
T6C0.991
T7C1.000
T8C1.300
T9C1.500
T10C2.400
T11C3.200
T12C0.650
T13C1.500
T14C1.702
T15C3.988
%
G90
G05
T1
X107700Y-88550
X107700Y-91350
X126800Y-84100
X126800Y-86900
X107700Y-145650
X107700Y-148450
X88700Y-145700
X88700Y-148500
X164900Y-103100
X164900Y-105900
X107700Y-126600
X107700Y-129400
X183900Y-66900
X183900Y-69700
X86100Y-126600
X86100Y-129400
X204700Y-129812
X206100Y-127388
X164900Y-84100
X164900Y-86900
X145796Y-62354
X145796Y-65154
X164846Y-65000
X164846Y-67800
X221200Y-139312
X222600Y-136888
X202700Y-92456
X205500Y-92456
X145800Y-138650
X145800Y-141450
X126800Y-141200
X126800Y-144000
X169935Y-145641
X170660Y-142937
X197788Y-141200
X200212Y-142600
X107696Y-69466
X107696Y-72266
X202946Y-76400
X202946Y-79200
X145800Y-119600
X145800Y-122400
X126800Y-122200
X126800Y-125000
X164900Y-122200
X164900Y-125000
X107700Y-107600
X107700Y-110400
X86100Y-88500
X86100Y-91300
X183900Y-105000
X183900Y-107800
X86100Y-107600
X86100Y-110400
X183900Y-124100
X183900Y-126900
X214283Y-150675
X216708Y-152075
X145800Y-100600
X145800Y-103400
X126800Y-103100
X126800Y-105900
X109156Y-46418
X109156Y-47593
X109156Y-48768
X109156Y-49943
X109156Y-51118
X110331Y-46418
X110331Y-47593
X110331Y-48768
X110331Y-49943
X110331Y-51118
X111506Y-46418
X111506Y-47593
X111506Y-48768
X111506Y-49943
X111506Y-51118
X112681Y-46418
X112681Y-47593
X112681Y-48768
X112681Y-49943
X112681Y-51118
X113856Y-46418
X113856Y-47593
X113856Y-48768
X113856Y-49943
X113856Y-51118
X86106Y-69466
X86106Y-72266
X183900Y-86000
X183900Y-88800
X145800Y-81500
X145800Y-84300
X126746Y-65000
X126746Y-67800
T2
X84500Y-42418
X86750Y-44950
X88000Y-45800
X89002Y-48848
X94200Y-57900
X102400Y-45000
X102950Y-50400
X103850Y-44350
X104756Y-39382
X105400Y-49300
X105600Y-50750
X106050Y-47300
X106150Y-50150
X106200Y-53600
X106582Y-46768
X107050Y-48250
X107200Y-52300
X107204Y-50768
X107700Y-42500
X108200Y-75000
X112400Y-43600
X113000Y-58000
X113050Y-44200
X114350Y-52700
X116550Y-45650
X116600Y-42600
X116850Y-55950
X117350Y-44850
X122050Y-46700
X123200Y-41700
X126650Y-49400
X126850Y-90200
X127215Y-90722
X127632Y-91154
X127978Y-91645
X128450Y-49350
X128550Y-70900
X128900Y-50550
X128950Y-91850
X129700Y-47850
X130850Y-46050
X131350Y-49600
X133100Y-52050
X135700Y-49050
X150900Y-51750
X161350Y-44600
X162800Y-46800
X164100Y-45900
X164325Y-51550
X165700Y-50500
X167750Y-50550
X168750Y-52550
X169050Y-51400
X169654Y-51046
X169708Y-50214
X170800Y-50650
X171250Y-52000
X172650Y-51050
X194437Y-66572
X194437Y-69572
X156300Y-100227
X156300Y-103227
X96647Y-69112
X96647Y-72112
X194400Y-104545
X194400Y-107545
X213950Y-134699
X215450Y-132101
X194400Y-123722
X194400Y-126722
X175387Y-102767
X175387Y-105767
X118200Y-145312
X118200Y-148312
X209267Y-159905
X211865Y-161405
X192757Y-150380
X195355Y-151880
X137300Y-64667
X137300Y-67667
X175387Y-64667
X175387Y-67667
X156337Y-81177
X156337Y-84177
X180206Y-148134
X180982Y-145236
X137287Y-140867
X137287Y-143867
X118237Y-126262
X118237Y-129262
X118237Y-88162
X118237Y-91162
X118237Y-69112
X118237Y-72112
X118237Y-107212
X118237Y-110212
X202843Y-102997
X205843Y-102997
X175400Y-121817
X175400Y-124817
X156337Y-62127
X156337Y-65127
X175387Y-83717
X175387Y-86717
X96647Y-126262
X96647Y-129262
X99187Y-145312
X99187Y-148312
X213487Y-76097
X213487Y-79097
X137287Y-121817
X137287Y-124817
X156337Y-119277
X156337Y-122277
X137300Y-83717
X137300Y-86717
X96647Y-88162
X96647Y-91162
X194437Y-85622
X194437Y-88622
X137287Y-102767
X137287Y-105767
X156337Y-138327
X156337Y-141327
X96647Y-107212
X96647Y-110212
X230390Y-144428
X231890Y-141830
T4
X81800Y-41200
X81800Y-43740
X81800Y-46280
X81800Y-48820
T6
X92710Y-147955
X95250Y-147955
X111760Y-147955
X114300Y-147955
X149860Y-64770
X152400Y-64770
X224960Y-140924
X227160Y-142194
X187960Y-88265
X190500Y-88265
X90170Y-128905
X92710Y-128905
X130810Y-67310
X133350Y-67310
X130810Y-105410
X133350Y-105410
X111760Y-128905
X114300Y-128905
X90170Y-90805
X92710Y-90805
X168910Y-86360
X171450Y-86360
X187960Y-126365
X190500Y-126365
X149860Y-83820
X152400Y-83820
X187960Y-69215
X190500Y-69215
X208450Y-131399
X210650Y-132669
X211501Y-156675
X212771Y-154475
X194991Y-147150
X196261Y-144950
X130810Y-86360
X133350Y-86360
X111760Y-90805
X114300Y-90805
X207010Y-78740
X209550Y-78740
X203200Y-96520
X203200Y-99060
X111760Y-109855
X114300Y-109855
X111760Y-71755
X114300Y-71755
X168910Y-124460
X171450Y-124460
X187960Y-107315
X190500Y-107315
X168910Y-105410
X171450Y-105410
X168910Y-67310
X171450Y-67310
X173988Y-146183
X176442Y-146841
X149860Y-121920
X152400Y-121920
X90170Y-71755
X92710Y-71755
X149860Y-140970
X152400Y-140970
X90170Y-109855
X92710Y-109855
X130810Y-143510
X133350Y-143510
X130810Y-124460
X133350Y-124460
X149860Y-102870
X152400Y-102870
T7
X91186Y-39878
X91186Y-42418
X91186Y-44958
X93726Y-39878
X93726Y-42418
X93726Y-44958
X203288Y-62040
X211088Y-62040
X203288Y-47816
X211088Y-47816
X198882Y-101600
X198882Y-104140
X198882Y-106680
T8
X99000Y-41200
X99000Y-47700
T10
X120600Y-39400
X120600Y-51450
T11
X85725Y-53975
X195839Y-52200
X102287Y-128905
X214249Y-143002
T12
X167310Y-47650
X173090Y-47650
T13
X207224Y-52628
X207224Y-57228
X214224Y-52628
X214224Y-57228
T14
X165100Y-119380
X175260Y-119380
X184150Y-102235
X194310Y-102235
X165100Y-100330
X175260Y-100330
X165100Y-62230
X175260Y-62230
X171623Y-140290
X181437Y-142920
X146050Y-116840
X156210Y-116840
X86360Y-66675
X96520Y-66675
X146050Y-135890
X156210Y-135890
X86360Y-104775
X96520Y-104775
X127000Y-138430
X137160Y-138430
X127000Y-119380
X137160Y-119380
X146050Y-97790
X156210Y-97790
X88900Y-142875
X99060Y-142875
X107950Y-142875
X118110Y-142875
X146050Y-59690
X156210Y-59690
X224201Y-134620
X232999Y-139700
X184150Y-83185
X194310Y-83185
X86360Y-123825
X96520Y-123825
X127000Y-62230
X137160Y-62230
X127000Y-100330
X137160Y-100330
X107950Y-123825
X118110Y-123825
X86360Y-85725
X96520Y-85725
X165100Y-81280
X175260Y-81280
X184150Y-121285
X194310Y-121285
X146050Y-78740
X156210Y-78740
X184150Y-64135
X194310Y-64135
X207691Y-125095
X216489Y-130175
X213995Y-162514
X219075Y-153716
X197485Y-152989
X202565Y-144191
X127000Y-81280
X137160Y-81280
X107950Y-85725
X118110Y-85725
X203200Y-73660
X213360Y-73660
X208280Y-92710
X208280Y-102870
X107950Y-104775
X118110Y-104775
X107950Y-66675
X118110Y-66675
T15
X208280Y-73660
X208280Y-97790
X113030Y-104775
X113030Y-66675
X170180Y-119380
X189230Y-102235
X170180Y-100330
X170180Y-62230
X176530Y-141605
X151130Y-116840
X91440Y-66675
X151130Y-135890
X91440Y-104775
X132080Y-138430
X132080Y-119380
X151130Y-97790
X93980Y-142875
X113030Y-142875
X151130Y-59690
X228600Y-137160
X189230Y-83185
X91440Y-123825
X132080Y-62230
X132080Y-100330
X113030Y-123825
X91440Y-85725
X170180Y-81280
X189230Y-121285
X151130Y-78740
X189230Y-64135
X212090Y-127635
X216535Y-158115
X200025Y-148590
X132080Y-81280
X113030Y-85725
T3
G00X165880Y-43700
M15
G01X165880Y-44300
M16
G05
G00X165880Y-47630
M15
G01X165880Y-48730
M16
G05
G00X174520Y-43700
M15
G01X174520Y-44300
M16
G05
G00X174520Y-47630
M15
G01X174520Y-48730
M16
G05
T5
G00X204824Y-50328
M15
G01X204224Y-50328
M16
G05
G00X204824Y-59528
M15
G01X204224Y-59528
M16
G05
G00X205924Y-54928
M15
G01X205324Y-54928
M16
G05
G00X209924Y-54928
M15
G01X209324Y-54928
M16
G05
G00X212924Y-54928
M15
G01X212324Y-54928
M16
G05
T9
G00X205280Y-69660
M15
G01X204470Y-71120
M16
G05
G00X205740Y-68581
M15
G01X205780Y-69159
M16
G05
G00X210820Y-68581
M15
G01X210780Y-69159
M16
G05
G00X211280Y-69660
M15
G01X212090Y-71120
M16
G05
G00X212280Y-94790
M15
G01X210820Y-93980
M16
G05
G00X212280Y-100790
M15
G01X210820Y-101600
M16
G05
G00X213359Y-95250
M15
G01X212781Y-95290
M16
G05
G00X213359Y-100330
M15
G01X212781Y-100290
M16
G05
G00X110030Y-100775
M15
G01X109220Y-102235
M16
G05
G00X110490Y-99696
M15
G01X110530Y-100274
M16
G05
G00X115570Y-99696
M15
G01X115530Y-100274
M16
G05
G00X116030Y-100775
M15
G01X116840Y-102235
M16
G05
G00X110030Y-62675
M15
G01X109220Y-64135
M16
G05
G00X110490Y-61596
M15
G01X110530Y-62174
M16
G05
G00X115570Y-61596
M15
G01X115530Y-62174
M16
G05
G00X116030Y-62675
M15
G01X116840Y-64135
M16
G05
G00X167180Y-115380
M15
G01X166370Y-116840
M16
G05
G00X167640Y-114301
M15
G01X167680Y-114879
M16
G05
G00X172720Y-114301
M15
G01X172680Y-114879
M16
G05
G00X173180Y-115380
M15
G01X173990Y-116840
M16
G05
G00X186230Y-98235
M15
G01X185420Y-99695
M16
G05
G00X186690Y-97156
M15
G01X186730Y-97734
M16
G05
G00X191770Y-97156
M15
G01X191730Y-97734
M16
G05
G00X192230Y-98235
M15
G01X193040Y-99695
M16
G05
G00X167180Y-96330
M15
G01X166370Y-97790
M16
G05
G00X167640Y-95251
M15
G01X167680Y-95829
M16
G05
G00X172720Y-95251
M15
G01X172680Y-95829
M16
G05
G00X173180Y-96330
M15
G01X173990Y-97790
M16
G05
G00X167180Y-58230
M15
G01X166370Y-59690
M16
G05
G00X167640Y-57151
M15
G01X167680Y-57729
M16
G05
G00X172720Y-57151
M15
G01X172680Y-57729
M16
G05
G00X173180Y-58230
M15
G01X173990Y-59690
M16
G05
G00X174668Y-136965
M15
G01X173507Y-138165
M16
G05
G00X175391Y-136041
M15
G01X175280Y-136611
M16
G05
G00X180298Y-137356
M15
G01X180110Y-137905
M16
G05
G00X180463Y-138518
M15
G01X180868Y-140138
M16
G05
G00X148130Y-112840
M15
G01X147320Y-114300
M16
G05
G00X148590Y-111761
M15
G01X148630Y-112339
M16
G05
G00X153670Y-111761
M15
G01X153630Y-112339
M16
G05
G00X154130Y-112840
M15
G01X154940Y-114300
M16
G05
G00X88440Y-62675
M15
G01X87630Y-64135
M16
G05
G00X88900Y-61596
M15
G01X88940Y-62174
M16
G05
G00X93980Y-61596
M15
G01X93940Y-62174
M16
G05
G00X94440Y-62675
M15
G01X95250Y-64135
M16
G05
G00X148130Y-131890
M15
G01X147320Y-133350
M16
G05
G00X148590Y-130811
M15
G01X148630Y-131389
M16
G05
G00X153670Y-130811
M15
G01X153630Y-131389
M16
G05
G00X154130Y-131890
M15
G01X154940Y-133350
M16
G05
G00X88440Y-100775
M15
G01X87630Y-102235
M16
G05
G00X88900Y-99696
M15
G01X88940Y-100274
M16
G05
G00X93980Y-99696
M15
G01X93940Y-100274
M16
G05
G00X94440Y-100775
M15
G01X95250Y-102235
M16
G05
G00X129080Y-134430
M15
G01X128270Y-135890
M16
G05
G00X129540Y-133351
M15
G01X129580Y-133929
M16
G05
G00X134620Y-133351
M15
G01X134580Y-133929
M16
G05
G00X135080Y-134430
M15
G01X135890Y-135890
M16
G05
G00X129080Y-115380
M15
G01X128270Y-116840
M16
G05
G00X129540Y-114301
M15
G01X129580Y-114879
M16
G05
G00X134620Y-114301
M15
G01X134580Y-114879
M16
G05
G00X135080Y-115380
M15
G01X135890Y-116840
M16
G05
G00X148130Y-93790
M15
G01X147320Y-95250
M16
G05
G00X148590Y-92711
M15
G01X148630Y-93289
M16
G05
G00X153670Y-92711
M15
G01X153630Y-93289
M16
G05
G00X154130Y-93790
M15
G01X154940Y-95250
M16
G05
G00X90980Y-138875
M15
G01X90170Y-140335
M16
G05
G00X91440Y-137796
M15
G01X91480Y-138374
M16
G05
G00X96520Y-137796
M15
G01X96480Y-138374
M16
G05
G00X96980Y-138875
M15
G01X97790Y-140335
M16
G05
G00X110030Y-138875
M15
G01X109220Y-140335
M16
G05
G00X110490Y-137796
M15
G01X110530Y-138374
M16
G05
G00X115570Y-137796
M15
G01X115530Y-138374
M16
G05
G00X116030Y-138875
M15
G01X116840Y-140335
M16
G05
G00X148130Y-55690
M15
G01X147320Y-57150
M16
G05
G00X148590Y-54611
M15
G01X148630Y-55189
M16
G05
G00X153670Y-54611
M15
G01X153630Y-55189
M16
G05
G00X154130Y-55690
M15
G01X154940Y-57150
M16
G05
G00X228002Y-132196
M15
G01X226570Y-133055
M16
G05
G00X228940Y-131491
M15
G01X228685Y-132012
M16
G05
G00X233339Y-134031
M15
G01X233016Y-134512
M16
G05
G00X233198Y-135196
M15
G01X233170Y-136865
M16
G05
G00X186230Y-79185
M15
G01X185420Y-80645
M16
G05
G00X186690Y-78106
M15
G01X186730Y-78684
M16
G05
G00X191770Y-78106
M15
G01X191730Y-78684
M16
G05
G00X192230Y-79185
M15
G01X193040Y-80645
M16
G05
G00X88440Y-119825
M15
G01X87630Y-121285
M16
G05
G00X88900Y-118746
M15
G01X88940Y-119324
M16
G05
G00X93980Y-118746
M15
G01X93940Y-119324
M16
G05
G00X94440Y-119825
M15
G01X95250Y-121285
M16
G05
G00X129080Y-58230
M15
G01X128270Y-59690
M16
G05
G00X129540Y-57151
M15
G01X129580Y-57729
M16
G05
G00X134620Y-57151
M15
G01X134580Y-57729
M16
G05
G00X135080Y-58230
M15
G01X135890Y-59690
M16
G05
G00X129080Y-96330
M15
G01X128270Y-97790
M16
G05
G00X129540Y-95251
M15
G01X129580Y-95829
M16
G05
G00X134620Y-95251
M15
G01X134580Y-95829
M16
G05
G00X135080Y-96330
M15
G01X135890Y-97790
M16
G05
G00X110030Y-119825
M15
G01X109220Y-121285
M16
G05
G00X110490Y-118746
M15
G01X110530Y-119324
M16
G05
G00X115570Y-118746
M15
G01X115530Y-119324
M16
G05
G00X116030Y-119825
M15
G01X116840Y-121285
M16
G05
G00X88440Y-81725
M15
G01X87630Y-83185
M16
G05
G00X88900Y-80646
M15
G01X88940Y-81224
M16
G05
G00X93980Y-80646
M15
G01X93940Y-81224
M16
G05
G00X94440Y-81725
M15
G01X95250Y-83185
M16
G05
G00X167180Y-77280
M15
G01X166370Y-78740
M16
G05
G00X167640Y-76201
M15
G01X167680Y-76779
M16
G05
G00X172720Y-76201
M15
G01X172680Y-76779
M16
G05
G00X173180Y-77280
M15
G01X173990Y-78740
M16
G05
G00X186230Y-117285
M15
G01X185420Y-118745
M16
G05
G00X186690Y-116206
M15
G01X186730Y-116784
M16
G05
G00X191770Y-116206
M15
G01X191730Y-116784
M16
G05
G00X192230Y-117285
M15
G01X193040Y-118745
M16
G05
G00X148130Y-74740
M15
G01X147320Y-76200
M16
G05
G00X148590Y-73661
M15
G01X148630Y-74239
M16
G05
G00X153670Y-73661
M15
G01X153630Y-74239
M16
G05
G00X154130Y-74740
M15
G01X154940Y-76200
M16
G05
G00X186230Y-60135
M15
G01X185420Y-61595
M16
G05
G00X186690Y-59056
M15
G01X186730Y-59634
M16
G05
G00X191770Y-59056
M15
G01X191730Y-59634
M16
G05
G00X192230Y-60135
M15
G01X193040Y-61595
M16
G05
G00X211492Y-122671
M15
G01X210060Y-123530
M16
G05
G00X212430Y-121966
M15
G01X212175Y-122487
M16
G05
G00X216829Y-124506
M15
G01X216506Y-124987
M16
G05
G00X216688Y-125671
M15
G01X216660Y-127340
M16
G05
G00X218499Y-162713
M15
G01X216830Y-162685
M16
G05
G00X219664Y-162854
M15
G01X219183Y-162531
M16
G05
G00X221499Y-157517
M15
G01X220640Y-156085
M16
G05
G00X222204Y-158455
M15
G01X221683Y-158200
M16
G05
G00X201989Y-153188
M15
G01X200320Y-153160
M16
G05
G00X203154Y-153329
M15
G01X202673Y-153006
M16
G05
G00X204989Y-147992
M15
G01X204130Y-146560
M16
G05
G00X205694Y-148930
M15
G01X205173Y-148675
M16
G05
G00X129080Y-77280
M15
G01X128270Y-78740
M16
G05
G00X129540Y-76201
M15
G01X129580Y-76779
M16
G05
G00X134620Y-76201
M15
G01X134580Y-76779
M16
G05
G00X135080Y-77280
M15
G01X135890Y-78740
M16
G05
G00X110030Y-81725
M15
G01X109220Y-83185
M16
G05
G00X110490Y-80646
M15
G01X110530Y-81224
M16
G05
G00X115570Y-80646
M15
G01X115530Y-81224
M16
G05
G00X116030Y-81725
M15
G01X116840Y-83185
M16
G05
T0
M30
