G04 #@! TF.GenerationSoftware,KiCad,Pcbnew,(5.1.5)-3*
G04 #@! TF.CreationDate,2020-05-09T22:29:07+04:00*
G04 #@! TF.ProjectId,redox_rev2,7265646f-785f-4726-9576-322e6b696361,1.0*
G04 #@! TF.SameCoordinates,Original*
G04 #@! TF.FileFunction,Paste,Bot*
G04 #@! TF.FilePolarity,Positive*
%FSLAX46Y46*%
G04 Gerber Fmt 4.6, Leading zero omitted, Abs format (unit mm)*
G04 Created by KiCad (PCBNEW (5.1.5)-3) date 2020-05-09 22:29:07*
%MOMM*%
%LPD*%
G04 APERTURE LIST*
%ADD10R,0.700000X1.550000*%
%ADD11R,0.400000X1.550000*%
%ADD12R,0.900000X0.500000*%
%ADD13R,0.800000X0.900000*%
%ADD14R,1.300000X0.900000*%
%ADD15C,0.100000*%
%ADD16R,0.900000X1.300000*%
%ADD17R,0.750000X0.800000*%
%ADD18R,1.300000X1.100000*%
%ADD19R,1.300000X0.700000*%
%ADD20R,1.100000X1.300000*%
%ADD21R,0.700000X1.300000*%
%ADD22R,0.635000X1.143000*%
%ADD23R,1.000000X0.700000*%
%ADD24R,0.600000X0.700000*%
%ADD25R,1.400000X1.200000*%
%ADD26R,0.700000X0.250000*%
%ADD27R,0.250000X0.700000*%
%ADD28R,0.772500X0.772500*%
G04 APERTURE END LIST*
D10*
X173425000Y-49095000D03*
X166975000Y-49095000D03*
X172650000Y-49095000D03*
X167750000Y-49095000D03*
D11*
X168450000Y-49095000D03*
X171950000Y-49095000D03*
X168950000Y-49095000D03*
X171450000Y-49095000D03*
X169450000Y-49095000D03*
X170950000Y-49095000D03*
X170450000Y-49095000D03*
X169950000Y-49095000D03*
D12*
X135700000Y-48250000D03*
X135700000Y-46750000D03*
D13*
X138800000Y-48750000D03*
X139750000Y-46750000D03*
X137850000Y-46750000D03*
D14*
X96647000Y-71662000D03*
X96647000Y-69562000D03*
X96647000Y-90712000D03*
X96647000Y-88612000D03*
X96647000Y-109762000D03*
X96647000Y-107662000D03*
X96647000Y-128812000D03*
X96647000Y-126712000D03*
X99187000Y-147862000D03*
X99187000Y-145762000D03*
X118237000Y-71662000D03*
X118237000Y-69562000D03*
X118237000Y-90712000D03*
X118237000Y-88612000D03*
X118237000Y-109762000D03*
X118237000Y-107662000D03*
X118237000Y-128812000D03*
X118237000Y-126712000D03*
X118200000Y-147862000D03*
X118200000Y-145762000D03*
X137300000Y-67217000D03*
X137300000Y-65117000D03*
X137300000Y-86267000D03*
X137300000Y-84167000D03*
X137287000Y-105317000D03*
X137287000Y-103217000D03*
X137287000Y-124367000D03*
X137287000Y-122267000D03*
X137287000Y-143417000D03*
X137287000Y-141317000D03*
X156337000Y-64677000D03*
X156337000Y-62577000D03*
X156337000Y-83727000D03*
X156337000Y-81627000D03*
X156300000Y-102777000D03*
X156300000Y-100677000D03*
X156337000Y-121827000D03*
X156337000Y-119727000D03*
X156337000Y-140877000D03*
X156337000Y-138777000D03*
X175387000Y-67217000D03*
X175387000Y-65117000D03*
X175387000Y-86267000D03*
X175387000Y-84167000D03*
X175387000Y-105317000D03*
X175387000Y-103217000D03*
X175400000Y-124367000D03*
X175400000Y-122267000D03*
D15*
G36*
X179810857Y-147096323D02*
G01*
X181066560Y-147432788D01*
X180833623Y-148302121D01*
X179577920Y-147965656D01*
X179810857Y-147096323D01*
G37*
G36*
X180354377Y-145067879D02*
G01*
X181610080Y-145404344D01*
X181377143Y-146273677D01*
X180121440Y-145937212D01*
X180354377Y-145067879D01*
G37*
D14*
X194437000Y-69122000D03*
X194437000Y-67022000D03*
X194437000Y-88172000D03*
X194437000Y-86072000D03*
X194400000Y-107095000D03*
X194400000Y-104995000D03*
X194400000Y-126272000D03*
X194400000Y-124172000D03*
D15*
G36*
X193861384Y-150267083D02*
G01*
X193211384Y-151392917D01*
X192431962Y-150942917D01*
X193081962Y-149817083D01*
X193861384Y-150267083D01*
G37*
G36*
X195680038Y-151317083D02*
G01*
X195030038Y-152442917D01*
X194250616Y-151992917D01*
X194900616Y-150867083D01*
X195680038Y-151317083D01*
G37*
D14*
X213487000Y-78647000D03*
X213487000Y-76547000D03*
D16*
X203293000Y-102997000D03*
X205393000Y-102997000D03*
D15*
G36*
X213837083Y-133594616D02*
G01*
X214962917Y-134244616D01*
X214512917Y-135024038D01*
X213387083Y-134374038D01*
X213837083Y-133594616D01*
G37*
G36*
X214887083Y-131775962D02*
G01*
X216012917Y-132425962D01*
X215562917Y-133205384D01*
X214437083Y-132555384D01*
X214887083Y-131775962D01*
G37*
G36*
X230277083Y-143323616D02*
G01*
X231402917Y-143973616D01*
X230952917Y-144753038D01*
X229827083Y-144103038D01*
X230277083Y-143323616D01*
G37*
G36*
X231327083Y-141504962D02*
G01*
X232452917Y-142154962D01*
X232002917Y-142934384D01*
X230877083Y-142284384D01*
X231327083Y-141504962D01*
G37*
G36*
X210371384Y-159792083D02*
G01*
X209721384Y-160917917D01*
X208941962Y-160467917D01*
X209591962Y-159342083D01*
X210371384Y-159792083D01*
G37*
G36*
X212190038Y-160842083D02*
G01*
X211540038Y-161967917D01*
X210760616Y-161517917D01*
X211410616Y-160392083D01*
X212190038Y-160842083D01*
G37*
D17*
X104700000Y-53450000D03*
X104700000Y-54950000D03*
D18*
X86106000Y-69716000D03*
X86106000Y-72016000D03*
D19*
X86106000Y-69466000D03*
X86106000Y-72266000D03*
D18*
X86100000Y-88750000D03*
X86100000Y-91050000D03*
D19*
X86100000Y-88500000D03*
X86100000Y-91300000D03*
D18*
X86100000Y-107850000D03*
X86100000Y-110150000D03*
D19*
X86100000Y-107600000D03*
X86100000Y-110400000D03*
D18*
X86100000Y-126850000D03*
X86100000Y-129150000D03*
D19*
X86100000Y-126600000D03*
X86100000Y-129400000D03*
D18*
X88700000Y-145950000D03*
X88700000Y-148250000D03*
D19*
X88700000Y-145700000D03*
X88700000Y-148500000D03*
D18*
X107696000Y-69716000D03*
X107696000Y-72016000D03*
D19*
X107696000Y-69466000D03*
X107696000Y-72266000D03*
D18*
X107700000Y-88800000D03*
X107700000Y-91100000D03*
D19*
X107700000Y-88550000D03*
X107700000Y-91350000D03*
D18*
X107700000Y-107850000D03*
X107700000Y-110150000D03*
D19*
X107700000Y-107600000D03*
X107700000Y-110400000D03*
D18*
X107700000Y-126850000D03*
X107700000Y-129150000D03*
D19*
X107700000Y-126600000D03*
X107700000Y-129400000D03*
D18*
X107700000Y-145900000D03*
X107700000Y-148200000D03*
D19*
X107700000Y-145650000D03*
X107700000Y-148450000D03*
D18*
X126746000Y-65250000D03*
X126746000Y-67550000D03*
D19*
X126746000Y-65000000D03*
X126746000Y-67800000D03*
D18*
X126800000Y-84350000D03*
X126800000Y-86650000D03*
D19*
X126800000Y-84100000D03*
X126800000Y-86900000D03*
D18*
X126800000Y-103350000D03*
X126800000Y-105650000D03*
D19*
X126800000Y-103100000D03*
X126800000Y-105900000D03*
D18*
X126800000Y-122450000D03*
X126800000Y-124750000D03*
D19*
X126800000Y-122200000D03*
X126800000Y-125000000D03*
D18*
X126800000Y-141450000D03*
X126800000Y-143750000D03*
D19*
X126800000Y-141200000D03*
X126800000Y-144000000D03*
D18*
X145796000Y-62604000D03*
X145796000Y-64904000D03*
D19*
X145796000Y-62354000D03*
X145796000Y-65154000D03*
D18*
X145800000Y-81750000D03*
X145800000Y-84050000D03*
D19*
X145800000Y-81500000D03*
X145800000Y-84300000D03*
D18*
X145800000Y-100850000D03*
X145800000Y-103150000D03*
D19*
X145800000Y-100600000D03*
X145800000Y-103400000D03*
D18*
X145800000Y-119850000D03*
X145800000Y-122150000D03*
D19*
X145800000Y-119600000D03*
X145800000Y-122400000D03*
D18*
X145800000Y-138900000D03*
X145800000Y-141200000D03*
D19*
X145800000Y-138650000D03*
X145800000Y-141450000D03*
D18*
X164846000Y-65250000D03*
X164846000Y-67550000D03*
D19*
X164846000Y-65000000D03*
X164846000Y-67800000D03*
D18*
X164900000Y-84350000D03*
X164900000Y-86650000D03*
D19*
X164900000Y-84100000D03*
X164900000Y-86900000D03*
D18*
X164900000Y-103350000D03*
X164900000Y-105650000D03*
D19*
X164900000Y-103100000D03*
X164900000Y-105900000D03*
D18*
X164900000Y-122450000D03*
X164900000Y-124750000D03*
D19*
X164900000Y-122200000D03*
X164900000Y-125000000D03*
D15*
G36*
X171080785Y-143877862D02*
G01*
X169825082Y-143541397D01*
X170109783Y-142478878D01*
X171365486Y-142815343D01*
X171080785Y-143877862D01*
G37*
G36*
X170485501Y-146099492D02*
G01*
X169229798Y-145763027D01*
X169514499Y-144700508D01*
X170770202Y-145036973D01*
X170485501Y-146099492D01*
G37*
G36*
X171197254Y-143443195D02*
G01*
X169941551Y-143106731D01*
X170122724Y-142430583D01*
X171378427Y-142767047D01*
X171197254Y-143443195D01*
G37*
G36*
X170472560Y-146147787D02*
G01*
X169216857Y-145811323D01*
X169398030Y-145135175D01*
X170653733Y-145471639D01*
X170472560Y-146147787D01*
G37*
D18*
X183900000Y-67150000D03*
X183900000Y-69450000D03*
D19*
X183900000Y-66900000D03*
X183900000Y-69700000D03*
D18*
X183900000Y-86250000D03*
X183900000Y-88550000D03*
D19*
X183900000Y-86000000D03*
X183900000Y-88800000D03*
D18*
X183900000Y-105250000D03*
X183900000Y-107550000D03*
D19*
X183900000Y-105000000D03*
X183900000Y-107800000D03*
D18*
X183900000Y-124350000D03*
X183900000Y-126650000D03*
D19*
X183900000Y-124100000D03*
X183900000Y-126900000D03*
D15*
G36*
X199194615Y-142762917D02*
G01*
X199844615Y-141637083D01*
X200797243Y-142187083D01*
X200147243Y-143312917D01*
X199194615Y-142762917D01*
G37*
G36*
X197202757Y-141612917D02*
G01*
X197852757Y-140487083D01*
X198805385Y-141037083D01*
X198155385Y-142162917D01*
X197202757Y-141612917D01*
G37*
G36*
X199584327Y-142987917D02*
G01*
X200234327Y-141862083D01*
X200840545Y-142212083D01*
X200190545Y-143337917D01*
X199584327Y-142987917D01*
G37*
G36*
X197159455Y-141587917D02*
G01*
X197809455Y-140462083D01*
X198415673Y-140812083D01*
X197765673Y-141937917D01*
X197159455Y-141587917D01*
G37*
D18*
X202946000Y-76650000D03*
X202946000Y-78950000D03*
D19*
X202946000Y-76400000D03*
X202946000Y-79200000D03*
D20*
X205250000Y-92456000D03*
X202950000Y-92456000D03*
D21*
X205500000Y-92456000D03*
X202700000Y-92456000D03*
D15*
G36*
X206262917Y-128405385D02*
G01*
X205137083Y-127755385D01*
X205687083Y-126802757D01*
X206812917Y-127452757D01*
X206262917Y-128405385D01*
G37*
G36*
X205112917Y-130397243D02*
G01*
X203987083Y-129747243D01*
X204537083Y-128794615D01*
X205662917Y-129444615D01*
X205112917Y-130397243D01*
G37*
G36*
X206487917Y-128015673D02*
G01*
X205362083Y-127365673D01*
X205712083Y-126759455D01*
X206837917Y-127409455D01*
X206487917Y-128015673D01*
G37*
G36*
X205087917Y-130440545D02*
G01*
X203962083Y-129790545D01*
X204312083Y-129184327D01*
X205437917Y-129834327D01*
X205087917Y-130440545D01*
G37*
G36*
X222762917Y-137905385D02*
G01*
X221637083Y-137255385D01*
X222187083Y-136302757D01*
X223312917Y-136952757D01*
X222762917Y-137905385D01*
G37*
G36*
X221612917Y-139897243D02*
G01*
X220487083Y-139247243D01*
X221037083Y-138294615D01*
X222162917Y-138944615D01*
X221612917Y-139897243D01*
G37*
G36*
X222987917Y-137515673D02*
G01*
X221862083Y-136865673D01*
X222212083Y-136259455D01*
X223337917Y-136909455D01*
X222987917Y-137515673D01*
G37*
G36*
X221587917Y-139940545D02*
G01*
X220462083Y-139290545D01*
X220812083Y-138684327D01*
X221937917Y-139334327D01*
X221587917Y-139940545D01*
G37*
G36*
X215690544Y-152237917D02*
G01*
X216340544Y-151112083D01*
X217293172Y-151662083D01*
X216643172Y-152787917D01*
X215690544Y-152237917D01*
G37*
G36*
X213698686Y-151087917D02*
G01*
X214348686Y-149962083D01*
X215301314Y-150512083D01*
X214651314Y-151637917D01*
X213698686Y-151087917D01*
G37*
G36*
X216080256Y-152462917D02*
G01*
X216730256Y-151337083D01*
X217336474Y-151687083D01*
X216686474Y-152812917D01*
X216080256Y-152462917D01*
G37*
G36*
X213655384Y-151062917D02*
G01*
X214305384Y-149937083D01*
X214911602Y-150287083D01*
X214261602Y-151412917D01*
X213655384Y-151062917D01*
G37*
D22*
X86735380Y-48848000D03*
X85734620Y-48848000D03*
X86735380Y-46308000D03*
X85734620Y-46308000D03*
X86735380Y-43741000D03*
X85734620Y-43741000D03*
X86735380Y-41201000D03*
X85734620Y-41201000D03*
D23*
X132450000Y-48600000D03*
D24*
X132650000Y-46600000D03*
X130750000Y-48600000D03*
X130750000Y-46600000D03*
D25*
X113000000Y-39280000D03*
X110800000Y-39280000D03*
X110800000Y-40980000D03*
X113000000Y-40980000D03*
D17*
X115000000Y-39250000D03*
X115000000Y-40750000D03*
X108700000Y-39400000D03*
X108700000Y-40900000D03*
X155150000Y-45567900D03*
X155150000Y-47067900D03*
X104150000Y-48502000D03*
X104150000Y-47002000D03*
X153600000Y-45550000D03*
X153600000Y-47050000D03*
D12*
X163850000Y-46050000D03*
X163850000Y-44550000D03*
X176850000Y-46100000D03*
X176850000Y-44600000D03*
X126650000Y-46900000D03*
X126650000Y-48400000D03*
X128450000Y-46900000D03*
X128450000Y-48400000D03*
X103632000Y-40882000D03*
X103632000Y-39382000D03*
X117284500Y-54050500D03*
X117284500Y-55550500D03*
D15*
G36*
X158399505Y-47613704D02*
G01*
X158423773Y-47617304D01*
X158447572Y-47623265D01*
X158470671Y-47631530D01*
X158492850Y-47642020D01*
X158513893Y-47654632D01*
X158533599Y-47669247D01*
X158551777Y-47685723D01*
X158568253Y-47703901D01*
X158582868Y-47723607D01*
X158595480Y-47744650D01*
X158605970Y-47766829D01*
X158614235Y-47789928D01*
X158620196Y-47813727D01*
X158623796Y-47837995D01*
X158625000Y-47862499D01*
X158625000Y-48937501D01*
X158623796Y-48962005D01*
X158620196Y-48986273D01*
X158614235Y-49010072D01*
X158605970Y-49033171D01*
X158595480Y-49055350D01*
X158582868Y-49076393D01*
X158568253Y-49096099D01*
X158551777Y-49114277D01*
X158533599Y-49130753D01*
X158513893Y-49145368D01*
X158492850Y-49157980D01*
X158470671Y-49168470D01*
X158447572Y-49176735D01*
X158423773Y-49182696D01*
X158399505Y-49186296D01*
X158375001Y-49187500D01*
X157524999Y-49187500D01*
X157500495Y-49186296D01*
X157476227Y-49182696D01*
X157452428Y-49176735D01*
X157429329Y-49168470D01*
X157407150Y-49157980D01*
X157386107Y-49145368D01*
X157366401Y-49130753D01*
X157348223Y-49114277D01*
X157331747Y-49096099D01*
X157317132Y-49076393D01*
X157304520Y-49055350D01*
X157294030Y-49033171D01*
X157285765Y-49010072D01*
X157279804Y-48986273D01*
X157276204Y-48962005D01*
X157275000Y-48937501D01*
X157275000Y-47862499D01*
X157276204Y-47837995D01*
X157279804Y-47813727D01*
X157285765Y-47789928D01*
X157294030Y-47766829D01*
X157304520Y-47744650D01*
X157317132Y-47723607D01*
X157331747Y-47703901D01*
X157348223Y-47685723D01*
X157366401Y-47669247D01*
X157386107Y-47654632D01*
X157407150Y-47642020D01*
X157429329Y-47631530D01*
X157452428Y-47623265D01*
X157476227Y-47617304D01*
X157500495Y-47613704D01*
X157524999Y-47612500D01*
X158375001Y-47612500D01*
X158399505Y-47613704D01*
G37*
G36*
X158399505Y-44738704D02*
G01*
X158423773Y-44742304D01*
X158447572Y-44748265D01*
X158470671Y-44756530D01*
X158492850Y-44767020D01*
X158513893Y-44779632D01*
X158533599Y-44794247D01*
X158551777Y-44810723D01*
X158568253Y-44828901D01*
X158582868Y-44848607D01*
X158595480Y-44869650D01*
X158605970Y-44891829D01*
X158614235Y-44914928D01*
X158620196Y-44938727D01*
X158623796Y-44962995D01*
X158625000Y-44987499D01*
X158625000Y-46062501D01*
X158623796Y-46087005D01*
X158620196Y-46111273D01*
X158614235Y-46135072D01*
X158605970Y-46158171D01*
X158595480Y-46180350D01*
X158582868Y-46201393D01*
X158568253Y-46221099D01*
X158551777Y-46239277D01*
X158533599Y-46255753D01*
X158513893Y-46270368D01*
X158492850Y-46282980D01*
X158470671Y-46293470D01*
X158447572Y-46301735D01*
X158423773Y-46307696D01*
X158399505Y-46311296D01*
X158375001Y-46312500D01*
X157524999Y-46312500D01*
X157500495Y-46311296D01*
X157476227Y-46307696D01*
X157452428Y-46301735D01*
X157429329Y-46293470D01*
X157407150Y-46282980D01*
X157386107Y-46270368D01*
X157366401Y-46255753D01*
X157348223Y-46239277D01*
X157331747Y-46221099D01*
X157317132Y-46201393D01*
X157304520Y-46180350D01*
X157294030Y-46158171D01*
X157285765Y-46135072D01*
X157279804Y-46111273D01*
X157276204Y-46087005D01*
X157275000Y-46062501D01*
X157275000Y-44987499D01*
X157276204Y-44962995D01*
X157279804Y-44938727D01*
X157285765Y-44914928D01*
X157294030Y-44891829D01*
X157304520Y-44869650D01*
X157317132Y-44848607D01*
X157331747Y-44828901D01*
X157348223Y-44810723D01*
X157366401Y-44794247D01*
X157386107Y-44779632D01*
X157407150Y-44767020D01*
X157429329Y-44756530D01*
X157452428Y-44748265D01*
X157476227Y-44742304D01*
X157500495Y-44738704D01*
X157524999Y-44737500D01*
X158375001Y-44737500D01*
X158399505Y-44738704D01*
G37*
G36*
X167274504Y-50626204D02*
G01*
X167298773Y-50629804D01*
X167322571Y-50635765D01*
X167345671Y-50644030D01*
X167367849Y-50654520D01*
X167388893Y-50667133D01*
X167408598Y-50681747D01*
X167426777Y-50698223D01*
X167443253Y-50716402D01*
X167457867Y-50736107D01*
X167470480Y-50757151D01*
X167480970Y-50779329D01*
X167489235Y-50802429D01*
X167495196Y-50826227D01*
X167498796Y-50850496D01*
X167500000Y-50875000D01*
X167500000Y-52125000D01*
X167498796Y-52149504D01*
X167495196Y-52173773D01*
X167489235Y-52197571D01*
X167480970Y-52220671D01*
X167470480Y-52242849D01*
X167457867Y-52263893D01*
X167443253Y-52283598D01*
X167426777Y-52301777D01*
X167408598Y-52318253D01*
X167388893Y-52332867D01*
X167367849Y-52345480D01*
X167345671Y-52355970D01*
X167322571Y-52364235D01*
X167298773Y-52370196D01*
X167274504Y-52373796D01*
X167250000Y-52375000D01*
X166325000Y-52375000D01*
X166300496Y-52373796D01*
X166276227Y-52370196D01*
X166252429Y-52364235D01*
X166229329Y-52355970D01*
X166207151Y-52345480D01*
X166186107Y-52332867D01*
X166166402Y-52318253D01*
X166148223Y-52301777D01*
X166131747Y-52283598D01*
X166117133Y-52263893D01*
X166104520Y-52242849D01*
X166094030Y-52220671D01*
X166085765Y-52197571D01*
X166079804Y-52173773D01*
X166076204Y-52149504D01*
X166075000Y-52125000D01*
X166075000Y-50875000D01*
X166076204Y-50850496D01*
X166079804Y-50826227D01*
X166085765Y-50802429D01*
X166094030Y-50779329D01*
X166104520Y-50757151D01*
X166117133Y-50736107D01*
X166131747Y-50716402D01*
X166148223Y-50698223D01*
X166166402Y-50681747D01*
X166186107Y-50667133D01*
X166207151Y-50654520D01*
X166229329Y-50644030D01*
X166252429Y-50635765D01*
X166276227Y-50629804D01*
X166300496Y-50626204D01*
X166325000Y-50625000D01*
X167250000Y-50625000D01*
X167274504Y-50626204D01*
G37*
G36*
X164299504Y-50626204D02*
G01*
X164323773Y-50629804D01*
X164347571Y-50635765D01*
X164370671Y-50644030D01*
X164392849Y-50654520D01*
X164413893Y-50667133D01*
X164433598Y-50681747D01*
X164451777Y-50698223D01*
X164468253Y-50716402D01*
X164482867Y-50736107D01*
X164495480Y-50757151D01*
X164505970Y-50779329D01*
X164514235Y-50802429D01*
X164520196Y-50826227D01*
X164523796Y-50850496D01*
X164525000Y-50875000D01*
X164525000Y-52125000D01*
X164523796Y-52149504D01*
X164520196Y-52173773D01*
X164514235Y-52197571D01*
X164505970Y-52220671D01*
X164495480Y-52242849D01*
X164482867Y-52263893D01*
X164468253Y-52283598D01*
X164451777Y-52301777D01*
X164433598Y-52318253D01*
X164413893Y-52332867D01*
X164392849Y-52345480D01*
X164370671Y-52355970D01*
X164347571Y-52364235D01*
X164323773Y-52370196D01*
X164299504Y-52373796D01*
X164275000Y-52375000D01*
X163350000Y-52375000D01*
X163325496Y-52373796D01*
X163301227Y-52370196D01*
X163277429Y-52364235D01*
X163254329Y-52355970D01*
X163232151Y-52345480D01*
X163211107Y-52332867D01*
X163191402Y-52318253D01*
X163173223Y-52301777D01*
X163156747Y-52283598D01*
X163142133Y-52263893D01*
X163129520Y-52242849D01*
X163119030Y-52220671D01*
X163110765Y-52197571D01*
X163104804Y-52173773D01*
X163101204Y-52149504D01*
X163100000Y-52125000D01*
X163100000Y-50875000D01*
X163101204Y-50850496D01*
X163104804Y-50826227D01*
X163110765Y-50802429D01*
X163119030Y-50779329D01*
X163129520Y-50757151D01*
X163142133Y-50736107D01*
X163156747Y-50716402D01*
X163173223Y-50698223D01*
X163191402Y-50681747D01*
X163211107Y-50667133D01*
X163232151Y-50654520D01*
X163254329Y-50644030D01*
X163277429Y-50635765D01*
X163301227Y-50629804D01*
X163325496Y-50626204D01*
X163350000Y-50625000D01*
X164275000Y-50625000D01*
X164299504Y-50626204D01*
G37*
D26*
X108106000Y-51268000D03*
X108106000Y-50768000D03*
X108106000Y-50268000D03*
X108106000Y-49768000D03*
X108106000Y-49268000D03*
X108106000Y-48768000D03*
X108106000Y-48268000D03*
X108106000Y-47768000D03*
X108106000Y-47268000D03*
X108106000Y-46768000D03*
X108106000Y-46268000D03*
D27*
X109006000Y-45368000D03*
X109506000Y-45368000D03*
X110006000Y-45368000D03*
X110506000Y-45368000D03*
X111006000Y-45368000D03*
X111506000Y-45368000D03*
X112006000Y-45368000D03*
X112506000Y-45368000D03*
X113006000Y-45368000D03*
X113506000Y-45368000D03*
X114006000Y-45368000D03*
D26*
X114906000Y-46268000D03*
X114906000Y-46768000D03*
X114906000Y-47268000D03*
X114906000Y-47768000D03*
X114906000Y-48268000D03*
X114906000Y-48768000D03*
X114906000Y-49268000D03*
X114906000Y-49768000D03*
X114906000Y-50268000D03*
X114906000Y-50768000D03*
X114906000Y-51268000D03*
D27*
X114006000Y-52168000D03*
X113506000Y-52168000D03*
X113006000Y-52168000D03*
X112506000Y-52168000D03*
X112006000Y-52168000D03*
X111506000Y-52168000D03*
X111006000Y-52168000D03*
X110506000Y-52168000D03*
X110006000Y-52168000D03*
X109506000Y-52168000D03*
X109006000Y-52168000D03*
D28*
X113437250Y-46836750D03*
X113437250Y-48124250D03*
X113437250Y-49411750D03*
X113437250Y-50699250D03*
X112149750Y-46836750D03*
X112149750Y-48124250D03*
X112149750Y-49411750D03*
X112149750Y-50699250D03*
X110862250Y-46836750D03*
X110862250Y-48124250D03*
X110862250Y-49411750D03*
X110862250Y-50699250D03*
X109574750Y-46836750D03*
X109574750Y-48124250D03*
X109574750Y-49411750D03*
X109574750Y-50699250D03*
M02*
