G04 #@! TF.GenerationSoftware,KiCad,Pcbnew,(5.1.5)-3*
G04 #@! TF.CreationDate,2020-05-10T08:30:39+04:00*
G04 #@! TF.ProjectId,redox_rev2,7265646f-785f-4726-9576-322e6b696361,1.0*
G04 #@! TF.SameCoordinates,Original*
G04 #@! TF.FileFunction,Soldermask,Top*
G04 #@! TF.FilePolarity,Negative*
%FSLAX46Y46*%
G04 Gerber Fmt 4.6, Leading zero omitted, Abs format (unit mm)*
G04 Created by KiCad (PCBNEW (5.1.5)-3) date 2020-05-10 08:30:39*
%MOMM*%
%LPD*%
G04 APERTURE LIST*
%ADD10C,0.010000*%
%ADD11C,0.750000*%
%ADD12O,1.100000X2.200000*%
%ADD13O,1.100000X1.700000*%
%ADD14R,0.700000X1.550000*%
%ADD15R,0.400000X1.550000*%
%ADD16R,1.905000X1.905000*%
%ADD17C,1.905000*%
%ADD18C,2.500000*%
%ADD19C,0.100000*%
%ADD20O,1.300000X1.100000*%
%ADD21R,1.300000X0.900000*%
%ADD22C,1.100000*%
%ADD23O,1.100000X1.300000*%
%ADD24R,0.900000X1.300000*%
%ADD25R,1.300000X0.700000*%
%ADD26R,1.300000X1.100000*%
%ADD27R,0.700000X1.300000*%
%ADD28R,1.100000X1.300000*%
%ADD29C,1.397000*%
%ADD30R,0.635000X1.143000*%
%ADD31C,1.600000*%
%ADD32C,1.500000*%
%ADD33O,2.200000X1.600000*%
%ADD34O,1.700000X1.700000*%
%ADD35R,1.700000X1.700000*%
%ADD36C,4.000000*%
%ADD37C,2.000000*%
G04 APERTURE END LIST*
D10*
G36*
X210896536Y-108700427D02*
G01*
X211009118Y-109297618D01*
X211424531Y-109468865D01*
X211839945Y-109640112D01*
X212338302Y-109301233D01*
X212477869Y-109206877D01*
X212604029Y-109122630D01*
X212710896Y-109052338D01*
X212792583Y-108999847D01*
X212843202Y-108969004D01*
X212856987Y-108962353D01*
X212881821Y-108979458D01*
X212934889Y-109026744D01*
X213010241Y-109098172D01*
X213101930Y-109187700D01*
X213204008Y-109289289D01*
X213310527Y-109396898D01*
X213415537Y-109504487D01*
X213513092Y-109606015D01*
X213597243Y-109695441D01*
X213662041Y-109766726D01*
X213701538Y-109813828D01*
X213710981Y-109829592D01*
X213697392Y-109858653D01*
X213659294Y-109922321D01*
X213600694Y-110014367D01*
X213525598Y-110128564D01*
X213438009Y-110258684D01*
X213387255Y-110332901D01*
X213294746Y-110468422D01*
X213212541Y-110590716D01*
X213144631Y-110693695D01*
X213095001Y-110771273D01*
X213067641Y-110817361D01*
X213063530Y-110827047D01*
X213072850Y-110854574D01*
X213098255Y-110918728D01*
X213135912Y-111010490D01*
X213181987Y-111120839D01*
X213232647Y-111240755D01*
X213284060Y-111361219D01*
X213332390Y-111473209D01*
X213373807Y-111567707D01*
X213404475Y-111635692D01*
X213420562Y-111668143D01*
X213421512Y-111669420D01*
X213446773Y-111675617D01*
X213514046Y-111689440D01*
X213616361Y-111709532D01*
X213746742Y-111734534D01*
X213898217Y-111763086D01*
X213986594Y-111779551D01*
X214148453Y-111810369D01*
X214294650Y-111839694D01*
X214417788Y-111865921D01*
X214510470Y-111887446D01*
X214565302Y-111902665D01*
X214576324Y-111907493D01*
X214587119Y-111940174D01*
X214595830Y-112013985D01*
X214602461Y-112120292D01*
X214607019Y-112250467D01*
X214609510Y-112395876D01*
X214609939Y-112547890D01*
X214608312Y-112697877D01*
X214604636Y-112837206D01*
X214598916Y-112957245D01*
X214591158Y-113049365D01*
X214581369Y-113104932D01*
X214575497Y-113116500D01*
X214540400Y-113130365D01*
X214466029Y-113150188D01*
X214362224Y-113173639D01*
X214238820Y-113198391D01*
X214195742Y-113206398D01*
X213988048Y-113244441D01*
X213823985Y-113275079D01*
X213698131Y-113299529D01*
X213605066Y-113319009D01*
X213539368Y-113334736D01*
X213495618Y-113347928D01*
X213468393Y-113359804D01*
X213452273Y-113371580D01*
X213450018Y-113373908D01*
X213427504Y-113411400D01*
X213393159Y-113484365D01*
X213350412Y-113583867D01*
X213302693Y-113700973D01*
X213253431Y-113826748D01*
X213206056Y-113952257D01*
X213163996Y-114068565D01*
X213130681Y-114166739D01*
X213109542Y-114237843D01*
X213104006Y-114272942D01*
X213104467Y-114274172D01*
X213123224Y-114302861D01*
X213165777Y-114365985D01*
X213227654Y-114456973D01*
X213304383Y-114569255D01*
X213391492Y-114696260D01*
X213416299Y-114732353D01*
X213504753Y-114863203D01*
X213582589Y-114982591D01*
X213645567Y-115083662D01*
X213689446Y-115159559D01*
X213709986Y-115203427D01*
X213710981Y-115208817D01*
X213693723Y-115237144D01*
X213646036Y-115293261D01*
X213574051Y-115371137D01*
X213483898Y-115464740D01*
X213381706Y-115568041D01*
X213273606Y-115675006D01*
X213165729Y-115779606D01*
X213064205Y-115875809D01*
X212975163Y-115957584D01*
X212904734Y-116018900D01*
X212859048Y-116053726D01*
X212846410Y-116059412D01*
X212816992Y-116046020D01*
X212756762Y-116009899D01*
X212675530Y-115957136D01*
X212613031Y-115914667D01*
X212499786Y-115836740D01*
X212365675Y-115744984D01*
X212231156Y-115653375D01*
X212158834Y-115604346D01*
X211914039Y-115438770D01*
X211708551Y-115549875D01*
X211614937Y-115598548D01*
X211535331Y-115636381D01*
X211481468Y-115657958D01*
X211467758Y-115660961D01*
X211451271Y-115638793D01*
X211418746Y-115576149D01*
X211372609Y-115478809D01*
X211315291Y-115352549D01*
X211249217Y-115203150D01*
X211176816Y-115036388D01*
X211100517Y-114858042D01*
X211022747Y-114673891D01*
X210945935Y-114489712D01*
X210872507Y-114311285D01*
X210804893Y-114144387D01*
X210745521Y-113994797D01*
X210696817Y-113868293D01*
X210661211Y-113770654D01*
X210641131Y-113707657D01*
X210637901Y-113686021D01*
X210663497Y-113658424D01*
X210719539Y-113613625D01*
X210794312Y-113560934D01*
X210800588Y-113556765D01*
X210993846Y-113402069D01*
X211149675Y-113221591D01*
X211266725Y-113021102D01*
X211343646Y-112806374D01*
X211379087Y-112583177D01*
X211371698Y-112357281D01*
X211320128Y-112134459D01*
X211223027Y-111920479D01*
X211194459Y-111873664D01*
X211045869Y-111684618D01*
X210870328Y-111532812D01*
X210673911Y-111419034D01*
X210462694Y-111344075D01*
X210242754Y-111308722D01*
X210020164Y-111313767D01*
X209801002Y-111359999D01*
X209591343Y-111448206D01*
X209397262Y-111579179D01*
X209337227Y-111632337D01*
X209184436Y-111798739D01*
X209073098Y-111973912D01*
X208996724Y-112170266D01*
X208954188Y-112364717D01*
X208943687Y-112583342D01*
X208978701Y-112803052D01*
X209055674Y-113016420D01*
X209171048Y-113216022D01*
X209321266Y-113394429D01*
X209502774Y-113544217D01*
X209526628Y-113560006D01*
X209602202Y-113611712D01*
X209659652Y-113656512D01*
X209687118Y-113685117D01*
X209687518Y-113686021D01*
X209681621Y-113716964D01*
X209658246Y-113787191D01*
X209619822Y-113890925D01*
X209568778Y-114022390D01*
X209507543Y-114175807D01*
X209438545Y-114345401D01*
X209364214Y-114525393D01*
X209286979Y-114710008D01*
X209209269Y-114893468D01*
X209133512Y-115069996D01*
X209062138Y-115233814D01*
X208997575Y-115379147D01*
X208942253Y-115500217D01*
X208898601Y-115591247D01*
X208869047Y-115646460D01*
X208857145Y-115660961D01*
X208820778Y-115649669D01*
X208752731Y-115619385D01*
X208664737Y-115575520D01*
X208616351Y-115549875D01*
X208410864Y-115438770D01*
X208166069Y-115604346D01*
X208041107Y-115689170D01*
X207904296Y-115782516D01*
X207776089Y-115870408D01*
X207711872Y-115914667D01*
X207621552Y-115975318D01*
X207545072Y-116023381D01*
X207492408Y-116052770D01*
X207475303Y-116058982D01*
X207450406Y-116042223D01*
X207395306Y-115995436D01*
X207315344Y-115923480D01*
X207215861Y-115831212D01*
X207102201Y-115723490D01*
X207030316Y-115654326D01*
X206904552Y-115530757D01*
X206795864Y-115420234D01*
X206708646Y-115327485D01*
X206647290Y-115257237D01*
X206616192Y-115214220D01*
X206613209Y-115205490D01*
X206627054Y-115172284D01*
X206665313Y-115105142D01*
X206723742Y-115010863D01*
X206798098Y-114896245D01*
X206884136Y-114768083D01*
X206908603Y-114732353D01*
X206997755Y-114602489D01*
X207077739Y-114485569D01*
X207144081Y-114388162D01*
X207192312Y-114316839D01*
X207217958Y-114278170D01*
X207220436Y-114274172D01*
X207216730Y-114243355D01*
X207197062Y-114175599D01*
X207164861Y-114079839D01*
X207123556Y-113965009D01*
X207076576Y-113840044D01*
X207027350Y-113713879D01*
X206979309Y-113595448D01*
X206935882Y-113493685D01*
X206900497Y-113417526D01*
X206876585Y-113375904D01*
X206874885Y-113373908D01*
X206860263Y-113362013D01*
X206835566Y-113350250D01*
X206795373Y-113337401D01*
X206734264Y-113322249D01*
X206646818Y-113303576D01*
X206527613Y-113280165D01*
X206371228Y-113250797D01*
X206172244Y-113214255D01*
X206129161Y-113206398D01*
X206001471Y-113181727D01*
X205890154Y-113157593D01*
X205805046Y-113136324D01*
X205755984Y-113120248D01*
X205749406Y-113116500D01*
X205738565Y-113083273D01*
X205729754Y-113009021D01*
X205722977Y-112902376D01*
X205718241Y-112771967D01*
X205715551Y-112626427D01*
X205714914Y-112474386D01*
X205716335Y-112324476D01*
X205719821Y-112185328D01*
X205725377Y-112065572D01*
X205733009Y-111973841D01*
X205742723Y-111918766D01*
X205748579Y-111907493D01*
X205781181Y-111896123D01*
X205855419Y-111877624D01*
X205963897Y-111853602D01*
X206099218Y-111825662D01*
X206253986Y-111795408D01*
X206338308Y-111779551D01*
X206498297Y-111749644D01*
X206640968Y-111722550D01*
X206759349Y-111699631D01*
X206846466Y-111682243D01*
X206895346Y-111671747D01*
X206903391Y-111669420D01*
X206916988Y-111643186D01*
X206945730Y-111579995D01*
X206985786Y-111488877D01*
X207033325Y-111378857D01*
X207084516Y-111258965D01*
X207135527Y-111138227D01*
X207182527Y-111025671D01*
X207221685Y-110930326D01*
X207249170Y-110861217D01*
X207261150Y-110827374D01*
X207261373Y-110825895D01*
X207247792Y-110799197D01*
X207209716Y-110737760D01*
X207151148Y-110647689D01*
X207076089Y-110535090D01*
X206988541Y-110406070D01*
X206937648Y-110331961D01*
X206844910Y-110196077D01*
X206762542Y-110072709D01*
X206694562Y-109968097D01*
X206644989Y-109888483D01*
X206617843Y-109840107D01*
X206613922Y-109829262D01*
X206630776Y-109804020D01*
X206677369Y-109750124D01*
X206747749Y-109673613D01*
X206835966Y-109580523D01*
X206936066Y-109476895D01*
X207042099Y-109368764D01*
X207148112Y-109262170D01*
X207248153Y-109163150D01*
X207336271Y-109077742D01*
X207406514Y-109011985D01*
X207452929Y-108971916D01*
X207468457Y-108962353D01*
X207493740Y-108975800D01*
X207554212Y-109013575D01*
X207643993Y-109071835D01*
X207757204Y-109146734D01*
X207887964Y-109234425D01*
X207986600Y-109301233D01*
X208484958Y-109640112D01*
X208900371Y-109468865D01*
X209315785Y-109297618D01*
X209428367Y-108700427D01*
X209540950Y-108103235D01*
X210783953Y-108103235D01*
X210896536Y-108700427D01*
G37*
X210896536Y-108700427D02*
X211009118Y-109297618D01*
X211424531Y-109468865D01*
X211839945Y-109640112D01*
X212338302Y-109301233D01*
X212477869Y-109206877D01*
X212604029Y-109122630D01*
X212710896Y-109052338D01*
X212792583Y-108999847D01*
X212843202Y-108969004D01*
X212856987Y-108962353D01*
X212881821Y-108979458D01*
X212934889Y-109026744D01*
X213010241Y-109098172D01*
X213101930Y-109187700D01*
X213204008Y-109289289D01*
X213310527Y-109396898D01*
X213415537Y-109504487D01*
X213513092Y-109606015D01*
X213597243Y-109695441D01*
X213662041Y-109766726D01*
X213701538Y-109813828D01*
X213710981Y-109829592D01*
X213697392Y-109858653D01*
X213659294Y-109922321D01*
X213600694Y-110014367D01*
X213525598Y-110128564D01*
X213438009Y-110258684D01*
X213387255Y-110332901D01*
X213294746Y-110468422D01*
X213212541Y-110590716D01*
X213144631Y-110693695D01*
X213095001Y-110771273D01*
X213067641Y-110817361D01*
X213063530Y-110827047D01*
X213072850Y-110854574D01*
X213098255Y-110918728D01*
X213135912Y-111010490D01*
X213181987Y-111120839D01*
X213232647Y-111240755D01*
X213284060Y-111361219D01*
X213332390Y-111473209D01*
X213373807Y-111567707D01*
X213404475Y-111635692D01*
X213420562Y-111668143D01*
X213421512Y-111669420D01*
X213446773Y-111675617D01*
X213514046Y-111689440D01*
X213616361Y-111709532D01*
X213746742Y-111734534D01*
X213898217Y-111763086D01*
X213986594Y-111779551D01*
X214148453Y-111810369D01*
X214294650Y-111839694D01*
X214417788Y-111865921D01*
X214510470Y-111887446D01*
X214565302Y-111902665D01*
X214576324Y-111907493D01*
X214587119Y-111940174D01*
X214595830Y-112013985D01*
X214602461Y-112120292D01*
X214607019Y-112250467D01*
X214609510Y-112395876D01*
X214609939Y-112547890D01*
X214608312Y-112697877D01*
X214604636Y-112837206D01*
X214598916Y-112957245D01*
X214591158Y-113049365D01*
X214581369Y-113104932D01*
X214575497Y-113116500D01*
X214540400Y-113130365D01*
X214466029Y-113150188D01*
X214362224Y-113173639D01*
X214238820Y-113198391D01*
X214195742Y-113206398D01*
X213988048Y-113244441D01*
X213823985Y-113275079D01*
X213698131Y-113299529D01*
X213605066Y-113319009D01*
X213539368Y-113334736D01*
X213495618Y-113347928D01*
X213468393Y-113359804D01*
X213452273Y-113371580D01*
X213450018Y-113373908D01*
X213427504Y-113411400D01*
X213393159Y-113484365D01*
X213350412Y-113583867D01*
X213302693Y-113700973D01*
X213253431Y-113826748D01*
X213206056Y-113952257D01*
X213163996Y-114068565D01*
X213130681Y-114166739D01*
X213109542Y-114237843D01*
X213104006Y-114272942D01*
X213104467Y-114274172D01*
X213123224Y-114302861D01*
X213165777Y-114365985D01*
X213227654Y-114456973D01*
X213304383Y-114569255D01*
X213391492Y-114696260D01*
X213416299Y-114732353D01*
X213504753Y-114863203D01*
X213582589Y-114982591D01*
X213645567Y-115083662D01*
X213689446Y-115159559D01*
X213709986Y-115203427D01*
X213710981Y-115208817D01*
X213693723Y-115237144D01*
X213646036Y-115293261D01*
X213574051Y-115371137D01*
X213483898Y-115464740D01*
X213381706Y-115568041D01*
X213273606Y-115675006D01*
X213165729Y-115779606D01*
X213064205Y-115875809D01*
X212975163Y-115957584D01*
X212904734Y-116018900D01*
X212859048Y-116053726D01*
X212846410Y-116059412D01*
X212816992Y-116046020D01*
X212756762Y-116009899D01*
X212675530Y-115957136D01*
X212613031Y-115914667D01*
X212499786Y-115836740D01*
X212365675Y-115744984D01*
X212231156Y-115653375D01*
X212158834Y-115604346D01*
X211914039Y-115438770D01*
X211708551Y-115549875D01*
X211614937Y-115598548D01*
X211535331Y-115636381D01*
X211481468Y-115657958D01*
X211467758Y-115660961D01*
X211451271Y-115638793D01*
X211418746Y-115576149D01*
X211372609Y-115478809D01*
X211315291Y-115352549D01*
X211249217Y-115203150D01*
X211176816Y-115036388D01*
X211100517Y-114858042D01*
X211022747Y-114673891D01*
X210945935Y-114489712D01*
X210872507Y-114311285D01*
X210804893Y-114144387D01*
X210745521Y-113994797D01*
X210696817Y-113868293D01*
X210661211Y-113770654D01*
X210641131Y-113707657D01*
X210637901Y-113686021D01*
X210663497Y-113658424D01*
X210719539Y-113613625D01*
X210794312Y-113560934D01*
X210800588Y-113556765D01*
X210993846Y-113402069D01*
X211149675Y-113221591D01*
X211266725Y-113021102D01*
X211343646Y-112806374D01*
X211379087Y-112583177D01*
X211371698Y-112357281D01*
X211320128Y-112134459D01*
X211223027Y-111920479D01*
X211194459Y-111873664D01*
X211045869Y-111684618D01*
X210870328Y-111532812D01*
X210673911Y-111419034D01*
X210462694Y-111344075D01*
X210242754Y-111308722D01*
X210020164Y-111313767D01*
X209801002Y-111359999D01*
X209591343Y-111448206D01*
X209397262Y-111579179D01*
X209337227Y-111632337D01*
X209184436Y-111798739D01*
X209073098Y-111973912D01*
X208996724Y-112170266D01*
X208954188Y-112364717D01*
X208943687Y-112583342D01*
X208978701Y-112803052D01*
X209055674Y-113016420D01*
X209171048Y-113216022D01*
X209321266Y-113394429D01*
X209502774Y-113544217D01*
X209526628Y-113560006D01*
X209602202Y-113611712D01*
X209659652Y-113656512D01*
X209687118Y-113685117D01*
X209687518Y-113686021D01*
X209681621Y-113716964D01*
X209658246Y-113787191D01*
X209619822Y-113890925D01*
X209568778Y-114022390D01*
X209507543Y-114175807D01*
X209438545Y-114345401D01*
X209364214Y-114525393D01*
X209286979Y-114710008D01*
X209209269Y-114893468D01*
X209133512Y-115069996D01*
X209062138Y-115233814D01*
X208997575Y-115379147D01*
X208942253Y-115500217D01*
X208898601Y-115591247D01*
X208869047Y-115646460D01*
X208857145Y-115660961D01*
X208820778Y-115649669D01*
X208752731Y-115619385D01*
X208664737Y-115575520D01*
X208616351Y-115549875D01*
X208410864Y-115438770D01*
X208166069Y-115604346D01*
X208041107Y-115689170D01*
X207904296Y-115782516D01*
X207776089Y-115870408D01*
X207711872Y-115914667D01*
X207621552Y-115975318D01*
X207545072Y-116023381D01*
X207492408Y-116052770D01*
X207475303Y-116058982D01*
X207450406Y-116042223D01*
X207395306Y-115995436D01*
X207315344Y-115923480D01*
X207215861Y-115831212D01*
X207102201Y-115723490D01*
X207030316Y-115654326D01*
X206904552Y-115530757D01*
X206795864Y-115420234D01*
X206708646Y-115327485D01*
X206647290Y-115257237D01*
X206616192Y-115214220D01*
X206613209Y-115205490D01*
X206627054Y-115172284D01*
X206665313Y-115105142D01*
X206723742Y-115010863D01*
X206798098Y-114896245D01*
X206884136Y-114768083D01*
X206908603Y-114732353D01*
X206997755Y-114602489D01*
X207077739Y-114485569D01*
X207144081Y-114388162D01*
X207192312Y-114316839D01*
X207217958Y-114278170D01*
X207220436Y-114274172D01*
X207216730Y-114243355D01*
X207197062Y-114175599D01*
X207164861Y-114079839D01*
X207123556Y-113965009D01*
X207076576Y-113840044D01*
X207027350Y-113713879D01*
X206979309Y-113595448D01*
X206935882Y-113493685D01*
X206900497Y-113417526D01*
X206876585Y-113375904D01*
X206874885Y-113373908D01*
X206860263Y-113362013D01*
X206835566Y-113350250D01*
X206795373Y-113337401D01*
X206734264Y-113322249D01*
X206646818Y-113303576D01*
X206527613Y-113280165D01*
X206371228Y-113250797D01*
X206172244Y-113214255D01*
X206129161Y-113206398D01*
X206001471Y-113181727D01*
X205890154Y-113157593D01*
X205805046Y-113136324D01*
X205755984Y-113120248D01*
X205749406Y-113116500D01*
X205738565Y-113083273D01*
X205729754Y-113009021D01*
X205722977Y-112902376D01*
X205718241Y-112771967D01*
X205715551Y-112626427D01*
X205714914Y-112474386D01*
X205716335Y-112324476D01*
X205719821Y-112185328D01*
X205725377Y-112065572D01*
X205733009Y-111973841D01*
X205742723Y-111918766D01*
X205748579Y-111907493D01*
X205781181Y-111896123D01*
X205855419Y-111877624D01*
X205963897Y-111853602D01*
X206099218Y-111825662D01*
X206253986Y-111795408D01*
X206338308Y-111779551D01*
X206498297Y-111749644D01*
X206640968Y-111722550D01*
X206759349Y-111699631D01*
X206846466Y-111682243D01*
X206895346Y-111671747D01*
X206903391Y-111669420D01*
X206916988Y-111643186D01*
X206945730Y-111579995D01*
X206985786Y-111488877D01*
X207033325Y-111378857D01*
X207084516Y-111258965D01*
X207135527Y-111138227D01*
X207182527Y-111025671D01*
X207221685Y-110930326D01*
X207249170Y-110861217D01*
X207261150Y-110827374D01*
X207261373Y-110825895D01*
X207247792Y-110799197D01*
X207209716Y-110737760D01*
X207151148Y-110647689D01*
X207076089Y-110535090D01*
X206988541Y-110406070D01*
X206937648Y-110331961D01*
X206844910Y-110196077D01*
X206762542Y-110072709D01*
X206694562Y-109968097D01*
X206644989Y-109888483D01*
X206617843Y-109840107D01*
X206613922Y-109829262D01*
X206630776Y-109804020D01*
X206677369Y-109750124D01*
X206747749Y-109673613D01*
X206835966Y-109580523D01*
X206936066Y-109476895D01*
X207042099Y-109368764D01*
X207148112Y-109262170D01*
X207248153Y-109163150D01*
X207336271Y-109077742D01*
X207406514Y-109011985D01*
X207452929Y-108971916D01*
X207468457Y-108962353D01*
X207493740Y-108975800D01*
X207554212Y-109013575D01*
X207643993Y-109071835D01*
X207757204Y-109146734D01*
X207887964Y-109234425D01*
X207986600Y-109301233D01*
X208484958Y-109640112D01*
X208900371Y-109468865D01*
X209315785Y-109297618D01*
X209428367Y-108700427D01*
X209540950Y-108103235D01*
X210783953Y-108103235D01*
X210896536Y-108700427D01*
D11*
X173090000Y-47650000D03*
D12*
X165880000Y-48180000D03*
X174520000Y-48180000D03*
D13*
X165880000Y-44000000D03*
X174520000Y-44000000D03*
D11*
X167310000Y-47650000D03*
D14*
X173425000Y-49100000D03*
X172650000Y-49100000D03*
D15*
X171950000Y-49100000D03*
X171450000Y-49100000D03*
X170950000Y-49100000D03*
X170450000Y-49100000D03*
X169950000Y-49100000D03*
X169450000Y-49100000D03*
X168950000Y-49100000D03*
X168450000Y-49100000D03*
D14*
X167750000Y-49100000D03*
X166975000Y-49100000D03*
D16*
X92710000Y-71755000D03*
D17*
X90170000Y-71755000D03*
D18*
X93979724Y-61595672D02*
X93940276Y-62174328D01*
X88440453Y-62675046D02*
X87629547Y-64134954D01*
X94439547Y-62675046D02*
X95250453Y-64134954D01*
X88900276Y-61595672D02*
X88939724Y-62174328D01*
D16*
X92710000Y-90805000D03*
D17*
X90170000Y-90805000D03*
D18*
X93979724Y-80645672D02*
X93940276Y-81224328D01*
X88440453Y-81725046D02*
X87629547Y-83184954D01*
X94439547Y-81725046D02*
X95250453Y-83184954D01*
X88900276Y-80645672D02*
X88939724Y-81224328D01*
D16*
X92710000Y-109855000D03*
D17*
X90170000Y-109855000D03*
D18*
X93979724Y-99695672D02*
X93940276Y-100274328D01*
X88440453Y-100775046D02*
X87629547Y-102234954D01*
X94439547Y-100775046D02*
X95250453Y-102234954D01*
X88900276Y-99695672D02*
X88939724Y-100274328D01*
D16*
X92710000Y-128905000D03*
D17*
X90170000Y-128905000D03*
D18*
X93979724Y-118745672D02*
X93940276Y-119324328D01*
X88440453Y-119825046D02*
X87629547Y-121284954D01*
X94439547Y-119825046D02*
X95250453Y-121284954D01*
X88900276Y-118745672D02*
X88939724Y-119324328D01*
D19*
G36*
X175275356Y-147514122D02*
G01*
X175768406Y-145674034D01*
X177608494Y-146167084D01*
X177115444Y-148007172D01*
X175275356Y-147514122D01*
G37*
D17*
X173988473Y-146183203D03*
D18*
X180297812Y-137356074D02*
X180109940Y-137904804D01*
X174667925Y-136965002D02*
X173506797Y-138165286D01*
X180462604Y-138517681D02*
X180868028Y-140137721D01*
X175391441Y-136041416D02*
X175279779Y-136610566D01*
D19*
G36*
X194641952Y-145848713D02*
G01*
X196291730Y-146801213D01*
X195339230Y-148450991D01*
X193689452Y-147498491D01*
X194641952Y-145848713D01*
G37*
D17*
X196260591Y-144950148D03*
D18*
X203153966Y-153329130D02*
X202672558Y-153005638D01*
X204988835Y-147992294D02*
X204129971Y-146560074D01*
X201989288Y-153187660D02*
X200319518Y-153159972D01*
X205693690Y-148930198D02*
X205172834Y-148675034D01*
D16*
X203200000Y-99060000D03*
D17*
X203200000Y-96520000D03*
D18*
X213359328Y-100329724D02*
X212780672Y-100290276D01*
X212279954Y-94790453D02*
X210820046Y-93979547D01*
X212279954Y-100789547D02*
X210820046Y-101600453D01*
X213359328Y-95250276D02*
X212780672Y-95289724D01*
D19*
G36*
X211151952Y-155373713D02*
G01*
X212801730Y-156326213D01*
X211849230Y-157975991D01*
X210199452Y-157023491D01*
X211151952Y-155373713D01*
G37*
D17*
X212770591Y-154475148D03*
D18*
X219663966Y-162854130D02*
X219182558Y-162530638D01*
X221498835Y-157517294D02*
X220639971Y-156085074D01*
X218499288Y-162712660D02*
X216829518Y-162684972D01*
X222203690Y-158455198D02*
X221682834Y-158200034D01*
D16*
X133350000Y-67310000D03*
D17*
X130810000Y-67310000D03*
D18*
X134619724Y-57150672D02*
X134580276Y-57729328D01*
X129080453Y-58230046D02*
X128269547Y-59689954D01*
X135079547Y-58230046D02*
X135890453Y-59689954D01*
X129540276Y-57150672D02*
X129579724Y-57729328D01*
D16*
X190500000Y-69215000D03*
D17*
X187960000Y-69215000D03*
D18*
X191769724Y-59055672D02*
X191730276Y-59634328D01*
X186230453Y-60135046D02*
X185419547Y-61594954D01*
X192229547Y-60135046D02*
X193040453Y-61594954D01*
X186690276Y-59055672D02*
X186729724Y-59634328D01*
D16*
X114300000Y-71755000D03*
D17*
X111760000Y-71755000D03*
D18*
X115569724Y-61595672D02*
X115530276Y-62174328D01*
X110030453Y-62675046D02*
X109219547Y-64134954D01*
X116029547Y-62675046D02*
X116840453Y-64134954D01*
X110490276Y-61595672D02*
X110529724Y-62174328D01*
D16*
X95250000Y-147955000D03*
D17*
X92710000Y-147955000D03*
D18*
X96519724Y-137795672D02*
X96480276Y-138374328D01*
X90980453Y-138875046D02*
X90169547Y-140334954D01*
X96979547Y-138875046D02*
X97790453Y-140334954D01*
X91440276Y-137795672D02*
X91479724Y-138374328D01*
D16*
X114300000Y-90805000D03*
D17*
X111760000Y-90805000D03*
D18*
X115569724Y-80645672D02*
X115530276Y-81224328D01*
X110030453Y-81725046D02*
X109219547Y-83184954D01*
X116029547Y-81725046D02*
X116840453Y-83184954D01*
X110490276Y-80645672D02*
X110529724Y-81224328D01*
D16*
X114300000Y-109855000D03*
D17*
X111760000Y-109855000D03*
D18*
X115569724Y-99695672D02*
X115530276Y-100274328D01*
X110030453Y-100775046D02*
X109219547Y-102234954D01*
X116029547Y-100775046D02*
X116840453Y-102234954D01*
X110490276Y-99695672D02*
X110529724Y-100274328D01*
D16*
X114300000Y-128905000D03*
D17*
X111760000Y-128905000D03*
D18*
X115569724Y-118745672D02*
X115530276Y-119324328D01*
X110030453Y-119825046D02*
X109219547Y-121284954D01*
X116029547Y-119825046D02*
X116840453Y-121284954D01*
X110490276Y-118745672D02*
X110529724Y-119324328D01*
D16*
X114300000Y-147955000D03*
D17*
X111760000Y-147955000D03*
D18*
X115569724Y-137795672D02*
X115530276Y-138374328D01*
X110030453Y-138875046D02*
X109219547Y-140334954D01*
X116029547Y-138875046D02*
X116840453Y-140334954D01*
X110490276Y-137795672D02*
X110529724Y-138374328D01*
D16*
X133350000Y-86360000D03*
D17*
X130810000Y-86360000D03*
D18*
X134619724Y-76200672D02*
X134580276Y-76779328D01*
X129080453Y-77280046D02*
X128269547Y-78739954D01*
X135079547Y-77280046D02*
X135890453Y-78739954D01*
X129540276Y-76200672D02*
X129579724Y-76779328D01*
D16*
X133350000Y-105410000D03*
D17*
X130810000Y-105410000D03*
D18*
X134619724Y-95250672D02*
X134580276Y-95829328D01*
X129080453Y-96330046D02*
X128269547Y-97789954D01*
X135079547Y-96330046D02*
X135890453Y-97789954D01*
X129540276Y-95250672D02*
X129579724Y-95829328D01*
D16*
X133350000Y-124460000D03*
D17*
X130810000Y-124460000D03*
D18*
X134619724Y-114300672D02*
X134580276Y-114879328D01*
X129080453Y-115380046D02*
X128269547Y-116839954D01*
X135079547Y-115380046D02*
X135890453Y-116839954D01*
X129540276Y-114300672D02*
X129579724Y-114879328D01*
D16*
X133350000Y-143510000D03*
D17*
X130810000Y-143510000D03*
D18*
X134619724Y-133350672D02*
X134580276Y-133929328D01*
X129080453Y-134430046D02*
X128269547Y-135889954D01*
X135079547Y-134430046D02*
X135890453Y-135889954D01*
X129540276Y-133350672D02*
X129579724Y-133929328D01*
D16*
X152400000Y-64770000D03*
D17*
X149860000Y-64770000D03*
D18*
X153669724Y-54610672D02*
X153630276Y-55189328D01*
X148130453Y-55690046D02*
X147319547Y-57149954D01*
X154129547Y-55690046D02*
X154940453Y-57149954D01*
X148590276Y-54610672D02*
X148629724Y-55189328D01*
D16*
X152400000Y-83820000D03*
D17*
X149860000Y-83820000D03*
D18*
X153669724Y-73660672D02*
X153630276Y-74239328D01*
X148130453Y-74740046D02*
X147319547Y-76199954D01*
X154129547Y-74740046D02*
X154940453Y-76199954D01*
X148590276Y-73660672D02*
X148629724Y-74239328D01*
D16*
X152400000Y-102870000D03*
D17*
X149860000Y-102870000D03*
D18*
X153669724Y-92710672D02*
X153630276Y-93289328D01*
X148130453Y-93790046D02*
X147319547Y-95249954D01*
X154129547Y-93790046D02*
X154940453Y-95249954D01*
X148590276Y-92710672D02*
X148629724Y-93289328D01*
D16*
X152400000Y-121920000D03*
D17*
X149860000Y-121920000D03*
D18*
X153669724Y-111760672D02*
X153630276Y-112339328D01*
X148130453Y-112840046D02*
X147319547Y-114299954D01*
X154129547Y-112840046D02*
X154940453Y-114299954D01*
X148590276Y-111760672D02*
X148629724Y-112339328D01*
D16*
X152400000Y-140970000D03*
D17*
X149860000Y-140970000D03*
D18*
X153669724Y-130810672D02*
X153630276Y-131389328D01*
X148130453Y-131890046D02*
X147319547Y-133349954D01*
X154129547Y-131890046D02*
X154940453Y-133349954D01*
X148590276Y-130810672D02*
X148629724Y-131389328D01*
D16*
X171450000Y-67310000D03*
D17*
X168910000Y-67310000D03*
D18*
X172719724Y-57150672D02*
X172680276Y-57729328D01*
X167180453Y-58230046D02*
X166369547Y-59689954D01*
X173179547Y-58230046D02*
X173990453Y-59689954D01*
X167640276Y-57150672D02*
X167679724Y-57729328D01*
D16*
X171450000Y-86360000D03*
D17*
X168910000Y-86360000D03*
D18*
X172719724Y-76200672D02*
X172680276Y-76779328D01*
X167180453Y-77280046D02*
X166369547Y-78739954D01*
X173179547Y-77280046D02*
X173990453Y-78739954D01*
X167640276Y-76200672D02*
X167679724Y-76779328D01*
D16*
X171450000Y-105410000D03*
D17*
X168910000Y-105410000D03*
D18*
X172719724Y-95250672D02*
X172680276Y-95829328D01*
X167180453Y-96330046D02*
X166369547Y-97789954D01*
X173179547Y-96330046D02*
X173990453Y-97789954D01*
X167640276Y-95250672D02*
X167679724Y-95829328D01*
D16*
X171450000Y-124460000D03*
D17*
X168910000Y-124460000D03*
D18*
X172719724Y-114300672D02*
X172680276Y-114879328D01*
X167180453Y-115380046D02*
X166369547Y-116839954D01*
X173179547Y-115380046D02*
X173990453Y-116839954D01*
X167640276Y-114300672D02*
X167679724Y-114879328D01*
D16*
X190500000Y-88265000D03*
D17*
X187960000Y-88265000D03*
D18*
X191769724Y-78105672D02*
X191730276Y-78684328D01*
X186230453Y-79185046D02*
X185419547Y-80644954D01*
X192229547Y-79185046D02*
X193040453Y-80644954D01*
X186690276Y-78105672D02*
X186729724Y-78684328D01*
D16*
X190500000Y-107315000D03*
D17*
X187960000Y-107315000D03*
D18*
X191769724Y-97155672D02*
X191730276Y-97734328D01*
X186230453Y-98235046D02*
X185419547Y-99694954D01*
X192229547Y-98235046D02*
X193040453Y-99694954D01*
X186690276Y-97155672D02*
X186729724Y-97734328D01*
D16*
X190500000Y-126365000D03*
D17*
X187960000Y-126365000D03*
D18*
X191769724Y-116205672D02*
X191730276Y-116784328D01*
X186230453Y-117285046D02*
X185419547Y-118744954D01*
X192229547Y-117285046D02*
X193040453Y-118744954D01*
X186690276Y-116205672D02*
X186729724Y-116784328D01*
D16*
X209550000Y-78740000D03*
D17*
X207010000Y-78740000D03*
D18*
X210819724Y-68580672D02*
X210780276Y-69159328D01*
X205280453Y-69660046D02*
X204469547Y-71119954D01*
X211279547Y-69660046D02*
X212090453Y-71119954D01*
X205740276Y-68580672D02*
X205779724Y-69159328D01*
D19*
G36*
X209348713Y-133018048D02*
G01*
X210301213Y-131368270D01*
X211950991Y-132320770D01*
X210998491Y-133970548D01*
X209348713Y-133018048D01*
G37*
D17*
X208450148Y-131399409D03*
D18*
X216829130Y-124506034D02*
X216505638Y-124987442D01*
X211492294Y-122671165D02*
X210060074Y-123530029D01*
X216687660Y-125670712D02*
X216659972Y-127340482D01*
X212430198Y-121966310D02*
X212175034Y-122487166D01*
D19*
G36*
X225858713Y-142543048D02*
G01*
X226811213Y-140893270D01*
X228460991Y-141845770D01*
X227508491Y-143495548D01*
X225858713Y-142543048D01*
G37*
D17*
X224960148Y-140924409D03*
D18*
X233339130Y-134031034D02*
X233015638Y-134512442D01*
X228002294Y-132196165D02*
X226570074Y-133055029D01*
X233197660Y-135195712D02*
X233169972Y-136865482D01*
X228940198Y-131491310D02*
X228685034Y-132012166D01*
D20*
X96647000Y-72112000D03*
X96647000Y-69112000D03*
D21*
X96647000Y-71662000D03*
X96647000Y-69562000D03*
D20*
X96647000Y-91162000D03*
X96647000Y-88162000D03*
D21*
X96647000Y-90712000D03*
X96647000Y-88612000D03*
D20*
X96647000Y-110212000D03*
X96647000Y-107212000D03*
D21*
X96647000Y-109762000D03*
X96647000Y-107662000D03*
D20*
X96647000Y-129262000D03*
X96647000Y-126262000D03*
D21*
X96647000Y-128812000D03*
X96647000Y-126712000D03*
D20*
X99187000Y-148312000D03*
X99187000Y-145312000D03*
D21*
X99187000Y-147862000D03*
X99187000Y-145762000D03*
D20*
X118237000Y-72112000D03*
X118237000Y-69112000D03*
D21*
X118237000Y-71662000D03*
X118237000Y-69562000D03*
D20*
X118237000Y-91162000D03*
X118237000Y-88162000D03*
D21*
X118237000Y-90712000D03*
X118237000Y-88612000D03*
D20*
X118237000Y-110212000D03*
X118237000Y-107212000D03*
D21*
X118237000Y-109762000D03*
X118237000Y-107662000D03*
D20*
X118237000Y-129262000D03*
X118237000Y-126262000D03*
D21*
X118237000Y-128812000D03*
X118237000Y-126712000D03*
D20*
X118200000Y-148312000D03*
X118200000Y-145312000D03*
D21*
X118200000Y-147862000D03*
X118200000Y-145762000D03*
D20*
X137300000Y-67667000D03*
X137300000Y-64667000D03*
D21*
X137300000Y-67217000D03*
X137300000Y-65117000D03*
D20*
X137300000Y-86717000D03*
X137300000Y-83717000D03*
D21*
X137300000Y-86267000D03*
X137300000Y-84167000D03*
D20*
X137287000Y-105767000D03*
X137287000Y-102767000D03*
D21*
X137287000Y-105317000D03*
X137287000Y-103217000D03*
D20*
X137287000Y-124817000D03*
X137287000Y-121817000D03*
D21*
X137287000Y-124367000D03*
X137287000Y-122267000D03*
D20*
X137287000Y-143867000D03*
X137287000Y-140867000D03*
D21*
X137287000Y-143417000D03*
X137287000Y-141317000D03*
D20*
X156337000Y-65127000D03*
X156337000Y-62127000D03*
D21*
X156337000Y-64677000D03*
X156337000Y-62577000D03*
D20*
X156337000Y-84177000D03*
X156337000Y-81177000D03*
D21*
X156337000Y-83727000D03*
X156337000Y-81627000D03*
D20*
X156300000Y-103227000D03*
X156300000Y-100227000D03*
D21*
X156300000Y-102777000D03*
X156300000Y-100677000D03*
D20*
X156337000Y-122277000D03*
X156337000Y-119277000D03*
D21*
X156337000Y-121827000D03*
X156337000Y-119727000D03*
D20*
X156337000Y-141327000D03*
X156337000Y-138327000D03*
D21*
X156337000Y-140877000D03*
X156337000Y-138777000D03*
D20*
X175387000Y-67667000D03*
X175387000Y-64667000D03*
D21*
X175387000Y-67217000D03*
X175387000Y-65117000D03*
D20*
X175387000Y-86717000D03*
X175387000Y-83717000D03*
D21*
X175387000Y-86267000D03*
X175387000Y-84167000D03*
D20*
X175387000Y-105767000D03*
X175387000Y-102767000D03*
D21*
X175387000Y-105317000D03*
X175387000Y-103217000D03*
D20*
X175400000Y-124817000D03*
X175400000Y-121817000D03*
D21*
X175400000Y-124367000D03*
X175400000Y-122267000D03*
D22*
X180302364Y-148159771D02*
X180109178Y-148108007D01*
X181078822Y-145261993D02*
X180885636Y-145210229D01*
D19*
G36*
X179810857Y-147096323D02*
G01*
X181066560Y-147432788D01*
X180833623Y-148302121D01*
X179577920Y-147965656D01*
X179810857Y-147096323D01*
G37*
G36*
X180354377Y-145067879D02*
G01*
X181610080Y-145404344D01*
X181377143Y-146273677D01*
X180121440Y-145937212D01*
X180354377Y-145067879D01*
G37*
D20*
X194437000Y-69572000D03*
X194437000Y-66572000D03*
D21*
X194437000Y-69122000D03*
X194437000Y-67022000D03*
D20*
X194437000Y-88622000D03*
X194437000Y-85622000D03*
D21*
X194437000Y-88172000D03*
X194437000Y-86072000D03*
D20*
X194400000Y-107545000D03*
X194400000Y-104545000D03*
D21*
X194400000Y-107095000D03*
X194400000Y-104995000D03*
D20*
X194400000Y-126722000D03*
X194400000Y-123722000D03*
D21*
X194400000Y-126272000D03*
X194400000Y-124172000D03*
D22*
X192706962Y-150466603D02*
X192806962Y-150293397D01*
X195305038Y-151966603D02*
X195405038Y-151793397D01*
D19*
G36*
X193861384Y-150267083D02*
G01*
X193211384Y-151392917D01*
X192431962Y-150942917D01*
X193081962Y-149817083D01*
X193861384Y-150267083D01*
G37*
G36*
X195680038Y-151317083D02*
G01*
X195030038Y-152442917D01*
X194250616Y-151992917D01*
X194900616Y-150867083D01*
X195680038Y-151317083D01*
G37*
D20*
X213487000Y-79097000D03*
X213487000Y-76097000D03*
D21*
X213487000Y-78647000D03*
X213487000Y-76547000D03*
D23*
X202843000Y-102997000D03*
X205843000Y-102997000D03*
D24*
X203293000Y-102997000D03*
X205393000Y-102997000D03*
D22*
X214036603Y-134749038D02*
X213863397Y-134649038D01*
X215536603Y-132150962D02*
X215363397Y-132050962D01*
D19*
G36*
X213837083Y-133594616D02*
G01*
X214962917Y-134244616D01*
X214512917Y-135024038D01*
X213387083Y-134374038D01*
X213837083Y-133594616D01*
G37*
G36*
X214887083Y-131775962D02*
G01*
X216012917Y-132425962D01*
X215562917Y-133205384D01*
X214437083Y-132555384D01*
X214887083Y-131775962D01*
G37*
D22*
X230476603Y-144478038D02*
X230303397Y-144378038D01*
X231976603Y-141879962D02*
X231803397Y-141779962D01*
D19*
G36*
X230277083Y-143323616D02*
G01*
X231402917Y-143973616D01*
X230952917Y-144753038D01*
X229827083Y-144103038D01*
X230277083Y-143323616D01*
G37*
G36*
X231327083Y-141504962D02*
G01*
X232452917Y-142154962D01*
X232002917Y-142934384D01*
X230877083Y-142284384D01*
X231327083Y-141504962D01*
G37*
D22*
X209216962Y-159991603D02*
X209316962Y-159818397D01*
X211815038Y-161491603D02*
X211915038Y-161318397D01*
D19*
G36*
X210371384Y-159792083D02*
G01*
X209721384Y-160917917D01*
X208941962Y-160467917D01*
X209591962Y-159342083D01*
X210371384Y-159792083D01*
G37*
G36*
X212190038Y-160842083D02*
G01*
X211540038Y-161967917D01*
X210760616Y-161517917D01*
X211410616Y-160392083D01*
X212190038Y-160842083D01*
G37*
D25*
X86106000Y-69466000D03*
X86106000Y-72266000D03*
D26*
X86106000Y-69716000D03*
X86106000Y-72016000D03*
D25*
X86100000Y-88500000D03*
X86100000Y-91300000D03*
D26*
X86100000Y-88750000D03*
X86100000Y-91050000D03*
D25*
X86100000Y-107600000D03*
X86100000Y-110400000D03*
D26*
X86100000Y-107850000D03*
X86100000Y-110150000D03*
D25*
X86100000Y-126600000D03*
X86100000Y-129400000D03*
D26*
X86100000Y-126850000D03*
X86100000Y-129150000D03*
D25*
X88700000Y-145700000D03*
X88700000Y-148500000D03*
D26*
X88700000Y-145950000D03*
X88700000Y-148250000D03*
D25*
X107696000Y-69466000D03*
X107696000Y-72266000D03*
D26*
X107696000Y-69716000D03*
X107696000Y-72016000D03*
D25*
X107700000Y-88550000D03*
X107700000Y-91350000D03*
D26*
X107700000Y-88800000D03*
X107700000Y-91100000D03*
D25*
X107700000Y-107600000D03*
X107700000Y-110400000D03*
D26*
X107700000Y-107850000D03*
X107700000Y-110150000D03*
D25*
X107700000Y-126600000D03*
X107700000Y-129400000D03*
D26*
X107700000Y-126850000D03*
X107700000Y-129150000D03*
D25*
X107700000Y-145650000D03*
X107700000Y-148450000D03*
D26*
X107700000Y-145900000D03*
X107700000Y-148200000D03*
D25*
X126746000Y-65000000D03*
X126746000Y-67800000D03*
D26*
X126746000Y-65250000D03*
X126746000Y-67550000D03*
D25*
X126800000Y-84100000D03*
X126800000Y-86900000D03*
D26*
X126800000Y-84350000D03*
X126800000Y-86650000D03*
D25*
X126800000Y-103100000D03*
X126800000Y-105900000D03*
D26*
X126800000Y-103350000D03*
X126800000Y-105650000D03*
D25*
X126800000Y-122200000D03*
X126800000Y-125000000D03*
D26*
X126800000Y-122450000D03*
X126800000Y-124750000D03*
D25*
X126800000Y-141200000D03*
X126800000Y-144000000D03*
D26*
X126800000Y-141450000D03*
X126800000Y-143750000D03*
D25*
X145796000Y-62354000D03*
X145796000Y-65154000D03*
D26*
X145796000Y-62604000D03*
X145796000Y-64904000D03*
D25*
X145800000Y-81500000D03*
X145800000Y-84300000D03*
D26*
X145800000Y-81750000D03*
X145800000Y-84050000D03*
D25*
X145800000Y-100600000D03*
X145800000Y-103400000D03*
D26*
X145800000Y-100850000D03*
X145800000Y-103150000D03*
D25*
X145800000Y-119600000D03*
X145800000Y-122400000D03*
D26*
X145800000Y-119850000D03*
X145800000Y-122150000D03*
D25*
X145800000Y-138650000D03*
X145800000Y-141450000D03*
D26*
X145800000Y-138900000D03*
X145800000Y-141200000D03*
D25*
X164846000Y-65000000D03*
X164846000Y-67800000D03*
D26*
X164846000Y-65250000D03*
X164846000Y-67550000D03*
D25*
X164900000Y-84100000D03*
X164900000Y-86900000D03*
D26*
X164900000Y-84350000D03*
X164900000Y-86650000D03*
D25*
X164900000Y-103100000D03*
X164900000Y-105900000D03*
D26*
X164900000Y-103350000D03*
X164900000Y-105650000D03*
D25*
X164900000Y-122200000D03*
X164900000Y-125000000D03*
D26*
X164900000Y-122450000D03*
X164900000Y-124750000D03*
D19*
G36*
X171197254Y-143443195D02*
G01*
X169941551Y-143106731D01*
X170122724Y-142430583D01*
X171378427Y-142767047D01*
X171197254Y-143443195D01*
G37*
G36*
X170472560Y-146147787D02*
G01*
X169216857Y-145811323D01*
X169398030Y-145135175D01*
X170653733Y-145471639D01*
X170472560Y-146147787D01*
G37*
G36*
X171080785Y-143877862D02*
G01*
X169825082Y-143541397D01*
X170109783Y-142478878D01*
X171365486Y-142815343D01*
X171080785Y-143877862D01*
G37*
G36*
X170485501Y-146099492D02*
G01*
X169229798Y-145763027D01*
X169514499Y-144700508D01*
X170770202Y-145036973D01*
X170485501Y-146099492D01*
G37*
D25*
X183900000Y-66900000D03*
X183900000Y-69700000D03*
D26*
X183900000Y-67150000D03*
X183900000Y-69450000D03*
D25*
X183900000Y-86000000D03*
X183900000Y-88800000D03*
D26*
X183900000Y-86250000D03*
X183900000Y-88550000D03*
D25*
X183900000Y-105000000D03*
X183900000Y-107800000D03*
D26*
X183900000Y-105250000D03*
X183900000Y-107550000D03*
D25*
X183900000Y-124100000D03*
X183900000Y-126900000D03*
D26*
X183900000Y-124350000D03*
X183900000Y-126650000D03*
D19*
G36*
X199584327Y-142987917D02*
G01*
X200234327Y-141862083D01*
X200840545Y-142212083D01*
X200190545Y-143337917D01*
X199584327Y-142987917D01*
G37*
G36*
X197159455Y-141587917D02*
G01*
X197809455Y-140462083D01*
X198415673Y-140812083D01*
X197765673Y-141937917D01*
X197159455Y-141587917D01*
G37*
G36*
X199194615Y-142762917D02*
G01*
X199844615Y-141637083D01*
X200797243Y-142187083D01*
X200147243Y-143312917D01*
X199194615Y-142762917D01*
G37*
G36*
X197202757Y-141612917D02*
G01*
X197852757Y-140487083D01*
X198805385Y-141037083D01*
X198155385Y-142162917D01*
X197202757Y-141612917D01*
G37*
D25*
X202946000Y-76400000D03*
X202946000Y-79200000D03*
D26*
X202946000Y-76650000D03*
X202946000Y-78950000D03*
D27*
X205500000Y-92456000D03*
X202700000Y-92456000D03*
D28*
X205250000Y-92456000D03*
X202950000Y-92456000D03*
D19*
G36*
X206487917Y-128015673D02*
G01*
X205362083Y-127365673D01*
X205712083Y-126759455D01*
X206837917Y-127409455D01*
X206487917Y-128015673D01*
G37*
G36*
X205087917Y-130440545D02*
G01*
X203962083Y-129790545D01*
X204312083Y-129184327D01*
X205437917Y-129834327D01*
X205087917Y-130440545D01*
G37*
G36*
X206262917Y-128405385D02*
G01*
X205137083Y-127755385D01*
X205687083Y-126802757D01*
X206812917Y-127452757D01*
X206262917Y-128405385D01*
G37*
G36*
X205112917Y-130397243D02*
G01*
X203987083Y-129747243D01*
X204537083Y-128794615D01*
X205662917Y-129444615D01*
X205112917Y-130397243D01*
G37*
G36*
X222987917Y-137515673D02*
G01*
X221862083Y-136865673D01*
X222212083Y-136259455D01*
X223337917Y-136909455D01*
X222987917Y-137515673D01*
G37*
G36*
X221587917Y-139940545D02*
G01*
X220462083Y-139290545D01*
X220812083Y-138684327D01*
X221937917Y-139334327D01*
X221587917Y-139940545D01*
G37*
G36*
X222762917Y-137905385D02*
G01*
X221637083Y-137255385D01*
X222187083Y-136302757D01*
X223312917Y-136952757D01*
X222762917Y-137905385D01*
G37*
G36*
X221612917Y-139897243D02*
G01*
X220487083Y-139247243D01*
X221037083Y-138294615D01*
X222162917Y-138944615D01*
X221612917Y-139897243D01*
G37*
G36*
X216080256Y-152462917D02*
G01*
X216730256Y-151337083D01*
X217336474Y-151687083D01*
X216686474Y-152812917D01*
X216080256Y-152462917D01*
G37*
G36*
X213655384Y-151062917D02*
G01*
X214305384Y-149937083D01*
X214911602Y-150287083D01*
X214261602Y-151412917D01*
X213655384Y-151062917D01*
G37*
G36*
X215690544Y-152237917D02*
G01*
X216340544Y-151112083D01*
X217293172Y-151662083D01*
X216643172Y-152787917D01*
X215690544Y-152237917D01*
G37*
G36*
X213698686Y-151087917D02*
G01*
X214348686Y-149962083D01*
X215301314Y-150512083D01*
X214651314Y-151637917D01*
X213698686Y-151087917D01*
G37*
D29*
X81800000Y-48820000D03*
X81800000Y-46280000D03*
X81800000Y-43740000D03*
X81800000Y-41200000D03*
D30*
X86735380Y-46308000D03*
X85734620Y-46308000D03*
X86735380Y-48848000D03*
X85734620Y-48848000D03*
X86735380Y-43741000D03*
X85734620Y-43741000D03*
X86735380Y-41201000D03*
X85734620Y-41201000D03*
D31*
X203287800Y-47816000D03*
X211087800Y-47816000D03*
X203287800Y-62040000D03*
X211087800Y-62040000D03*
D32*
X207223800Y-57228000D03*
X214223800Y-57228000D03*
D33*
X204523800Y-59528000D03*
X204523800Y-50328000D03*
X205623800Y-54928000D03*
X212623800Y-54928000D03*
D32*
X207223800Y-52628000D03*
X214223800Y-52628000D03*
D33*
X209623800Y-54928000D03*
D34*
X198882000Y-106680000D03*
X198882000Y-104140000D03*
D35*
X198882000Y-101600000D03*
D36*
X195839000Y-52200000D03*
X92500000Y-52200000D03*
X102489000Y-129794000D03*
X214249000Y-143002000D03*
D34*
X93726000Y-39878000D03*
X91186000Y-39878000D03*
X93726000Y-42418000D03*
X91186000Y-42418000D03*
X93726000Y-44958000D03*
D35*
X91186000Y-44958000D03*
D37*
X99000000Y-47700000D03*
X99000000Y-41200000D03*
M02*
