G04 #@! TF.GenerationSoftware,KiCad,Pcbnew,(5.1.5)-3*
G04 #@! TF.CreationDate,2020-05-12T17:07:08+04:00*
G04 #@! TF.ProjectId,redox_rev2,7265646f-785f-4726-9576-322e6b696361,2.0 NG*
G04 #@! TF.SameCoordinates,Original*
G04 #@! TF.FileFunction,Paste,Top*
G04 #@! TF.FilePolarity,Positive*
%FSLAX46Y46*%
G04 Gerber Fmt 4.6, Leading zero omitted, Abs format (unit mm)*
G04 Created by KiCad (PCBNEW (5.1.5)-3) date 2020-05-12 17:07:08*
%MOMM*%
%LPD*%
G04 APERTURE LIST*
%ADD10R,0.700000X1.550000*%
%ADD11R,0.400000X1.550000*%
%ADD12R,1.300000X0.900000*%
%ADD13C,0.100000*%
%ADD14R,0.900000X1.300000*%
%ADD15R,1.300000X0.700000*%
%ADD16R,1.300000X1.100000*%
%ADD17R,0.700000X1.300000*%
%ADD18R,1.100000X1.300000*%
%ADD19R,0.635000X1.143000*%
G04 APERTURE END LIST*
D10*
X173425000Y-49100000D03*
X172650000Y-49100000D03*
D11*
X171950000Y-49100000D03*
X171450000Y-49100000D03*
X170950000Y-49100000D03*
X170450000Y-49100000D03*
X169950000Y-49100000D03*
X169450000Y-49100000D03*
X168950000Y-49100000D03*
X168450000Y-49100000D03*
D10*
X167750000Y-49100000D03*
X166975000Y-49100000D03*
D12*
X96647000Y-71662000D03*
X96647000Y-69562000D03*
X96647000Y-90712000D03*
X96647000Y-88612000D03*
X96647000Y-109762000D03*
X96647000Y-107662000D03*
X96647000Y-128812000D03*
X96647000Y-126712000D03*
X99187000Y-147862000D03*
X99187000Y-145762000D03*
X118237000Y-71662000D03*
X118237000Y-69562000D03*
X118237000Y-90712000D03*
X118237000Y-88612000D03*
X118237000Y-109762000D03*
X118237000Y-107662000D03*
X118237000Y-128812000D03*
X118237000Y-126712000D03*
X118200000Y-147862000D03*
X118200000Y-145762000D03*
X137300000Y-67217000D03*
X137300000Y-65117000D03*
X137300000Y-86267000D03*
X137300000Y-84167000D03*
X137287000Y-105317000D03*
X137287000Y-103217000D03*
X137287000Y-124367000D03*
X137287000Y-122267000D03*
X137287000Y-143417000D03*
X137287000Y-141317000D03*
X156337000Y-64677000D03*
X156337000Y-62577000D03*
X156337000Y-83727000D03*
X156337000Y-81627000D03*
X156300000Y-102777000D03*
X156300000Y-100677000D03*
X156337000Y-121827000D03*
X156337000Y-119727000D03*
X156337000Y-140877000D03*
X156337000Y-138777000D03*
X175387000Y-67217000D03*
X175387000Y-65117000D03*
X175387000Y-86267000D03*
X175387000Y-84167000D03*
X175387000Y-105317000D03*
X175387000Y-103217000D03*
X175400000Y-124367000D03*
X175400000Y-122267000D03*
D13*
G36*
X179810857Y-147096323D02*
G01*
X181066560Y-147432788D01*
X180833623Y-148302121D01*
X179577920Y-147965656D01*
X179810857Y-147096323D01*
G37*
G36*
X180354377Y-145067879D02*
G01*
X181610080Y-145404344D01*
X181377143Y-146273677D01*
X180121440Y-145937212D01*
X180354377Y-145067879D01*
G37*
D12*
X194437000Y-69122000D03*
X194437000Y-67022000D03*
X194437000Y-88172000D03*
X194437000Y-86072000D03*
X194400000Y-107095000D03*
X194400000Y-104995000D03*
X194400000Y-126272000D03*
X194400000Y-124172000D03*
D13*
G36*
X193861384Y-150267083D02*
G01*
X193211384Y-151392917D01*
X192431962Y-150942917D01*
X193081962Y-149817083D01*
X193861384Y-150267083D01*
G37*
G36*
X195680038Y-151317083D02*
G01*
X195030038Y-152442917D01*
X194250616Y-151992917D01*
X194900616Y-150867083D01*
X195680038Y-151317083D01*
G37*
D12*
X213487000Y-78647000D03*
X213487000Y-76547000D03*
D14*
X203293000Y-102997000D03*
X205393000Y-102997000D03*
D13*
G36*
X213837083Y-133594616D02*
G01*
X214962917Y-134244616D01*
X214512917Y-135024038D01*
X213387083Y-134374038D01*
X213837083Y-133594616D01*
G37*
G36*
X214887083Y-131775962D02*
G01*
X216012917Y-132425962D01*
X215562917Y-133205384D01*
X214437083Y-132555384D01*
X214887083Y-131775962D01*
G37*
G36*
X230277083Y-143323616D02*
G01*
X231402917Y-143973616D01*
X230952917Y-144753038D01*
X229827083Y-144103038D01*
X230277083Y-143323616D01*
G37*
G36*
X231327083Y-141504962D02*
G01*
X232452917Y-142154962D01*
X232002917Y-142934384D01*
X230877083Y-142284384D01*
X231327083Y-141504962D01*
G37*
G36*
X210371384Y-159792083D02*
G01*
X209721384Y-160917917D01*
X208941962Y-160467917D01*
X209591962Y-159342083D01*
X210371384Y-159792083D01*
G37*
G36*
X212190038Y-160842083D02*
G01*
X211540038Y-161967917D01*
X210760616Y-161517917D01*
X211410616Y-160392083D01*
X212190038Y-160842083D01*
G37*
D15*
X86106000Y-69466000D03*
X86106000Y-72266000D03*
D16*
X86106000Y-69716000D03*
X86106000Y-72016000D03*
D15*
X86100000Y-88500000D03*
X86100000Y-91300000D03*
D16*
X86100000Y-88750000D03*
X86100000Y-91050000D03*
D15*
X86100000Y-107600000D03*
X86100000Y-110400000D03*
D16*
X86100000Y-107850000D03*
X86100000Y-110150000D03*
D15*
X86100000Y-126600000D03*
X86100000Y-129400000D03*
D16*
X86100000Y-126850000D03*
X86100000Y-129150000D03*
D15*
X88700000Y-145700000D03*
X88700000Y-148500000D03*
D16*
X88700000Y-145950000D03*
X88700000Y-148250000D03*
D15*
X107696000Y-69466000D03*
X107696000Y-72266000D03*
D16*
X107696000Y-69716000D03*
X107696000Y-72016000D03*
D15*
X107700000Y-88550000D03*
X107700000Y-91350000D03*
D16*
X107700000Y-88800000D03*
X107700000Y-91100000D03*
D15*
X107700000Y-107600000D03*
X107700000Y-110400000D03*
D16*
X107700000Y-107850000D03*
X107700000Y-110150000D03*
D15*
X107700000Y-126600000D03*
X107700000Y-129400000D03*
D16*
X107700000Y-126850000D03*
X107700000Y-129150000D03*
D15*
X107700000Y-145650000D03*
X107700000Y-148450000D03*
D16*
X107700000Y-145900000D03*
X107700000Y-148200000D03*
D15*
X126746000Y-65000000D03*
X126746000Y-67800000D03*
D16*
X126746000Y-65250000D03*
X126746000Y-67550000D03*
D15*
X126800000Y-84100000D03*
X126800000Y-86900000D03*
D16*
X126800000Y-84350000D03*
X126800000Y-86650000D03*
D15*
X126800000Y-103100000D03*
X126800000Y-105900000D03*
D16*
X126800000Y-103350000D03*
X126800000Y-105650000D03*
D15*
X126800000Y-122200000D03*
X126800000Y-125000000D03*
D16*
X126800000Y-122450000D03*
X126800000Y-124750000D03*
D15*
X126800000Y-141200000D03*
X126800000Y-144000000D03*
D16*
X126800000Y-141450000D03*
X126800000Y-143750000D03*
D15*
X145796000Y-62354000D03*
X145796000Y-65154000D03*
D16*
X145796000Y-62604000D03*
X145796000Y-64904000D03*
D15*
X145800000Y-81500000D03*
X145800000Y-84300000D03*
D16*
X145800000Y-81750000D03*
X145800000Y-84050000D03*
D15*
X145800000Y-100600000D03*
X145800000Y-103400000D03*
D16*
X145800000Y-100850000D03*
X145800000Y-103150000D03*
D15*
X145800000Y-119600000D03*
X145800000Y-122400000D03*
D16*
X145800000Y-119850000D03*
X145800000Y-122150000D03*
D15*
X145800000Y-138650000D03*
X145800000Y-141450000D03*
D16*
X145800000Y-138900000D03*
X145800000Y-141200000D03*
D15*
X164846000Y-65000000D03*
X164846000Y-67800000D03*
D16*
X164846000Y-65250000D03*
X164846000Y-67550000D03*
D15*
X164900000Y-84100000D03*
X164900000Y-86900000D03*
D16*
X164900000Y-84350000D03*
X164900000Y-86650000D03*
D15*
X164900000Y-103100000D03*
X164900000Y-105900000D03*
D16*
X164900000Y-103350000D03*
X164900000Y-105650000D03*
D15*
X164900000Y-122200000D03*
X164900000Y-125000000D03*
D16*
X164900000Y-122450000D03*
X164900000Y-124750000D03*
D13*
G36*
X171197254Y-143443195D02*
G01*
X169941551Y-143106731D01*
X170122724Y-142430583D01*
X171378427Y-142767047D01*
X171197254Y-143443195D01*
G37*
G36*
X170472560Y-146147787D02*
G01*
X169216857Y-145811323D01*
X169398030Y-145135175D01*
X170653733Y-145471639D01*
X170472560Y-146147787D01*
G37*
G36*
X171080785Y-143877862D02*
G01*
X169825082Y-143541397D01*
X170109783Y-142478878D01*
X171365486Y-142815343D01*
X171080785Y-143877862D01*
G37*
G36*
X170485501Y-146099492D02*
G01*
X169229798Y-145763027D01*
X169514499Y-144700508D01*
X170770202Y-145036973D01*
X170485501Y-146099492D01*
G37*
D15*
X183900000Y-66900000D03*
X183900000Y-69700000D03*
D16*
X183900000Y-67150000D03*
X183900000Y-69450000D03*
D15*
X183900000Y-86000000D03*
X183900000Y-88800000D03*
D16*
X183900000Y-86250000D03*
X183900000Y-88550000D03*
D15*
X183900000Y-105000000D03*
X183900000Y-107800000D03*
D16*
X183900000Y-105250000D03*
X183900000Y-107550000D03*
D15*
X183900000Y-124100000D03*
X183900000Y-126900000D03*
D16*
X183900000Y-124350000D03*
X183900000Y-126650000D03*
D13*
G36*
X199584327Y-142987917D02*
G01*
X200234327Y-141862083D01*
X200840545Y-142212083D01*
X200190545Y-143337917D01*
X199584327Y-142987917D01*
G37*
G36*
X197159455Y-141587917D02*
G01*
X197809455Y-140462083D01*
X198415673Y-140812083D01*
X197765673Y-141937917D01*
X197159455Y-141587917D01*
G37*
G36*
X199194615Y-142762917D02*
G01*
X199844615Y-141637083D01*
X200797243Y-142187083D01*
X200147243Y-143312917D01*
X199194615Y-142762917D01*
G37*
G36*
X197202757Y-141612917D02*
G01*
X197852757Y-140487083D01*
X198805385Y-141037083D01*
X198155385Y-142162917D01*
X197202757Y-141612917D01*
G37*
D15*
X202946000Y-76400000D03*
X202946000Y-79200000D03*
D16*
X202946000Y-76650000D03*
X202946000Y-78950000D03*
D17*
X205500000Y-92456000D03*
X202700000Y-92456000D03*
D18*
X205250000Y-92456000D03*
X202950000Y-92456000D03*
D13*
G36*
X206487917Y-128015673D02*
G01*
X205362083Y-127365673D01*
X205712083Y-126759455D01*
X206837917Y-127409455D01*
X206487917Y-128015673D01*
G37*
G36*
X205087917Y-130440545D02*
G01*
X203962083Y-129790545D01*
X204312083Y-129184327D01*
X205437917Y-129834327D01*
X205087917Y-130440545D01*
G37*
G36*
X206262917Y-128405385D02*
G01*
X205137083Y-127755385D01*
X205687083Y-126802757D01*
X206812917Y-127452757D01*
X206262917Y-128405385D01*
G37*
G36*
X205112917Y-130397243D02*
G01*
X203987083Y-129747243D01*
X204537083Y-128794615D01*
X205662917Y-129444615D01*
X205112917Y-130397243D01*
G37*
G36*
X222987917Y-137515673D02*
G01*
X221862083Y-136865673D01*
X222212083Y-136259455D01*
X223337917Y-136909455D01*
X222987917Y-137515673D01*
G37*
G36*
X221587917Y-139940545D02*
G01*
X220462083Y-139290545D01*
X220812083Y-138684327D01*
X221937917Y-139334327D01*
X221587917Y-139940545D01*
G37*
G36*
X222762917Y-137905385D02*
G01*
X221637083Y-137255385D01*
X222187083Y-136302757D01*
X223312917Y-136952757D01*
X222762917Y-137905385D01*
G37*
G36*
X221612917Y-139897243D02*
G01*
X220487083Y-139247243D01*
X221037083Y-138294615D01*
X222162917Y-138944615D01*
X221612917Y-139897243D01*
G37*
G36*
X216080256Y-152462917D02*
G01*
X216730256Y-151337083D01*
X217336474Y-151687083D01*
X216686474Y-152812917D01*
X216080256Y-152462917D01*
G37*
G36*
X213655384Y-151062917D02*
G01*
X214305384Y-149937083D01*
X214911602Y-150287083D01*
X214261602Y-151412917D01*
X213655384Y-151062917D01*
G37*
G36*
X215690544Y-152237917D02*
G01*
X216340544Y-151112083D01*
X217293172Y-151662083D01*
X216643172Y-152787917D01*
X215690544Y-152237917D01*
G37*
G36*
X213698686Y-151087917D02*
G01*
X214348686Y-149962083D01*
X215301314Y-150512083D01*
X214651314Y-151637917D01*
X213698686Y-151087917D01*
G37*
D19*
X85734620Y-48802000D03*
X86735380Y-48802000D03*
X85734620Y-46242000D03*
X86735380Y-46242000D03*
X85734620Y-43759000D03*
X86735380Y-43759000D03*
X85734620Y-41199000D03*
X86735380Y-41199000D03*
M02*
