G04 #@! TF.GenerationSoftware,KiCad,Pcbnew,(5.1.5)-3*
G04 #@! TF.CreationDate,2020-05-08T01:13:36+04:00*
G04 #@! TF.ProjectId,redox_rev2,7265646f-785f-4726-9576-322e6b696361,1.0*
G04 #@! TF.SameCoordinates,Original*
G04 #@! TF.FileFunction,Paste,Top*
G04 #@! TF.FilePolarity,Positive*
%FSLAX46Y46*%
G04 Gerber Fmt 4.6, Leading zero omitted, Abs format (unit mm)*
G04 Created by KiCad (PCBNEW (5.1.5)-3) date 2020-05-08 01:13:36*
%MOMM*%
%LPD*%
G04 APERTURE LIST*
%ADD10R,0.635000X1.143000*%
%ADD11R,0.900000X0.500000*%
%ADD12C,0.100000*%
%ADD13R,0.500000X0.900000*%
G04 APERTURE END LIST*
D10*
X90035380Y-51308000D03*
X89034620Y-51308000D03*
X90035380Y-53848000D03*
X89034620Y-53848000D03*
X89034620Y-48641000D03*
X90035380Y-48641000D03*
X90035380Y-46101000D03*
X89034620Y-46101000D03*
D11*
X87503000Y-70243000D03*
X87503000Y-71743000D03*
X87376000Y-89166000D03*
X87376000Y-90666000D03*
X87376000Y-108343000D03*
X87376000Y-109843000D03*
X87503000Y-127520000D03*
X87503000Y-129020000D03*
X89789000Y-148070000D03*
X89789000Y-146570000D03*
X108839000Y-71616000D03*
X108839000Y-70116000D03*
X108966000Y-90793000D03*
X108966000Y-89293000D03*
X108839000Y-108470000D03*
X108839000Y-109970000D03*
X108966000Y-128893000D03*
X108966000Y-127393000D03*
X108839000Y-146443000D03*
X108839000Y-147943000D03*
X128143000Y-67298000D03*
X128143000Y-65798000D03*
X127889000Y-84860000D03*
X127889000Y-86360000D03*
X128143000Y-105386000D03*
X128143000Y-103886000D03*
X128143000Y-122948000D03*
X128143000Y-124448000D03*
X128143000Y-143510000D03*
X128143000Y-142010000D03*
X147193000Y-63258000D03*
X147193000Y-64758000D03*
X147193000Y-83820000D03*
X147193000Y-82320000D03*
X147193000Y-101370000D03*
X147193000Y-102870000D03*
X147193000Y-121920000D03*
X147193000Y-120420000D03*
X147066000Y-139446000D03*
X147066000Y-140946000D03*
X166243000Y-65786000D03*
X166243000Y-67286000D03*
X166243000Y-84860000D03*
X166243000Y-86360000D03*
X166370000Y-105410000D03*
X166370000Y-103910000D03*
X166243000Y-123075000D03*
X166243000Y-124575000D03*
D12*
G36*
X171625848Y-145862394D02*
G01*
X170756515Y-145629457D01*
X170885924Y-145146494D01*
X171755257Y-145379431D01*
X171625848Y-145862394D01*
G37*
G36*
X172014076Y-144413506D02*
G01*
X171144743Y-144180569D01*
X171274152Y-143697606D01*
X172143485Y-143930543D01*
X172014076Y-144413506D01*
G37*
D11*
X185293000Y-69203000D03*
X185293000Y-67703000D03*
X185166000Y-88253000D03*
X185166000Y-86753000D03*
X185293000Y-105815000D03*
X185293000Y-107315000D03*
X185293000Y-126353000D03*
X185293000Y-124853000D03*
D12*
G36*
X198328013Y-143641711D02*
G01*
X198778013Y-142862289D01*
X199211025Y-143112289D01*
X198761025Y-143891711D01*
X198328013Y-143641711D01*
G37*
G36*
X197028975Y-142891711D02*
G01*
X197478975Y-142112289D01*
X197911987Y-142362289D01*
X197461987Y-143141711D01*
X197028975Y-142891711D01*
G37*
D11*
X204343000Y-78728000D03*
X204343000Y-77228000D03*
D13*
X204700000Y-93726000D03*
X203200000Y-93726000D03*
D12*
G36*
X223397711Y-138487987D02*
G01*
X222618289Y-138037987D01*
X222868289Y-137604975D01*
X223647711Y-138054975D01*
X223397711Y-138487987D01*
G37*
G36*
X222647711Y-139787025D02*
G01*
X221868289Y-139337025D01*
X222118289Y-138904013D01*
X222897711Y-139354013D01*
X222647711Y-139787025D01*
G37*
G36*
X214838013Y-153420711D02*
G01*
X215288013Y-152641289D01*
X215721025Y-152891289D01*
X215271025Y-153670711D01*
X214838013Y-153420711D01*
G37*
G36*
X213538975Y-152670711D02*
G01*
X213988975Y-151891289D01*
X214421987Y-152141289D01*
X213971987Y-152920711D01*
X213538975Y-152670711D01*
G37*
G36*
X206485289Y-128321975D02*
G01*
X207264711Y-128771975D01*
X207014711Y-129204987D01*
X206235289Y-128754987D01*
X206485289Y-128321975D01*
G37*
G36*
X205735289Y-129621013D02*
G01*
X206514711Y-130071013D01*
X206264711Y-130504025D01*
X205485289Y-130054025D01*
X205735289Y-129621013D01*
G37*
M02*
