G04 #@! TF.GenerationSoftware,KiCad,Pcbnew,(5.1.5)-3*
G04 #@! TF.CreationDate,2020-05-08T01:13:36+04:00*
G04 #@! TF.ProjectId,redox_rev2,7265646f-785f-4726-9576-322e6b696361,1.0*
G04 #@! TF.SameCoordinates,Original*
G04 #@! TF.FileFunction,Paste,Bot*
G04 #@! TF.FilePolarity,Positive*
%FSLAX46Y46*%
G04 Gerber Fmt 4.6, Leading zero omitted, Abs format (unit mm)*
G04 Created by KiCad (PCBNEW (5.1.5)-3) date 2020-05-08 01:13:36*
%MOMM*%
%LPD*%
G04 APERTURE LIST*
%ADD10R,0.635000X1.143000*%
%ADD11R,0.800000X0.900000*%
%ADD12R,0.700000X0.600000*%
%ADD13R,0.700000X1.000000*%
%ADD14R,0.250000X0.700000*%
%ADD15R,0.700000X0.250000*%
%ADD16R,0.772500X0.772500*%
%ADD17R,0.700000X1.550000*%
%ADD18R,0.400000X1.550000*%
%ADD19R,1.200000X1.400000*%
%ADD20R,0.750000X0.800000*%
%ADD21R,0.800000X0.750000*%
%ADD22R,1.300000X0.700000*%
%ADD23R,0.500000X0.900000*%
%ADD24R,0.900000X0.500000*%
G04 APERTURE END LIST*
D10*
X90035380Y-53848000D03*
X89034620Y-53848000D03*
X89034620Y-51308000D03*
X90035380Y-51308000D03*
X90035380Y-48641000D03*
X89034620Y-48641000D03*
X90035380Y-46101000D03*
X89034620Y-46101000D03*
D11*
X166450000Y-45600000D03*
X168350000Y-45600000D03*
X167400000Y-47600000D03*
D12*
X139500000Y-46850000D03*
X141500000Y-46850000D03*
X139500000Y-44950000D03*
D13*
X141500000Y-45150000D03*
D14*
X112856250Y-46831250D03*
X113356250Y-46831250D03*
X113856250Y-46831250D03*
X114356250Y-46831250D03*
X114856250Y-46831250D03*
X115356250Y-46831250D03*
X115856250Y-46831250D03*
X116356250Y-46831250D03*
X116856250Y-46831250D03*
X117356250Y-46831250D03*
X117856250Y-46831250D03*
D15*
X118756250Y-47731250D03*
X118756250Y-48231250D03*
X118756250Y-48731250D03*
X118756250Y-49231250D03*
X118756250Y-49731250D03*
X118756250Y-50231250D03*
X118756250Y-50731250D03*
X118756250Y-51231250D03*
X118756250Y-51731250D03*
X118756250Y-52231250D03*
X118756250Y-52731250D03*
D14*
X117856250Y-53631250D03*
X117356250Y-53631250D03*
X116856250Y-53631250D03*
X116356250Y-53631250D03*
X115856250Y-53631250D03*
X115356250Y-53631250D03*
X114856250Y-53631250D03*
X114356250Y-53631250D03*
X113856250Y-53631250D03*
X113356250Y-53631250D03*
X112856250Y-53631250D03*
D15*
X111956250Y-52731250D03*
X111956250Y-52231250D03*
X111956250Y-51731250D03*
X111956250Y-51231250D03*
X111956250Y-50731250D03*
X111956250Y-50231250D03*
X111956250Y-49731250D03*
X111956250Y-49231250D03*
X111956250Y-48731250D03*
X111956250Y-48231250D03*
X111956250Y-47731250D03*
D16*
X117287500Y-52162500D03*
X116000000Y-52162500D03*
X114712500Y-52162500D03*
X113425000Y-52162500D03*
X117287500Y-50875000D03*
X116000000Y-50875000D03*
X114712500Y-50875000D03*
X113425000Y-50875000D03*
X117287500Y-49587500D03*
X116000000Y-49587500D03*
X114712500Y-49587500D03*
X113425000Y-49587500D03*
X117287500Y-48300000D03*
X116000000Y-48300000D03*
X114712500Y-48300000D03*
X113425000Y-48300000D03*
D17*
X154525000Y-49095000D03*
X148075000Y-49095000D03*
X153750000Y-49095000D03*
X148850000Y-49095000D03*
D18*
X149550000Y-49095000D03*
X153050000Y-49095000D03*
X150050000Y-49095000D03*
X152550000Y-49095000D03*
X150550000Y-49095000D03*
X152050000Y-49095000D03*
X151550000Y-49095000D03*
X151050000Y-49095000D03*
D19*
X127750000Y-47550000D03*
X127750000Y-49750000D03*
X126050000Y-49750000D03*
X126050000Y-47550000D03*
D20*
X123700000Y-46250000D03*
X123700000Y-47750000D03*
X123700000Y-49650000D03*
X123700000Y-51150000D03*
X135064000Y-46722600D03*
X135064000Y-45222600D03*
X133286000Y-46722600D03*
X133286000Y-45222600D03*
D21*
X115350000Y-45000000D03*
X113850000Y-45000000D03*
D20*
X131508000Y-45222600D03*
X131508000Y-46722600D03*
X109600000Y-48700000D03*
X109600000Y-47200000D03*
D22*
X161100000Y-47450000D03*
X161100000Y-45550000D03*
D23*
X143025000Y-46825000D03*
X144525000Y-46825000D03*
X144525000Y-45000000D03*
X143025000Y-45000000D03*
D24*
X141500000Y-50000000D03*
X141500000Y-48500000D03*
X139500000Y-48500000D03*
X139500000Y-50000000D03*
X121000000Y-46150000D03*
X121000000Y-47650000D03*
X109600000Y-53700000D03*
X109600000Y-52200000D03*
X164100000Y-45750000D03*
X164100000Y-47250000D03*
M02*
