G04 #@! TF.GenerationSoftware,KiCad,Pcbnew,(5.1.5)-3*
G04 #@! TF.CreationDate,2020-05-10T11:14:19+04:00*
G04 #@! TF.ProjectId,redox_rev2,7265646f-785f-4726-9576-322e6b696361,1.0*
G04 #@! TF.SameCoordinates,Original*
G04 #@! TF.FileFunction,Profile,NP*
%FSLAX46Y46*%
G04 Gerber Fmt 4.6, Leading zero omitted, Abs format (unit mm)*
G04 Created by KiCad (PCBNEW (5.1.5)-3) date 2020-05-10 11:14:19*
%MOMM*%
%LPD*%
G04 APERTURE LIST*
%ADD10C,0.100000*%
%ADD11C,0.110000*%
G04 APERTURE END LIST*
D10*
X217800000Y-48150000D02*
X212720000Y-43120000D01*
X79500000Y-37500000D02*
G75*
G02X80500000Y-36500000I1000000J0D01*
G01*
D11*
X121800000Y-36503500D02*
X128310000Y-43120000D01*
D10*
X80500000Y-36500000D02*
X121800000Y-36500000D01*
X122428000Y-152400000D02*
X126746000Y-148082000D01*
X141478000Y-148082000D02*
X144018000Y-145542000D01*
X85000000Y-38600000D02*
G75*
G03X85000000Y-38600000I-1000000J0D01*
G01*
X82500000Y-38600000D02*
X85500000Y-38600000D01*
X84000000Y-37100000D02*
X84000000Y-40100000D01*
X228500000Y-149000000D02*
G75*
G03X228500000Y-149000000I-1000000J0D01*
G01*
X226000000Y-149000000D02*
X229000000Y-149000000D01*
X227500000Y-147500000D02*
X227500000Y-150500000D01*
X212720000Y-43120000D02*
X128310000Y-43120000D01*
X217800000Y-48150000D02*
X217800000Y-64008000D01*
X79500000Y-37500000D02*
X79500000Y-57200000D01*
X154178000Y-145542000D02*
X144018000Y-145542000D01*
X217805000Y-119888000D02*
X241681000Y-133604000D01*
X217805000Y-64008000D02*
X217805000Y-119888000D01*
X217678000Y-175260000D02*
X241681000Y-133604000D01*
X217551000Y-175260000D02*
X217678000Y-175260000D01*
X176149000Y-151384000D02*
X154178000Y-145542000D01*
X217551000Y-175260000D02*
X176149000Y-151384000D01*
X126746000Y-148082000D02*
X141478000Y-148082000D01*
X84328000Y-152400000D02*
X122428000Y-152400000D01*
X84328000Y-138176000D02*
X84328000Y-152400000D01*
X79502000Y-133350000D02*
X84328000Y-138176000D01*
X79500000Y-57200000D02*
X79502000Y-133350000D01*
M02*
