G04 #@! TF.GenerationSoftware,KiCad,Pcbnew,(5.1.5)-3*
G04 #@! TF.CreationDate,2020-05-10T08:30:39+04:00*
G04 #@! TF.ProjectId,redox_rev2,7265646f-785f-4726-9576-322e6b696361,1.0*
G04 #@! TF.SameCoordinates,Original*
G04 #@! TF.FileFunction,Soldermask,Bot*
G04 #@! TF.FilePolarity,Negative*
%FSLAX46Y46*%
G04 Gerber Fmt 4.6, Leading zero omitted, Abs format (unit mm)*
G04 Created by KiCad (PCBNEW (5.1.5)-3) date 2020-05-10 08:30:39*
%MOMM*%
%LPD*%
G04 APERTURE LIST*
%ADD10C,0.010000*%
%ADD11R,0.700000X1.550000*%
%ADD12R,0.400000X1.550000*%
%ADD13C,0.750000*%
%ADD14O,1.100000X2.200000*%
%ADD15O,1.100000X1.700000*%
%ADD16R,1.905000X1.905000*%
%ADD17C,1.905000*%
%ADD18C,2.500000*%
%ADD19C,0.100000*%
%ADD20R,0.900000X0.500000*%
%ADD21R,0.800000X0.900000*%
%ADD22R,1.300000X0.900000*%
%ADD23O,1.300000X1.100000*%
%ADD24C,1.100000*%
%ADD25R,0.900000X1.300000*%
%ADD26O,1.100000X1.300000*%
%ADD27R,0.750000X0.800000*%
%ADD28R,1.300000X1.100000*%
%ADD29R,1.300000X0.700000*%
%ADD30R,1.100000X1.300000*%
%ADD31R,0.700000X1.300000*%
%ADD32C,1.397000*%
%ADD33R,0.635000X1.143000*%
%ADD34C,1.600000*%
%ADD35C,1.500000*%
%ADD36O,2.200000X1.600000*%
%ADD37O,1.700000X1.700000*%
%ADD38R,1.700000X1.700000*%
%ADD39R,1.000000X0.700000*%
%ADD40R,0.600000X0.700000*%
%ADD41R,1.400000X1.200000*%
%ADD42C,4.000000*%
%ADD43C,2.000000*%
G04 APERTURE END LIST*
D10*
G36*
X209403464Y-108700427D02*
G01*
X209290882Y-109297618D01*
X208875469Y-109468865D01*
X208460055Y-109640112D01*
X207961698Y-109301233D01*
X207822131Y-109206877D01*
X207695971Y-109122630D01*
X207589104Y-109052338D01*
X207507417Y-108999847D01*
X207456798Y-108969004D01*
X207443013Y-108962353D01*
X207418179Y-108979458D01*
X207365111Y-109026744D01*
X207289759Y-109098172D01*
X207198070Y-109187700D01*
X207095992Y-109289289D01*
X206989473Y-109396898D01*
X206884463Y-109504487D01*
X206786908Y-109606015D01*
X206702757Y-109695441D01*
X206637959Y-109766726D01*
X206598462Y-109813828D01*
X206589019Y-109829592D01*
X206602608Y-109858653D01*
X206640706Y-109922321D01*
X206699306Y-110014367D01*
X206774402Y-110128564D01*
X206861991Y-110258684D01*
X206912745Y-110332901D01*
X207005254Y-110468422D01*
X207087459Y-110590716D01*
X207155369Y-110693695D01*
X207204999Y-110771273D01*
X207232359Y-110817361D01*
X207236470Y-110827047D01*
X207227150Y-110854574D01*
X207201745Y-110918728D01*
X207164088Y-111010490D01*
X207118013Y-111120839D01*
X207067353Y-111240755D01*
X207015940Y-111361219D01*
X206967610Y-111473209D01*
X206926193Y-111567707D01*
X206895525Y-111635692D01*
X206879438Y-111668143D01*
X206878488Y-111669420D01*
X206853227Y-111675617D01*
X206785954Y-111689440D01*
X206683639Y-111709532D01*
X206553258Y-111734534D01*
X206401783Y-111763086D01*
X206313406Y-111779551D01*
X206151547Y-111810369D01*
X206005350Y-111839694D01*
X205882212Y-111865921D01*
X205789530Y-111887446D01*
X205734698Y-111902665D01*
X205723676Y-111907493D01*
X205712881Y-111940174D01*
X205704170Y-112013985D01*
X205697539Y-112120292D01*
X205692981Y-112250467D01*
X205690490Y-112395876D01*
X205690061Y-112547890D01*
X205691688Y-112697877D01*
X205695364Y-112837206D01*
X205701084Y-112957245D01*
X205708842Y-113049365D01*
X205718631Y-113104932D01*
X205724503Y-113116500D01*
X205759600Y-113130365D01*
X205833971Y-113150188D01*
X205937776Y-113173639D01*
X206061180Y-113198391D01*
X206104258Y-113206398D01*
X206311952Y-113244441D01*
X206476015Y-113275079D01*
X206601869Y-113299529D01*
X206694934Y-113319009D01*
X206760632Y-113334736D01*
X206804382Y-113347928D01*
X206831607Y-113359804D01*
X206847727Y-113371580D01*
X206849982Y-113373908D01*
X206872496Y-113411400D01*
X206906841Y-113484365D01*
X206949588Y-113583867D01*
X206997307Y-113700973D01*
X207046569Y-113826748D01*
X207093944Y-113952257D01*
X207136004Y-114068565D01*
X207169319Y-114166739D01*
X207190458Y-114237843D01*
X207195994Y-114272942D01*
X207195533Y-114274172D01*
X207176776Y-114302861D01*
X207134223Y-114365985D01*
X207072346Y-114456973D01*
X206995617Y-114569255D01*
X206908508Y-114696260D01*
X206883701Y-114732353D01*
X206795247Y-114863203D01*
X206717411Y-114982591D01*
X206654433Y-115083662D01*
X206610554Y-115159559D01*
X206590014Y-115203427D01*
X206589019Y-115208817D01*
X206606277Y-115237144D01*
X206653964Y-115293261D01*
X206725949Y-115371137D01*
X206816102Y-115464740D01*
X206918294Y-115568041D01*
X207026394Y-115675006D01*
X207134271Y-115779606D01*
X207235795Y-115875809D01*
X207324837Y-115957584D01*
X207395266Y-116018900D01*
X207440952Y-116053726D01*
X207453590Y-116059412D01*
X207483008Y-116046020D01*
X207543238Y-116009899D01*
X207624470Y-115957136D01*
X207686969Y-115914667D01*
X207800214Y-115836740D01*
X207934325Y-115744984D01*
X208068844Y-115653375D01*
X208141166Y-115604346D01*
X208385961Y-115438770D01*
X208591449Y-115549875D01*
X208685063Y-115598548D01*
X208764669Y-115636381D01*
X208818532Y-115657958D01*
X208832242Y-115660961D01*
X208848729Y-115638793D01*
X208881254Y-115576149D01*
X208927391Y-115478809D01*
X208984709Y-115352549D01*
X209050783Y-115203150D01*
X209123184Y-115036388D01*
X209199483Y-114858042D01*
X209277253Y-114673891D01*
X209354065Y-114489712D01*
X209427493Y-114311285D01*
X209495107Y-114144387D01*
X209554479Y-113994797D01*
X209603183Y-113868293D01*
X209638789Y-113770654D01*
X209658869Y-113707657D01*
X209662099Y-113686021D01*
X209636503Y-113658424D01*
X209580461Y-113613625D01*
X209505688Y-113560934D01*
X209499412Y-113556765D01*
X209306154Y-113402069D01*
X209150325Y-113221591D01*
X209033275Y-113021102D01*
X208956354Y-112806374D01*
X208920913Y-112583177D01*
X208928302Y-112357281D01*
X208979872Y-112134459D01*
X209076973Y-111920479D01*
X209105541Y-111873664D01*
X209254131Y-111684618D01*
X209429672Y-111532812D01*
X209626089Y-111419034D01*
X209837306Y-111344075D01*
X210057246Y-111308722D01*
X210279836Y-111313767D01*
X210498998Y-111359999D01*
X210708657Y-111448206D01*
X210902738Y-111579179D01*
X210962773Y-111632337D01*
X211115564Y-111798739D01*
X211226902Y-111973912D01*
X211303276Y-112170266D01*
X211345812Y-112364717D01*
X211356313Y-112583342D01*
X211321299Y-112803052D01*
X211244326Y-113016420D01*
X211128952Y-113216022D01*
X210978734Y-113394429D01*
X210797226Y-113544217D01*
X210773372Y-113560006D01*
X210697798Y-113611712D01*
X210640348Y-113656512D01*
X210612882Y-113685117D01*
X210612482Y-113686021D01*
X210618379Y-113716964D01*
X210641754Y-113787191D01*
X210680178Y-113890925D01*
X210731222Y-114022390D01*
X210792457Y-114175807D01*
X210861455Y-114345401D01*
X210935786Y-114525393D01*
X211013021Y-114710008D01*
X211090731Y-114893468D01*
X211166488Y-115069996D01*
X211237862Y-115233814D01*
X211302425Y-115379147D01*
X211357747Y-115500217D01*
X211401399Y-115591247D01*
X211430953Y-115646460D01*
X211442855Y-115660961D01*
X211479222Y-115649669D01*
X211547269Y-115619385D01*
X211635263Y-115575520D01*
X211683649Y-115549875D01*
X211889136Y-115438770D01*
X212133931Y-115604346D01*
X212258893Y-115689170D01*
X212395704Y-115782516D01*
X212523911Y-115870408D01*
X212588128Y-115914667D01*
X212678448Y-115975318D01*
X212754928Y-116023381D01*
X212807592Y-116052770D01*
X212824697Y-116058982D01*
X212849594Y-116042223D01*
X212904694Y-115995436D01*
X212984656Y-115923480D01*
X213084139Y-115831212D01*
X213197799Y-115723490D01*
X213269684Y-115654326D01*
X213395448Y-115530757D01*
X213504136Y-115420234D01*
X213591354Y-115327485D01*
X213652710Y-115257237D01*
X213683808Y-115214220D01*
X213686791Y-115205490D01*
X213672946Y-115172284D01*
X213634687Y-115105142D01*
X213576258Y-115010863D01*
X213501902Y-114896245D01*
X213415864Y-114768083D01*
X213391397Y-114732353D01*
X213302245Y-114602489D01*
X213222261Y-114485569D01*
X213155919Y-114388162D01*
X213107688Y-114316839D01*
X213082042Y-114278170D01*
X213079564Y-114274172D01*
X213083270Y-114243355D01*
X213102938Y-114175599D01*
X213135139Y-114079839D01*
X213176444Y-113965009D01*
X213223424Y-113840044D01*
X213272650Y-113713879D01*
X213320691Y-113595448D01*
X213364118Y-113493685D01*
X213399503Y-113417526D01*
X213423415Y-113375904D01*
X213425115Y-113373908D01*
X213439737Y-113362013D01*
X213464434Y-113350250D01*
X213504627Y-113337401D01*
X213565736Y-113322249D01*
X213653182Y-113303576D01*
X213772387Y-113280165D01*
X213928772Y-113250797D01*
X214127756Y-113214255D01*
X214170839Y-113206398D01*
X214298529Y-113181727D01*
X214409846Y-113157593D01*
X214494954Y-113136324D01*
X214544016Y-113120248D01*
X214550594Y-113116500D01*
X214561435Y-113083273D01*
X214570246Y-113009021D01*
X214577023Y-112902376D01*
X214581759Y-112771967D01*
X214584449Y-112626427D01*
X214585086Y-112474386D01*
X214583665Y-112324476D01*
X214580179Y-112185328D01*
X214574623Y-112065572D01*
X214566991Y-111973841D01*
X214557277Y-111918766D01*
X214551421Y-111907493D01*
X214518819Y-111896123D01*
X214444581Y-111877624D01*
X214336103Y-111853602D01*
X214200782Y-111825662D01*
X214046014Y-111795408D01*
X213961692Y-111779551D01*
X213801703Y-111749644D01*
X213659032Y-111722550D01*
X213540651Y-111699631D01*
X213453534Y-111682243D01*
X213404654Y-111671747D01*
X213396609Y-111669420D01*
X213383012Y-111643186D01*
X213354270Y-111579995D01*
X213314214Y-111488877D01*
X213266675Y-111378857D01*
X213215484Y-111258965D01*
X213164473Y-111138227D01*
X213117473Y-111025671D01*
X213078315Y-110930326D01*
X213050830Y-110861217D01*
X213038850Y-110827374D01*
X213038627Y-110825895D01*
X213052208Y-110799197D01*
X213090284Y-110737760D01*
X213148852Y-110647689D01*
X213223911Y-110535090D01*
X213311459Y-110406070D01*
X213362352Y-110331961D01*
X213455090Y-110196077D01*
X213537458Y-110072709D01*
X213605438Y-109968097D01*
X213655011Y-109888483D01*
X213682157Y-109840107D01*
X213686078Y-109829262D01*
X213669224Y-109804020D01*
X213622631Y-109750124D01*
X213552251Y-109673613D01*
X213464034Y-109580523D01*
X213363934Y-109476895D01*
X213257901Y-109368764D01*
X213151888Y-109262170D01*
X213051847Y-109163150D01*
X212963729Y-109077742D01*
X212893486Y-109011985D01*
X212847071Y-108971916D01*
X212831543Y-108962353D01*
X212806260Y-108975800D01*
X212745788Y-109013575D01*
X212656007Y-109071835D01*
X212542796Y-109146734D01*
X212412036Y-109234425D01*
X212313400Y-109301233D01*
X211815042Y-109640112D01*
X211399629Y-109468865D01*
X210984215Y-109297618D01*
X210871633Y-108700427D01*
X210759050Y-108103235D01*
X209516047Y-108103235D01*
X209403464Y-108700427D01*
G37*
X209403464Y-108700427D02*
X209290882Y-109297618D01*
X208875469Y-109468865D01*
X208460055Y-109640112D01*
X207961698Y-109301233D01*
X207822131Y-109206877D01*
X207695971Y-109122630D01*
X207589104Y-109052338D01*
X207507417Y-108999847D01*
X207456798Y-108969004D01*
X207443013Y-108962353D01*
X207418179Y-108979458D01*
X207365111Y-109026744D01*
X207289759Y-109098172D01*
X207198070Y-109187700D01*
X207095992Y-109289289D01*
X206989473Y-109396898D01*
X206884463Y-109504487D01*
X206786908Y-109606015D01*
X206702757Y-109695441D01*
X206637959Y-109766726D01*
X206598462Y-109813828D01*
X206589019Y-109829592D01*
X206602608Y-109858653D01*
X206640706Y-109922321D01*
X206699306Y-110014367D01*
X206774402Y-110128564D01*
X206861991Y-110258684D01*
X206912745Y-110332901D01*
X207005254Y-110468422D01*
X207087459Y-110590716D01*
X207155369Y-110693695D01*
X207204999Y-110771273D01*
X207232359Y-110817361D01*
X207236470Y-110827047D01*
X207227150Y-110854574D01*
X207201745Y-110918728D01*
X207164088Y-111010490D01*
X207118013Y-111120839D01*
X207067353Y-111240755D01*
X207015940Y-111361219D01*
X206967610Y-111473209D01*
X206926193Y-111567707D01*
X206895525Y-111635692D01*
X206879438Y-111668143D01*
X206878488Y-111669420D01*
X206853227Y-111675617D01*
X206785954Y-111689440D01*
X206683639Y-111709532D01*
X206553258Y-111734534D01*
X206401783Y-111763086D01*
X206313406Y-111779551D01*
X206151547Y-111810369D01*
X206005350Y-111839694D01*
X205882212Y-111865921D01*
X205789530Y-111887446D01*
X205734698Y-111902665D01*
X205723676Y-111907493D01*
X205712881Y-111940174D01*
X205704170Y-112013985D01*
X205697539Y-112120292D01*
X205692981Y-112250467D01*
X205690490Y-112395876D01*
X205690061Y-112547890D01*
X205691688Y-112697877D01*
X205695364Y-112837206D01*
X205701084Y-112957245D01*
X205708842Y-113049365D01*
X205718631Y-113104932D01*
X205724503Y-113116500D01*
X205759600Y-113130365D01*
X205833971Y-113150188D01*
X205937776Y-113173639D01*
X206061180Y-113198391D01*
X206104258Y-113206398D01*
X206311952Y-113244441D01*
X206476015Y-113275079D01*
X206601869Y-113299529D01*
X206694934Y-113319009D01*
X206760632Y-113334736D01*
X206804382Y-113347928D01*
X206831607Y-113359804D01*
X206847727Y-113371580D01*
X206849982Y-113373908D01*
X206872496Y-113411400D01*
X206906841Y-113484365D01*
X206949588Y-113583867D01*
X206997307Y-113700973D01*
X207046569Y-113826748D01*
X207093944Y-113952257D01*
X207136004Y-114068565D01*
X207169319Y-114166739D01*
X207190458Y-114237843D01*
X207195994Y-114272942D01*
X207195533Y-114274172D01*
X207176776Y-114302861D01*
X207134223Y-114365985D01*
X207072346Y-114456973D01*
X206995617Y-114569255D01*
X206908508Y-114696260D01*
X206883701Y-114732353D01*
X206795247Y-114863203D01*
X206717411Y-114982591D01*
X206654433Y-115083662D01*
X206610554Y-115159559D01*
X206590014Y-115203427D01*
X206589019Y-115208817D01*
X206606277Y-115237144D01*
X206653964Y-115293261D01*
X206725949Y-115371137D01*
X206816102Y-115464740D01*
X206918294Y-115568041D01*
X207026394Y-115675006D01*
X207134271Y-115779606D01*
X207235795Y-115875809D01*
X207324837Y-115957584D01*
X207395266Y-116018900D01*
X207440952Y-116053726D01*
X207453590Y-116059412D01*
X207483008Y-116046020D01*
X207543238Y-116009899D01*
X207624470Y-115957136D01*
X207686969Y-115914667D01*
X207800214Y-115836740D01*
X207934325Y-115744984D01*
X208068844Y-115653375D01*
X208141166Y-115604346D01*
X208385961Y-115438770D01*
X208591449Y-115549875D01*
X208685063Y-115598548D01*
X208764669Y-115636381D01*
X208818532Y-115657958D01*
X208832242Y-115660961D01*
X208848729Y-115638793D01*
X208881254Y-115576149D01*
X208927391Y-115478809D01*
X208984709Y-115352549D01*
X209050783Y-115203150D01*
X209123184Y-115036388D01*
X209199483Y-114858042D01*
X209277253Y-114673891D01*
X209354065Y-114489712D01*
X209427493Y-114311285D01*
X209495107Y-114144387D01*
X209554479Y-113994797D01*
X209603183Y-113868293D01*
X209638789Y-113770654D01*
X209658869Y-113707657D01*
X209662099Y-113686021D01*
X209636503Y-113658424D01*
X209580461Y-113613625D01*
X209505688Y-113560934D01*
X209499412Y-113556765D01*
X209306154Y-113402069D01*
X209150325Y-113221591D01*
X209033275Y-113021102D01*
X208956354Y-112806374D01*
X208920913Y-112583177D01*
X208928302Y-112357281D01*
X208979872Y-112134459D01*
X209076973Y-111920479D01*
X209105541Y-111873664D01*
X209254131Y-111684618D01*
X209429672Y-111532812D01*
X209626089Y-111419034D01*
X209837306Y-111344075D01*
X210057246Y-111308722D01*
X210279836Y-111313767D01*
X210498998Y-111359999D01*
X210708657Y-111448206D01*
X210902738Y-111579179D01*
X210962773Y-111632337D01*
X211115564Y-111798739D01*
X211226902Y-111973912D01*
X211303276Y-112170266D01*
X211345812Y-112364717D01*
X211356313Y-112583342D01*
X211321299Y-112803052D01*
X211244326Y-113016420D01*
X211128952Y-113216022D01*
X210978734Y-113394429D01*
X210797226Y-113544217D01*
X210773372Y-113560006D01*
X210697798Y-113611712D01*
X210640348Y-113656512D01*
X210612882Y-113685117D01*
X210612482Y-113686021D01*
X210618379Y-113716964D01*
X210641754Y-113787191D01*
X210680178Y-113890925D01*
X210731222Y-114022390D01*
X210792457Y-114175807D01*
X210861455Y-114345401D01*
X210935786Y-114525393D01*
X211013021Y-114710008D01*
X211090731Y-114893468D01*
X211166488Y-115069996D01*
X211237862Y-115233814D01*
X211302425Y-115379147D01*
X211357747Y-115500217D01*
X211401399Y-115591247D01*
X211430953Y-115646460D01*
X211442855Y-115660961D01*
X211479222Y-115649669D01*
X211547269Y-115619385D01*
X211635263Y-115575520D01*
X211683649Y-115549875D01*
X211889136Y-115438770D01*
X212133931Y-115604346D01*
X212258893Y-115689170D01*
X212395704Y-115782516D01*
X212523911Y-115870408D01*
X212588128Y-115914667D01*
X212678448Y-115975318D01*
X212754928Y-116023381D01*
X212807592Y-116052770D01*
X212824697Y-116058982D01*
X212849594Y-116042223D01*
X212904694Y-115995436D01*
X212984656Y-115923480D01*
X213084139Y-115831212D01*
X213197799Y-115723490D01*
X213269684Y-115654326D01*
X213395448Y-115530757D01*
X213504136Y-115420234D01*
X213591354Y-115327485D01*
X213652710Y-115257237D01*
X213683808Y-115214220D01*
X213686791Y-115205490D01*
X213672946Y-115172284D01*
X213634687Y-115105142D01*
X213576258Y-115010863D01*
X213501902Y-114896245D01*
X213415864Y-114768083D01*
X213391397Y-114732353D01*
X213302245Y-114602489D01*
X213222261Y-114485569D01*
X213155919Y-114388162D01*
X213107688Y-114316839D01*
X213082042Y-114278170D01*
X213079564Y-114274172D01*
X213083270Y-114243355D01*
X213102938Y-114175599D01*
X213135139Y-114079839D01*
X213176444Y-113965009D01*
X213223424Y-113840044D01*
X213272650Y-113713879D01*
X213320691Y-113595448D01*
X213364118Y-113493685D01*
X213399503Y-113417526D01*
X213423415Y-113375904D01*
X213425115Y-113373908D01*
X213439737Y-113362013D01*
X213464434Y-113350250D01*
X213504627Y-113337401D01*
X213565736Y-113322249D01*
X213653182Y-113303576D01*
X213772387Y-113280165D01*
X213928772Y-113250797D01*
X214127756Y-113214255D01*
X214170839Y-113206398D01*
X214298529Y-113181727D01*
X214409846Y-113157593D01*
X214494954Y-113136324D01*
X214544016Y-113120248D01*
X214550594Y-113116500D01*
X214561435Y-113083273D01*
X214570246Y-113009021D01*
X214577023Y-112902376D01*
X214581759Y-112771967D01*
X214584449Y-112626427D01*
X214585086Y-112474386D01*
X214583665Y-112324476D01*
X214580179Y-112185328D01*
X214574623Y-112065572D01*
X214566991Y-111973841D01*
X214557277Y-111918766D01*
X214551421Y-111907493D01*
X214518819Y-111896123D01*
X214444581Y-111877624D01*
X214336103Y-111853602D01*
X214200782Y-111825662D01*
X214046014Y-111795408D01*
X213961692Y-111779551D01*
X213801703Y-111749644D01*
X213659032Y-111722550D01*
X213540651Y-111699631D01*
X213453534Y-111682243D01*
X213404654Y-111671747D01*
X213396609Y-111669420D01*
X213383012Y-111643186D01*
X213354270Y-111579995D01*
X213314214Y-111488877D01*
X213266675Y-111378857D01*
X213215484Y-111258965D01*
X213164473Y-111138227D01*
X213117473Y-111025671D01*
X213078315Y-110930326D01*
X213050830Y-110861217D01*
X213038850Y-110827374D01*
X213038627Y-110825895D01*
X213052208Y-110799197D01*
X213090284Y-110737760D01*
X213148852Y-110647689D01*
X213223911Y-110535090D01*
X213311459Y-110406070D01*
X213362352Y-110331961D01*
X213455090Y-110196077D01*
X213537458Y-110072709D01*
X213605438Y-109968097D01*
X213655011Y-109888483D01*
X213682157Y-109840107D01*
X213686078Y-109829262D01*
X213669224Y-109804020D01*
X213622631Y-109750124D01*
X213552251Y-109673613D01*
X213464034Y-109580523D01*
X213363934Y-109476895D01*
X213257901Y-109368764D01*
X213151888Y-109262170D01*
X213051847Y-109163150D01*
X212963729Y-109077742D01*
X212893486Y-109011985D01*
X212847071Y-108971916D01*
X212831543Y-108962353D01*
X212806260Y-108975800D01*
X212745788Y-109013575D01*
X212656007Y-109071835D01*
X212542796Y-109146734D01*
X212412036Y-109234425D01*
X212313400Y-109301233D01*
X211815042Y-109640112D01*
X211399629Y-109468865D01*
X210984215Y-109297618D01*
X210871633Y-108700427D01*
X210759050Y-108103235D01*
X209516047Y-108103235D01*
X209403464Y-108700427D01*
D11*
X173425000Y-49095000D03*
X166975000Y-49095000D03*
X172650000Y-49095000D03*
X167750000Y-49095000D03*
D12*
X168450000Y-49095000D03*
X171950000Y-49095000D03*
X168950000Y-49095000D03*
X171450000Y-49095000D03*
X169450000Y-49095000D03*
X170950000Y-49095000D03*
X170450000Y-49095000D03*
X169950000Y-49095000D03*
D13*
X173090000Y-47650000D03*
D14*
X165880000Y-48180000D03*
X174520000Y-48180000D03*
D15*
X165880000Y-44000000D03*
X174520000Y-44000000D03*
D13*
X167310000Y-47650000D03*
D16*
X92710000Y-71755000D03*
D17*
X90170000Y-71755000D03*
D18*
X93979724Y-61595672D02*
X93940276Y-62174328D01*
X88440453Y-62675046D02*
X87629547Y-64134954D01*
X94439547Y-62675046D02*
X95250453Y-64134954D01*
X88900276Y-61595672D02*
X88939724Y-62174328D01*
D16*
X92710000Y-90805000D03*
D17*
X90170000Y-90805000D03*
D18*
X93979724Y-80645672D02*
X93940276Y-81224328D01*
X88440453Y-81725046D02*
X87629547Y-83184954D01*
X94439547Y-81725046D02*
X95250453Y-83184954D01*
X88900276Y-80645672D02*
X88939724Y-81224328D01*
D16*
X92710000Y-109855000D03*
D17*
X90170000Y-109855000D03*
D18*
X93979724Y-99695672D02*
X93940276Y-100274328D01*
X88440453Y-100775046D02*
X87629547Y-102234954D01*
X94439547Y-100775046D02*
X95250453Y-102234954D01*
X88900276Y-99695672D02*
X88939724Y-100274328D01*
D16*
X92710000Y-128905000D03*
D17*
X90170000Y-128905000D03*
D18*
X93979724Y-118745672D02*
X93940276Y-119324328D01*
X88440453Y-119825046D02*
X87629547Y-121284954D01*
X94439547Y-119825046D02*
X95250453Y-121284954D01*
X88900276Y-118745672D02*
X88939724Y-119324328D01*
D19*
G36*
X175275356Y-147514122D02*
G01*
X175768406Y-145674034D01*
X177608494Y-146167084D01*
X177115444Y-148007172D01*
X175275356Y-147514122D01*
G37*
D17*
X173988473Y-146183203D03*
D18*
X180297812Y-137356074D02*
X180109940Y-137904804D01*
X174667925Y-136965002D02*
X173506797Y-138165286D01*
X180462604Y-138517681D02*
X180868028Y-140137721D01*
X175391441Y-136041416D02*
X175279779Y-136610566D01*
D19*
G36*
X194641952Y-145848713D02*
G01*
X196291730Y-146801213D01*
X195339230Y-148450991D01*
X193689452Y-147498491D01*
X194641952Y-145848713D01*
G37*
D17*
X196260591Y-144950148D03*
D18*
X203153966Y-153329130D02*
X202672558Y-153005638D01*
X204988835Y-147992294D02*
X204129971Y-146560074D01*
X201989288Y-153187660D02*
X200319518Y-153159972D01*
X205693690Y-148930198D02*
X205172834Y-148675034D01*
D16*
X203200000Y-99060000D03*
D17*
X203200000Y-96520000D03*
D18*
X213359328Y-100329724D02*
X212780672Y-100290276D01*
X212279954Y-94790453D02*
X210820046Y-93979547D01*
X212279954Y-100789547D02*
X210820046Y-101600453D01*
X213359328Y-95250276D02*
X212780672Y-95289724D01*
D19*
G36*
X211151952Y-155373713D02*
G01*
X212801730Y-156326213D01*
X211849230Y-157975991D01*
X210199452Y-157023491D01*
X211151952Y-155373713D01*
G37*
D17*
X212770591Y-154475148D03*
D18*
X219663966Y-162854130D02*
X219182558Y-162530638D01*
X221498835Y-157517294D02*
X220639971Y-156085074D01*
X218499288Y-162712660D02*
X216829518Y-162684972D01*
X222203690Y-158455198D02*
X221682834Y-158200034D01*
D16*
X133350000Y-67310000D03*
D17*
X130810000Y-67310000D03*
D18*
X134619724Y-57150672D02*
X134580276Y-57729328D01*
X129080453Y-58230046D02*
X128269547Y-59689954D01*
X135079547Y-58230046D02*
X135890453Y-59689954D01*
X129540276Y-57150672D02*
X129579724Y-57729328D01*
D16*
X190500000Y-69215000D03*
D17*
X187960000Y-69215000D03*
D18*
X191769724Y-59055672D02*
X191730276Y-59634328D01*
X186230453Y-60135046D02*
X185419547Y-61594954D01*
X192229547Y-60135046D02*
X193040453Y-61594954D01*
X186690276Y-59055672D02*
X186729724Y-59634328D01*
D16*
X114300000Y-71755000D03*
D17*
X111760000Y-71755000D03*
D18*
X115569724Y-61595672D02*
X115530276Y-62174328D01*
X110030453Y-62675046D02*
X109219547Y-64134954D01*
X116029547Y-62675046D02*
X116840453Y-64134954D01*
X110490276Y-61595672D02*
X110529724Y-62174328D01*
D16*
X95250000Y-147955000D03*
D17*
X92710000Y-147955000D03*
D18*
X96519724Y-137795672D02*
X96480276Y-138374328D01*
X90980453Y-138875046D02*
X90169547Y-140334954D01*
X96979547Y-138875046D02*
X97790453Y-140334954D01*
X91440276Y-137795672D02*
X91479724Y-138374328D01*
D16*
X114300000Y-90805000D03*
D17*
X111760000Y-90805000D03*
D18*
X115569724Y-80645672D02*
X115530276Y-81224328D01*
X110030453Y-81725046D02*
X109219547Y-83184954D01*
X116029547Y-81725046D02*
X116840453Y-83184954D01*
X110490276Y-80645672D02*
X110529724Y-81224328D01*
D16*
X114300000Y-109855000D03*
D17*
X111760000Y-109855000D03*
D18*
X115569724Y-99695672D02*
X115530276Y-100274328D01*
X110030453Y-100775046D02*
X109219547Y-102234954D01*
X116029547Y-100775046D02*
X116840453Y-102234954D01*
X110490276Y-99695672D02*
X110529724Y-100274328D01*
D16*
X114300000Y-128905000D03*
D17*
X111760000Y-128905000D03*
D18*
X115569724Y-118745672D02*
X115530276Y-119324328D01*
X110030453Y-119825046D02*
X109219547Y-121284954D01*
X116029547Y-119825046D02*
X116840453Y-121284954D01*
X110490276Y-118745672D02*
X110529724Y-119324328D01*
D16*
X114300000Y-147955000D03*
D17*
X111760000Y-147955000D03*
D18*
X115569724Y-137795672D02*
X115530276Y-138374328D01*
X110030453Y-138875046D02*
X109219547Y-140334954D01*
X116029547Y-138875046D02*
X116840453Y-140334954D01*
X110490276Y-137795672D02*
X110529724Y-138374328D01*
D16*
X133350000Y-86360000D03*
D17*
X130810000Y-86360000D03*
D18*
X134619724Y-76200672D02*
X134580276Y-76779328D01*
X129080453Y-77280046D02*
X128269547Y-78739954D01*
X135079547Y-77280046D02*
X135890453Y-78739954D01*
X129540276Y-76200672D02*
X129579724Y-76779328D01*
D16*
X133350000Y-105410000D03*
D17*
X130810000Y-105410000D03*
D18*
X134619724Y-95250672D02*
X134580276Y-95829328D01*
X129080453Y-96330046D02*
X128269547Y-97789954D01*
X135079547Y-96330046D02*
X135890453Y-97789954D01*
X129540276Y-95250672D02*
X129579724Y-95829328D01*
D16*
X133350000Y-124460000D03*
D17*
X130810000Y-124460000D03*
D18*
X134619724Y-114300672D02*
X134580276Y-114879328D01*
X129080453Y-115380046D02*
X128269547Y-116839954D01*
X135079547Y-115380046D02*
X135890453Y-116839954D01*
X129540276Y-114300672D02*
X129579724Y-114879328D01*
D16*
X133350000Y-143510000D03*
D17*
X130810000Y-143510000D03*
D18*
X134619724Y-133350672D02*
X134580276Y-133929328D01*
X129080453Y-134430046D02*
X128269547Y-135889954D01*
X135079547Y-134430046D02*
X135890453Y-135889954D01*
X129540276Y-133350672D02*
X129579724Y-133929328D01*
D16*
X152400000Y-64770000D03*
D17*
X149860000Y-64770000D03*
D18*
X153669724Y-54610672D02*
X153630276Y-55189328D01*
X148130453Y-55690046D02*
X147319547Y-57149954D01*
X154129547Y-55690046D02*
X154940453Y-57149954D01*
X148590276Y-54610672D02*
X148629724Y-55189328D01*
D16*
X152400000Y-83820000D03*
D17*
X149860000Y-83820000D03*
D18*
X153669724Y-73660672D02*
X153630276Y-74239328D01*
X148130453Y-74740046D02*
X147319547Y-76199954D01*
X154129547Y-74740046D02*
X154940453Y-76199954D01*
X148590276Y-73660672D02*
X148629724Y-74239328D01*
D16*
X152400000Y-102870000D03*
D17*
X149860000Y-102870000D03*
D18*
X153669724Y-92710672D02*
X153630276Y-93289328D01*
X148130453Y-93790046D02*
X147319547Y-95249954D01*
X154129547Y-93790046D02*
X154940453Y-95249954D01*
X148590276Y-92710672D02*
X148629724Y-93289328D01*
D16*
X152400000Y-121920000D03*
D17*
X149860000Y-121920000D03*
D18*
X153669724Y-111760672D02*
X153630276Y-112339328D01*
X148130453Y-112840046D02*
X147319547Y-114299954D01*
X154129547Y-112840046D02*
X154940453Y-114299954D01*
X148590276Y-111760672D02*
X148629724Y-112339328D01*
D16*
X152400000Y-140970000D03*
D17*
X149860000Y-140970000D03*
D18*
X153669724Y-130810672D02*
X153630276Y-131389328D01*
X148130453Y-131890046D02*
X147319547Y-133349954D01*
X154129547Y-131890046D02*
X154940453Y-133349954D01*
X148590276Y-130810672D02*
X148629724Y-131389328D01*
D16*
X171450000Y-67310000D03*
D17*
X168910000Y-67310000D03*
D18*
X172719724Y-57150672D02*
X172680276Y-57729328D01*
X167180453Y-58230046D02*
X166369547Y-59689954D01*
X173179547Y-58230046D02*
X173990453Y-59689954D01*
X167640276Y-57150672D02*
X167679724Y-57729328D01*
D16*
X171450000Y-86360000D03*
D17*
X168910000Y-86360000D03*
D18*
X172719724Y-76200672D02*
X172680276Y-76779328D01*
X167180453Y-77280046D02*
X166369547Y-78739954D01*
X173179547Y-77280046D02*
X173990453Y-78739954D01*
X167640276Y-76200672D02*
X167679724Y-76779328D01*
D16*
X171450000Y-105410000D03*
D17*
X168910000Y-105410000D03*
D18*
X172719724Y-95250672D02*
X172680276Y-95829328D01*
X167180453Y-96330046D02*
X166369547Y-97789954D01*
X173179547Y-96330046D02*
X173990453Y-97789954D01*
X167640276Y-95250672D02*
X167679724Y-95829328D01*
D16*
X171450000Y-124460000D03*
D17*
X168910000Y-124460000D03*
D18*
X172719724Y-114300672D02*
X172680276Y-114879328D01*
X167180453Y-115380046D02*
X166369547Y-116839954D01*
X173179547Y-115380046D02*
X173990453Y-116839954D01*
X167640276Y-114300672D02*
X167679724Y-114879328D01*
D16*
X190500000Y-88265000D03*
D17*
X187960000Y-88265000D03*
D18*
X191769724Y-78105672D02*
X191730276Y-78684328D01*
X186230453Y-79185046D02*
X185419547Y-80644954D01*
X192229547Y-79185046D02*
X193040453Y-80644954D01*
X186690276Y-78105672D02*
X186729724Y-78684328D01*
D16*
X190500000Y-107315000D03*
D17*
X187960000Y-107315000D03*
D18*
X191769724Y-97155672D02*
X191730276Y-97734328D01*
X186230453Y-98235046D02*
X185419547Y-99694954D01*
X192229547Y-98235046D02*
X193040453Y-99694954D01*
X186690276Y-97155672D02*
X186729724Y-97734328D01*
D16*
X190500000Y-126365000D03*
D17*
X187960000Y-126365000D03*
D18*
X191769724Y-116205672D02*
X191730276Y-116784328D01*
X186230453Y-117285046D02*
X185419547Y-118744954D01*
X192229547Y-117285046D02*
X193040453Y-118744954D01*
X186690276Y-116205672D02*
X186729724Y-116784328D01*
D16*
X209550000Y-78740000D03*
D17*
X207010000Y-78740000D03*
D18*
X210819724Y-68580672D02*
X210780276Y-69159328D01*
X205280453Y-69660046D02*
X204469547Y-71119954D01*
X211279547Y-69660046D02*
X212090453Y-71119954D01*
X205740276Y-68580672D02*
X205779724Y-69159328D01*
D19*
G36*
X209348713Y-133018048D02*
G01*
X210301213Y-131368270D01*
X211950991Y-132320770D01*
X210998491Y-133970548D01*
X209348713Y-133018048D01*
G37*
D17*
X208450148Y-131399409D03*
D18*
X216829130Y-124506034D02*
X216505638Y-124987442D01*
X211492294Y-122671165D02*
X210060074Y-123530029D01*
X216687660Y-125670712D02*
X216659972Y-127340482D01*
X212430198Y-121966310D02*
X212175034Y-122487166D01*
D19*
G36*
X225858713Y-142543048D02*
G01*
X226811213Y-140893270D01*
X228460991Y-141845770D01*
X227508491Y-143495548D01*
X225858713Y-142543048D01*
G37*
D17*
X224960148Y-140924409D03*
D18*
X233339130Y-134031034D02*
X233015638Y-134512442D01*
X228002294Y-132196165D02*
X226570074Y-133055029D01*
X233197660Y-135195712D02*
X233169972Y-136865482D01*
X228940198Y-131491310D02*
X228685034Y-132012166D01*
D20*
X135700000Y-48250000D03*
X135700000Y-46750000D03*
D21*
X138800000Y-48750000D03*
X139750000Y-46750000D03*
X137850000Y-46750000D03*
D22*
X96647000Y-71662000D03*
X96647000Y-69562000D03*
D23*
X96647000Y-72112000D03*
X96647000Y-69112000D03*
D22*
X96647000Y-90712000D03*
X96647000Y-88612000D03*
D23*
X96647000Y-91162000D03*
X96647000Y-88162000D03*
D22*
X96647000Y-109762000D03*
X96647000Y-107662000D03*
D23*
X96647000Y-110212000D03*
X96647000Y-107212000D03*
D22*
X96647000Y-128812000D03*
X96647000Y-126712000D03*
D23*
X96647000Y-129262000D03*
X96647000Y-126262000D03*
D22*
X99187000Y-147862000D03*
X99187000Y-145762000D03*
D23*
X99187000Y-148312000D03*
X99187000Y-145312000D03*
D22*
X118237000Y-71662000D03*
X118237000Y-69562000D03*
D23*
X118237000Y-72112000D03*
X118237000Y-69112000D03*
D22*
X118237000Y-90712000D03*
X118237000Y-88612000D03*
D23*
X118237000Y-91162000D03*
X118237000Y-88162000D03*
D22*
X118237000Y-109762000D03*
X118237000Y-107662000D03*
D23*
X118237000Y-110212000D03*
X118237000Y-107212000D03*
D22*
X118237000Y-128812000D03*
X118237000Y-126712000D03*
D23*
X118237000Y-129262000D03*
X118237000Y-126262000D03*
D22*
X118200000Y-147862000D03*
X118200000Y-145762000D03*
D23*
X118200000Y-148312000D03*
X118200000Y-145312000D03*
D22*
X137300000Y-67217000D03*
X137300000Y-65117000D03*
D23*
X137300000Y-67667000D03*
X137300000Y-64667000D03*
D22*
X137300000Y-86267000D03*
X137300000Y-84167000D03*
D23*
X137300000Y-86717000D03*
X137300000Y-83717000D03*
D22*
X137287000Y-105317000D03*
X137287000Y-103217000D03*
D23*
X137287000Y-105767000D03*
X137287000Y-102767000D03*
D22*
X137287000Y-124367000D03*
X137287000Y-122267000D03*
D23*
X137287000Y-124817000D03*
X137287000Y-121817000D03*
D22*
X137287000Y-143417000D03*
X137287000Y-141317000D03*
D23*
X137287000Y-143867000D03*
X137287000Y-140867000D03*
D22*
X156337000Y-64677000D03*
X156337000Y-62577000D03*
D23*
X156337000Y-65127000D03*
X156337000Y-62127000D03*
D22*
X156337000Y-83727000D03*
X156337000Y-81627000D03*
D23*
X156337000Y-84177000D03*
X156337000Y-81177000D03*
D22*
X156300000Y-102777000D03*
X156300000Y-100677000D03*
D23*
X156300000Y-103227000D03*
X156300000Y-100227000D03*
D22*
X156337000Y-121827000D03*
X156337000Y-119727000D03*
D23*
X156337000Y-122277000D03*
X156337000Y-119277000D03*
D22*
X156337000Y-140877000D03*
X156337000Y-138777000D03*
D23*
X156337000Y-141327000D03*
X156337000Y-138327000D03*
D22*
X175387000Y-67217000D03*
X175387000Y-65117000D03*
D23*
X175387000Y-67667000D03*
X175387000Y-64667000D03*
D22*
X175387000Y-86267000D03*
X175387000Y-84167000D03*
D23*
X175387000Y-86717000D03*
X175387000Y-83717000D03*
D22*
X175387000Y-105317000D03*
X175387000Y-103217000D03*
D23*
X175387000Y-105767000D03*
X175387000Y-102767000D03*
D22*
X175400000Y-124367000D03*
X175400000Y-122267000D03*
D23*
X175400000Y-124817000D03*
X175400000Y-121817000D03*
D19*
G36*
X179810857Y-147096323D02*
G01*
X181066560Y-147432788D01*
X180833623Y-148302121D01*
X179577920Y-147965656D01*
X179810857Y-147096323D01*
G37*
G36*
X180354377Y-145067879D02*
G01*
X181610080Y-145404344D01*
X181377143Y-146273677D01*
X180121440Y-145937212D01*
X180354377Y-145067879D01*
G37*
D24*
X180302364Y-148159771D02*
X180109178Y-148108007D01*
X181078822Y-145261993D02*
X180885636Y-145210229D01*
D22*
X194437000Y-69122000D03*
X194437000Y-67022000D03*
D23*
X194437000Y-69572000D03*
X194437000Y-66572000D03*
D22*
X194437000Y-88172000D03*
X194437000Y-86072000D03*
D23*
X194437000Y-88622000D03*
X194437000Y-85622000D03*
D22*
X194400000Y-107095000D03*
X194400000Y-104995000D03*
D23*
X194400000Y-107545000D03*
X194400000Y-104545000D03*
D22*
X194400000Y-126272000D03*
X194400000Y-124172000D03*
D23*
X194400000Y-126722000D03*
X194400000Y-123722000D03*
D19*
G36*
X193861384Y-150267083D02*
G01*
X193211384Y-151392917D01*
X192431962Y-150942917D01*
X193081962Y-149817083D01*
X193861384Y-150267083D01*
G37*
G36*
X195680038Y-151317083D02*
G01*
X195030038Y-152442917D01*
X194250616Y-151992917D01*
X194900616Y-150867083D01*
X195680038Y-151317083D01*
G37*
D24*
X192706962Y-150466603D02*
X192806962Y-150293397D01*
X195305038Y-151966603D02*
X195405038Y-151793397D01*
D22*
X213487000Y-78647000D03*
X213487000Y-76547000D03*
D23*
X213487000Y-79097000D03*
X213487000Y-76097000D03*
D25*
X203293000Y-102997000D03*
X205393000Y-102997000D03*
D26*
X202843000Y-102997000D03*
X205843000Y-102997000D03*
D19*
G36*
X213837083Y-133594616D02*
G01*
X214962917Y-134244616D01*
X214512917Y-135024038D01*
X213387083Y-134374038D01*
X213837083Y-133594616D01*
G37*
G36*
X214887083Y-131775962D02*
G01*
X216012917Y-132425962D01*
X215562917Y-133205384D01*
X214437083Y-132555384D01*
X214887083Y-131775962D01*
G37*
D24*
X214036603Y-134749038D02*
X213863397Y-134649038D01*
X215536603Y-132150962D02*
X215363397Y-132050962D01*
D19*
G36*
X230277083Y-143323616D02*
G01*
X231402917Y-143973616D01*
X230952917Y-144753038D01*
X229827083Y-144103038D01*
X230277083Y-143323616D01*
G37*
G36*
X231327083Y-141504962D02*
G01*
X232452917Y-142154962D01*
X232002917Y-142934384D01*
X230877083Y-142284384D01*
X231327083Y-141504962D01*
G37*
D24*
X230476603Y-144478038D02*
X230303397Y-144378038D01*
X231976603Y-141879962D02*
X231803397Y-141779962D01*
D19*
G36*
X210371384Y-159792083D02*
G01*
X209721384Y-160917917D01*
X208941962Y-160467917D01*
X209591962Y-159342083D01*
X210371384Y-159792083D01*
G37*
G36*
X212190038Y-160842083D02*
G01*
X211540038Y-161967917D01*
X210760616Y-161517917D01*
X211410616Y-160392083D01*
X212190038Y-160842083D01*
G37*
D24*
X209216962Y-159991603D02*
X209316962Y-159818397D01*
X211815038Y-161491603D02*
X211915038Y-161318397D01*
D27*
X104700000Y-53450000D03*
X104700000Y-54950000D03*
D28*
X86106000Y-69716000D03*
X86106000Y-72016000D03*
D29*
X86106000Y-69466000D03*
X86106000Y-72266000D03*
D28*
X86100000Y-88750000D03*
X86100000Y-91050000D03*
D29*
X86100000Y-88500000D03*
X86100000Y-91300000D03*
D28*
X86100000Y-107850000D03*
X86100000Y-110150000D03*
D29*
X86100000Y-107600000D03*
X86100000Y-110400000D03*
D28*
X86100000Y-126850000D03*
X86100000Y-129150000D03*
D29*
X86100000Y-126600000D03*
X86100000Y-129400000D03*
D28*
X88700000Y-145950000D03*
X88700000Y-148250000D03*
D29*
X88700000Y-145700000D03*
X88700000Y-148500000D03*
D28*
X107696000Y-69716000D03*
X107696000Y-72016000D03*
D29*
X107696000Y-69466000D03*
X107696000Y-72266000D03*
D28*
X107700000Y-88800000D03*
X107700000Y-91100000D03*
D29*
X107700000Y-88550000D03*
X107700000Y-91350000D03*
D28*
X107700000Y-107850000D03*
X107700000Y-110150000D03*
D29*
X107700000Y-107600000D03*
X107700000Y-110400000D03*
D28*
X107700000Y-126850000D03*
X107700000Y-129150000D03*
D29*
X107700000Y-126600000D03*
X107700000Y-129400000D03*
D28*
X107700000Y-145900000D03*
X107700000Y-148200000D03*
D29*
X107700000Y-145650000D03*
X107700000Y-148450000D03*
D28*
X126746000Y-65250000D03*
X126746000Y-67550000D03*
D29*
X126746000Y-65000000D03*
X126746000Y-67800000D03*
D28*
X126800000Y-84350000D03*
X126800000Y-86650000D03*
D29*
X126800000Y-84100000D03*
X126800000Y-86900000D03*
D28*
X126800000Y-103350000D03*
X126800000Y-105650000D03*
D29*
X126800000Y-103100000D03*
X126800000Y-105900000D03*
D28*
X126800000Y-122450000D03*
X126800000Y-124750000D03*
D29*
X126800000Y-122200000D03*
X126800000Y-125000000D03*
D28*
X126800000Y-141450000D03*
X126800000Y-143750000D03*
D29*
X126800000Y-141200000D03*
X126800000Y-144000000D03*
D28*
X145796000Y-62604000D03*
X145796000Y-64904000D03*
D29*
X145796000Y-62354000D03*
X145796000Y-65154000D03*
D28*
X145800000Y-81750000D03*
X145800000Y-84050000D03*
D29*
X145800000Y-81500000D03*
X145800000Y-84300000D03*
D28*
X145800000Y-100850000D03*
X145800000Y-103150000D03*
D29*
X145800000Y-100600000D03*
X145800000Y-103400000D03*
D28*
X145800000Y-119850000D03*
X145800000Y-122150000D03*
D29*
X145800000Y-119600000D03*
X145800000Y-122400000D03*
D28*
X145800000Y-138900000D03*
X145800000Y-141200000D03*
D29*
X145800000Y-138650000D03*
X145800000Y-141450000D03*
D28*
X164846000Y-65250000D03*
X164846000Y-67550000D03*
D29*
X164846000Y-65000000D03*
X164846000Y-67800000D03*
D28*
X164900000Y-84350000D03*
X164900000Y-86650000D03*
D29*
X164900000Y-84100000D03*
X164900000Y-86900000D03*
D28*
X164900000Y-103350000D03*
X164900000Y-105650000D03*
D29*
X164900000Y-103100000D03*
X164900000Y-105900000D03*
D28*
X164900000Y-122450000D03*
X164900000Y-124750000D03*
D29*
X164900000Y-122200000D03*
X164900000Y-125000000D03*
D19*
G36*
X171080785Y-143877862D02*
G01*
X169825082Y-143541397D01*
X170109783Y-142478878D01*
X171365486Y-142815343D01*
X171080785Y-143877862D01*
G37*
G36*
X170485501Y-146099492D02*
G01*
X169229798Y-145763027D01*
X169514499Y-144700508D01*
X170770202Y-145036973D01*
X170485501Y-146099492D01*
G37*
G36*
X171197254Y-143443195D02*
G01*
X169941551Y-143106731D01*
X170122724Y-142430583D01*
X171378427Y-142767047D01*
X171197254Y-143443195D01*
G37*
G36*
X170472560Y-146147787D02*
G01*
X169216857Y-145811323D01*
X169398030Y-145135175D01*
X170653733Y-145471639D01*
X170472560Y-146147787D01*
G37*
D28*
X183900000Y-67150000D03*
X183900000Y-69450000D03*
D29*
X183900000Y-66900000D03*
X183900000Y-69700000D03*
D28*
X183900000Y-86250000D03*
X183900000Y-88550000D03*
D29*
X183900000Y-86000000D03*
X183900000Y-88800000D03*
D28*
X183900000Y-105250000D03*
X183900000Y-107550000D03*
D29*
X183900000Y-105000000D03*
X183900000Y-107800000D03*
D28*
X183900000Y-124350000D03*
X183900000Y-126650000D03*
D29*
X183900000Y-124100000D03*
X183900000Y-126900000D03*
D19*
G36*
X199194615Y-142762917D02*
G01*
X199844615Y-141637083D01*
X200797243Y-142187083D01*
X200147243Y-143312917D01*
X199194615Y-142762917D01*
G37*
G36*
X197202757Y-141612917D02*
G01*
X197852757Y-140487083D01*
X198805385Y-141037083D01*
X198155385Y-142162917D01*
X197202757Y-141612917D01*
G37*
G36*
X199584327Y-142987917D02*
G01*
X200234327Y-141862083D01*
X200840545Y-142212083D01*
X200190545Y-143337917D01*
X199584327Y-142987917D01*
G37*
G36*
X197159455Y-141587917D02*
G01*
X197809455Y-140462083D01*
X198415673Y-140812083D01*
X197765673Y-141937917D01*
X197159455Y-141587917D01*
G37*
D28*
X202946000Y-76650000D03*
X202946000Y-78950000D03*
D29*
X202946000Y-76400000D03*
X202946000Y-79200000D03*
D30*
X205250000Y-92456000D03*
X202950000Y-92456000D03*
D31*
X205500000Y-92456000D03*
X202700000Y-92456000D03*
D19*
G36*
X206262917Y-128405385D02*
G01*
X205137083Y-127755385D01*
X205687083Y-126802757D01*
X206812917Y-127452757D01*
X206262917Y-128405385D01*
G37*
G36*
X205112917Y-130397243D02*
G01*
X203987083Y-129747243D01*
X204537083Y-128794615D01*
X205662917Y-129444615D01*
X205112917Y-130397243D01*
G37*
G36*
X206487917Y-128015673D02*
G01*
X205362083Y-127365673D01*
X205712083Y-126759455D01*
X206837917Y-127409455D01*
X206487917Y-128015673D01*
G37*
G36*
X205087917Y-130440545D02*
G01*
X203962083Y-129790545D01*
X204312083Y-129184327D01*
X205437917Y-129834327D01*
X205087917Y-130440545D01*
G37*
G36*
X222762917Y-137905385D02*
G01*
X221637083Y-137255385D01*
X222187083Y-136302757D01*
X223312917Y-136952757D01*
X222762917Y-137905385D01*
G37*
G36*
X221612917Y-139897243D02*
G01*
X220487083Y-139247243D01*
X221037083Y-138294615D01*
X222162917Y-138944615D01*
X221612917Y-139897243D01*
G37*
G36*
X222987917Y-137515673D02*
G01*
X221862083Y-136865673D01*
X222212083Y-136259455D01*
X223337917Y-136909455D01*
X222987917Y-137515673D01*
G37*
G36*
X221587917Y-139940545D02*
G01*
X220462083Y-139290545D01*
X220812083Y-138684327D01*
X221937917Y-139334327D01*
X221587917Y-139940545D01*
G37*
G36*
X215690544Y-152237917D02*
G01*
X216340544Y-151112083D01*
X217293172Y-151662083D01*
X216643172Y-152787917D01*
X215690544Y-152237917D01*
G37*
G36*
X213698686Y-151087917D02*
G01*
X214348686Y-149962083D01*
X215301314Y-150512083D01*
X214651314Y-151637917D01*
X213698686Y-151087917D01*
G37*
G36*
X216080256Y-152462917D02*
G01*
X216730256Y-151337083D01*
X217336474Y-151687083D01*
X216686474Y-152812917D01*
X216080256Y-152462917D01*
G37*
G36*
X213655384Y-151062917D02*
G01*
X214305384Y-149937083D01*
X214911602Y-150287083D01*
X214261602Y-151412917D01*
X213655384Y-151062917D01*
G37*
D32*
X81800000Y-48820000D03*
X81800000Y-46280000D03*
X81800000Y-43740000D03*
X81800000Y-41200000D03*
D33*
X86735380Y-48848000D03*
X85734620Y-48848000D03*
X86735380Y-46308000D03*
X85734620Y-46308000D03*
X86735380Y-43741000D03*
X85734620Y-43741000D03*
X86735380Y-41201000D03*
X85734620Y-41201000D03*
D34*
X203287800Y-47816000D03*
X211087800Y-47816000D03*
X203287800Y-62040000D03*
X211087800Y-62040000D03*
D35*
X207223800Y-57228000D03*
X214223800Y-57228000D03*
D36*
X204523800Y-59528000D03*
X204523800Y-50328000D03*
X205623800Y-54928000D03*
X212623800Y-54928000D03*
D35*
X207223800Y-52628000D03*
X214223800Y-52628000D03*
D36*
X209623800Y-54928000D03*
D37*
X198882000Y-106680000D03*
X198882000Y-104140000D03*
D38*
X198882000Y-101600000D03*
D39*
X132450000Y-48600000D03*
D40*
X132650000Y-46600000D03*
X130750000Y-48600000D03*
X130750000Y-46600000D03*
D41*
X113000000Y-39280000D03*
X110800000Y-39280000D03*
X110800000Y-40980000D03*
X113000000Y-40980000D03*
D27*
X115000000Y-39250000D03*
X115000000Y-40750000D03*
X108700000Y-39400000D03*
X108700000Y-40900000D03*
X155150000Y-45567900D03*
X155150000Y-47067900D03*
X104150000Y-48502000D03*
X104150000Y-47002000D03*
X153600000Y-45550000D03*
X153600000Y-47050000D03*
D42*
X195839000Y-52200000D03*
X92500000Y-52200000D03*
X102489000Y-129794000D03*
X214249000Y-143002000D03*
D20*
X163850000Y-46050000D03*
X163850000Y-44550000D03*
X176850000Y-46100000D03*
X176850000Y-44600000D03*
X126650000Y-46900000D03*
X126650000Y-48400000D03*
X128450000Y-46900000D03*
X128450000Y-48400000D03*
X103632000Y-40882000D03*
X103632000Y-39382000D03*
X117284500Y-54050500D03*
X117284500Y-55550500D03*
D37*
X93726000Y-39878000D03*
X91186000Y-39878000D03*
X93726000Y-42418000D03*
X91186000Y-42418000D03*
X93726000Y-44958000D03*
D38*
X91186000Y-44958000D03*
D43*
X99000000Y-47700000D03*
X99000000Y-41200000D03*
D19*
G36*
X158399505Y-47613704D02*
G01*
X158423773Y-47617304D01*
X158447572Y-47623265D01*
X158470671Y-47631530D01*
X158492850Y-47642020D01*
X158513893Y-47654632D01*
X158533599Y-47669247D01*
X158551777Y-47685723D01*
X158568253Y-47703901D01*
X158582868Y-47723607D01*
X158595480Y-47744650D01*
X158605970Y-47766829D01*
X158614235Y-47789928D01*
X158620196Y-47813727D01*
X158623796Y-47837995D01*
X158625000Y-47862499D01*
X158625000Y-48937501D01*
X158623796Y-48962005D01*
X158620196Y-48986273D01*
X158614235Y-49010072D01*
X158605970Y-49033171D01*
X158595480Y-49055350D01*
X158582868Y-49076393D01*
X158568253Y-49096099D01*
X158551777Y-49114277D01*
X158533599Y-49130753D01*
X158513893Y-49145368D01*
X158492850Y-49157980D01*
X158470671Y-49168470D01*
X158447572Y-49176735D01*
X158423773Y-49182696D01*
X158399505Y-49186296D01*
X158375001Y-49187500D01*
X157524999Y-49187500D01*
X157500495Y-49186296D01*
X157476227Y-49182696D01*
X157452428Y-49176735D01*
X157429329Y-49168470D01*
X157407150Y-49157980D01*
X157386107Y-49145368D01*
X157366401Y-49130753D01*
X157348223Y-49114277D01*
X157331747Y-49096099D01*
X157317132Y-49076393D01*
X157304520Y-49055350D01*
X157294030Y-49033171D01*
X157285765Y-49010072D01*
X157279804Y-48986273D01*
X157276204Y-48962005D01*
X157275000Y-48937501D01*
X157275000Y-47862499D01*
X157276204Y-47837995D01*
X157279804Y-47813727D01*
X157285765Y-47789928D01*
X157294030Y-47766829D01*
X157304520Y-47744650D01*
X157317132Y-47723607D01*
X157331747Y-47703901D01*
X157348223Y-47685723D01*
X157366401Y-47669247D01*
X157386107Y-47654632D01*
X157407150Y-47642020D01*
X157429329Y-47631530D01*
X157452428Y-47623265D01*
X157476227Y-47617304D01*
X157500495Y-47613704D01*
X157524999Y-47612500D01*
X158375001Y-47612500D01*
X158399505Y-47613704D01*
G37*
G36*
X158399505Y-44738704D02*
G01*
X158423773Y-44742304D01*
X158447572Y-44748265D01*
X158470671Y-44756530D01*
X158492850Y-44767020D01*
X158513893Y-44779632D01*
X158533599Y-44794247D01*
X158551777Y-44810723D01*
X158568253Y-44828901D01*
X158582868Y-44848607D01*
X158595480Y-44869650D01*
X158605970Y-44891829D01*
X158614235Y-44914928D01*
X158620196Y-44938727D01*
X158623796Y-44962995D01*
X158625000Y-44987499D01*
X158625000Y-46062501D01*
X158623796Y-46087005D01*
X158620196Y-46111273D01*
X158614235Y-46135072D01*
X158605970Y-46158171D01*
X158595480Y-46180350D01*
X158582868Y-46201393D01*
X158568253Y-46221099D01*
X158551777Y-46239277D01*
X158533599Y-46255753D01*
X158513893Y-46270368D01*
X158492850Y-46282980D01*
X158470671Y-46293470D01*
X158447572Y-46301735D01*
X158423773Y-46307696D01*
X158399505Y-46311296D01*
X158375001Y-46312500D01*
X157524999Y-46312500D01*
X157500495Y-46311296D01*
X157476227Y-46307696D01*
X157452428Y-46301735D01*
X157429329Y-46293470D01*
X157407150Y-46282980D01*
X157386107Y-46270368D01*
X157366401Y-46255753D01*
X157348223Y-46239277D01*
X157331747Y-46221099D01*
X157317132Y-46201393D01*
X157304520Y-46180350D01*
X157294030Y-46158171D01*
X157285765Y-46135072D01*
X157279804Y-46111273D01*
X157276204Y-46087005D01*
X157275000Y-46062501D01*
X157275000Y-44987499D01*
X157276204Y-44962995D01*
X157279804Y-44938727D01*
X157285765Y-44914928D01*
X157294030Y-44891829D01*
X157304520Y-44869650D01*
X157317132Y-44848607D01*
X157331747Y-44828901D01*
X157348223Y-44810723D01*
X157366401Y-44794247D01*
X157386107Y-44779632D01*
X157407150Y-44767020D01*
X157429329Y-44756530D01*
X157452428Y-44748265D01*
X157476227Y-44742304D01*
X157500495Y-44738704D01*
X157524999Y-44737500D01*
X158375001Y-44737500D01*
X158399505Y-44738704D01*
G37*
G36*
X167274504Y-50626204D02*
G01*
X167298773Y-50629804D01*
X167322571Y-50635765D01*
X167345671Y-50644030D01*
X167367849Y-50654520D01*
X167388893Y-50667133D01*
X167408598Y-50681747D01*
X167426777Y-50698223D01*
X167443253Y-50716402D01*
X167457867Y-50736107D01*
X167470480Y-50757151D01*
X167480970Y-50779329D01*
X167489235Y-50802429D01*
X167495196Y-50826227D01*
X167498796Y-50850496D01*
X167500000Y-50875000D01*
X167500000Y-52125000D01*
X167498796Y-52149504D01*
X167495196Y-52173773D01*
X167489235Y-52197571D01*
X167480970Y-52220671D01*
X167470480Y-52242849D01*
X167457867Y-52263893D01*
X167443253Y-52283598D01*
X167426777Y-52301777D01*
X167408598Y-52318253D01*
X167388893Y-52332867D01*
X167367849Y-52345480D01*
X167345671Y-52355970D01*
X167322571Y-52364235D01*
X167298773Y-52370196D01*
X167274504Y-52373796D01*
X167250000Y-52375000D01*
X166325000Y-52375000D01*
X166300496Y-52373796D01*
X166276227Y-52370196D01*
X166252429Y-52364235D01*
X166229329Y-52355970D01*
X166207151Y-52345480D01*
X166186107Y-52332867D01*
X166166402Y-52318253D01*
X166148223Y-52301777D01*
X166131747Y-52283598D01*
X166117133Y-52263893D01*
X166104520Y-52242849D01*
X166094030Y-52220671D01*
X166085765Y-52197571D01*
X166079804Y-52173773D01*
X166076204Y-52149504D01*
X166075000Y-52125000D01*
X166075000Y-50875000D01*
X166076204Y-50850496D01*
X166079804Y-50826227D01*
X166085765Y-50802429D01*
X166094030Y-50779329D01*
X166104520Y-50757151D01*
X166117133Y-50736107D01*
X166131747Y-50716402D01*
X166148223Y-50698223D01*
X166166402Y-50681747D01*
X166186107Y-50667133D01*
X166207151Y-50654520D01*
X166229329Y-50644030D01*
X166252429Y-50635765D01*
X166276227Y-50629804D01*
X166300496Y-50626204D01*
X166325000Y-50625000D01*
X167250000Y-50625000D01*
X167274504Y-50626204D01*
G37*
G36*
X164299504Y-50626204D02*
G01*
X164323773Y-50629804D01*
X164347571Y-50635765D01*
X164370671Y-50644030D01*
X164392849Y-50654520D01*
X164413893Y-50667133D01*
X164433598Y-50681747D01*
X164451777Y-50698223D01*
X164468253Y-50716402D01*
X164482867Y-50736107D01*
X164495480Y-50757151D01*
X164505970Y-50779329D01*
X164514235Y-50802429D01*
X164520196Y-50826227D01*
X164523796Y-50850496D01*
X164525000Y-50875000D01*
X164525000Y-52125000D01*
X164523796Y-52149504D01*
X164520196Y-52173773D01*
X164514235Y-52197571D01*
X164505970Y-52220671D01*
X164495480Y-52242849D01*
X164482867Y-52263893D01*
X164468253Y-52283598D01*
X164451777Y-52301777D01*
X164433598Y-52318253D01*
X164413893Y-52332867D01*
X164392849Y-52345480D01*
X164370671Y-52355970D01*
X164347571Y-52364235D01*
X164323773Y-52370196D01*
X164299504Y-52373796D01*
X164275000Y-52375000D01*
X163350000Y-52375000D01*
X163325496Y-52373796D01*
X163301227Y-52370196D01*
X163277429Y-52364235D01*
X163254329Y-52355970D01*
X163232151Y-52345480D01*
X163211107Y-52332867D01*
X163191402Y-52318253D01*
X163173223Y-52301777D01*
X163156747Y-52283598D01*
X163142133Y-52263893D01*
X163129520Y-52242849D01*
X163119030Y-52220671D01*
X163110765Y-52197571D01*
X163104804Y-52173773D01*
X163101204Y-52149504D01*
X163100000Y-52125000D01*
X163100000Y-50875000D01*
X163101204Y-50850496D01*
X163104804Y-50826227D01*
X163110765Y-50802429D01*
X163119030Y-50779329D01*
X163129520Y-50757151D01*
X163142133Y-50736107D01*
X163156747Y-50716402D01*
X163173223Y-50698223D01*
X163191402Y-50681747D01*
X163211107Y-50667133D01*
X163232151Y-50654520D01*
X163254329Y-50644030D01*
X163277429Y-50635765D01*
X163301227Y-50629804D01*
X163325496Y-50626204D01*
X163350000Y-50625000D01*
X164275000Y-50625000D01*
X164299504Y-50626204D01*
G37*
G36*
X113880504Y-46169204D02*
G01*
X113904773Y-46172804D01*
X113928571Y-46178765D01*
X113951671Y-46187030D01*
X113973849Y-46197520D01*
X113994893Y-46210133D01*
X114014598Y-46224747D01*
X114032777Y-46241223D01*
X114049253Y-46259402D01*
X114063867Y-46279107D01*
X114076480Y-46300151D01*
X114086970Y-46322329D01*
X114095235Y-46345429D01*
X114101196Y-46369227D01*
X114104796Y-46393496D01*
X114106000Y-46418000D01*
X114106000Y-51118000D01*
X114104796Y-51142504D01*
X114101196Y-51166773D01*
X114095235Y-51190571D01*
X114086970Y-51213671D01*
X114076480Y-51235849D01*
X114063867Y-51256893D01*
X114049253Y-51276598D01*
X114032777Y-51294777D01*
X114014598Y-51311253D01*
X113994893Y-51325867D01*
X113973849Y-51338480D01*
X113951671Y-51348970D01*
X113928571Y-51357235D01*
X113904773Y-51363196D01*
X113880504Y-51366796D01*
X113856000Y-51368000D01*
X109156000Y-51368000D01*
X109131496Y-51366796D01*
X109107227Y-51363196D01*
X109083429Y-51357235D01*
X109060329Y-51348970D01*
X109038151Y-51338480D01*
X109017107Y-51325867D01*
X108997402Y-51311253D01*
X108979223Y-51294777D01*
X108962747Y-51276598D01*
X108948133Y-51256893D01*
X108935520Y-51235849D01*
X108925030Y-51213671D01*
X108916765Y-51190571D01*
X108910804Y-51166773D01*
X108907204Y-51142504D01*
X108906000Y-51118000D01*
X108906000Y-46418000D01*
X108907204Y-46393496D01*
X108910804Y-46369227D01*
X108916765Y-46345429D01*
X108925030Y-46322329D01*
X108935520Y-46300151D01*
X108948133Y-46279107D01*
X108962747Y-46259402D01*
X108979223Y-46241223D01*
X108997402Y-46224747D01*
X109017107Y-46210133D01*
X109038151Y-46197520D01*
X109060329Y-46187030D01*
X109083429Y-46178765D01*
X109107227Y-46172804D01*
X109131496Y-46169204D01*
X109156000Y-46168000D01*
X113856000Y-46168000D01*
X113880504Y-46169204D01*
G37*
G36*
X108649626Y-51143301D02*
G01*
X108655693Y-51144201D01*
X108661643Y-51145691D01*
X108667418Y-51147758D01*
X108672962Y-51150380D01*
X108678223Y-51153533D01*
X108683150Y-51157187D01*
X108687694Y-51161306D01*
X108691813Y-51165850D01*
X108695467Y-51170777D01*
X108698620Y-51176038D01*
X108701242Y-51181582D01*
X108703309Y-51187357D01*
X108704799Y-51193307D01*
X108705699Y-51199374D01*
X108706000Y-51205500D01*
X108706000Y-51330500D01*
X108705699Y-51336626D01*
X108704799Y-51342693D01*
X108703309Y-51348643D01*
X108701242Y-51354418D01*
X108698620Y-51359962D01*
X108695467Y-51365223D01*
X108691813Y-51370150D01*
X108687694Y-51374694D01*
X108683150Y-51378813D01*
X108678223Y-51382467D01*
X108672962Y-51385620D01*
X108667418Y-51388242D01*
X108661643Y-51390309D01*
X108655693Y-51391799D01*
X108649626Y-51392699D01*
X108643500Y-51393000D01*
X107693500Y-51393000D01*
X107687374Y-51392699D01*
X107681307Y-51391799D01*
X107675357Y-51390309D01*
X107669582Y-51388242D01*
X107664038Y-51385620D01*
X107658777Y-51382467D01*
X107653850Y-51378813D01*
X107649306Y-51374694D01*
X107645187Y-51370150D01*
X107641533Y-51365223D01*
X107638380Y-51359962D01*
X107635758Y-51354418D01*
X107633691Y-51348643D01*
X107632201Y-51342693D01*
X107631301Y-51336626D01*
X107631000Y-51330500D01*
X107631000Y-51205500D01*
X107631301Y-51199374D01*
X107632201Y-51193307D01*
X107633691Y-51187357D01*
X107635758Y-51181582D01*
X107638380Y-51176038D01*
X107641533Y-51170777D01*
X107645187Y-51165850D01*
X107649306Y-51161306D01*
X107653850Y-51157187D01*
X107658777Y-51153533D01*
X107664038Y-51150380D01*
X107669582Y-51147758D01*
X107675357Y-51145691D01*
X107681307Y-51144201D01*
X107687374Y-51143301D01*
X107693500Y-51143000D01*
X108643500Y-51143000D01*
X108649626Y-51143301D01*
G37*
G36*
X108649626Y-50643301D02*
G01*
X108655693Y-50644201D01*
X108661643Y-50645691D01*
X108667418Y-50647758D01*
X108672962Y-50650380D01*
X108678223Y-50653533D01*
X108683150Y-50657187D01*
X108687694Y-50661306D01*
X108691813Y-50665850D01*
X108695467Y-50670777D01*
X108698620Y-50676038D01*
X108701242Y-50681582D01*
X108703309Y-50687357D01*
X108704799Y-50693307D01*
X108705699Y-50699374D01*
X108706000Y-50705500D01*
X108706000Y-50830500D01*
X108705699Y-50836626D01*
X108704799Y-50842693D01*
X108703309Y-50848643D01*
X108701242Y-50854418D01*
X108698620Y-50859962D01*
X108695467Y-50865223D01*
X108691813Y-50870150D01*
X108687694Y-50874694D01*
X108683150Y-50878813D01*
X108678223Y-50882467D01*
X108672962Y-50885620D01*
X108667418Y-50888242D01*
X108661643Y-50890309D01*
X108655693Y-50891799D01*
X108649626Y-50892699D01*
X108643500Y-50893000D01*
X107693500Y-50893000D01*
X107687374Y-50892699D01*
X107681307Y-50891799D01*
X107675357Y-50890309D01*
X107669582Y-50888242D01*
X107664038Y-50885620D01*
X107658777Y-50882467D01*
X107653850Y-50878813D01*
X107649306Y-50874694D01*
X107645187Y-50870150D01*
X107641533Y-50865223D01*
X107638380Y-50859962D01*
X107635758Y-50854418D01*
X107633691Y-50848643D01*
X107632201Y-50842693D01*
X107631301Y-50836626D01*
X107631000Y-50830500D01*
X107631000Y-50705500D01*
X107631301Y-50699374D01*
X107632201Y-50693307D01*
X107633691Y-50687357D01*
X107635758Y-50681582D01*
X107638380Y-50676038D01*
X107641533Y-50670777D01*
X107645187Y-50665850D01*
X107649306Y-50661306D01*
X107653850Y-50657187D01*
X107658777Y-50653533D01*
X107664038Y-50650380D01*
X107669582Y-50647758D01*
X107675357Y-50645691D01*
X107681307Y-50644201D01*
X107687374Y-50643301D01*
X107693500Y-50643000D01*
X108643500Y-50643000D01*
X108649626Y-50643301D01*
G37*
G36*
X108649626Y-50143301D02*
G01*
X108655693Y-50144201D01*
X108661643Y-50145691D01*
X108667418Y-50147758D01*
X108672962Y-50150380D01*
X108678223Y-50153533D01*
X108683150Y-50157187D01*
X108687694Y-50161306D01*
X108691813Y-50165850D01*
X108695467Y-50170777D01*
X108698620Y-50176038D01*
X108701242Y-50181582D01*
X108703309Y-50187357D01*
X108704799Y-50193307D01*
X108705699Y-50199374D01*
X108706000Y-50205500D01*
X108706000Y-50330500D01*
X108705699Y-50336626D01*
X108704799Y-50342693D01*
X108703309Y-50348643D01*
X108701242Y-50354418D01*
X108698620Y-50359962D01*
X108695467Y-50365223D01*
X108691813Y-50370150D01*
X108687694Y-50374694D01*
X108683150Y-50378813D01*
X108678223Y-50382467D01*
X108672962Y-50385620D01*
X108667418Y-50388242D01*
X108661643Y-50390309D01*
X108655693Y-50391799D01*
X108649626Y-50392699D01*
X108643500Y-50393000D01*
X107693500Y-50393000D01*
X107687374Y-50392699D01*
X107681307Y-50391799D01*
X107675357Y-50390309D01*
X107669582Y-50388242D01*
X107664038Y-50385620D01*
X107658777Y-50382467D01*
X107653850Y-50378813D01*
X107649306Y-50374694D01*
X107645187Y-50370150D01*
X107641533Y-50365223D01*
X107638380Y-50359962D01*
X107635758Y-50354418D01*
X107633691Y-50348643D01*
X107632201Y-50342693D01*
X107631301Y-50336626D01*
X107631000Y-50330500D01*
X107631000Y-50205500D01*
X107631301Y-50199374D01*
X107632201Y-50193307D01*
X107633691Y-50187357D01*
X107635758Y-50181582D01*
X107638380Y-50176038D01*
X107641533Y-50170777D01*
X107645187Y-50165850D01*
X107649306Y-50161306D01*
X107653850Y-50157187D01*
X107658777Y-50153533D01*
X107664038Y-50150380D01*
X107669582Y-50147758D01*
X107675357Y-50145691D01*
X107681307Y-50144201D01*
X107687374Y-50143301D01*
X107693500Y-50143000D01*
X108643500Y-50143000D01*
X108649626Y-50143301D01*
G37*
G36*
X108649626Y-49643301D02*
G01*
X108655693Y-49644201D01*
X108661643Y-49645691D01*
X108667418Y-49647758D01*
X108672962Y-49650380D01*
X108678223Y-49653533D01*
X108683150Y-49657187D01*
X108687694Y-49661306D01*
X108691813Y-49665850D01*
X108695467Y-49670777D01*
X108698620Y-49676038D01*
X108701242Y-49681582D01*
X108703309Y-49687357D01*
X108704799Y-49693307D01*
X108705699Y-49699374D01*
X108706000Y-49705500D01*
X108706000Y-49830500D01*
X108705699Y-49836626D01*
X108704799Y-49842693D01*
X108703309Y-49848643D01*
X108701242Y-49854418D01*
X108698620Y-49859962D01*
X108695467Y-49865223D01*
X108691813Y-49870150D01*
X108687694Y-49874694D01*
X108683150Y-49878813D01*
X108678223Y-49882467D01*
X108672962Y-49885620D01*
X108667418Y-49888242D01*
X108661643Y-49890309D01*
X108655693Y-49891799D01*
X108649626Y-49892699D01*
X108643500Y-49893000D01*
X107693500Y-49893000D01*
X107687374Y-49892699D01*
X107681307Y-49891799D01*
X107675357Y-49890309D01*
X107669582Y-49888242D01*
X107664038Y-49885620D01*
X107658777Y-49882467D01*
X107653850Y-49878813D01*
X107649306Y-49874694D01*
X107645187Y-49870150D01*
X107641533Y-49865223D01*
X107638380Y-49859962D01*
X107635758Y-49854418D01*
X107633691Y-49848643D01*
X107632201Y-49842693D01*
X107631301Y-49836626D01*
X107631000Y-49830500D01*
X107631000Y-49705500D01*
X107631301Y-49699374D01*
X107632201Y-49693307D01*
X107633691Y-49687357D01*
X107635758Y-49681582D01*
X107638380Y-49676038D01*
X107641533Y-49670777D01*
X107645187Y-49665850D01*
X107649306Y-49661306D01*
X107653850Y-49657187D01*
X107658777Y-49653533D01*
X107664038Y-49650380D01*
X107669582Y-49647758D01*
X107675357Y-49645691D01*
X107681307Y-49644201D01*
X107687374Y-49643301D01*
X107693500Y-49643000D01*
X108643500Y-49643000D01*
X108649626Y-49643301D01*
G37*
G36*
X108649626Y-49143301D02*
G01*
X108655693Y-49144201D01*
X108661643Y-49145691D01*
X108667418Y-49147758D01*
X108672962Y-49150380D01*
X108678223Y-49153533D01*
X108683150Y-49157187D01*
X108687694Y-49161306D01*
X108691813Y-49165850D01*
X108695467Y-49170777D01*
X108698620Y-49176038D01*
X108701242Y-49181582D01*
X108703309Y-49187357D01*
X108704799Y-49193307D01*
X108705699Y-49199374D01*
X108706000Y-49205500D01*
X108706000Y-49330500D01*
X108705699Y-49336626D01*
X108704799Y-49342693D01*
X108703309Y-49348643D01*
X108701242Y-49354418D01*
X108698620Y-49359962D01*
X108695467Y-49365223D01*
X108691813Y-49370150D01*
X108687694Y-49374694D01*
X108683150Y-49378813D01*
X108678223Y-49382467D01*
X108672962Y-49385620D01*
X108667418Y-49388242D01*
X108661643Y-49390309D01*
X108655693Y-49391799D01*
X108649626Y-49392699D01*
X108643500Y-49393000D01*
X107693500Y-49393000D01*
X107687374Y-49392699D01*
X107681307Y-49391799D01*
X107675357Y-49390309D01*
X107669582Y-49388242D01*
X107664038Y-49385620D01*
X107658777Y-49382467D01*
X107653850Y-49378813D01*
X107649306Y-49374694D01*
X107645187Y-49370150D01*
X107641533Y-49365223D01*
X107638380Y-49359962D01*
X107635758Y-49354418D01*
X107633691Y-49348643D01*
X107632201Y-49342693D01*
X107631301Y-49336626D01*
X107631000Y-49330500D01*
X107631000Y-49205500D01*
X107631301Y-49199374D01*
X107632201Y-49193307D01*
X107633691Y-49187357D01*
X107635758Y-49181582D01*
X107638380Y-49176038D01*
X107641533Y-49170777D01*
X107645187Y-49165850D01*
X107649306Y-49161306D01*
X107653850Y-49157187D01*
X107658777Y-49153533D01*
X107664038Y-49150380D01*
X107669582Y-49147758D01*
X107675357Y-49145691D01*
X107681307Y-49144201D01*
X107687374Y-49143301D01*
X107693500Y-49143000D01*
X108643500Y-49143000D01*
X108649626Y-49143301D01*
G37*
G36*
X108649626Y-48643301D02*
G01*
X108655693Y-48644201D01*
X108661643Y-48645691D01*
X108667418Y-48647758D01*
X108672962Y-48650380D01*
X108678223Y-48653533D01*
X108683150Y-48657187D01*
X108687694Y-48661306D01*
X108691813Y-48665850D01*
X108695467Y-48670777D01*
X108698620Y-48676038D01*
X108701242Y-48681582D01*
X108703309Y-48687357D01*
X108704799Y-48693307D01*
X108705699Y-48699374D01*
X108706000Y-48705500D01*
X108706000Y-48830500D01*
X108705699Y-48836626D01*
X108704799Y-48842693D01*
X108703309Y-48848643D01*
X108701242Y-48854418D01*
X108698620Y-48859962D01*
X108695467Y-48865223D01*
X108691813Y-48870150D01*
X108687694Y-48874694D01*
X108683150Y-48878813D01*
X108678223Y-48882467D01*
X108672962Y-48885620D01*
X108667418Y-48888242D01*
X108661643Y-48890309D01*
X108655693Y-48891799D01*
X108649626Y-48892699D01*
X108643500Y-48893000D01*
X107693500Y-48893000D01*
X107687374Y-48892699D01*
X107681307Y-48891799D01*
X107675357Y-48890309D01*
X107669582Y-48888242D01*
X107664038Y-48885620D01*
X107658777Y-48882467D01*
X107653850Y-48878813D01*
X107649306Y-48874694D01*
X107645187Y-48870150D01*
X107641533Y-48865223D01*
X107638380Y-48859962D01*
X107635758Y-48854418D01*
X107633691Y-48848643D01*
X107632201Y-48842693D01*
X107631301Y-48836626D01*
X107631000Y-48830500D01*
X107631000Y-48705500D01*
X107631301Y-48699374D01*
X107632201Y-48693307D01*
X107633691Y-48687357D01*
X107635758Y-48681582D01*
X107638380Y-48676038D01*
X107641533Y-48670777D01*
X107645187Y-48665850D01*
X107649306Y-48661306D01*
X107653850Y-48657187D01*
X107658777Y-48653533D01*
X107664038Y-48650380D01*
X107669582Y-48647758D01*
X107675357Y-48645691D01*
X107681307Y-48644201D01*
X107687374Y-48643301D01*
X107693500Y-48643000D01*
X108643500Y-48643000D01*
X108649626Y-48643301D01*
G37*
G36*
X108649626Y-48143301D02*
G01*
X108655693Y-48144201D01*
X108661643Y-48145691D01*
X108667418Y-48147758D01*
X108672962Y-48150380D01*
X108678223Y-48153533D01*
X108683150Y-48157187D01*
X108687694Y-48161306D01*
X108691813Y-48165850D01*
X108695467Y-48170777D01*
X108698620Y-48176038D01*
X108701242Y-48181582D01*
X108703309Y-48187357D01*
X108704799Y-48193307D01*
X108705699Y-48199374D01*
X108706000Y-48205500D01*
X108706000Y-48330500D01*
X108705699Y-48336626D01*
X108704799Y-48342693D01*
X108703309Y-48348643D01*
X108701242Y-48354418D01*
X108698620Y-48359962D01*
X108695467Y-48365223D01*
X108691813Y-48370150D01*
X108687694Y-48374694D01*
X108683150Y-48378813D01*
X108678223Y-48382467D01*
X108672962Y-48385620D01*
X108667418Y-48388242D01*
X108661643Y-48390309D01*
X108655693Y-48391799D01*
X108649626Y-48392699D01*
X108643500Y-48393000D01*
X107693500Y-48393000D01*
X107687374Y-48392699D01*
X107681307Y-48391799D01*
X107675357Y-48390309D01*
X107669582Y-48388242D01*
X107664038Y-48385620D01*
X107658777Y-48382467D01*
X107653850Y-48378813D01*
X107649306Y-48374694D01*
X107645187Y-48370150D01*
X107641533Y-48365223D01*
X107638380Y-48359962D01*
X107635758Y-48354418D01*
X107633691Y-48348643D01*
X107632201Y-48342693D01*
X107631301Y-48336626D01*
X107631000Y-48330500D01*
X107631000Y-48205500D01*
X107631301Y-48199374D01*
X107632201Y-48193307D01*
X107633691Y-48187357D01*
X107635758Y-48181582D01*
X107638380Y-48176038D01*
X107641533Y-48170777D01*
X107645187Y-48165850D01*
X107649306Y-48161306D01*
X107653850Y-48157187D01*
X107658777Y-48153533D01*
X107664038Y-48150380D01*
X107669582Y-48147758D01*
X107675357Y-48145691D01*
X107681307Y-48144201D01*
X107687374Y-48143301D01*
X107693500Y-48143000D01*
X108643500Y-48143000D01*
X108649626Y-48143301D01*
G37*
G36*
X108649626Y-47643301D02*
G01*
X108655693Y-47644201D01*
X108661643Y-47645691D01*
X108667418Y-47647758D01*
X108672962Y-47650380D01*
X108678223Y-47653533D01*
X108683150Y-47657187D01*
X108687694Y-47661306D01*
X108691813Y-47665850D01*
X108695467Y-47670777D01*
X108698620Y-47676038D01*
X108701242Y-47681582D01*
X108703309Y-47687357D01*
X108704799Y-47693307D01*
X108705699Y-47699374D01*
X108706000Y-47705500D01*
X108706000Y-47830500D01*
X108705699Y-47836626D01*
X108704799Y-47842693D01*
X108703309Y-47848643D01*
X108701242Y-47854418D01*
X108698620Y-47859962D01*
X108695467Y-47865223D01*
X108691813Y-47870150D01*
X108687694Y-47874694D01*
X108683150Y-47878813D01*
X108678223Y-47882467D01*
X108672962Y-47885620D01*
X108667418Y-47888242D01*
X108661643Y-47890309D01*
X108655693Y-47891799D01*
X108649626Y-47892699D01*
X108643500Y-47893000D01*
X107693500Y-47893000D01*
X107687374Y-47892699D01*
X107681307Y-47891799D01*
X107675357Y-47890309D01*
X107669582Y-47888242D01*
X107664038Y-47885620D01*
X107658777Y-47882467D01*
X107653850Y-47878813D01*
X107649306Y-47874694D01*
X107645187Y-47870150D01*
X107641533Y-47865223D01*
X107638380Y-47859962D01*
X107635758Y-47854418D01*
X107633691Y-47848643D01*
X107632201Y-47842693D01*
X107631301Y-47836626D01*
X107631000Y-47830500D01*
X107631000Y-47705500D01*
X107631301Y-47699374D01*
X107632201Y-47693307D01*
X107633691Y-47687357D01*
X107635758Y-47681582D01*
X107638380Y-47676038D01*
X107641533Y-47670777D01*
X107645187Y-47665850D01*
X107649306Y-47661306D01*
X107653850Y-47657187D01*
X107658777Y-47653533D01*
X107664038Y-47650380D01*
X107669582Y-47647758D01*
X107675357Y-47645691D01*
X107681307Y-47644201D01*
X107687374Y-47643301D01*
X107693500Y-47643000D01*
X108643500Y-47643000D01*
X108649626Y-47643301D01*
G37*
G36*
X108649626Y-47143301D02*
G01*
X108655693Y-47144201D01*
X108661643Y-47145691D01*
X108667418Y-47147758D01*
X108672962Y-47150380D01*
X108678223Y-47153533D01*
X108683150Y-47157187D01*
X108687694Y-47161306D01*
X108691813Y-47165850D01*
X108695467Y-47170777D01*
X108698620Y-47176038D01*
X108701242Y-47181582D01*
X108703309Y-47187357D01*
X108704799Y-47193307D01*
X108705699Y-47199374D01*
X108706000Y-47205500D01*
X108706000Y-47330500D01*
X108705699Y-47336626D01*
X108704799Y-47342693D01*
X108703309Y-47348643D01*
X108701242Y-47354418D01*
X108698620Y-47359962D01*
X108695467Y-47365223D01*
X108691813Y-47370150D01*
X108687694Y-47374694D01*
X108683150Y-47378813D01*
X108678223Y-47382467D01*
X108672962Y-47385620D01*
X108667418Y-47388242D01*
X108661643Y-47390309D01*
X108655693Y-47391799D01*
X108649626Y-47392699D01*
X108643500Y-47393000D01*
X107693500Y-47393000D01*
X107687374Y-47392699D01*
X107681307Y-47391799D01*
X107675357Y-47390309D01*
X107669582Y-47388242D01*
X107664038Y-47385620D01*
X107658777Y-47382467D01*
X107653850Y-47378813D01*
X107649306Y-47374694D01*
X107645187Y-47370150D01*
X107641533Y-47365223D01*
X107638380Y-47359962D01*
X107635758Y-47354418D01*
X107633691Y-47348643D01*
X107632201Y-47342693D01*
X107631301Y-47336626D01*
X107631000Y-47330500D01*
X107631000Y-47205500D01*
X107631301Y-47199374D01*
X107632201Y-47193307D01*
X107633691Y-47187357D01*
X107635758Y-47181582D01*
X107638380Y-47176038D01*
X107641533Y-47170777D01*
X107645187Y-47165850D01*
X107649306Y-47161306D01*
X107653850Y-47157187D01*
X107658777Y-47153533D01*
X107664038Y-47150380D01*
X107669582Y-47147758D01*
X107675357Y-47145691D01*
X107681307Y-47144201D01*
X107687374Y-47143301D01*
X107693500Y-47143000D01*
X108643500Y-47143000D01*
X108649626Y-47143301D01*
G37*
G36*
X108649626Y-46643301D02*
G01*
X108655693Y-46644201D01*
X108661643Y-46645691D01*
X108667418Y-46647758D01*
X108672962Y-46650380D01*
X108678223Y-46653533D01*
X108683150Y-46657187D01*
X108687694Y-46661306D01*
X108691813Y-46665850D01*
X108695467Y-46670777D01*
X108698620Y-46676038D01*
X108701242Y-46681582D01*
X108703309Y-46687357D01*
X108704799Y-46693307D01*
X108705699Y-46699374D01*
X108706000Y-46705500D01*
X108706000Y-46830500D01*
X108705699Y-46836626D01*
X108704799Y-46842693D01*
X108703309Y-46848643D01*
X108701242Y-46854418D01*
X108698620Y-46859962D01*
X108695467Y-46865223D01*
X108691813Y-46870150D01*
X108687694Y-46874694D01*
X108683150Y-46878813D01*
X108678223Y-46882467D01*
X108672962Y-46885620D01*
X108667418Y-46888242D01*
X108661643Y-46890309D01*
X108655693Y-46891799D01*
X108649626Y-46892699D01*
X108643500Y-46893000D01*
X107693500Y-46893000D01*
X107687374Y-46892699D01*
X107681307Y-46891799D01*
X107675357Y-46890309D01*
X107669582Y-46888242D01*
X107664038Y-46885620D01*
X107658777Y-46882467D01*
X107653850Y-46878813D01*
X107649306Y-46874694D01*
X107645187Y-46870150D01*
X107641533Y-46865223D01*
X107638380Y-46859962D01*
X107635758Y-46854418D01*
X107633691Y-46848643D01*
X107632201Y-46842693D01*
X107631301Y-46836626D01*
X107631000Y-46830500D01*
X107631000Y-46705500D01*
X107631301Y-46699374D01*
X107632201Y-46693307D01*
X107633691Y-46687357D01*
X107635758Y-46681582D01*
X107638380Y-46676038D01*
X107641533Y-46670777D01*
X107645187Y-46665850D01*
X107649306Y-46661306D01*
X107653850Y-46657187D01*
X107658777Y-46653533D01*
X107664038Y-46650380D01*
X107669582Y-46647758D01*
X107675357Y-46645691D01*
X107681307Y-46644201D01*
X107687374Y-46643301D01*
X107693500Y-46643000D01*
X108643500Y-46643000D01*
X108649626Y-46643301D01*
G37*
G36*
X108649626Y-46143301D02*
G01*
X108655693Y-46144201D01*
X108661643Y-46145691D01*
X108667418Y-46147758D01*
X108672962Y-46150380D01*
X108678223Y-46153533D01*
X108683150Y-46157187D01*
X108687694Y-46161306D01*
X108691813Y-46165850D01*
X108695467Y-46170777D01*
X108698620Y-46176038D01*
X108701242Y-46181582D01*
X108703309Y-46187357D01*
X108704799Y-46193307D01*
X108705699Y-46199374D01*
X108706000Y-46205500D01*
X108706000Y-46330500D01*
X108705699Y-46336626D01*
X108704799Y-46342693D01*
X108703309Y-46348643D01*
X108701242Y-46354418D01*
X108698620Y-46359962D01*
X108695467Y-46365223D01*
X108691813Y-46370150D01*
X108687694Y-46374694D01*
X108683150Y-46378813D01*
X108678223Y-46382467D01*
X108672962Y-46385620D01*
X108667418Y-46388242D01*
X108661643Y-46390309D01*
X108655693Y-46391799D01*
X108649626Y-46392699D01*
X108643500Y-46393000D01*
X107693500Y-46393000D01*
X107687374Y-46392699D01*
X107681307Y-46391799D01*
X107675357Y-46390309D01*
X107669582Y-46388242D01*
X107664038Y-46385620D01*
X107658777Y-46382467D01*
X107653850Y-46378813D01*
X107649306Y-46374694D01*
X107645187Y-46370150D01*
X107641533Y-46365223D01*
X107638380Y-46359962D01*
X107635758Y-46354418D01*
X107633691Y-46348643D01*
X107632201Y-46342693D01*
X107631301Y-46336626D01*
X107631000Y-46330500D01*
X107631000Y-46205500D01*
X107631301Y-46199374D01*
X107632201Y-46193307D01*
X107633691Y-46187357D01*
X107635758Y-46181582D01*
X107638380Y-46176038D01*
X107641533Y-46170777D01*
X107645187Y-46165850D01*
X107649306Y-46161306D01*
X107653850Y-46157187D01*
X107658777Y-46153533D01*
X107664038Y-46150380D01*
X107669582Y-46147758D01*
X107675357Y-46145691D01*
X107681307Y-46144201D01*
X107687374Y-46143301D01*
X107693500Y-46143000D01*
X108643500Y-46143000D01*
X108649626Y-46143301D01*
G37*
G36*
X109074626Y-44893301D02*
G01*
X109080693Y-44894201D01*
X109086643Y-44895691D01*
X109092418Y-44897758D01*
X109097962Y-44900380D01*
X109103223Y-44903533D01*
X109108150Y-44907187D01*
X109112694Y-44911306D01*
X109116813Y-44915850D01*
X109120467Y-44920777D01*
X109123620Y-44926038D01*
X109126242Y-44931582D01*
X109128309Y-44937357D01*
X109129799Y-44943307D01*
X109130699Y-44949374D01*
X109131000Y-44955500D01*
X109131000Y-45905500D01*
X109130699Y-45911626D01*
X109129799Y-45917693D01*
X109128309Y-45923643D01*
X109126242Y-45929418D01*
X109123620Y-45934962D01*
X109120467Y-45940223D01*
X109116813Y-45945150D01*
X109112694Y-45949694D01*
X109108150Y-45953813D01*
X109103223Y-45957467D01*
X109097962Y-45960620D01*
X109092418Y-45963242D01*
X109086643Y-45965309D01*
X109080693Y-45966799D01*
X109074626Y-45967699D01*
X109068500Y-45968000D01*
X108943500Y-45968000D01*
X108937374Y-45967699D01*
X108931307Y-45966799D01*
X108925357Y-45965309D01*
X108919582Y-45963242D01*
X108914038Y-45960620D01*
X108908777Y-45957467D01*
X108903850Y-45953813D01*
X108899306Y-45949694D01*
X108895187Y-45945150D01*
X108891533Y-45940223D01*
X108888380Y-45934962D01*
X108885758Y-45929418D01*
X108883691Y-45923643D01*
X108882201Y-45917693D01*
X108881301Y-45911626D01*
X108881000Y-45905500D01*
X108881000Y-44955500D01*
X108881301Y-44949374D01*
X108882201Y-44943307D01*
X108883691Y-44937357D01*
X108885758Y-44931582D01*
X108888380Y-44926038D01*
X108891533Y-44920777D01*
X108895187Y-44915850D01*
X108899306Y-44911306D01*
X108903850Y-44907187D01*
X108908777Y-44903533D01*
X108914038Y-44900380D01*
X108919582Y-44897758D01*
X108925357Y-44895691D01*
X108931307Y-44894201D01*
X108937374Y-44893301D01*
X108943500Y-44893000D01*
X109068500Y-44893000D01*
X109074626Y-44893301D01*
G37*
G36*
X109574626Y-44893301D02*
G01*
X109580693Y-44894201D01*
X109586643Y-44895691D01*
X109592418Y-44897758D01*
X109597962Y-44900380D01*
X109603223Y-44903533D01*
X109608150Y-44907187D01*
X109612694Y-44911306D01*
X109616813Y-44915850D01*
X109620467Y-44920777D01*
X109623620Y-44926038D01*
X109626242Y-44931582D01*
X109628309Y-44937357D01*
X109629799Y-44943307D01*
X109630699Y-44949374D01*
X109631000Y-44955500D01*
X109631000Y-45905500D01*
X109630699Y-45911626D01*
X109629799Y-45917693D01*
X109628309Y-45923643D01*
X109626242Y-45929418D01*
X109623620Y-45934962D01*
X109620467Y-45940223D01*
X109616813Y-45945150D01*
X109612694Y-45949694D01*
X109608150Y-45953813D01*
X109603223Y-45957467D01*
X109597962Y-45960620D01*
X109592418Y-45963242D01*
X109586643Y-45965309D01*
X109580693Y-45966799D01*
X109574626Y-45967699D01*
X109568500Y-45968000D01*
X109443500Y-45968000D01*
X109437374Y-45967699D01*
X109431307Y-45966799D01*
X109425357Y-45965309D01*
X109419582Y-45963242D01*
X109414038Y-45960620D01*
X109408777Y-45957467D01*
X109403850Y-45953813D01*
X109399306Y-45949694D01*
X109395187Y-45945150D01*
X109391533Y-45940223D01*
X109388380Y-45934962D01*
X109385758Y-45929418D01*
X109383691Y-45923643D01*
X109382201Y-45917693D01*
X109381301Y-45911626D01*
X109381000Y-45905500D01*
X109381000Y-44955500D01*
X109381301Y-44949374D01*
X109382201Y-44943307D01*
X109383691Y-44937357D01*
X109385758Y-44931582D01*
X109388380Y-44926038D01*
X109391533Y-44920777D01*
X109395187Y-44915850D01*
X109399306Y-44911306D01*
X109403850Y-44907187D01*
X109408777Y-44903533D01*
X109414038Y-44900380D01*
X109419582Y-44897758D01*
X109425357Y-44895691D01*
X109431307Y-44894201D01*
X109437374Y-44893301D01*
X109443500Y-44893000D01*
X109568500Y-44893000D01*
X109574626Y-44893301D01*
G37*
G36*
X110074626Y-44893301D02*
G01*
X110080693Y-44894201D01*
X110086643Y-44895691D01*
X110092418Y-44897758D01*
X110097962Y-44900380D01*
X110103223Y-44903533D01*
X110108150Y-44907187D01*
X110112694Y-44911306D01*
X110116813Y-44915850D01*
X110120467Y-44920777D01*
X110123620Y-44926038D01*
X110126242Y-44931582D01*
X110128309Y-44937357D01*
X110129799Y-44943307D01*
X110130699Y-44949374D01*
X110131000Y-44955500D01*
X110131000Y-45905500D01*
X110130699Y-45911626D01*
X110129799Y-45917693D01*
X110128309Y-45923643D01*
X110126242Y-45929418D01*
X110123620Y-45934962D01*
X110120467Y-45940223D01*
X110116813Y-45945150D01*
X110112694Y-45949694D01*
X110108150Y-45953813D01*
X110103223Y-45957467D01*
X110097962Y-45960620D01*
X110092418Y-45963242D01*
X110086643Y-45965309D01*
X110080693Y-45966799D01*
X110074626Y-45967699D01*
X110068500Y-45968000D01*
X109943500Y-45968000D01*
X109937374Y-45967699D01*
X109931307Y-45966799D01*
X109925357Y-45965309D01*
X109919582Y-45963242D01*
X109914038Y-45960620D01*
X109908777Y-45957467D01*
X109903850Y-45953813D01*
X109899306Y-45949694D01*
X109895187Y-45945150D01*
X109891533Y-45940223D01*
X109888380Y-45934962D01*
X109885758Y-45929418D01*
X109883691Y-45923643D01*
X109882201Y-45917693D01*
X109881301Y-45911626D01*
X109881000Y-45905500D01*
X109881000Y-44955500D01*
X109881301Y-44949374D01*
X109882201Y-44943307D01*
X109883691Y-44937357D01*
X109885758Y-44931582D01*
X109888380Y-44926038D01*
X109891533Y-44920777D01*
X109895187Y-44915850D01*
X109899306Y-44911306D01*
X109903850Y-44907187D01*
X109908777Y-44903533D01*
X109914038Y-44900380D01*
X109919582Y-44897758D01*
X109925357Y-44895691D01*
X109931307Y-44894201D01*
X109937374Y-44893301D01*
X109943500Y-44893000D01*
X110068500Y-44893000D01*
X110074626Y-44893301D01*
G37*
G36*
X110574626Y-44893301D02*
G01*
X110580693Y-44894201D01*
X110586643Y-44895691D01*
X110592418Y-44897758D01*
X110597962Y-44900380D01*
X110603223Y-44903533D01*
X110608150Y-44907187D01*
X110612694Y-44911306D01*
X110616813Y-44915850D01*
X110620467Y-44920777D01*
X110623620Y-44926038D01*
X110626242Y-44931582D01*
X110628309Y-44937357D01*
X110629799Y-44943307D01*
X110630699Y-44949374D01*
X110631000Y-44955500D01*
X110631000Y-45905500D01*
X110630699Y-45911626D01*
X110629799Y-45917693D01*
X110628309Y-45923643D01*
X110626242Y-45929418D01*
X110623620Y-45934962D01*
X110620467Y-45940223D01*
X110616813Y-45945150D01*
X110612694Y-45949694D01*
X110608150Y-45953813D01*
X110603223Y-45957467D01*
X110597962Y-45960620D01*
X110592418Y-45963242D01*
X110586643Y-45965309D01*
X110580693Y-45966799D01*
X110574626Y-45967699D01*
X110568500Y-45968000D01*
X110443500Y-45968000D01*
X110437374Y-45967699D01*
X110431307Y-45966799D01*
X110425357Y-45965309D01*
X110419582Y-45963242D01*
X110414038Y-45960620D01*
X110408777Y-45957467D01*
X110403850Y-45953813D01*
X110399306Y-45949694D01*
X110395187Y-45945150D01*
X110391533Y-45940223D01*
X110388380Y-45934962D01*
X110385758Y-45929418D01*
X110383691Y-45923643D01*
X110382201Y-45917693D01*
X110381301Y-45911626D01*
X110381000Y-45905500D01*
X110381000Y-44955500D01*
X110381301Y-44949374D01*
X110382201Y-44943307D01*
X110383691Y-44937357D01*
X110385758Y-44931582D01*
X110388380Y-44926038D01*
X110391533Y-44920777D01*
X110395187Y-44915850D01*
X110399306Y-44911306D01*
X110403850Y-44907187D01*
X110408777Y-44903533D01*
X110414038Y-44900380D01*
X110419582Y-44897758D01*
X110425357Y-44895691D01*
X110431307Y-44894201D01*
X110437374Y-44893301D01*
X110443500Y-44893000D01*
X110568500Y-44893000D01*
X110574626Y-44893301D01*
G37*
G36*
X111074626Y-44893301D02*
G01*
X111080693Y-44894201D01*
X111086643Y-44895691D01*
X111092418Y-44897758D01*
X111097962Y-44900380D01*
X111103223Y-44903533D01*
X111108150Y-44907187D01*
X111112694Y-44911306D01*
X111116813Y-44915850D01*
X111120467Y-44920777D01*
X111123620Y-44926038D01*
X111126242Y-44931582D01*
X111128309Y-44937357D01*
X111129799Y-44943307D01*
X111130699Y-44949374D01*
X111131000Y-44955500D01*
X111131000Y-45905500D01*
X111130699Y-45911626D01*
X111129799Y-45917693D01*
X111128309Y-45923643D01*
X111126242Y-45929418D01*
X111123620Y-45934962D01*
X111120467Y-45940223D01*
X111116813Y-45945150D01*
X111112694Y-45949694D01*
X111108150Y-45953813D01*
X111103223Y-45957467D01*
X111097962Y-45960620D01*
X111092418Y-45963242D01*
X111086643Y-45965309D01*
X111080693Y-45966799D01*
X111074626Y-45967699D01*
X111068500Y-45968000D01*
X110943500Y-45968000D01*
X110937374Y-45967699D01*
X110931307Y-45966799D01*
X110925357Y-45965309D01*
X110919582Y-45963242D01*
X110914038Y-45960620D01*
X110908777Y-45957467D01*
X110903850Y-45953813D01*
X110899306Y-45949694D01*
X110895187Y-45945150D01*
X110891533Y-45940223D01*
X110888380Y-45934962D01*
X110885758Y-45929418D01*
X110883691Y-45923643D01*
X110882201Y-45917693D01*
X110881301Y-45911626D01*
X110881000Y-45905500D01*
X110881000Y-44955500D01*
X110881301Y-44949374D01*
X110882201Y-44943307D01*
X110883691Y-44937357D01*
X110885758Y-44931582D01*
X110888380Y-44926038D01*
X110891533Y-44920777D01*
X110895187Y-44915850D01*
X110899306Y-44911306D01*
X110903850Y-44907187D01*
X110908777Y-44903533D01*
X110914038Y-44900380D01*
X110919582Y-44897758D01*
X110925357Y-44895691D01*
X110931307Y-44894201D01*
X110937374Y-44893301D01*
X110943500Y-44893000D01*
X111068500Y-44893000D01*
X111074626Y-44893301D01*
G37*
G36*
X111574626Y-44893301D02*
G01*
X111580693Y-44894201D01*
X111586643Y-44895691D01*
X111592418Y-44897758D01*
X111597962Y-44900380D01*
X111603223Y-44903533D01*
X111608150Y-44907187D01*
X111612694Y-44911306D01*
X111616813Y-44915850D01*
X111620467Y-44920777D01*
X111623620Y-44926038D01*
X111626242Y-44931582D01*
X111628309Y-44937357D01*
X111629799Y-44943307D01*
X111630699Y-44949374D01*
X111631000Y-44955500D01*
X111631000Y-45905500D01*
X111630699Y-45911626D01*
X111629799Y-45917693D01*
X111628309Y-45923643D01*
X111626242Y-45929418D01*
X111623620Y-45934962D01*
X111620467Y-45940223D01*
X111616813Y-45945150D01*
X111612694Y-45949694D01*
X111608150Y-45953813D01*
X111603223Y-45957467D01*
X111597962Y-45960620D01*
X111592418Y-45963242D01*
X111586643Y-45965309D01*
X111580693Y-45966799D01*
X111574626Y-45967699D01*
X111568500Y-45968000D01*
X111443500Y-45968000D01*
X111437374Y-45967699D01*
X111431307Y-45966799D01*
X111425357Y-45965309D01*
X111419582Y-45963242D01*
X111414038Y-45960620D01*
X111408777Y-45957467D01*
X111403850Y-45953813D01*
X111399306Y-45949694D01*
X111395187Y-45945150D01*
X111391533Y-45940223D01*
X111388380Y-45934962D01*
X111385758Y-45929418D01*
X111383691Y-45923643D01*
X111382201Y-45917693D01*
X111381301Y-45911626D01*
X111381000Y-45905500D01*
X111381000Y-44955500D01*
X111381301Y-44949374D01*
X111382201Y-44943307D01*
X111383691Y-44937357D01*
X111385758Y-44931582D01*
X111388380Y-44926038D01*
X111391533Y-44920777D01*
X111395187Y-44915850D01*
X111399306Y-44911306D01*
X111403850Y-44907187D01*
X111408777Y-44903533D01*
X111414038Y-44900380D01*
X111419582Y-44897758D01*
X111425357Y-44895691D01*
X111431307Y-44894201D01*
X111437374Y-44893301D01*
X111443500Y-44893000D01*
X111568500Y-44893000D01*
X111574626Y-44893301D01*
G37*
G36*
X112074626Y-44893301D02*
G01*
X112080693Y-44894201D01*
X112086643Y-44895691D01*
X112092418Y-44897758D01*
X112097962Y-44900380D01*
X112103223Y-44903533D01*
X112108150Y-44907187D01*
X112112694Y-44911306D01*
X112116813Y-44915850D01*
X112120467Y-44920777D01*
X112123620Y-44926038D01*
X112126242Y-44931582D01*
X112128309Y-44937357D01*
X112129799Y-44943307D01*
X112130699Y-44949374D01*
X112131000Y-44955500D01*
X112131000Y-45905500D01*
X112130699Y-45911626D01*
X112129799Y-45917693D01*
X112128309Y-45923643D01*
X112126242Y-45929418D01*
X112123620Y-45934962D01*
X112120467Y-45940223D01*
X112116813Y-45945150D01*
X112112694Y-45949694D01*
X112108150Y-45953813D01*
X112103223Y-45957467D01*
X112097962Y-45960620D01*
X112092418Y-45963242D01*
X112086643Y-45965309D01*
X112080693Y-45966799D01*
X112074626Y-45967699D01*
X112068500Y-45968000D01*
X111943500Y-45968000D01*
X111937374Y-45967699D01*
X111931307Y-45966799D01*
X111925357Y-45965309D01*
X111919582Y-45963242D01*
X111914038Y-45960620D01*
X111908777Y-45957467D01*
X111903850Y-45953813D01*
X111899306Y-45949694D01*
X111895187Y-45945150D01*
X111891533Y-45940223D01*
X111888380Y-45934962D01*
X111885758Y-45929418D01*
X111883691Y-45923643D01*
X111882201Y-45917693D01*
X111881301Y-45911626D01*
X111881000Y-45905500D01*
X111881000Y-44955500D01*
X111881301Y-44949374D01*
X111882201Y-44943307D01*
X111883691Y-44937357D01*
X111885758Y-44931582D01*
X111888380Y-44926038D01*
X111891533Y-44920777D01*
X111895187Y-44915850D01*
X111899306Y-44911306D01*
X111903850Y-44907187D01*
X111908777Y-44903533D01*
X111914038Y-44900380D01*
X111919582Y-44897758D01*
X111925357Y-44895691D01*
X111931307Y-44894201D01*
X111937374Y-44893301D01*
X111943500Y-44893000D01*
X112068500Y-44893000D01*
X112074626Y-44893301D01*
G37*
G36*
X112574626Y-44893301D02*
G01*
X112580693Y-44894201D01*
X112586643Y-44895691D01*
X112592418Y-44897758D01*
X112597962Y-44900380D01*
X112603223Y-44903533D01*
X112608150Y-44907187D01*
X112612694Y-44911306D01*
X112616813Y-44915850D01*
X112620467Y-44920777D01*
X112623620Y-44926038D01*
X112626242Y-44931582D01*
X112628309Y-44937357D01*
X112629799Y-44943307D01*
X112630699Y-44949374D01*
X112631000Y-44955500D01*
X112631000Y-45905500D01*
X112630699Y-45911626D01*
X112629799Y-45917693D01*
X112628309Y-45923643D01*
X112626242Y-45929418D01*
X112623620Y-45934962D01*
X112620467Y-45940223D01*
X112616813Y-45945150D01*
X112612694Y-45949694D01*
X112608150Y-45953813D01*
X112603223Y-45957467D01*
X112597962Y-45960620D01*
X112592418Y-45963242D01*
X112586643Y-45965309D01*
X112580693Y-45966799D01*
X112574626Y-45967699D01*
X112568500Y-45968000D01*
X112443500Y-45968000D01*
X112437374Y-45967699D01*
X112431307Y-45966799D01*
X112425357Y-45965309D01*
X112419582Y-45963242D01*
X112414038Y-45960620D01*
X112408777Y-45957467D01*
X112403850Y-45953813D01*
X112399306Y-45949694D01*
X112395187Y-45945150D01*
X112391533Y-45940223D01*
X112388380Y-45934962D01*
X112385758Y-45929418D01*
X112383691Y-45923643D01*
X112382201Y-45917693D01*
X112381301Y-45911626D01*
X112381000Y-45905500D01*
X112381000Y-44955500D01*
X112381301Y-44949374D01*
X112382201Y-44943307D01*
X112383691Y-44937357D01*
X112385758Y-44931582D01*
X112388380Y-44926038D01*
X112391533Y-44920777D01*
X112395187Y-44915850D01*
X112399306Y-44911306D01*
X112403850Y-44907187D01*
X112408777Y-44903533D01*
X112414038Y-44900380D01*
X112419582Y-44897758D01*
X112425357Y-44895691D01*
X112431307Y-44894201D01*
X112437374Y-44893301D01*
X112443500Y-44893000D01*
X112568500Y-44893000D01*
X112574626Y-44893301D01*
G37*
G36*
X113074626Y-44893301D02*
G01*
X113080693Y-44894201D01*
X113086643Y-44895691D01*
X113092418Y-44897758D01*
X113097962Y-44900380D01*
X113103223Y-44903533D01*
X113108150Y-44907187D01*
X113112694Y-44911306D01*
X113116813Y-44915850D01*
X113120467Y-44920777D01*
X113123620Y-44926038D01*
X113126242Y-44931582D01*
X113128309Y-44937357D01*
X113129799Y-44943307D01*
X113130699Y-44949374D01*
X113131000Y-44955500D01*
X113131000Y-45905500D01*
X113130699Y-45911626D01*
X113129799Y-45917693D01*
X113128309Y-45923643D01*
X113126242Y-45929418D01*
X113123620Y-45934962D01*
X113120467Y-45940223D01*
X113116813Y-45945150D01*
X113112694Y-45949694D01*
X113108150Y-45953813D01*
X113103223Y-45957467D01*
X113097962Y-45960620D01*
X113092418Y-45963242D01*
X113086643Y-45965309D01*
X113080693Y-45966799D01*
X113074626Y-45967699D01*
X113068500Y-45968000D01*
X112943500Y-45968000D01*
X112937374Y-45967699D01*
X112931307Y-45966799D01*
X112925357Y-45965309D01*
X112919582Y-45963242D01*
X112914038Y-45960620D01*
X112908777Y-45957467D01*
X112903850Y-45953813D01*
X112899306Y-45949694D01*
X112895187Y-45945150D01*
X112891533Y-45940223D01*
X112888380Y-45934962D01*
X112885758Y-45929418D01*
X112883691Y-45923643D01*
X112882201Y-45917693D01*
X112881301Y-45911626D01*
X112881000Y-45905500D01*
X112881000Y-44955500D01*
X112881301Y-44949374D01*
X112882201Y-44943307D01*
X112883691Y-44937357D01*
X112885758Y-44931582D01*
X112888380Y-44926038D01*
X112891533Y-44920777D01*
X112895187Y-44915850D01*
X112899306Y-44911306D01*
X112903850Y-44907187D01*
X112908777Y-44903533D01*
X112914038Y-44900380D01*
X112919582Y-44897758D01*
X112925357Y-44895691D01*
X112931307Y-44894201D01*
X112937374Y-44893301D01*
X112943500Y-44893000D01*
X113068500Y-44893000D01*
X113074626Y-44893301D01*
G37*
G36*
X113574626Y-44893301D02*
G01*
X113580693Y-44894201D01*
X113586643Y-44895691D01*
X113592418Y-44897758D01*
X113597962Y-44900380D01*
X113603223Y-44903533D01*
X113608150Y-44907187D01*
X113612694Y-44911306D01*
X113616813Y-44915850D01*
X113620467Y-44920777D01*
X113623620Y-44926038D01*
X113626242Y-44931582D01*
X113628309Y-44937357D01*
X113629799Y-44943307D01*
X113630699Y-44949374D01*
X113631000Y-44955500D01*
X113631000Y-45905500D01*
X113630699Y-45911626D01*
X113629799Y-45917693D01*
X113628309Y-45923643D01*
X113626242Y-45929418D01*
X113623620Y-45934962D01*
X113620467Y-45940223D01*
X113616813Y-45945150D01*
X113612694Y-45949694D01*
X113608150Y-45953813D01*
X113603223Y-45957467D01*
X113597962Y-45960620D01*
X113592418Y-45963242D01*
X113586643Y-45965309D01*
X113580693Y-45966799D01*
X113574626Y-45967699D01*
X113568500Y-45968000D01*
X113443500Y-45968000D01*
X113437374Y-45967699D01*
X113431307Y-45966799D01*
X113425357Y-45965309D01*
X113419582Y-45963242D01*
X113414038Y-45960620D01*
X113408777Y-45957467D01*
X113403850Y-45953813D01*
X113399306Y-45949694D01*
X113395187Y-45945150D01*
X113391533Y-45940223D01*
X113388380Y-45934962D01*
X113385758Y-45929418D01*
X113383691Y-45923643D01*
X113382201Y-45917693D01*
X113381301Y-45911626D01*
X113381000Y-45905500D01*
X113381000Y-44955500D01*
X113381301Y-44949374D01*
X113382201Y-44943307D01*
X113383691Y-44937357D01*
X113385758Y-44931582D01*
X113388380Y-44926038D01*
X113391533Y-44920777D01*
X113395187Y-44915850D01*
X113399306Y-44911306D01*
X113403850Y-44907187D01*
X113408777Y-44903533D01*
X113414038Y-44900380D01*
X113419582Y-44897758D01*
X113425357Y-44895691D01*
X113431307Y-44894201D01*
X113437374Y-44893301D01*
X113443500Y-44893000D01*
X113568500Y-44893000D01*
X113574626Y-44893301D01*
G37*
G36*
X114074626Y-44893301D02*
G01*
X114080693Y-44894201D01*
X114086643Y-44895691D01*
X114092418Y-44897758D01*
X114097962Y-44900380D01*
X114103223Y-44903533D01*
X114108150Y-44907187D01*
X114112694Y-44911306D01*
X114116813Y-44915850D01*
X114120467Y-44920777D01*
X114123620Y-44926038D01*
X114126242Y-44931582D01*
X114128309Y-44937357D01*
X114129799Y-44943307D01*
X114130699Y-44949374D01*
X114131000Y-44955500D01*
X114131000Y-45905500D01*
X114130699Y-45911626D01*
X114129799Y-45917693D01*
X114128309Y-45923643D01*
X114126242Y-45929418D01*
X114123620Y-45934962D01*
X114120467Y-45940223D01*
X114116813Y-45945150D01*
X114112694Y-45949694D01*
X114108150Y-45953813D01*
X114103223Y-45957467D01*
X114097962Y-45960620D01*
X114092418Y-45963242D01*
X114086643Y-45965309D01*
X114080693Y-45966799D01*
X114074626Y-45967699D01*
X114068500Y-45968000D01*
X113943500Y-45968000D01*
X113937374Y-45967699D01*
X113931307Y-45966799D01*
X113925357Y-45965309D01*
X113919582Y-45963242D01*
X113914038Y-45960620D01*
X113908777Y-45957467D01*
X113903850Y-45953813D01*
X113899306Y-45949694D01*
X113895187Y-45945150D01*
X113891533Y-45940223D01*
X113888380Y-45934962D01*
X113885758Y-45929418D01*
X113883691Y-45923643D01*
X113882201Y-45917693D01*
X113881301Y-45911626D01*
X113881000Y-45905500D01*
X113881000Y-44955500D01*
X113881301Y-44949374D01*
X113882201Y-44943307D01*
X113883691Y-44937357D01*
X113885758Y-44931582D01*
X113888380Y-44926038D01*
X113891533Y-44920777D01*
X113895187Y-44915850D01*
X113899306Y-44911306D01*
X113903850Y-44907187D01*
X113908777Y-44903533D01*
X113914038Y-44900380D01*
X113919582Y-44897758D01*
X113925357Y-44895691D01*
X113931307Y-44894201D01*
X113937374Y-44893301D01*
X113943500Y-44893000D01*
X114068500Y-44893000D01*
X114074626Y-44893301D01*
G37*
G36*
X115324626Y-46143301D02*
G01*
X115330693Y-46144201D01*
X115336643Y-46145691D01*
X115342418Y-46147758D01*
X115347962Y-46150380D01*
X115353223Y-46153533D01*
X115358150Y-46157187D01*
X115362694Y-46161306D01*
X115366813Y-46165850D01*
X115370467Y-46170777D01*
X115373620Y-46176038D01*
X115376242Y-46181582D01*
X115378309Y-46187357D01*
X115379799Y-46193307D01*
X115380699Y-46199374D01*
X115381000Y-46205500D01*
X115381000Y-46330500D01*
X115380699Y-46336626D01*
X115379799Y-46342693D01*
X115378309Y-46348643D01*
X115376242Y-46354418D01*
X115373620Y-46359962D01*
X115370467Y-46365223D01*
X115366813Y-46370150D01*
X115362694Y-46374694D01*
X115358150Y-46378813D01*
X115353223Y-46382467D01*
X115347962Y-46385620D01*
X115342418Y-46388242D01*
X115336643Y-46390309D01*
X115330693Y-46391799D01*
X115324626Y-46392699D01*
X115318500Y-46393000D01*
X114368500Y-46393000D01*
X114362374Y-46392699D01*
X114356307Y-46391799D01*
X114350357Y-46390309D01*
X114344582Y-46388242D01*
X114339038Y-46385620D01*
X114333777Y-46382467D01*
X114328850Y-46378813D01*
X114324306Y-46374694D01*
X114320187Y-46370150D01*
X114316533Y-46365223D01*
X114313380Y-46359962D01*
X114310758Y-46354418D01*
X114308691Y-46348643D01*
X114307201Y-46342693D01*
X114306301Y-46336626D01*
X114306000Y-46330500D01*
X114306000Y-46205500D01*
X114306301Y-46199374D01*
X114307201Y-46193307D01*
X114308691Y-46187357D01*
X114310758Y-46181582D01*
X114313380Y-46176038D01*
X114316533Y-46170777D01*
X114320187Y-46165850D01*
X114324306Y-46161306D01*
X114328850Y-46157187D01*
X114333777Y-46153533D01*
X114339038Y-46150380D01*
X114344582Y-46147758D01*
X114350357Y-46145691D01*
X114356307Y-46144201D01*
X114362374Y-46143301D01*
X114368500Y-46143000D01*
X115318500Y-46143000D01*
X115324626Y-46143301D01*
G37*
G36*
X115324626Y-46643301D02*
G01*
X115330693Y-46644201D01*
X115336643Y-46645691D01*
X115342418Y-46647758D01*
X115347962Y-46650380D01*
X115353223Y-46653533D01*
X115358150Y-46657187D01*
X115362694Y-46661306D01*
X115366813Y-46665850D01*
X115370467Y-46670777D01*
X115373620Y-46676038D01*
X115376242Y-46681582D01*
X115378309Y-46687357D01*
X115379799Y-46693307D01*
X115380699Y-46699374D01*
X115381000Y-46705500D01*
X115381000Y-46830500D01*
X115380699Y-46836626D01*
X115379799Y-46842693D01*
X115378309Y-46848643D01*
X115376242Y-46854418D01*
X115373620Y-46859962D01*
X115370467Y-46865223D01*
X115366813Y-46870150D01*
X115362694Y-46874694D01*
X115358150Y-46878813D01*
X115353223Y-46882467D01*
X115347962Y-46885620D01*
X115342418Y-46888242D01*
X115336643Y-46890309D01*
X115330693Y-46891799D01*
X115324626Y-46892699D01*
X115318500Y-46893000D01*
X114368500Y-46893000D01*
X114362374Y-46892699D01*
X114356307Y-46891799D01*
X114350357Y-46890309D01*
X114344582Y-46888242D01*
X114339038Y-46885620D01*
X114333777Y-46882467D01*
X114328850Y-46878813D01*
X114324306Y-46874694D01*
X114320187Y-46870150D01*
X114316533Y-46865223D01*
X114313380Y-46859962D01*
X114310758Y-46854418D01*
X114308691Y-46848643D01*
X114307201Y-46842693D01*
X114306301Y-46836626D01*
X114306000Y-46830500D01*
X114306000Y-46705500D01*
X114306301Y-46699374D01*
X114307201Y-46693307D01*
X114308691Y-46687357D01*
X114310758Y-46681582D01*
X114313380Y-46676038D01*
X114316533Y-46670777D01*
X114320187Y-46665850D01*
X114324306Y-46661306D01*
X114328850Y-46657187D01*
X114333777Y-46653533D01*
X114339038Y-46650380D01*
X114344582Y-46647758D01*
X114350357Y-46645691D01*
X114356307Y-46644201D01*
X114362374Y-46643301D01*
X114368500Y-46643000D01*
X115318500Y-46643000D01*
X115324626Y-46643301D01*
G37*
G36*
X115324626Y-47143301D02*
G01*
X115330693Y-47144201D01*
X115336643Y-47145691D01*
X115342418Y-47147758D01*
X115347962Y-47150380D01*
X115353223Y-47153533D01*
X115358150Y-47157187D01*
X115362694Y-47161306D01*
X115366813Y-47165850D01*
X115370467Y-47170777D01*
X115373620Y-47176038D01*
X115376242Y-47181582D01*
X115378309Y-47187357D01*
X115379799Y-47193307D01*
X115380699Y-47199374D01*
X115381000Y-47205500D01*
X115381000Y-47330500D01*
X115380699Y-47336626D01*
X115379799Y-47342693D01*
X115378309Y-47348643D01*
X115376242Y-47354418D01*
X115373620Y-47359962D01*
X115370467Y-47365223D01*
X115366813Y-47370150D01*
X115362694Y-47374694D01*
X115358150Y-47378813D01*
X115353223Y-47382467D01*
X115347962Y-47385620D01*
X115342418Y-47388242D01*
X115336643Y-47390309D01*
X115330693Y-47391799D01*
X115324626Y-47392699D01*
X115318500Y-47393000D01*
X114368500Y-47393000D01*
X114362374Y-47392699D01*
X114356307Y-47391799D01*
X114350357Y-47390309D01*
X114344582Y-47388242D01*
X114339038Y-47385620D01*
X114333777Y-47382467D01*
X114328850Y-47378813D01*
X114324306Y-47374694D01*
X114320187Y-47370150D01*
X114316533Y-47365223D01*
X114313380Y-47359962D01*
X114310758Y-47354418D01*
X114308691Y-47348643D01*
X114307201Y-47342693D01*
X114306301Y-47336626D01*
X114306000Y-47330500D01*
X114306000Y-47205500D01*
X114306301Y-47199374D01*
X114307201Y-47193307D01*
X114308691Y-47187357D01*
X114310758Y-47181582D01*
X114313380Y-47176038D01*
X114316533Y-47170777D01*
X114320187Y-47165850D01*
X114324306Y-47161306D01*
X114328850Y-47157187D01*
X114333777Y-47153533D01*
X114339038Y-47150380D01*
X114344582Y-47147758D01*
X114350357Y-47145691D01*
X114356307Y-47144201D01*
X114362374Y-47143301D01*
X114368500Y-47143000D01*
X115318500Y-47143000D01*
X115324626Y-47143301D01*
G37*
G36*
X115324626Y-47643301D02*
G01*
X115330693Y-47644201D01*
X115336643Y-47645691D01*
X115342418Y-47647758D01*
X115347962Y-47650380D01*
X115353223Y-47653533D01*
X115358150Y-47657187D01*
X115362694Y-47661306D01*
X115366813Y-47665850D01*
X115370467Y-47670777D01*
X115373620Y-47676038D01*
X115376242Y-47681582D01*
X115378309Y-47687357D01*
X115379799Y-47693307D01*
X115380699Y-47699374D01*
X115381000Y-47705500D01*
X115381000Y-47830500D01*
X115380699Y-47836626D01*
X115379799Y-47842693D01*
X115378309Y-47848643D01*
X115376242Y-47854418D01*
X115373620Y-47859962D01*
X115370467Y-47865223D01*
X115366813Y-47870150D01*
X115362694Y-47874694D01*
X115358150Y-47878813D01*
X115353223Y-47882467D01*
X115347962Y-47885620D01*
X115342418Y-47888242D01*
X115336643Y-47890309D01*
X115330693Y-47891799D01*
X115324626Y-47892699D01*
X115318500Y-47893000D01*
X114368500Y-47893000D01*
X114362374Y-47892699D01*
X114356307Y-47891799D01*
X114350357Y-47890309D01*
X114344582Y-47888242D01*
X114339038Y-47885620D01*
X114333777Y-47882467D01*
X114328850Y-47878813D01*
X114324306Y-47874694D01*
X114320187Y-47870150D01*
X114316533Y-47865223D01*
X114313380Y-47859962D01*
X114310758Y-47854418D01*
X114308691Y-47848643D01*
X114307201Y-47842693D01*
X114306301Y-47836626D01*
X114306000Y-47830500D01*
X114306000Y-47705500D01*
X114306301Y-47699374D01*
X114307201Y-47693307D01*
X114308691Y-47687357D01*
X114310758Y-47681582D01*
X114313380Y-47676038D01*
X114316533Y-47670777D01*
X114320187Y-47665850D01*
X114324306Y-47661306D01*
X114328850Y-47657187D01*
X114333777Y-47653533D01*
X114339038Y-47650380D01*
X114344582Y-47647758D01*
X114350357Y-47645691D01*
X114356307Y-47644201D01*
X114362374Y-47643301D01*
X114368500Y-47643000D01*
X115318500Y-47643000D01*
X115324626Y-47643301D01*
G37*
G36*
X115324626Y-48143301D02*
G01*
X115330693Y-48144201D01*
X115336643Y-48145691D01*
X115342418Y-48147758D01*
X115347962Y-48150380D01*
X115353223Y-48153533D01*
X115358150Y-48157187D01*
X115362694Y-48161306D01*
X115366813Y-48165850D01*
X115370467Y-48170777D01*
X115373620Y-48176038D01*
X115376242Y-48181582D01*
X115378309Y-48187357D01*
X115379799Y-48193307D01*
X115380699Y-48199374D01*
X115381000Y-48205500D01*
X115381000Y-48330500D01*
X115380699Y-48336626D01*
X115379799Y-48342693D01*
X115378309Y-48348643D01*
X115376242Y-48354418D01*
X115373620Y-48359962D01*
X115370467Y-48365223D01*
X115366813Y-48370150D01*
X115362694Y-48374694D01*
X115358150Y-48378813D01*
X115353223Y-48382467D01*
X115347962Y-48385620D01*
X115342418Y-48388242D01*
X115336643Y-48390309D01*
X115330693Y-48391799D01*
X115324626Y-48392699D01*
X115318500Y-48393000D01*
X114368500Y-48393000D01*
X114362374Y-48392699D01*
X114356307Y-48391799D01*
X114350357Y-48390309D01*
X114344582Y-48388242D01*
X114339038Y-48385620D01*
X114333777Y-48382467D01*
X114328850Y-48378813D01*
X114324306Y-48374694D01*
X114320187Y-48370150D01*
X114316533Y-48365223D01*
X114313380Y-48359962D01*
X114310758Y-48354418D01*
X114308691Y-48348643D01*
X114307201Y-48342693D01*
X114306301Y-48336626D01*
X114306000Y-48330500D01*
X114306000Y-48205500D01*
X114306301Y-48199374D01*
X114307201Y-48193307D01*
X114308691Y-48187357D01*
X114310758Y-48181582D01*
X114313380Y-48176038D01*
X114316533Y-48170777D01*
X114320187Y-48165850D01*
X114324306Y-48161306D01*
X114328850Y-48157187D01*
X114333777Y-48153533D01*
X114339038Y-48150380D01*
X114344582Y-48147758D01*
X114350357Y-48145691D01*
X114356307Y-48144201D01*
X114362374Y-48143301D01*
X114368500Y-48143000D01*
X115318500Y-48143000D01*
X115324626Y-48143301D01*
G37*
G36*
X115324626Y-48643301D02*
G01*
X115330693Y-48644201D01*
X115336643Y-48645691D01*
X115342418Y-48647758D01*
X115347962Y-48650380D01*
X115353223Y-48653533D01*
X115358150Y-48657187D01*
X115362694Y-48661306D01*
X115366813Y-48665850D01*
X115370467Y-48670777D01*
X115373620Y-48676038D01*
X115376242Y-48681582D01*
X115378309Y-48687357D01*
X115379799Y-48693307D01*
X115380699Y-48699374D01*
X115381000Y-48705500D01*
X115381000Y-48830500D01*
X115380699Y-48836626D01*
X115379799Y-48842693D01*
X115378309Y-48848643D01*
X115376242Y-48854418D01*
X115373620Y-48859962D01*
X115370467Y-48865223D01*
X115366813Y-48870150D01*
X115362694Y-48874694D01*
X115358150Y-48878813D01*
X115353223Y-48882467D01*
X115347962Y-48885620D01*
X115342418Y-48888242D01*
X115336643Y-48890309D01*
X115330693Y-48891799D01*
X115324626Y-48892699D01*
X115318500Y-48893000D01*
X114368500Y-48893000D01*
X114362374Y-48892699D01*
X114356307Y-48891799D01*
X114350357Y-48890309D01*
X114344582Y-48888242D01*
X114339038Y-48885620D01*
X114333777Y-48882467D01*
X114328850Y-48878813D01*
X114324306Y-48874694D01*
X114320187Y-48870150D01*
X114316533Y-48865223D01*
X114313380Y-48859962D01*
X114310758Y-48854418D01*
X114308691Y-48848643D01*
X114307201Y-48842693D01*
X114306301Y-48836626D01*
X114306000Y-48830500D01*
X114306000Y-48705500D01*
X114306301Y-48699374D01*
X114307201Y-48693307D01*
X114308691Y-48687357D01*
X114310758Y-48681582D01*
X114313380Y-48676038D01*
X114316533Y-48670777D01*
X114320187Y-48665850D01*
X114324306Y-48661306D01*
X114328850Y-48657187D01*
X114333777Y-48653533D01*
X114339038Y-48650380D01*
X114344582Y-48647758D01*
X114350357Y-48645691D01*
X114356307Y-48644201D01*
X114362374Y-48643301D01*
X114368500Y-48643000D01*
X115318500Y-48643000D01*
X115324626Y-48643301D01*
G37*
G36*
X115324626Y-49143301D02*
G01*
X115330693Y-49144201D01*
X115336643Y-49145691D01*
X115342418Y-49147758D01*
X115347962Y-49150380D01*
X115353223Y-49153533D01*
X115358150Y-49157187D01*
X115362694Y-49161306D01*
X115366813Y-49165850D01*
X115370467Y-49170777D01*
X115373620Y-49176038D01*
X115376242Y-49181582D01*
X115378309Y-49187357D01*
X115379799Y-49193307D01*
X115380699Y-49199374D01*
X115381000Y-49205500D01*
X115381000Y-49330500D01*
X115380699Y-49336626D01*
X115379799Y-49342693D01*
X115378309Y-49348643D01*
X115376242Y-49354418D01*
X115373620Y-49359962D01*
X115370467Y-49365223D01*
X115366813Y-49370150D01*
X115362694Y-49374694D01*
X115358150Y-49378813D01*
X115353223Y-49382467D01*
X115347962Y-49385620D01*
X115342418Y-49388242D01*
X115336643Y-49390309D01*
X115330693Y-49391799D01*
X115324626Y-49392699D01*
X115318500Y-49393000D01*
X114368500Y-49393000D01*
X114362374Y-49392699D01*
X114356307Y-49391799D01*
X114350357Y-49390309D01*
X114344582Y-49388242D01*
X114339038Y-49385620D01*
X114333777Y-49382467D01*
X114328850Y-49378813D01*
X114324306Y-49374694D01*
X114320187Y-49370150D01*
X114316533Y-49365223D01*
X114313380Y-49359962D01*
X114310758Y-49354418D01*
X114308691Y-49348643D01*
X114307201Y-49342693D01*
X114306301Y-49336626D01*
X114306000Y-49330500D01*
X114306000Y-49205500D01*
X114306301Y-49199374D01*
X114307201Y-49193307D01*
X114308691Y-49187357D01*
X114310758Y-49181582D01*
X114313380Y-49176038D01*
X114316533Y-49170777D01*
X114320187Y-49165850D01*
X114324306Y-49161306D01*
X114328850Y-49157187D01*
X114333777Y-49153533D01*
X114339038Y-49150380D01*
X114344582Y-49147758D01*
X114350357Y-49145691D01*
X114356307Y-49144201D01*
X114362374Y-49143301D01*
X114368500Y-49143000D01*
X115318500Y-49143000D01*
X115324626Y-49143301D01*
G37*
G36*
X115324626Y-49643301D02*
G01*
X115330693Y-49644201D01*
X115336643Y-49645691D01*
X115342418Y-49647758D01*
X115347962Y-49650380D01*
X115353223Y-49653533D01*
X115358150Y-49657187D01*
X115362694Y-49661306D01*
X115366813Y-49665850D01*
X115370467Y-49670777D01*
X115373620Y-49676038D01*
X115376242Y-49681582D01*
X115378309Y-49687357D01*
X115379799Y-49693307D01*
X115380699Y-49699374D01*
X115381000Y-49705500D01*
X115381000Y-49830500D01*
X115380699Y-49836626D01*
X115379799Y-49842693D01*
X115378309Y-49848643D01*
X115376242Y-49854418D01*
X115373620Y-49859962D01*
X115370467Y-49865223D01*
X115366813Y-49870150D01*
X115362694Y-49874694D01*
X115358150Y-49878813D01*
X115353223Y-49882467D01*
X115347962Y-49885620D01*
X115342418Y-49888242D01*
X115336643Y-49890309D01*
X115330693Y-49891799D01*
X115324626Y-49892699D01*
X115318500Y-49893000D01*
X114368500Y-49893000D01*
X114362374Y-49892699D01*
X114356307Y-49891799D01*
X114350357Y-49890309D01*
X114344582Y-49888242D01*
X114339038Y-49885620D01*
X114333777Y-49882467D01*
X114328850Y-49878813D01*
X114324306Y-49874694D01*
X114320187Y-49870150D01*
X114316533Y-49865223D01*
X114313380Y-49859962D01*
X114310758Y-49854418D01*
X114308691Y-49848643D01*
X114307201Y-49842693D01*
X114306301Y-49836626D01*
X114306000Y-49830500D01*
X114306000Y-49705500D01*
X114306301Y-49699374D01*
X114307201Y-49693307D01*
X114308691Y-49687357D01*
X114310758Y-49681582D01*
X114313380Y-49676038D01*
X114316533Y-49670777D01*
X114320187Y-49665850D01*
X114324306Y-49661306D01*
X114328850Y-49657187D01*
X114333777Y-49653533D01*
X114339038Y-49650380D01*
X114344582Y-49647758D01*
X114350357Y-49645691D01*
X114356307Y-49644201D01*
X114362374Y-49643301D01*
X114368500Y-49643000D01*
X115318500Y-49643000D01*
X115324626Y-49643301D01*
G37*
G36*
X115324626Y-50143301D02*
G01*
X115330693Y-50144201D01*
X115336643Y-50145691D01*
X115342418Y-50147758D01*
X115347962Y-50150380D01*
X115353223Y-50153533D01*
X115358150Y-50157187D01*
X115362694Y-50161306D01*
X115366813Y-50165850D01*
X115370467Y-50170777D01*
X115373620Y-50176038D01*
X115376242Y-50181582D01*
X115378309Y-50187357D01*
X115379799Y-50193307D01*
X115380699Y-50199374D01*
X115381000Y-50205500D01*
X115381000Y-50330500D01*
X115380699Y-50336626D01*
X115379799Y-50342693D01*
X115378309Y-50348643D01*
X115376242Y-50354418D01*
X115373620Y-50359962D01*
X115370467Y-50365223D01*
X115366813Y-50370150D01*
X115362694Y-50374694D01*
X115358150Y-50378813D01*
X115353223Y-50382467D01*
X115347962Y-50385620D01*
X115342418Y-50388242D01*
X115336643Y-50390309D01*
X115330693Y-50391799D01*
X115324626Y-50392699D01*
X115318500Y-50393000D01*
X114368500Y-50393000D01*
X114362374Y-50392699D01*
X114356307Y-50391799D01*
X114350357Y-50390309D01*
X114344582Y-50388242D01*
X114339038Y-50385620D01*
X114333777Y-50382467D01*
X114328850Y-50378813D01*
X114324306Y-50374694D01*
X114320187Y-50370150D01*
X114316533Y-50365223D01*
X114313380Y-50359962D01*
X114310758Y-50354418D01*
X114308691Y-50348643D01*
X114307201Y-50342693D01*
X114306301Y-50336626D01*
X114306000Y-50330500D01*
X114306000Y-50205500D01*
X114306301Y-50199374D01*
X114307201Y-50193307D01*
X114308691Y-50187357D01*
X114310758Y-50181582D01*
X114313380Y-50176038D01*
X114316533Y-50170777D01*
X114320187Y-50165850D01*
X114324306Y-50161306D01*
X114328850Y-50157187D01*
X114333777Y-50153533D01*
X114339038Y-50150380D01*
X114344582Y-50147758D01*
X114350357Y-50145691D01*
X114356307Y-50144201D01*
X114362374Y-50143301D01*
X114368500Y-50143000D01*
X115318500Y-50143000D01*
X115324626Y-50143301D01*
G37*
G36*
X115324626Y-50643301D02*
G01*
X115330693Y-50644201D01*
X115336643Y-50645691D01*
X115342418Y-50647758D01*
X115347962Y-50650380D01*
X115353223Y-50653533D01*
X115358150Y-50657187D01*
X115362694Y-50661306D01*
X115366813Y-50665850D01*
X115370467Y-50670777D01*
X115373620Y-50676038D01*
X115376242Y-50681582D01*
X115378309Y-50687357D01*
X115379799Y-50693307D01*
X115380699Y-50699374D01*
X115381000Y-50705500D01*
X115381000Y-50830500D01*
X115380699Y-50836626D01*
X115379799Y-50842693D01*
X115378309Y-50848643D01*
X115376242Y-50854418D01*
X115373620Y-50859962D01*
X115370467Y-50865223D01*
X115366813Y-50870150D01*
X115362694Y-50874694D01*
X115358150Y-50878813D01*
X115353223Y-50882467D01*
X115347962Y-50885620D01*
X115342418Y-50888242D01*
X115336643Y-50890309D01*
X115330693Y-50891799D01*
X115324626Y-50892699D01*
X115318500Y-50893000D01*
X114368500Y-50893000D01*
X114362374Y-50892699D01*
X114356307Y-50891799D01*
X114350357Y-50890309D01*
X114344582Y-50888242D01*
X114339038Y-50885620D01*
X114333777Y-50882467D01*
X114328850Y-50878813D01*
X114324306Y-50874694D01*
X114320187Y-50870150D01*
X114316533Y-50865223D01*
X114313380Y-50859962D01*
X114310758Y-50854418D01*
X114308691Y-50848643D01*
X114307201Y-50842693D01*
X114306301Y-50836626D01*
X114306000Y-50830500D01*
X114306000Y-50705500D01*
X114306301Y-50699374D01*
X114307201Y-50693307D01*
X114308691Y-50687357D01*
X114310758Y-50681582D01*
X114313380Y-50676038D01*
X114316533Y-50670777D01*
X114320187Y-50665850D01*
X114324306Y-50661306D01*
X114328850Y-50657187D01*
X114333777Y-50653533D01*
X114339038Y-50650380D01*
X114344582Y-50647758D01*
X114350357Y-50645691D01*
X114356307Y-50644201D01*
X114362374Y-50643301D01*
X114368500Y-50643000D01*
X115318500Y-50643000D01*
X115324626Y-50643301D01*
G37*
G36*
X115324626Y-51143301D02*
G01*
X115330693Y-51144201D01*
X115336643Y-51145691D01*
X115342418Y-51147758D01*
X115347962Y-51150380D01*
X115353223Y-51153533D01*
X115358150Y-51157187D01*
X115362694Y-51161306D01*
X115366813Y-51165850D01*
X115370467Y-51170777D01*
X115373620Y-51176038D01*
X115376242Y-51181582D01*
X115378309Y-51187357D01*
X115379799Y-51193307D01*
X115380699Y-51199374D01*
X115381000Y-51205500D01*
X115381000Y-51330500D01*
X115380699Y-51336626D01*
X115379799Y-51342693D01*
X115378309Y-51348643D01*
X115376242Y-51354418D01*
X115373620Y-51359962D01*
X115370467Y-51365223D01*
X115366813Y-51370150D01*
X115362694Y-51374694D01*
X115358150Y-51378813D01*
X115353223Y-51382467D01*
X115347962Y-51385620D01*
X115342418Y-51388242D01*
X115336643Y-51390309D01*
X115330693Y-51391799D01*
X115324626Y-51392699D01*
X115318500Y-51393000D01*
X114368500Y-51393000D01*
X114362374Y-51392699D01*
X114356307Y-51391799D01*
X114350357Y-51390309D01*
X114344582Y-51388242D01*
X114339038Y-51385620D01*
X114333777Y-51382467D01*
X114328850Y-51378813D01*
X114324306Y-51374694D01*
X114320187Y-51370150D01*
X114316533Y-51365223D01*
X114313380Y-51359962D01*
X114310758Y-51354418D01*
X114308691Y-51348643D01*
X114307201Y-51342693D01*
X114306301Y-51336626D01*
X114306000Y-51330500D01*
X114306000Y-51205500D01*
X114306301Y-51199374D01*
X114307201Y-51193307D01*
X114308691Y-51187357D01*
X114310758Y-51181582D01*
X114313380Y-51176038D01*
X114316533Y-51170777D01*
X114320187Y-51165850D01*
X114324306Y-51161306D01*
X114328850Y-51157187D01*
X114333777Y-51153533D01*
X114339038Y-51150380D01*
X114344582Y-51147758D01*
X114350357Y-51145691D01*
X114356307Y-51144201D01*
X114362374Y-51143301D01*
X114368500Y-51143000D01*
X115318500Y-51143000D01*
X115324626Y-51143301D01*
G37*
G36*
X114074626Y-51568301D02*
G01*
X114080693Y-51569201D01*
X114086643Y-51570691D01*
X114092418Y-51572758D01*
X114097962Y-51575380D01*
X114103223Y-51578533D01*
X114108150Y-51582187D01*
X114112694Y-51586306D01*
X114116813Y-51590850D01*
X114120467Y-51595777D01*
X114123620Y-51601038D01*
X114126242Y-51606582D01*
X114128309Y-51612357D01*
X114129799Y-51618307D01*
X114130699Y-51624374D01*
X114131000Y-51630500D01*
X114131000Y-52580500D01*
X114130699Y-52586626D01*
X114129799Y-52592693D01*
X114128309Y-52598643D01*
X114126242Y-52604418D01*
X114123620Y-52609962D01*
X114120467Y-52615223D01*
X114116813Y-52620150D01*
X114112694Y-52624694D01*
X114108150Y-52628813D01*
X114103223Y-52632467D01*
X114097962Y-52635620D01*
X114092418Y-52638242D01*
X114086643Y-52640309D01*
X114080693Y-52641799D01*
X114074626Y-52642699D01*
X114068500Y-52643000D01*
X113943500Y-52643000D01*
X113937374Y-52642699D01*
X113931307Y-52641799D01*
X113925357Y-52640309D01*
X113919582Y-52638242D01*
X113914038Y-52635620D01*
X113908777Y-52632467D01*
X113903850Y-52628813D01*
X113899306Y-52624694D01*
X113895187Y-52620150D01*
X113891533Y-52615223D01*
X113888380Y-52609962D01*
X113885758Y-52604418D01*
X113883691Y-52598643D01*
X113882201Y-52592693D01*
X113881301Y-52586626D01*
X113881000Y-52580500D01*
X113881000Y-51630500D01*
X113881301Y-51624374D01*
X113882201Y-51618307D01*
X113883691Y-51612357D01*
X113885758Y-51606582D01*
X113888380Y-51601038D01*
X113891533Y-51595777D01*
X113895187Y-51590850D01*
X113899306Y-51586306D01*
X113903850Y-51582187D01*
X113908777Y-51578533D01*
X113914038Y-51575380D01*
X113919582Y-51572758D01*
X113925357Y-51570691D01*
X113931307Y-51569201D01*
X113937374Y-51568301D01*
X113943500Y-51568000D01*
X114068500Y-51568000D01*
X114074626Y-51568301D01*
G37*
G36*
X113574626Y-51568301D02*
G01*
X113580693Y-51569201D01*
X113586643Y-51570691D01*
X113592418Y-51572758D01*
X113597962Y-51575380D01*
X113603223Y-51578533D01*
X113608150Y-51582187D01*
X113612694Y-51586306D01*
X113616813Y-51590850D01*
X113620467Y-51595777D01*
X113623620Y-51601038D01*
X113626242Y-51606582D01*
X113628309Y-51612357D01*
X113629799Y-51618307D01*
X113630699Y-51624374D01*
X113631000Y-51630500D01*
X113631000Y-52580500D01*
X113630699Y-52586626D01*
X113629799Y-52592693D01*
X113628309Y-52598643D01*
X113626242Y-52604418D01*
X113623620Y-52609962D01*
X113620467Y-52615223D01*
X113616813Y-52620150D01*
X113612694Y-52624694D01*
X113608150Y-52628813D01*
X113603223Y-52632467D01*
X113597962Y-52635620D01*
X113592418Y-52638242D01*
X113586643Y-52640309D01*
X113580693Y-52641799D01*
X113574626Y-52642699D01*
X113568500Y-52643000D01*
X113443500Y-52643000D01*
X113437374Y-52642699D01*
X113431307Y-52641799D01*
X113425357Y-52640309D01*
X113419582Y-52638242D01*
X113414038Y-52635620D01*
X113408777Y-52632467D01*
X113403850Y-52628813D01*
X113399306Y-52624694D01*
X113395187Y-52620150D01*
X113391533Y-52615223D01*
X113388380Y-52609962D01*
X113385758Y-52604418D01*
X113383691Y-52598643D01*
X113382201Y-52592693D01*
X113381301Y-52586626D01*
X113381000Y-52580500D01*
X113381000Y-51630500D01*
X113381301Y-51624374D01*
X113382201Y-51618307D01*
X113383691Y-51612357D01*
X113385758Y-51606582D01*
X113388380Y-51601038D01*
X113391533Y-51595777D01*
X113395187Y-51590850D01*
X113399306Y-51586306D01*
X113403850Y-51582187D01*
X113408777Y-51578533D01*
X113414038Y-51575380D01*
X113419582Y-51572758D01*
X113425357Y-51570691D01*
X113431307Y-51569201D01*
X113437374Y-51568301D01*
X113443500Y-51568000D01*
X113568500Y-51568000D01*
X113574626Y-51568301D01*
G37*
G36*
X113074626Y-51568301D02*
G01*
X113080693Y-51569201D01*
X113086643Y-51570691D01*
X113092418Y-51572758D01*
X113097962Y-51575380D01*
X113103223Y-51578533D01*
X113108150Y-51582187D01*
X113112694Y-51586306D01*
X113116813Y-51590850D01*
X113120467Y-51595777D01*
X113123620Y-51601038D01*
X113126242Y-51606582D01*
X113128309Y-51612357D01*
X113129799Y-51618307D01*
X113130699Y-51624374D01*
X113131000Y-51630500D01*
X113131000Y-52580500D01*
X113130699Y-52586626D01*
X113129799Y-52592693D01*
X113128309Y-52598643D01*
X113126242Y-52604418D01*
X113123620Y-52609962D01*
X113120467Y-52615223D01*
X113116813Y-52620150D01*
X113112694Y-52624694D01*
X113108150Y-52628813D01*
X113103223Y-52632467D01*
X113097962Y-52635620D01*
X113092418Y-52638242D01*
X113086643Y-52640309D01*
X113080693Y-52641799D01*
X113074626Y-52642699D01*
X113068500Y-52643000D01*
X112943500Y-52643000D01*
X112937374Y-52642699D01*
X112931307Y-52641799D01*
X112925357Y-52640309D01*
X112919582Y-52638242D01*
X112914038Y-52635620D01*
X112908777Y-52632467D01*
X112903850Y-52628813D01*
X112899306Y-52624694D01*
X112895187Y-52620150D01*
X112891533Y-52615223D01*
X112888380Y-52609962D01*
X112885758Y-52604418D01*
X112883691Y-52598643D01*
X112882201Y-52592693D01*
X112881301Y-52586626D01*
X112881000Y-52580500D01*
X112881000Y-51630500D01*
X112881301Y-51624374D01*
X112882201Y-51618307D01*
X112883691Y-51612357D01*
X112885758Y-51606582D01*
X112888380Y-51601038D01*
X112891533Y-51595777D01*
X112895187Y-51590850D01*
X112899306Y-51586306D01*
X112903850Y-51582187D01*
X112908777Y-51578533D01*
X112914038Y-51575380D01*
X112919582Y-51572758D01*
X112925357Y-51570691D01*
X112931307Y-51569201D01*
X112937374Y-51568301D01*
X112943500Y-51568000D01*
X113068500Y-51568000D01*
X113074626Y-51568301D01*
G37*
G36*
X112574626Y-51568301D02*
G01*
X112580693Y-51569201D01*
X112586643Y-51570691D01*
X112592418Y-51572758D01*
X112597962Y-51575380D01*
X112603223Y-51578533D01*
X112608150Y-51582187D01*
X112612694Y-51586306D01*
X112616813Y-51590850D01*
X112620467Y-51595777D01*
X112623620Y-51601038D01*
X112626242Y-51606582D01*
X112628309Y-51612357D01*
X112629799Y-51618307D01*
X112630699Y-51624374D01*
X112631000Y-51630500D01*
X112631000Y-52580500D01*
X112630699Y-52586626D01*
X112629799Y-52592693D01*
X112628309Y-52598643D01*
X112626242Y-52604418D01*
X112623620Y-52609962D01*
X112620467Y-52615223D01*
X112616813Y-52620150D01*
X112612694Y-52624694D01*
X112608150Y-52628813D01*
X112603223Y-52632467D01*
X112597962Y-52635620D01*
X112592418Y-52638242D01*
X112586643Y-52640309D01*
X112580693Y-52641799D01*
X112574626Y-52642699D01*
X112568500Y-52643000D01*
X112443500Y-52643000D01*
X112437374Y-52642699D01*
X112431307Y-52641799D01*
X112425357Y-52640309D01*
X112419582Y-52638242D01*
X112414038Y-52635620D01*
X112408777Y-52632467D01*
X112403850Y-52628813D01*
X112399306Y-52624694D01*
X112395187Y-52620150D01*
X112391533Y-52615223D01*
X112388380Y-52609962D01*
X112385758Y-52604418D01*
X112383691Y-52598643D01*
X112382201Y-52592693D01*
X112381301Y-52586626D01*
X112381000Y-52580500D01*
X112381000Y-51630500D01*
X112381301Y-51624374D01*
X112382201Y-51618307D01*
X112383691Y-51612357D01*
X112385758Y-51606582D01*
X112388380Y-51601038D01*
X112391533Y-51595777D01*
X112395187Y-51590850D01*
X112399306Y-51586306D01*
X112403850Y-51582187D01*
X112408777Y-51578533D01*
X112414038Y-51575380D01*
X112419582Y-51572758D01*
X112425357Y-51570691D01*
X112431307Y-51569201D01*
X112437374Y-51568301D01*
X112443500Y-51568000D01*
X112568500Y-51568000D01*
X112574626Y-51568301D01*
G37*
G36*
X112074626Y-51568301D02*
G01*
X112080693Y-51569201D01*
X112086643Y-51570691D01*
X112092418Y-51572758D01*
X112097962Y-51575380D01*
X112103223Y-51578533D01*
X112108150Y-51582187D01*
X112112694Y-51586306D01*
X112116813Y-51590850D01*
X112120467Y-51595777D01*
X112123620Y-51601038D01*
X112126242Y-51606582D01*
X112128309Y-51612357D01*
X112129799Y-51618307D01*
X112130699Y-51624374D01*
X112131000Y-51630500D01*
X112131000Y-52580500D01*
X112130699Y-52586626D01*
X112129799Y-52592693D01*
X112128309Y-52598643D01*
X112126242Y-52604418D01*
X112123620Y-52609962D01*
X112120467Y-52615223D01*
X112116813Y-52620150D01*
X112112694Y-52624694D01*
X112108150Y-52628813D01*
X112103223Y-52632467D01*
X112097962Y-52635620D01*
X112092418Y-52638242D01*
X112086643Y-52640309D01*
X112080693Y-52641799D01*
X112074626Y-52642699D01*
X112068500Y-52643000D01*
X111943500Y-52643000D01*
X111937374Y-52642699D01*
X111931307Y-52641799D01*
X111925357Y-52640309D01*
X111919582Y-52638242D01*
X111914038Y-52635620D01*
X111908777Y-52632467D01*
X111903850Y-52628813D01*
X111899306Y-52624694D01*
X111895187Y-52620150D01*
X111891533Y-52615223D01*
X111888380Y-52609962D01*
X111885758Y-52604418D01*
X111883691Y-52598643D01*
X111882201Y-52592693D01*
X111881301Y-52586626D01*
X111881000Y-52580500D01*
X111881000Y-51630500D01*
X111881301Y-51624374D01*
X111882201Y-51618307D01*
X111883691Y-51612357D01*
X111885758Y-51606582D01*
X111888380Y-51601038D01*
X111891533Y-51595777D01*
X111895187Y-51590850D01*
X111899306Y-51586306D01*
X111903850Y-51582187D01*
X111908777Y-51578533D01*
X111914038Y-51575380D01*
X111919582Y-51572758D01*
X111925357Y-51570691D01*
X111931307Y-51569201D01*
X111937374Y-51568301D01*
X111943500Y-51568000D01*
X112068500Y-51568000D01*
X112074626Y-51568301D01*
G37*
G36*
X111574626Y-51568301D02*
G01*
X111580693Y-51569201D01*
X111586643Y-51570691D01*
X111592418Y-51572758D01*
X111597962Y-51575380D01*
X111603223Y-51578533D01*
X111608150Y-51582187D01*
X111612694Y-51586306D01*
X111616813Y-51590850D01*
X111620467Y-51595777D01*
X111623620Y-51601038D01*
X111626242Y-51606582D01*
X111628309Y-51612357D01*
X111629799Y-51618307D01*
X111630699Y-51624374D01*
X111631000Y-51630500D01*
X111631000Y-52580500D01*
X111630699Y-52586626D01*
X111629799Y-52592693D01*
X111628309Y-52598643D01*
X111626242Y-52604418D01*
X111623620Y-52609962D01*
X111620467Y-52615223D01*
X111616813Y-52620150D01*
X111612694Y-52624694D01*
X111608150Y-52628813D01*
X111603223Y-52632467D01*
X111597962Y-52635620D01*
X111592418Y-52638242D01*
X111586643Y-52640309D01*
X111580693Y-52641799D01*
X111574626Y-52642699D01*
X111568500Y-52643000D01*
X111443500Y-52643000D01*
X111437374Y-52642699D01*
X111431307Y-52641799D01*
X111425357Y-52640309D01*
X111419582Y-52638242D01*
X111414038Y-52635620D01*
X111408777Y-52632467D01*
X111403850Y-52628813D01*
X111399306Y-52624694D01*
X111395187Y-52620150D01*
X111391533Y-52615223D01*
X111388380Y-52609962D01*
X111385758Y-52604418D01*
X111383691Y-52598643D01*
X111382201Y-52592693D01*
X111381301Y-52586626D01*
X111381000Y-52580500D01*
X111381000Y-51630500D01*
X111381301Y-51624374D01*
X111382201Y-51618307D01*
X111383691Y-51612357D01*
X111385758Y-51606582D01*
X111388380Y-51601038D01*
X111391533Y-51595777D01*
X111395187Y-51590850D01*
X111399306Y-51586306D01*
X111403850Y-51582187D01*
X111408777Y-51578533D01*
X111414038Y-51575380D01*
X111419582Y-51572758D01*
X111425357Y-51570691D01*
X111431307Y-51569201D01*
X111437374Y-51568301D01*
X111443500Y-51568000D01*
X111568500Y-51568000D01*
X111574626Y-51568301D01*
G37*
G36*
X111074626Y-51568301D02*
G01*
X111080693Y-51569201D01*
X111086643Y-51570691D01*
X111092418Y-51572758D01*
X111097962Y-51575380D01*
X111103223Y-51578533D01*
X111108150Y-51582187D01*
X111112694Y-51586306D01*
X111116813Y-51590850D01*
X111120467Y-51595777D01*
X111123620Y-51601038D01*
X111126242Y-51606582D01*
X111128309Y-51612357D01*
X111129799Y-51618307D01*
X111130699Y-51624374D01*
X111131000Y-51630500D01*
X111131000Y-52580500D01*
X111130699Y-52586626D01*
X111129799Y-52592693D01*
X111128309Y-52598643D01*
X111126242Y-52604418D01*
X111123620Y-52609962D01*
X111120467Y-52615223D01*
X111116813Y-52620150D01*
X111112694Y-52624694D01*
X111108150Y-52628813D01*
X111103223Y-52632467D01*
X111097962Y-52635620D01*
X111092418Y-52638242D01*
X111086643Y-52640309D01*
X111080693Y-52641799D01*
X111074626Y-52642699D01*
X111068500Y-52643000D01*
X110943500Y-52643000D01*
X110937374Y-52642699D01*
X110931307Y-52641799D01*
X110925357Y-52640309D01*
X110919582Y-52638242D01*
X110914038Y-52635620D01*
X110908777Y-52632467D01*
X110903850Y-52628813D01*
X110899306Y-52624694D01*
X110895187Y-52620150D01*
X110891533Y-52615223D01*
X110888380Y-52609962D01*
X110885758Y-52604418D01*
X110883691Y-52598643D01*
X110882201Y-52592693D01*
X110881301Y-52586626D01*
X110881000Y-52580500D01*
X110881000Y-51630500D01*
X110881301Y-51624374D01*
X110882201Y-51618307D01*
X110883691Y-51612357D01*
X110885758Y-51606582D01*
X110888380Y-51601038D01*
X110891533Y-51595777D01*
X110895187Y-51590850D01*
X110899306Y-51586306D01*
X110903850Y-51582187D01*
X110908777Y-51578533D01*
X110914038Y-51575380D01*
X110919582Y-51572758D01*
X110925357Y-51570691D01*
X110931307Y-51569201D01*
X110937374Y-51568301D01*
X110943500Y-51568000D01*
X111068500Y-51568000D01*
X111074626Y-51568301D01*
G37*
G36*
X110574626Y-51568301D02*
G01*
X110580693Y-51569201D01*
X110586643Y-51570691D01*
X110592418Y-51572758D01*
X110597962Y-51575380D01*
X110603223Y-51578533D01*
X110608150Y-51582187D01*
X110612694Y-51586306D01*
X110616813Y-51590850D01*
X110620467Y-51595777D01*
X110623620Y-51601038D01*
X110626242Y-51606582D01*
X110628309Y-51612357D01*
X110629799Y-51618307D01*
X110630699Y-51624374D01*
X110631000Y-51630500D01*
X110631000Y-52580500D01*
X110630699Y-52586626D01*
X110629799Y-52592693D01*
X110628309Y-52598643D01*
X110626242Y-52604418D01*
X110623620Y-52609962D01*
X110620467Y-52615223D01*
X110616813Y-52620150D01*
X110612694Y-52624694D01*
X110608150Y-52628813D01*
X110603223Y-52632467D01*
X110597962Y-52635620D01*
X110592418Y-52638242D01*
X110586643Y-52640309D01*
X110580693Y-52641799D01*
X110574626Y-52642699D01*
X110568500Y-52643000D01*
X110443500Y-52643000D01*
X110437374Y-52642699D01*
X110431307Y-52641799D01*
X110425357Y-52640309D01*
X110419582Y-52638242D01*
X110414038Y-52635620D01*
X110408777Y-52632467D01*
X110403850Y-52628813D01*
X110399306Y-52624694D01*
X110395187Y-52620150D01*
X110391533Y-52615223D01*
X110388380Y-52609962D01*
X110385758Y-52604418D01*
X110383691Y-52598643D01*
X110382201Y-52592693D01*
X110381301Y-52586626D01*
X110381000Y-52580500D01*
X110381000Y-51630500D01*
X110381301Y-51624374D01*
X110382201Y-51618307D01*
X110383691Y-51612357D01*
X110385758Y-51606582D01*
X110388380Y-51601038D01*
X110391533Y-51595777D01*
X110395187Y-51590850D01*
X110399306Y-51586306D01*
X110403850Y-51582187D01*
X110408777Y-51578533D01*
X110414038Y-51575380D01*
X110419582Y-51572758D01*
X110425357Y-51570691D01*
X110431307Y-51569201D01*
X110437374Y-51568301D01*
X110443500Y-51568000D01*
X110568500Y-51568000D01*
X110574626Y-51568301D01*
G37*
G36*
X110074626Y-51568301D02*
G01*
X110080693Y-51569201D01*
X110086643Y-51570691D01*
X110092418Y-51572758D01*
X110097962Y-51575380D01*
X110103223Y-51578533D01*
X110108150Y-51582187D01*
X110112694Y-51586306D01*
X110116813Y-51590850D01*
X110120467Y-51595777D01*
X110123620Y-51601038D01*
X110126242Y-51606582D01*
X110128309Y-51612357D01*
X110129799Y-51618307D01*
X110130699Y-51624374D01*
X110131000Y-51630500D01*
X110131000Y-52580500D01*
X110130699Y-52586626D01*
X110129799Y-52592693D01*
X110128309Y-52598643D01*
X110126242Y-52604418D01*
X110123620Y-52609962D01*
X110120467Y-52615223D01*
X110116813Y-52620150D01*
X110112694Y-52624694D01*
X110108150Y-52628813D01*
X110103223Y-52632467D01*
X110097962Y-52635620D01*
X110092418Y-52638242D01*
X110086643Y-52640309D01*
X110080693Y-52641799D01*
X110074626Y-52642699D01*
X110068500Y-52643000D01*
X109943500Y-52643000D01*
X109937374Y-52642699D01*
X109931307Y-52641799D01*
X109925357Y-52640309D01*
X109919582Y-52638242D01*
X109914038Y-52635620D01*
X109908777Y-52632467D01*
X109903850Y-52628813D01*
X109899306Y-52624694D01*
X109895187Y-52620150D01*
X109891533Y-52615223D01*
X109888380Y-52609962D01*
X109885758Y-52604418D01*
X109883691Y-52598643D01*
X109882201Y-52592693D01*
X109881301Y-52586626D01*
X109881000Y-52580500D01*
X109881000Y-51630500D01*
X109881301Y-51624374D01*
X109882201Y-51618307D01*
X109883691Y-51612357D01*
X109885758Y-51606582D01*
X109888380Y-51601038D01*
X109891533Y-51595777D01*
X109895187Y-51590850D01*
X109899306Y-51586306D01*
X109903850Y-51582187D01*
X109908777Y-51578533D01*
X109914038Y-51575380D01*
X109919582Y-51572758D01*
X109925357Y-51570691D01*
X109931307Y-51569201D01*
X109937374Y-51568301D01*
X109943500Y-51568000D01*
X110068500Y-51568000D01*
X110074626Y-51568301D01*
G37*
G36*
X109574626Y-51568301D02*
G01*
X109580693Y-51569201D01*
X109586643Y-51570691D01*
X109592418Y-51572758D01*
X109597962Y-51575380D01*
X109603223Y-51578533D01*
X109608150Y-51582187D01*
X109612694Y-51586306D01*
X109616813Y-51590850D01*
X109620467Y-51595777D01*
X109623620Y-51601038D01*
X109626242Y-51606582D01*
X109628309Y-51612357D01*
X109629799Y-51618307D01*
X109630699Y-51624374D01*
X109631000Y-51630500D01*
X109631000Y-52580500D01*
X109630699Y-52586626D01*
X109629799Y-52592693D01*
X109628309Y-52598643D01*
X109626242Y-52604418D01*
X109623620Y-52609962D01*
X109620467Y-52615223D01*
X109616813Y-52620150D01*
X109612694Y-52624694D01*
X109608150Y-52628813D01*
X109603223Y-52632467D01*
X109597962Y-52635620D01*
X109592418Y-52638242D01*
X109586643Y-52640309D01*
X109580693Y-52641799D01*
X109574626Y-52642699D01*
X109568500Y-52643000D01*
X109443500Y-52643000D01*
X109437374Y-52642699D01*
X109431307Y-52641799D01*
X109425357Y-52640309D01*
X109419582Y-52638242D01*
X109414038Y-52635620D01*
X109408777Y-52632467D01*
X109403850Y-52628813D01*
X109399306Y-52624694D01*
X109395187Y-52620150D01*
X109391533Y-52615223D01*
X109388380Y-52609962D01*
X109385758Y-52604418D01*
X109383691Y-52598643D01*
X109382201Y-52592693D01*
X109381301Y-52586626D01*
X109381000Y-52580500D01*
X109381000Y-51630500D01*
X109381301Y-51624374D01*
X109382201Y-51618307D01*
X109383691Y-51612357D01*
X109385758Y-51606582D01*
X109388380Y-51601038D01*
X109391533Y-51595777D01*
X109395187Y-51590850D01*
X109399306Y-51586306D01*
X109403850Y-51582187D01*
X109408777Y-51578533D01*
X109414038Y-51575380D01*
X109419582Y-51572758D01*
X109425357Y-51570691D01*
X109431307Y-51569201D01*
X109437374Y-51568301D01*
X109443500Y-51568000D01*
X109568500Y-51568000D01*
X109574626Y-51568301D01*
G37*
G36*
X109074626Y-51568301D02*
G01*
X109080693Y-51569201D01*
X109086643Y-51570691D01*
X109092418Y-51572758D01*
X109097962Y-51575380D01*
X109103223Y-51578533D01*
X109108150Y-51582187D01*
X109112694Y-51586306D01*
X109116813Y-51590850D01*
X109120467Y-51595777D01*
X109123620Y-51601038D01*
X109126242Y-51606582D01*
X109128309Y-51612357D01*
X109129799Y-51618307D01*
X109130699Y-51624374D01*
X109131000Y-51630500D01*
X109131000Y-52580500D01*
X109130699Y-52586626D01*
X109129799Y-52592693D01*
X109128309Y-52598643D01*
X109126242Y-52604418D01*
X109123620Y-52609962D01*
X109120467Y-52615223D01*
X109116813Y-52620150D01*
X109112694Y-52624694D01*
X109108150Y-52628813D01*
X109103223Y-52632467D01*
X109097962Y-52635620D01*
X109092418Y-52638242D01*
X109086643Y-52640309D01*
X109080693Y-52641799D01*
X109074626Y-52642699D01*
X109068500Y-52643000D01*
X108943500Y-52643000D01*
X108937374Y-52642699D01*
X108931307Y-52641799D01*
X108925357Y-52640309D01*
X108919582Y-52638242D01*
X108914038Y-52635620D01*
X108908777Y-52632467D01*
X108903850Y-52628813D01*
X108899306Y-52624694D01*
X108895187Y-52620150D01*
X108891533Y-52615223D01*
X108888380Y-52609962D01*
X108885758Y-52604418D01*
X108883691Y-52598643D01*
X108882201Y-52592693D01*
X108881301Y-52586626D01*
X108881000Y-52580500D01*
X108881000Y-51630500D01*
X108881301Y-51624374D01*
X108882201Y-51618307D01*
X108883691Y-51612357D01*
X108885758Y-51606582D01*
X108888380Y-51601038D01*
X108891533Y-51595777D01*
X108895187Y-51590850D01*
X108899306Y-51586306D01*
X108903850Y-51582187D01*
X108908777Y-51578533D01*
X108914038Y-51575380D01*
X108919582Y-51572758D01*
X108925357Y-51570691D01*
X108931307Y-51569201D01*
X108937374Y-51568301D01*
X108943500Y-51568000D01*
X109068500Y-51568000D01*
X109074626Y-51568301D01*
G37*
M02*
