G04 #@! TF.GenerationSoftware,KiCad,Pcbnew,(5.1.5)-3*
G04 #@! TF.CreationDate,2020-05-10T08:30:39+04:00*
G04 #@! TF.ProjectId,redox_rev2,7265646f-785f-4726-9576-322e6b696361,1.0*
G04 #@! TF.SameCoordinates,Original*
G04 #@! TF.FileFunction,Paste,Bot*
G04 #@! TF.FilePolarity,Positive*
%FSLAX46Y46*%
G04 Gerber Fmt 4.6, Leading zero omitted, Abs format (unit mm)*
G04 Created by KiCad (PCBNEW (5.1.5)-3) date 2020-05-10 08:30:39*
%MOMM*%
%LPD*%
G04 APERTURE LIST*
%ADD10R,0.700000X1.550000*%
%ADD11R,0.400000X1.550000*%
%ADD12R,0.900000X0.500000*%
%ADD13R,0.800000X0.900000*%
%ADD14R,1.300000X0.900000*%
%ADD15C,0.100000*%
%ADD16R,0.900000X1.300000*%
%ADD17R,0.750000X0.800000*%
%ADD18R,1.300000X1.100000*%
%ADD19R,1.300000X0.700000*%
%ADD20R,1.100000X1.300000*%
%ADD21R,0.700000X1.300000*%
%ADD22R,0.635000X1.143000*%
%ADD23R,1.000000X0.700000*%
%ADD24R,0.600000X0.700000*%
%ADD25R,1.400000X1.200000*%
G04 APERTURE END LIST*
D10*
X173425000Y-49095000D03*
X166975000Y-49095000D03*
X172650000Y-49095000D03*
X167750000Y-49095000D03*
D11*
X168450000Y-49095000D03*
X171950000Y-49095000D03*
X168950000Y-49095000D03*
X171450000Y-49095000D03*
X169450000Y-49095000D03*
X170950000Y-49095000D03*
X170450000Y-49095000D03*
X169950000Y-49095000D03*
D12*
X135700000Y-48250000D03*
X135700000Y-46750000D03*
D13*
X138800000Y-48750000D03*
X139750000Y-46750000D03*
X137850000Y-46750000D03*
D14*
X96647000Y-71662000D03*
X96647000Y-69562000D03*
X96647000Y-90712000D03*
X96647000Y-88612000D03*
X96647000Y-109762000D03*
X96647000Y-107662000D03*
X96647000Y-128812000D03*
X96647000Y-126712000D03*
X99187000Y-147862000D03*
X99187000Y-145762000D03*
X118237000Y-71662000D03*
X118237000Y-69562000D03*
X118237000Y-90712000D03*
X118237000Y-88612000D03*
X118237000Y-109762000D03*
X118237000Y-107662000D03*
X118237000Y-128812000D03*
X118237000Y-126712000D03*
X118200000Y-147862000D03*
X118200000Y-145762000D03*
X137300000Y-67217000D03*
X137300000Y-65117000D03*
X137300000Y-86267000D03*
X137300000Y-84167000D03*
X137287000Y-105317000D03*
X137287000Y-103217000D03*
X137287000Y-124367000D03*
X137287000Y-122267000D03*
X137287000Y-143417000D03*
X137287000Y-141317000D03*
X156337000Y-64677000D03*
X156337000Y-62577000D03*
X156337000Y-83727000D03*
X156337000Y-81627000D03*
X156300000Y-102777000D03*
X156300000Y-100677000D03*
X156337000Y-121827000D03*
X156337000Y-119727000D03*
X156337000Y-140877000D03*
X156337000Y-138777000D03*
X175387000Y-67217000D03*
X175387000Y-65117000D03*
X175387000Y-86267000D03*
X175387000Y-84167000D03*
X175387000Y-105317000D03*
X175387000Y-103217000D03*
X175400000Y-124367000D03*
X175400000Y-122267000D03*
D15*
G36*
X179810857Y-147096323D02*
G01*
X181066560Y-147432788D01*
X180833623Y-148302121D01*
X179577920Y-147965656D01*
X179810857Y-147096323D01*
G37*
G36*
X180354377Y-145067879D02*
G01*
X181610080Y-145404344D01*
X181377143Y-146273677D01*
X180121440Y-145937212D01*
X180354377Y-145067879D01*
G37*
D14*
X194437000Y-69122000D03*
X194437000Y-67022000D03*
X194437000Y-88172000D03*
X194437000Y-86072000D03*
X194400000Y-107095000D03*
X194400000Y-104995000D03*
X194400000Y-126272000D03*
X194400000Y-124172000D03*
D15*
G36*
X193861384Y-150267083D02*
G01*
X193211384Y-151392917D01*
X192431962Y-150942917D01*
X193081962Y-149817083D01*
X193861384Y-150267083D01*
G37*
G36*
X195680038Y-151317083D02*
G01*
X195030038Y-152442917D01*
X194250616Y-151992917D01*
X194900616Y-150867083D01*
X195680038Y-151317083D01*
G37*
D14*
X213487000Y-78647000D03*
X213487000Y-76547000D03*
D16*
X203293000Y-102997000D03*
X205393000Y-102997000D03*
D15*
G36*
X213837083Y-133594616D02*
G01*
X214962917Y-134244616D01*
X214512917Y-135024038D01*
X213387083Y-134374038D01*
X213837083Y-133594616D01*
G37*
G36*
X214887083Y-131775962D02*
G01*
X216012917Y-132425962D01*
X215562917Y-133205384D01*
X214437083Y-132555384D01*
X214887083Y-131775962D01*
G37*
G36*
X230277083Y-143323616D02*
G01*
X231402917Y-143973616D01*
X230952917Y-144753038D01*
X229827083Y-144103038D01*
X230277083Y-143323616D01*
G37*
G36*
X231327083Y-141504962D02*
G01*
X232452917Y-142154962D01*
X232002917Y-142934384D01*
X230877083Y-142284384D01*
X231327083Y-141504962D01*
G37*
G36*
X210371384Y-159792083D02*
G01*
X209721384Y-160917917D01*
X208941962Y-160467917D01*
X209591962Y-159342083D01*
X210371384Y-159792083D01*
G37*
G36*
X212190038Y-160842083D02*
G01*
X211540038Y-161967917D01*
X210760616Y-161517917D01*
X211410616Y-160392083D01*
X212190038Y-160842083D01*
G37*
D17*
X104700000Y-53450000D03*
X104700000Y-54950000D03*
D18*
X86106000Y-69716000D03*
X86106000Y-72016000D03*
D19*
X86106000Y-69466000D03*
X86106000Y-72266000D03*
D18*
X86100000Y-88750000D03*
X86100000Y-91050000D03*
D19*
X86100000Y-88500000D03*
X86100000Y-91300000D03*
D18*
X86100000Y-107850000D03*
X86100000Y-110150000D03*
D19*
X86100000Y-107600000D03*
X86100000Y-110400000D03*
D18*
X86100000Y-126850000D03*
X86100000Y-129150000D03*
D19*
X86100000Y-126600000D03*
X86100000Y-129400000D03*
D18*
X88700000Y-145950000D03*
X88700000Y-148250000D03*
D19*
X88700000Y-145700000D03*
X88700000Y-148500000D03*
D18*
X107696000Y-69716000D03*
X107696000Y-72016000D03*
D19*
X107696000Y-69466000D03*
X107696000Y-72266000D03*
D18*
X107700000Y-88800000D03*
X107700000Y-91100000D03*
D19*
X107700000Y-88550000D03*
X107700000Y-91350000D03*
D18*
X107700000Y-107850000D03*
X107700000Y-110150000D03*
D19*
X107700000Y-107600000D03*
X107700000Y-110400000D03*
D18*
X107700000Y-126850000D03*
X107700000Y-129150000D03*
D19*
X107700000Y-126600000D03*
X107700000Y-129400000D03*
D18*
X107700000Y-145900000D03*
X107700000Y-148200000D03*
D19*
X107700000Y-145650000D03*
X107700000Y-148450000D03*
D18*
X126746000Y-65250000D03*
X126746000Y-67550000D03*
D19*
X126746000Y-65000000D03*
X126746000Y-67800000D03*
D18*
X126800000Y-84350000D03*
X126800000Y-86650000D03*
D19*
X126800000Y-84100000D03*
X126800000Y-86900000D03*
D18*
X126800000Y-103350000D03*
X126800000Y-105650000D03*
D19*
X126800000Y-103100000D03*
X126800000Y-105900000D03*
D18*
X126800000Y-122450000D03*
X126800000Y-124750000D03*
D19*
X126800000Y-122200000D03*
X126800000Y-125000000D03*
D18*
X126800000Y-141450000D03*
X126800000Y-143750000D03*
D19*
X126800000Y-141200000D03*
X126800000Y-144000000D03*
D18*
X145796000Y-62604000D03*
X145796000Y-64904000D03*
D19*
X145796000Y-62354000D03*
X145796000Y-65154000D03*
D18*
X145800000Y-81750000D03*
X145800000Y-84050000D03*
D19*
X145800000Y-81500000D03*
X145800000Y-84300000D03*
D18*
X145800000Y-100850000D03*
X145800000Y-103150000D03*
D19*
X145800000Y-100600000D03*
X145800000Y-103400000D03*
D18*
X145800000Y-119850000D03*
X145800000Y-122150000D03*
D19*
X145800000Y-119600000D03*
X145800000Y-122400000D03*
D18*
X145800000Y-138900000D03*
X145800000Y-141200000D03*
D19*
X145800000Y-138650000D03*
X145800000Y-141450000D03*
D18*
X164846000Y-65250000D03*
X164846000Y-67550000D03*
D19*
X164846000Y-65000000D03*
X164846000Y-67800000D03*
D18*
X164900000Y-84350000D03*
X164900000Y-86650000D03*
D19*
X164900000Y-84100000D03*
X164900000Y-86900000D03*
D18*
X164900000Y-103350000D03*
X164900000Y-105650000D03*
D19*
X164900000Y-103100000D03*
X164900000Y-105900000D03*
D18*
X164900000Y-122450000D03*
X164900000Y-124750000D03*
D19*
X164900000Y-122200000D03*
X164900000Y-125000000D03*
D15*
G36*
X171080785Y-143877862D02*
G01*
X169825082Y-143541397D01*
X170109783Y-142478878D01*
X171365486Y-142815343D01*
X171080785Y-143877862D01*
G37*
G36*
X170485501Y-146099492D02*
G01*
X169229798Y-145763027D01*
X169514499Y-144700508D01*
X170770202Y-145036973D01*
X170485501Y-146099492D01*
G37*
G36*
X171197254Y-143443195D02*
G01*
X169941551Y-143106731D01*
X170122724Y-142430583D01*
X171378427Y-142767047D01*
X171197254Y-143443195D01*
G37*
G36*
X170472560Y-146147787D02*
G01*
X169216857Y-145811323D01*
X169398030Y-145135175D01*
X170653733Y-145471639D01*
X170472560Y-146147787D01*
G37*
D18*
X183900000Y-67150000D03*
X183900000Y-69450000D03*
D19*
X183900000Y-66900000D03*
X183900000Y-69700000D03*
D18*
X183900000Y-86250000D03*
X183900000Y-88550000D03*
D19*
X183900000Y-86000000D03*
X183900000Y-88800000D03*
D18*
X183900000Y-105250000D03*
X183900000Y-107550000D03*
D19*
X183900000Y-105000000D03*
X183900000Y-107800000D03*
D18*
X183900000Y-124350000D03*
X183900000Y-126650000D03*
D19*
X183900000Y-124100000D03*
X183900000Y-126900000D03*
D15*
G36*
X199194615Y-142762917D02*
G01*
X199844615Y-141637083D01*
X200797243Y-142187083D01*
X200147243Y-143312917D01*
X199194615Y-142762917D01*
G37*
G36*
X197202757Y-141612917D02*
G01*
X197852757Y-140487083D01*
X198805385Y-141037083D01*
X198155385Y-142162917D01*
X197202757Y-141612917D01*
G37*
G36*
X199584327Y-142987917D02*
G01*
X200234327Y-141862083D01*
X200840545Y-142212083D01*
X200190545Y-143337917D01*
X199584327Y-142987917D01*
G37*
G36*
X197159455Y-141587917D02*
G01*
X197809455Y-140462083D01*
X198415673Y-140812083D01*
X197765673Y-141937917D01*
X197159455Y-141587917D01*
G37*
D18*
X202946000Y-76650000D03*
X202946000Y-78950000D03*
D19*
X202946000Y-76400000D03*
X202946000Y-79200000D03*
D20*
X205250000Y-92456000D03*
X202950000Y-92456000D03*
D21*
X205500000Y-92456000D03*
X202700000Y-92456000D03*
D15*
G36*
X206262917Y-128405385D02*
G01*
X205137083Y-127755385D01*
X205687083Y-126802757D01*
X206812917Y-127452757D01*
X206262917Y-128405385D01*
G37*
G36*
X205112917Y-130397243D02*
G01*
X203987083Y-129747243D01*
X204537083Y-128794615D01*
X205662917Y-129444615D01*
X205112917Y-130397243D01*
G37*
G36*
X206487917Y-128015673D02*
G01*
X205362083Y-127365673D01*
X205712083Y-126759455D01*
X206837917Y-127409455D01*
X206487917Y-128015673D01*
G37*
G36*
X205087917Y-130440545D02*
G01*
X203962083Y-129790545D01*
X204312083Y-129184327D01*
X205437917Y-129834327D01*
X205087917Y-130440545D01*
G37*
G36*
X222762917Y-137905385D02*
G01*
X221637083Y-137255385D01*
X222187083Y-136302757D01*
X223312917Y-136952757D01*
X222762917Y-137905385D01*
G37*
G36*
X221612917Y-139897243D02*
G01*
X220487083Y-139247243D01*
X221037083Y-138294615D01*
X222162917Y-138944615D01*
X221612917Y-139897243D01*
G37*
G36*
X222987917Y-137515673D02*
G01*
X221862083Y-136865673D01*
X222212083Y-136259455D01*
X223337917Y-136909455D01*
X222987917Y-137515673D01*
G37*
G36*
X221587917Y-139940545D02*
G01*
X220462083Y-139290545D01*
X220812083Y-138684327D01*
X221937917Y-139334327D01*
X221587917Y-139940545D01*
G37*
G36*
X215690544Y-152237917D02*
G01*
X216340544Y-151112083D01*
X217293172Y-151662083D01*
X216643172Y-152787917D01*
X215690544Y-152237917D01*
G37*
G36*
X213698686Y-151087917D02*
G01*
X214348686Y-149962083D01*
X215301314Y-150512083D01*
X214651314Y-151637917D01*
X213698686Y-151087917D01*
G37*
G36*
X216080256Y-152462917D02*
G01*
X216730256Y-151337083D01*
X217336474Y-151687083D01*
X216686474Y-152812917D01*
X216080256Y-152462917D01*
G37*
G36*
X213655384Y-151062917D02*
G01*
X214305384Y-149937083D01*
X214911602Y-150287083D01*
X214261602Y-151412917D01*
X213655384Y-151062917D01*
G37*
D22*
X86735380Y-48848000D03*
X85734620Y-48848000D03*
X86735380Y-46308000D03*
X85734620Y-46308000D03*
X86735380Y-43741000D03*
X85734620Y-43741000D03*
X86735380Y-41201000D03*
X85734620Y-41201000D03*
D23*
X132450000Y-48600000D03*
D24*
X132650000Y-46600000D03*
X130750000Y-48600000D03*
X130750000Y-46600000D03*
D25*
X113000000Y-39280000D03*
X110800000Y-39280000D03*
X110800000Y-40980000D03*
X113000000Y-40980000D03*
D17*
X115000000Y-39250000D03*
X115000000Y-40750000D03*
X108700000Y-39400000D03*
X108700000Y-40900000D03*
X155150000Y-45567900D03*
X155150000Y-47067900D03*
X104150000Y-48502000D03*
X104150000Y-47002000D03*
X153600000Y-45550000D03*
X153600000Y-47050000D03*
D12*
X163850000Y-46050000D03*
X163850000Y-44550000D03*
X176850000Y-46100000D03*
X176850000Y-44600000D03*
X126650000Y-46900000D03*
X126650000Y-48400000D03*
X128450000Y-46900000D03*
X128450000Y-48400000D03*
X103632000Y-40882000D03*
X103632000Y-39382000D03*
X117284500Y-54050500D03*
X117284500Y-55550500D03*
D15*
G36*
X158399505Y-47613704D02*
G01*
X158423773Y-47617304D01*
X158447572Y-47623265D01*
X158470671Y-47631530D01*
X158492850Y-47642020D01*
X158513893Y-47654632D01*
X158533599Y-47669247D01*
X158551777Y-47685723D01*
X158568253Y-47703901D01*
X158582868Y-47723607D01*
X158595480Y-47744650D01*
X158605970Y-47766829D01*
X158614235Y-47789928D01*
X158620196Y-47813727D01*
X158623796Y-47837995D01*
X158625000Y-47862499D01*
X158625000Y-48937501D01*
X158623796Y-48962005D01*
X158620196Y-48986273D01*
X158614235Y-49010072D01*
X158605970Y-49033171D01*
X158595480Y-49055350D01*
X158582868Y-49076393D01*
X158568253Y-49096099D01*
X158551777Y-49114277D01*
X158533599Y-49130753D01*
X158513893Y-49145368D01*
X158492850Y-49157980D01*
X158470671Y-49168470D01*
X158447572Y-49176735D01*
X158423773Y-49182696D01*
X158399505Y-49186296D01*
X158375001Y-49187500D01*
X157524999Y-49187500D01*
X157500495Y-49186296D01*
X157476227Y-49182696D01*
X157452428Y-49176735D01*
X157429329Y-49168470D01*
X157407150Y-49157980D01*
X157386107Y-49145368D01*
X157366401Y-49130753D01*
X157348223Y-49114277D01*
X157331747Y-49096099D01*
X157317132Y-49076393D01*
X157304520Y-49055350D01*
X157294030Y-49033171D01*
X157285765Y-49010072D01*
X157279804Y-48986273D01*
X157276204Y-48962005D01*
X157275000Y-48937501D01*
X157275000Y-47862499D01*
X157276204Y-47837995D01*
X157279804Y-47813727D01*
X157285765Y-47789928D01*
X157294030Y-47766829D01*
X157304520Y-47744650D01*
X157317132Y-47723607D01*
X157331747Y-47703901D01*
X157348223Y-47685723D01*
X157366401Y-47669247D01*
X157386107Y-47654632D01*
X157407150Y-47642020D01*
X157429329Y-47631530D01*
X157452428Y-47623265D01*
X157476227Y-47617304D01*
X157500495Y-47613704D01*
X157524999Y-47612500D01*
X158375001Y-47612500D01*
X158399505Y-47613704D01*
G37*
G36*
X158399505Y-44738704D02*
G01*
X158423773Y-44742304D01*
X158447572Y-44748265D01*
X158470671Y-44756530D01*
X158492850Y-44767020D01*
X158513893Y-44779632D01*
X158533599Y-44794247D01*
X158551777Y-44810723D01*
X158568253Y-44828901D01*
X158582868Y-44848607D01*
X158595480Y-44869650D01*
X158605970Y-44891829D01*
X158614235Y-44914928D01*
X158620196Y-44938727D01*
X158623796Y-44962995D01*
X158625000Y-44987499D01*
X158625000Y-46062501D01*
X158623796Y-46087005D01*
X158620196Y-46111273D01*
X158614235Y-46135072D01*
X158605970Y-46158171D01*
X158595480Y-46180350D01*
X158582868Y-46201393D01*
X158568253Y-46221099D01*
X158551777Y-46239277D01*
X158533599Y-46255753D01*
X158513893Y-46270368D01*
X158492850Y-46282980D01*
X158470671Y-46293470D01*
X158447572Y-46301735D01*
X158423773Y-46307696D01*
X158399505Y-46311296D01*
X158375001Y-46312500D01*
X157524999Y-46312500D01*
X157500495Y-46311296D01*
X157476227Y-46307696D01*
X157452428Y-46301735D01*
X157429329Y-46293470D01*
X157407150Y-46282980D01*
X157386107Y-46270368D01*
X157366401Y-46255753D01*
X157348223Y-46239277D01*
X157331747Y-46221099D01*
X157317132Y-46201393D01*
X157304520Y-46180350D01*
X157294030Y-46158171D01*
X157285765Y-46135072D01*
X157279804Y-46111273D01*
X157276204Y-46087005D01*
X157275000Y-46062501D01*
X157275000Y-44987499D01*
X157276204Y-44962995D01*
X157279804Y-44938727D01*
X157285765Y-44914928D01*
X157294030Y-44891829D01*
X157304520Y-44869650D01*
X157317132Y-44848607D01*
X157331747Y-44828901D01*
X157348223Y-44810723D01*
X157366401Y-44794247D01*
X157386107Y-44779632D01*
X157407150Y-44767020D01*
X157429329Y-44756530D01*
X157452428Y-44748265D01*
X157476227Y-44742304D01*
X157500495Y-44738704D01*
X157524999Y-44737500D01*
X158375001Y-44737500D01*
X158399505Y-44738704D01*
G37*
G36*
X167274504Y-50626204D02*
G01*
X167298773Y-50629804D01*
X167322571Y-50635765D01*
X167345671Y-50644030D01*
X167367849Y-50654520D01*
X167388893Y-50667133D01*
X167408598Y-50681747D01*
X167426777Y-50698223D01*
X167443253Y-50716402D01*
X167457867Y-50736107D01*
X167470480Y-50757151D01*
X167480970Y-50779329D01*
X167489235Y-50802429D01*
X167495196Y-50826227D01*
X167498796Y-50850496D01*
X167500000Y-50875000D01*
X167500000Y-52125000D01*
X167498796Y-52149504D01*
X167495196Y-52173773D01*
X167489235Y-52197571D01*
X167480970Y-52220671D01*
X167470480Y-52242849D01*
X167457867Y-52263893D01*
X167443253Y-52283598D01*
X167426777Y-52301777D01*
X167408598Y-52318253D01*
X167388893Y-52332867D01*
X167367849Y-52345480D01*
X167345671Y-52355970D01*
X167322571Y-52364235D01*
X167298773Y-52370196D01*
X167274504Y-52373796D01*
X167250000Y-52375000D01*
X166325000Y-52375000D01*
X166300496Y-52373796D01*
X166276227Y-52370196D01*
X166252429Y-52364235D01*
X166229329Y-52355970D01*
X166207151Y-52345480D01*
X166186107Y-52332867D01*
X166166402Y-52318253D01*
X166148223Y-52301777D01*
X166131747Y-52283598D01*
X166117133Y-52263893D01*
X166104520Y-52242849D01*
X166094030Y-52220671D01*
X166085765Y-52197571D01*
X166079804Y-52173773D01*
X166076204Y-52149504D01*
X166075000Y-52125000D01*
X166075000Y-50875000D01*
X166076204Y-50850496D01*
X166079804Y-50826227D01*
X166085765Y-50802429D01*
X166094030Y-50779329D01*
X166104520Y-50757151D01*
X166117133Y-50736107D01*
X166131747Y-50716402D01*
X166148223Y-50698223D01*
X166166402Y-50681747D01*
X166186107Y-50667133D01*
X166207151Y-50654520D01*
X166229329Y-50644030D01*
X166252429Y-50635765D01*
X166276227Y-50629804D01*
X166300496Y-50626204D01*
X166325000Y-50625000D01*
X167250000Y-50625000D01*
X167274504Y-50626204D01*
G37*
G36*
X164299504Y-50626204D02*
G01*
X164323773Y-50629804D01*
X164347571Y-50635765D01*
X164370671Y-50644030D01*
X164392849Y-50654520D01*
X164413893Y-50667133D01*
X164433598Y-50681747D01*
X164451777Y-50698223D01*
X164468253Y-50716402D01*
X164482867Y-50736107D01*
X164495480Y-50757151D01*
X164505970Y-50779329D01*
X164514235Y-50802429D01*
X164520196Y-50826227D01*
X164523796Y-50850496D01*
X164525000Y-50875000D01*
X164525000Y-52125000D01*
X164523796Y-52149504D01*
X164520196Y-52173773D01*
X164514235Y-52197571D01*
X164505970Y-52220671D01*
X164495480Y-52242849D01*
X164482867Y-52263893D01*
X164468253Y-52283598D01*
X164451777Y-52301777D01*
X164433598Y-52318253D01*
X164413893Y-52332867D01*
X164392849Y-52345480D01*
X164370671Y-52355970D01*
X164347571Y-52364235D01*
X164323773Y-52370196D01*
X164299504Y-52373796D01*
X164275000Y-52375000D01*
X163350000Y-52375000D01*
X163325496Y-52373796D01*
X163301227Y-52370196D01*
X163277429Y-52364235D01*
X163254329Y-52355970D01*
X163232151Y-52345480D01*
X163211107Y-52332867D01*
X163191402Y-52318253D01*
X163173223Y-52301777D01*
X163156747Y-52283598D01*
X163142133Y-52263893D01*
X163129520Y-52242849D01*
X163119030Y-52220671D01*
X163110765Y-52197571D01*
X163104804Y-52173773D01*
X163101204Y-52149504D01*
X163100000Y-52125000D01*
X163100000Y-50875000D01*
X163101204Y-50850496D01*
X163104804Y-50826227D01*
X163110765Y-50802429D01*
X163119030Y-50779329D01*
X163129520Y-50757151D01*
X163142133Y-50736107D01*
X163156747Y-50716402D01*
X163173223Y-50698223D01*
X163191402Y-50681747D01*
X163211107Y-50667133D01*
X163232151Y-50654520D01*
X163254329Y-50644030D01*
X163277429Y-50635765D01*
X163301227Y-50629804D01*
X163325496Y-50626204D01*
X163350000Y-50625000D01*
X164275000Y-50625000D01*
X164299504Y-50626204D01*
G37*
G36*
X110021493Y-50028216D02*
G01*
X110045761Y-50031816D01*
X110069560Y-50037777D01*
X110092659Y-50046042D01*
X110114838Y-50056532D01*
X110135881Y-50069144D01*
X110155587Y-50083759D01*
X110173765Y-50100235D01*
X110190241Y-50118413D01*
X110204856Y-50138119D01*
X110217468Y-50159162D01*
X110227958Y-50181341D01*
X110236223Y-50204440D01*
X110242184Y-50228239D01*
X110245784Y-50252507D01*
X110246988Y-50277011D01*
X110246988Y-50783989D01*
X110245784Y-50808493D01*
X110242184Y-50832761D01*
X110236223Y-50856560D01*
X110227958Y-50879659D01*
X110217468Y-50901838D01*
X110204856Y-50922881D01*
X110190241Y-50942587D01*
X110173765Y-50960765D01*
X110155587Y-50977241D01*
X110135881Y-50991856D01*
X110114838Y-51004468D01*
X110092659Y-51014958D01*
X110069560Y-51023223D01*
X110045761Y-51029184D01*
X110021493Y-51032784D01*
X109996989Y-51033988D01*
X109490011Y-51033988D01*
X109465507Y-51032784D01*
X109441239Y-51029184D01*
X109417440Y-51023223D01*
X109394341Y-51014958D01*
X109372162Y-51004468D01*
X109351119Y-50991856D01*
X109331413Y-50977241D01*
X109313235Y-50960765D01*
X109296759Y-50942587D01*
X109282144Y-50922881D01*
X109269532Y-50901838D01*
X109259042Y-50879659D01*
X109250777Y-50856560D01*
X109244816Y-50832761D01*
X109241216Y-50808493D01*
X109240012Y-50783989D01*
X109240012Y-50277011D01*
X109241216Y-50252507D01*
X109244816Y-50228239D01*
X109250777Y-50204440D01*
X109259042Y-50181341D01*
X109269532Y-50159162D01*
X109282144Y-50138119D01*
X109296759Y-50118413D01*
X109313235Y-50100235D01*
X109331413Y-50083759D01*
X109351119Y-50069144D01*
X109372162Y-50056532D01*
X109394341Y-50046042D01*
X109417440Y-50037777D01*
X109441239Y-50031816D01*
X109465507Y-50028216D01*
X109490011Y-50027012D01*
X109996989Y-50027012D01*
X110021493Y-50028216D01*
G37*
G36*
X110021493Y-48853216D02*
G01*
X110045761Y-48856816D01*
X110069560Y-48862777D01*
X110092659Y-48871042D01*
X110114838Y-48881532D01*
X110135881Y-48894144D01*
X110155587Y-48908759D01*
X110173765Y-48925235D01*
X110190241Y-48943413D01*
X110204856Y-48963119D01*
X110217468Y-48984162D01*
X110227958Y-49006341D01*
X110236223Y-49029440D01*
X110242184Y-49053239D01*
X110245784Y-49077507D01*
X110246988Y-49102011D01*
X110246988Y-49608989D01*
X110245784Y-49633493D01*
X110242184Y-49657761D01*
X110236223Y-49681560D01*
X110227958Y-49704659D01*
X110217468Y-49726838D01*
X110204856Y-49747881D01*
X110190241Y-49767587D01*
X110173765Y-49785765D01*
X110155587Y-49802241D01*
X110135881Y-49816856D01*
X110114838Y-49829468D01*
X110092659Y-49839958D01*
X110069560Y-49848223D01*
X110045761Y-49854184D01*
X110021493Y-49857784D01*
X109996989Y-49858988D01*
X109490011Y-49858988D01*
X109465507Y-49857784D01*
X109441239Y-49854184D01*
X109417440Y-49848223D01*
X109394341Y-49839958D01*
X109372162Y-49829468D01*
X109351119Y-49816856D01*
X109331413Y-49802241D01*
X109313235Y-49785765D01*
X109296759Y-49767587D01*
X109282144Y-49747881D01*
X109269532Y-49726838D01*
X109259042Y-49704659D01*
X109250777Y-49681560D01*
X109244816Y-49657761D01*
X109241216Y-49633493D01*
X109240012Y-49608989D01*
X109240012Y-49102011D01*
X109241216Y-49077507D01*
X109244816Y-49053239D01*
X109250777Y-49029440D01*
X109259042Y-49006341D01*
X109269532Y-48984162D01*
X109282144Y-48963119D01*
X109296759Y-48943413D01*
X109313235Y-48925235D01*
X109331413Y-48908759D01*
X109351119Y-48894144D01*
X109372162Y-48881532D01*
X109394341Y-48871042D01*
X109417440Y-48862777D01*
X109441239Y-48856816D01*
X109465507Y-48853216D01*
X109490011Y-48852012D01*
X109996989Y-48852012D01*
X110021493Y-48853216D01*
G37*
G36*
X110021493Y-47678216D02*
G01*
X110045761Y-47681816D01*
X110069560Y-47687777D01*
X110092659Y-47696042D01*
X110114838Y-47706532D01*
X110135881Y-47719144D01*
X110155587Y-47733759D01*
X110173765Y-47750235D01*
X110190241Y-47768413D01*
X110204856Y-47788119D01*
X110217468Y-47809162D01*
X110227958Y-47831341D01*
X110236223Y-47854440D01*
X110242184Y-47878239D01*
X110245784Y-47902507D01*
X110246988Y-47927011D01*
X110246988Y-48433989D01*
X110245784Y-48458493D01*
X110242184Y-48482761D01*
X110236223Y-48506560D01*
X110227958Y-48529659D01*
X110217468Y-48551838D01*
X110204856Y-48572881D01*
X110190241Y-48592587D01*
X110173765Y-48610765D01*
X110155587Y-48627241D01*
X110135881Y-48641856D01*
X110114838Y-48654468D01*
X110092659Y-48664958D01*
X110069560Y-48673223D01*
X110045761Y-48679184D01*
X110021493Y-48682784D01*
X109996989Y-48683988D01*
X109490011Y-48683988D01*
X109465507Y-48682784D01*
X109441239Y-48679184D01*
X109417440Y-48673223D01*
X109394341Y-48664958D01*
X109372162Y-48654468D01*
X109351119Y-48641856D01*
X109331413Y-48627241D01*
X109313235Y-48610765D01*
X109296759Y-48592587D01*
X109282144Y-48572881D01*
X109269532Y-48551838D01*
X109259042Y-48529659D01*
X109250777Y-48506560D01*
X109244816Y-48482761D01*
X109241216Y-48458493D01*
X109240012Y-48433989D01*
X109240012Y-47927011D01*
X109241216Y-47902507D01*
X109244816Y-47878239D01*
X109250777Y-47854440D01*
X109259042Y-47831341D01*
X109269532Y-47809162D01*
X109282144Y-47788119D01*
X109296759Y-47768413D01*
X109313235Y-47750235D01*
X109331413Y-47733759D01*
X109351119Y-47719144D01*
X109372162Y-47706532D01*
X109394341Y-47696042D01*
X109417440Y-47687777D01*
X109441239Y-47681816D01*
X109465507Y-47678216D01*
X109490011Y-47677012D01*
X109996989Y-47677012D01*
X110021493Y-47678216D01*
G37*
G36*
X110021493Y-46503216D02*
G01*
X110045761Y-46506816D01*
X110069560Y-46512777D01*
X110092659Y-46521042D01*
X110114838Y-46531532D01*
X110135881Y-46544144D01*
X110155587Y-46558759D01*
X110173765Y-46575235D01*
X110190241Y-46593413D01*
X110204856Y-46613119D01*
X110217468Y-46634162D01*
X110227958Y-46656341D01*
X110236223Y-46679440D01*
X110242184Y-46703239D01*
X110245784Y-46727507D01*
X110246988Y-46752011D01*
X110246988Y-47258989D01*
X110245784Y-47283493D01*
X110242184Y-47307761D01*
X110236223Y-47331560D01*
X110227958Y-47354659D01*
X110217468Y-47376838D01*
X110204856Y-47397881D01*
X110190241Y-47417587D01*
X110173765Y-47435765D01*
X110155587Y-47452241D01*
X110135881Y-47466856D01*
X110114838Y-47479468D01*
X110092659Y-47489958D01*
X110069560Y-47498223D01*
X110045761Y-47504184D01*
X110021493Y-47507784D01*
X109996989Y-47508988D01*
X109490011Y-47508988D01*
X109465507Y-47507784D01*
X109441239Y-47504184D01*
X109417440Y-47498223D01*
X109394341Y-47489958D01*
X109372162Y-47479468D01*
X109351119Y-47466856D01*
X109331413Y-47452241D01*
X109313235Y-47435765D01*
X109296759Y-47417587D01*
X109282144Y-47397881D01*
X109269532Y-47376838D01*
X109259042Y-47354659D01*
X109250777Y-47331560D01*
X109244816Y-47307761D01*
X109241216Y-47283493D01*
X109240012Y-47258989D01*
X109240012Y-46752011D01*
X109241216Y-46727507D01*
X109244816Y-46703239D01*
X109250777Y-46679440D01*
X109259042Y-46656341D01*
X109269532Y-46634162D01*
X109282144Y-46613119D01*
X109296759Y-46593413D01*
X109313235Y-46575235D01*
X109331413Y-46558759D01*
X109351119Y-46544144D01*
X109372162Y-46531532D01*
X109394341Y-46521042D01*
X109417440Y-46512777D01*
X109441239Y-46506816D01*
X109465507Y-46503216D01*
X109490011Y-46502012D01*
X109996989Y-46502012D01*
X110021493Y-46503216D01*
G37*
G36*
X111196493Y-50028216D02*
G01*
X111220761Y-50031816D01*
X111244560Y-50037777D01*
X111267659Y-50046042D01*
X111289838Y-50056532D01*
X111310881Y-50069144D01*
X111330587Y-50083759D01*
X111348765Y-50100235D01*
X111365241Y-50118413D01*
X111379856Y-50138119D01*
X111392468Y-50159162D01*
X111402958Y-50181341D01*
X111411223Y-50204440D01*
X111417184Y-50228239D01*
X111420784Y-50252507D01*
X111421988Y-50277011D01*
X111421988Y-50783989D01*
X111420784Y-50808493D01*
X111417184Y-50832761D01*
X111411223Y-50856560D01*
X111402958Y-50879659D01*
X111392468Y-50901838D01*
X111379856Y-50922881D01*
X111365241Y-50942587D01*
X111348765Y-50960765D01*
X111330587Y-50977241D01*
X111310881Y-50991856D01*
X111289838Y-51004468D01*
X111267659Y-51014958D01*
X111244560Y-51023223D01*
X111220761Y-51029184D01*
X111196493Y-51032784D01*
X111171989Y-51033988D01*
X110665011Y-51033988D01*
X110640507Y-51032784D01*
X110616239Y-51029184D01*
X110592440Y-51023223D01*
X110569341Y-51014958D01*
X110547162Y-51004468D01*
X110526119Y-50991856D01*
X110506413Y-50977241D01*
X110488235Y-50960765D01*
X110471759Y-50942587D01*
X110457144Y-50922881D01*
X110444532Y-50901838D01*
X110434042Y-50879659D01*
X110425777Y-50856560D01*
X110419816Y-50832761D01*
X110416216Y-50808493D01*
X110415012Y-50783989D01*
X110415012Y-50277011D01*
X110416216Y-50252507D01*
X110419816Y-50228239D01*
X110425777Y-50204440D01*
X110434042Y-50181341D01*
X110444532Y-50159162D01*
X110457144Y-50138119D01*
X110471759Y-50118413D01*
X110488235Y-50100235D01*
X110506413Y-50083759D01*
X110526119Y-50069144D01*
X110547162Y-50056532D01*
X110569341Y-50046042D01*
X110592440Y-50037777D01*
X110616239Y-50031816D01*
X110640507Y-50028216D01*
X110665011Y-50027012D01*
X111171989Y-50027012D01*
X111196493Y-50028216D01*
G37*
G36*
X111196493Y-48853216D02*
G01*
X111220761Y-48856816D01*
X111244560Y-48862777D01*
X111267659Y-48871042D01*
X111289838Y-48881532D01*
X111310881Y-48894144D01*
X111330587Y-48908759D01*
X111348765Y-48925235D01*
X111365241Y-48943413D01*
X111379856Y-48963119D01*
X111392468Y-48984162D01*
X111402958Y-49006341D01*
X111411223Y-49029440D01*
X111417184Y-49053239D01*
X111420784Y-49077507D01*
X111421988Y-49102011D01*
X111421988Y-49608989D01*
X111420784Y-49633493D01*
X111417184Y-49657761D01*
X111411223Y-49681560D01*
X111402958Y-49704659D01*
X111392468Y-49726838D01*
X111379856Y-49747881D01*
X111365241Y-49767587D01*
X111348765Y-49785765D01*
X111330587Y-49802241D01*
X111310881Y-49816856D01*
X111289838Y-49829468D01*
X111267659Y-49839958D01*
X111244560Y-49848223D01*
X111220761Y-49854184D01*
X111196493Y-49857784D01*
X111171989Y-49858988D01*
X110665011Y-49858988D01*
X110640507Y-49857784D01*
X110616239Y-49854184D01*
X110592440Y-49848223D01*
X110569341Y-49839958D01*
X110547162Y-49829468D01*
X110526119Y-49816856D01*
X110506413Y-49802241D01*
X110488235Y-49785765D01*
X110471759Y-49767587D01*
X110457144Y-49747881D01*
X110444532Y-49726838D01*
X110434042Y-49704659D01*
X110425777Y-49681560D01*
X110419816Y-49657761D01*
X110416216Y-49633493D01*
X110415012Y-49608989D01*
X110415012Y-49102011D01*
X110416216Y-49077507D01*
X110419816Y-49053239D01*
X110425777Y-49029440D01*
X110434042Y-49006341D01*
X110444532Y-48984162D01*
X110457144Y-48963119D01*
X110471759Y-48943413D01*
X110488235Y-48925235D01*
X110506413Y-48908759D01*
X110526119Y-48894144D01*
X110547162Y-48881532D01*
X110569341Y-48871042D01*
X110592440Y-48862777D01*
X110616239Y-48856816D01*
X110640507Y-48853216D01*
X110665011Y-48852012D01*
X111171989Y-48852012D01*
X111196493Y-48853216D01*
G37*
G36*
X111196493Y-47678216D02*
G01*
X111220761Y-47681816D01*
X111244560Y-47687777D01*
X111267659Y-47696042D01*
X111289838Y-47706532D01*
X111310881Y-47719144D01*
X111330587Y-47733759D01*
X111348765Y-47750235D01*
X111365241Y-47768413D01*
X111379856Y-47788119D01*
X111392468Y-47809162D01*
X111402958Y-47831341D01*
X111411223Y-47854440D01*
X111417184Y-47878239D01*
X111420784Y-47902507D01*
X111421988Y-47927011D01*
X111421988Y-48433989D01*
X111420784Y-48458493D01*
X111417184Y-48482761D01*
X111411223Y-48506560D01*
X111402958Y-48529659D01*
X111392468Y-48551838D01*
X111379856Y-48572881D01*
X111365241Y-48592587D01*
X111348765Y-48610765D01*
X111330587Y-48627241D01*
X111310881Y-48641856D01*
X111289838Y-48654468D01*
X111267659Y-48664958D01*
X111244560Y-48673223D01*
X111220761Y-48679184D01*
X111196493Y-48682784D01*
X111171989Y-48683988D01*
X110665011Y-48683988D01*
X110640507Y-48682784D01*
X110616239Y-48679184D01*
X110592440Y-48673223D01*
X110569341Y-48664958D01*
X110547162Y-48654468D01*
X110526119Y-48641856D01*
X110506413Y-48627241D01*
X110488235Y-48610765D01*
X110471759Y-48592587D01*
X110457144Y-48572881D01*
X110444532Y-48551838D01*
X110434042Y-48529659D01*
X110425777Y-48506560D01*
X110419816Y-48482761D01*
X110416216Y-48458493D01*
X110415012Y-48433989D01*
X110415012Y-47927011D01*
X110416216Y-47902507D01*
X110419816Y-47878239D01*
X110425777Y-47854440D01*
X110434042Y-47831341D01*
X110444532Y-47809162D01*
X110457144Y-47788119D01*
X110471759Y-47768413D01*
X110488235Y-47750235D01*
X110506413Y-47733759D01*
X110526119Y-47719144D01*
X110547162Y-47706532D01*
X110569341Y-47696042D01*
X110592440Y-47687777D01*
X110616239Y-47681816D01*
X110640507Y-47678216D01*
X110665011Y-47677012D01*
X111171989Y-47677012D01*
X111196493Y-47678216D01*
G37*
G36*
X111196493Y-46503216D02*
G01*
X111220761Y-46506816D01*
X111244560Y-46512777D01*
X111267659Y-46521042D01*
X111289838Y-46531532D01*
X111310881Y-46544144D01*
X111330587Y-46558759D01*
X111348765Y-46575235D01*
X111365241Y-46593413D01*
X111379856Y-46613119D01*
X111392468Y-46634162D01*
X111402958Y-46656341D01*
X111411223Y-46679440D01*
X111417184Y-46703239D01*
X111420784Y-46727507D01*
X111421988Y-46752011D01*
X111421988Y-47258989D01*
X111420784Y-47283493D01*
X111417184Y-47307761D01*
X111411223Y-47331560D01*
X111402958Y-47354659D01*
X111392468Y-47376838D01*
X111379856Y-47397881D01*
X111365241Y-47417587D01*
X111348765Y-47435765D01*
X111330587Y-47452241D01*
X111310881Y-47466856D01*
X111289838Y-47479468D01*
X111267659Y-47489958D01*
X111244560Y-47498223D01*
X111220761Y-47504184D01*
X111196493Y-47507784D01*
X111171989Y-47508988D01*
X110665011Y-47508988D01*
X110640507Y-47507784D01*
X110616239Y-47504184D01*
X110592440Y-47498223D01*
X110569341Y-47489958D01*
X110547162Y-47479468D01*
X110526119Y-47466856D01*
X110506413Y-47452241D01*
X110488235Y-47435765D01*
X110471759Y-47417587D01*
X110457144Y-47397881D01*
X110444532Y-47376838D01*
X110434042Y-47354659D01*
X110425777Y-47331560D01*
X110419816Y-47307761D01*
X110416216Y-47283493D01*
X110415012Y-47258989D01*
X110415012Y-46752011D01*
X110416216Y-46727507D01*
X110419816Y-46703239D01*
X110425777Y-46679440D01*
X110434042Y-46656341D01*
X110444532Y-46634162D01*
X110457144Y-46613119D01*
X110471759Y-46593413D01*
X110488235Y-46575235D01*
X110506413Y-46558759D01*
X110526119Y-46544144D01*
X110547162Y-46531532D01*
X110569341Y-46521042D01*
X110592440Y-46512777D01*
X110616239Y-46506816D01*
X110640507Y-46503216D01*
X110665011Y-46502012D01*
X111171989Y-46502012D01*
X111196493Y-46503216D01*
G37*
G36*
X112371493Y-50028216D02*
G01*
X112395761Y-50031816D01*
X112419560Y-50037777D01*
X112442659Y-50046042D01*
X112464838Y-50056532D01*
X112485881Y-50069144D01*
X112505587Y-50083759D01*
X112523765Y-50100235D01*
X112540241Y-50118413D01*
X112554856Y-50138119D01*
X112567468Y-50159162D01*
X112577958Y-50181341D01*
X112586223Y-50204440D01*
X112592184Y-50228239D01*
X112595784Y-50252507D01*
X112596988Y-50277011D01*
X112596988Y-50783989D01*
X112595784Y-50808493D01*
X112592184Y-50832761D01*
X112586223Y-50856560D01*
X112577958Y-50879659D01*
X112567468Y-50901838D01*
X112554856Y-50922881D01*
X112540241Y-50942587D01*
X112523765Y-50960765D01*
X112505587Y-50977241D01*
X112485881Y-50991856D01*
X112464838Y-51004468D01*
X112442659Y-51014958D01*
X112419560Y-51023223D01*
X112395761Y-51029184D01*
X112371493Y-51032784D01*
X112346989Y-51033988D01*
X111840011Y-51033988D01*
X111815507Y-51032784D01*
X111791239Y-51029184D01*
X111767440Y-51023223D01*
X111744341Y-51014958D01*
X111722162Y-51004468D01*
X111701119Y-50991856D01*
X111681413Y-50977241D01*
X111663235Y-50960765D01*
X111646759Y-50942587D01*
X111632144Y-50922881D01*
X111619532Y-50901838D01*
X111609042Y-50879659D01*
X111600777Y-50856560D01*
X111594816Y-50832761D01*
X111591216Y-50808493D01*
X111590012Y-50783989D01*
X111590012Y-50277011D01*
X111591216Y-50252507D01*
X111594816Y-50228239D01*
X111600777Y-50204440D01*
X111609042Y-50181341D01*
X111619532Y-50159162D01*
X111632144Y-50138119D01*
X111646759Y-50118413D01*
X111663235Y-50100235D01*
X111681413Y-50083759D01*
X111701119Y-50069144D01*
X111722162Y-50056532D01*
X111744341Y-50046042D01*
X111767440Y-50037777D01*
X111791239Y-50031816D01*
X111815507Y-50028216D01*
X111840011Y-50027012D01*
X112346989Y-50027012D01*
X112371493Y-50028216D01*
G37*
G36*
X112371493Y-48853216D02*
G01*
X112395761Y-48856816D01*
X112419560Y-48862777D01*
X112442659Y-48871042D01*
X112464838Y-48881532D01*
X112485881Y-48894144D01*
X112505587Y-48908759D01*
X112523765Y-48925235D01*
X112540241Y-48943413D01*
X112554856Y-48963119D01*
X112567468Y-48984162D01*
X112577958Y-49006341D01*
X112586223Y-49029440D01*
X112592184Y-49053239D01*
X112595784Y-49077507D01*
X112596988Y-49102011D01*
X112596988Y-49608989D01*
X112595784Y-49633493D01*
X112592184Y-49657761D01*
X112586223Y-49681560D01*
X112577958Y-49704659D01*
X112567468Y-49726838D01*
X112554856Y-49747881D01*
X112540241Y-49767587D01*
X112523765Y-49785765D01*
X112505587Y-49802241D01*
X112485881Y-49816856D01*
X112464838Y-49829468D01*
X112442659Y-49839958D01*
X112419560Y-49848223D01*
X112395761Y-49854184D01*
X112371493Y-49857784D01*
X112346989Y-49858988D01*
X111840011Y-49858988D01*
X111815507Y-49857784D01*
X111791239Y-49854184D01*
X111767440Y-49848223D01*
X111744341Y-49839958D01*
X111722162Y-49829468D01*
X111701119Y-49816856D01*
X111681413Y-49802241D01*
X111663235Y-49785765D01*
X111646759Y-49767587D01*
X111632144Y-49747881D01*
X111619532Y-49726838D01*
X111609042Y-49704659D01*
X111600777Y-49681560D01*
X111594816Y-49657761D01*
X111591216Y-49633493D01*
X111590012Y-49608989D01*
X111590012Y-49102011D01*
X111591216Y-49077507D01*
X111594816Y-49053239D01*
X111600777Y-49029440D01*
X111609042Y-49006341D01*
X111619532Y-48984162D01*
X111632144Y-48963119D01*
X111646759Y-48943413D01*
X111663235Y-48925235D01*
X111681413Y-48908759D01*
X111701119Y-48894144D01*
X111722162Y-48881532D01*
X111744341Y-48871042D01*
X111767440Y-48862777D01*
X111791239Y-48856816D01*
X111815507Y-48853216D01*
X111840011Y-48852012D01*
X112346989Y-48852012D01*
X112371493Y-48853216D01*
G37*
G36*
X112371493Y-47678216D02*
G01*
X112395761Y-47681816D01*
X112419560Y-47687777D01*
X112442659Y-47696042D01*
X112464838Y-47706532D01*
X112485881Y-47719144D01*
X112505587Y-47733759D01*
X112523765Y-47750235D01*
X112540241Y-47768413D01*
X112554856Y-47788119D01*
X112567468Y-47809162D01*
X112577958Y-47831341D01*
X112586223Y-47854440D01*
X112592184Y-47878239D01*
X112595784Y-47902507D01*
X112596988Y-47927011D01*
X112596988Y-48433989D01*
X112595784Y-48458493D01*
X112592184Y-48482761D01*
X112586223Y-48506560D01*
X112577958Y-48529659D01*
X112567468Y-48551838D01*
X112554856Y-48572881D01*
X112540241Y-48592587D01*
X112523765Y-48610765D01*
X112505587Y-48627241D01*
X112485881Y-48641856D01*
X112464838Y-48654468D01*
X112442659Y-48664958D01*
X112419560Y-48673223D01*
X112395761Y-48679184D01*
X112371493Y-48682784D01*
X112346989Y-48683988D01*
X111840011Y-48683988D01*
X111815507Y-48682784D01*
X111791239Y-48679184D01*
X111767440Y-48673223D01*
X111744341Y-48664958D01*
X111722162Y-48654468D01*
X111701119Y-48641856D01*
X111681413Y-48627241D01*
X111663235Y-48610765D01*
X111646759Y-48592587D01*
X111632144Y-48572881D01*
X111619532Y-48551838D01*
X111609042Y-48529659D01*
X111600777Y-48506560D01*
X111594816Y-48482761D01*
X111591216Y-48458493D01*
X111590012Y-48433989D01*
X111590012Y-47927011D01*
X111591216Y-47902507D01*
X111594816Y-47878239D01*
X111600777Y-47854440D01*
X111609042Y-47831341D01*
X111619532Y-47809162D01*
X111632144Y-47788119D01*
X111646759Y-47768413D01*
X111663235Y-47750235D01*
X111681413Y-47733759D01*
X111701119Y-47719144D01*
X111722162Y-47706532D01*
X111744341Y-47696042D01*
X111767440Y-47687777D01*
X111791239Y-47681816D01*
X111815507Y-47678216D01*
X111840011Y-47677012D01*
X112346989Y-47677012D01*
X112371493Y-47678216D01*
G37*
G36*
X112371493Y-46503216D02*
G01*
X112395761Y-46506816D01*
X112419560Y-46512777D01*
X112442659Y-46521042D01*
X112464838Y-46531532D01*
X112485881Y-46544144D01*
X112505587Y-46558759D01*
X112523765Y-46575235D01*
X112540241Y-46593413D01*
X112554856Y-46613119D01*
X112567468Y-46634162D01*
X112577958Y-46656341D01*
X112586223Y-46679440D01*
X112592184Y-46703239D01*
X112595784Y-46727507D01*
X112596988Y-46752011D01*
X112596988Y-47258989D01*
X112595784Y-47283493D01*
X112592184Y-47307761D01*
X112586223Y-47331560D01*
X112577958Y-47354659D01*
X112567468Y-47376838D01*
X112554856Y-47397881D01*
X112540241Y-47417587D01*
X112523765Y-47435765D01*
X112505587Y-47452241D01*
X112485881Y-47466856D01*
X112464838Y-47479468D01*
X112442659Y-47489958D01*
X112419560Y-47498223D01*
X112395761Y-47504184D01*
X112371493Y-47507784D01*
X112346989Y-47508988D01*
X111840011Y-47508988D01*
X111815507Y-47507784D01*
X111791239Y-47504184D01*
X111767440Y-47498223D01*
X111744341Y-47489958D01*
X111722162Y-47479468D01*
X111701119Y-47466856D01*
X111681413Y-47452241D01*
X111663235Y-47435765D01*
X111646759Y-47417587D01*
X111632144Y-47397881D01*
X111619532Y-47376838D01*
X111609042Y-47354659D01*
X111600777Y-47331560D01*
X111594816Y-47307761D01*
X111591216Y-47283493D01*
X111590012Y-47258989D01*
X111590012Y-46752011D01*
X111591216Y-46727507D01*
X111594816Y-46703239D01*
X111600777Y-46679440D01*
X111609042Y-46656341D01*
X111619532Y-46634162D01*
X111632144Y-46613119D01*
X111646759Y-46593413D01*
X111663235Y-46575235D01*
X111681413Y-46558759D01*
X111701119Y-46544144D01*
X111722162Y-46531532D01*
X111744341Y-46521042D01*
X111767440Y-46512777D01*
X111791239Y-46506816D01*
X111815507Y-46503216D01*
X111840011Y-46502012D01*
X112346989Y-46502012D01*
X112371493Y-46503216D01*
G37*
G36*
X113546493Y-50028216D02*
G01*
X113570761Y-50031816D01*
X113594560Y-50037777D01*
X113617659Y-50046042D01*
X113639838Y-50056532D01*
X113660881Y-50069144D01*
X113680587Y-50083759D01*
X113698765Y-50100235D01*
X113715241Y-50118413D01*
X113729856Y-50138119D01*
X113742468Y-50159162D01*
X113752958Y-50181341D01*
X113761223Y-50204440D01*
X113767184Y-50228239D01*
X113770784Y-50252507D01*
X113771988Y-50277011D01*
X113771988Y-50783989D01*
X113770784Y-50808493D01*
X113767184Y-50832761D01*
X113761223Y-50856560D01*
X113752958Y-50879659D01*
X113742468Y-50901838D01*
X113729856Y-50922881D01*
X113715241Y-50942587D01*
X113698765Y-50960765D01*
X113680587Y-50977241D01*
X113660881Y-50991856D01*
X113639838Y-51004468D01*
X113617659Y-51014958D01*
X113594560Y-51023223D01*
X113570761Y-51029184D01*
X113546493Y-51032784D01*
X113521989Y-51033988D01*
X113015011Y-51033988D01*
X112990507Y-51032784D01*
X112966239Y-51029184D01*
X112942440Y-51023223D01*
X112919341Y-51014958D01*
X112897162Y-51004468D01*
X112876119Y-50991856D01*
X112856413Y-50977241D01*
X112838235Y-50960765D01*
X112821759Y-50942587D01*
X112807144Y-50922881D01*
X112794532Y-50901838D01*
X112784042Y-50879659D01*
X112775777Y-50856560D01*
X112769816Y-50832761D01*
X112766216Y-50808493D01*
X112765012Y-50783989D01*
X112765012Y-50277011D01*
X112766216Y-50252507D01*
X112769816Y-50228239D01*
X112775777Y-50204440D01*
X112784042Y-50181341D01*
X112794532Y-50159162D01*
X112807144Y-50138119D01*
X112821759Y-50118413D01*
X112838235Y-50100235D01*
X112856413Y-50083759D01*
X112876119Y-50069144D01*
X112897162Y-50056532D01*
X112919341Y-50046042D01*
X112942440Y-50037777D01*
X112966239Y-50031816D01*
X112990507Y-50028216D01*
X113015011Y-50027012D01*
X113521989Y-50027012D01*
X113546493Y-50028216D01*
G37*
G36*
X113546493Y-48853216D02*
G01*
X113570761Y-48856816D01*
X113594560Y-48862777D01*
X113617659Y-48871042D01*
X113639838Y-48881532D01*
X113660881Y-48894144D01*
X113680587Y-48908759D01*
X113698765Y-48925235D01*
X113715241Y-48943413D01*
X113729856Y-48963119D01*
X113742468Y-48984162D01*
X113752958Y-49006341D01*
X113761223Y-49029440D01*
X113767184Y-49053239D01*
X113770784Y-49077507D01*
X113771988Y-49102011D01*
X113771988Y-49608989D01*
X113770784Y-49633493D01*
X113767184Y-49657761D01*
X113761223Y-49681560D01*
X113752958Y-49704659D01*
X113742468Y-49726838D01*
X113729856Y-49747881D01*
X113715241Y-49767587D01*
X113698765Y-49785765D01*
X113680587Y-49802241D01*
X113660881Y-49816856D01*
X113639838Y-49829468D01*
X113617659Y-49839958D01*
X113594560Y-49848223D01*
X113570761Y-49854184D01*
X113546493Y-49857784D01*
X113521989Y-49858988D01*
X113015011Y-49858988D01*
X112990507Y-49857784D01*
X112966239Y-49854184D01*
X112942440Y-49848223D01*
X112919341Y-49839958D01*
X112897162Y-49829468D01*
X112876119Y-49816856D01*
X112856413Y-49802241D01*
X112838235Y-49785765D01*
X112821759Y-49767587D01*
X112807144Y-49747881D01*
X112794532Y-49726838D01*
X112784042Y-49704659D01*
X112775777Y-49681560D01*
X112769816Y-49657761D01*
X112766216Y-49633493D01*
X112765012Y-49608989D01*
X112765012Y-49102011D01*
X112766216Y-49077507D01*
X112769816Y-49053239D01*
X112775777Y-49029440D01*
X112784042Y-49006341D01*
X112794532Y-48984162D01*
X112807144Y-48963119D01*
X112821759Y-48943413D01*
X112838235Y-48925235D01*
X112856413Y-48908759D01*
X112876119Y-48894144D01*
X112897162Y-48881532D01*
X112919341Y-48871042D01*
X112942440Y-48862777D01*
X112966239Y-48856816D01*
X112990507Y-48853216D01*
X113015011Y-48852012D01*
X113521989Y-48852012D01*
X113546493Y-48853216D01*
G37*
G36*
X113546493Y-47678216D02*
G01*
X113570761Y-47681816D01*
X113594560Y-47687777D01*
X113617659Y-47696042D01*
X113639838Y-47706532D01*
X113660881Y-47719144D01*
X113680587Y-47733759D01*
X113698765Y-47750235D01*
X113715241Y-47768413D01*
X113729856Y-47788119D01*
X113742468Y-47809162D01*
X113752958Y-47831341D01*
X113761223Y-47854440D01*
X113767184Y-47878239D01*
X113770784Y-47902507D01*
X113771988Y-47927011D01*
X113771988Y-48433989D01*
X113770784Y-48458493D01*
X113767184Y-48482761D01*
X113761223Y-48506560D01*
X113752958Y-48529659D01*
X113742468Y-48551838D01*
X113729856Y-48572881D01*
X113715241Y-48592587D01*
X113698765Y-48610765D01*
X113680587Y-48627241D01*
X113660881Y-48641856D01*
X113639838Y-48654468D01*
X113617659Y-48664958D01*
X113594560Y-48673223D01*
X113570761Y-48679184D01*
X113546493Y-48682784D01*
X113521989Y-48683988D01*
X113015011Y-48683988D01*
X112990507Y-48682784D01*
X112966239Y-48679184D01*
X112942440Y-48673223D01*
X112919341Y-48664958D01*
X112897162Y-48654468D01*
X112876119Y-48641856D01*
X112856413Y-48627241D01*
X112838235Y-48610765D01*
X112821759Y-48592587D01*
X112807144Y-48572881D01*
X112794532Y-48551838D01*
X112784042Y-48529659D01*
X112775777Y-48506560D01*
X112769816Y-48482761D01*
X112766216Y-48458493D01*
X112765012Y-48433989D01*
X112765012Y-47927011D01*
X112766216Y-47902507D01*
X112769816Y-47878239D01*
X112775777Y-47854440D01*
X112784042Y-47831341D01*
X112794532Y-47809162D01*
X112807144Y-47788119D01*
X112821759Y-47768413D01*
X112838235Y-47750235D01*
X112856413Y-47733759D01*
X112876119Y-47719144D01*
X112897162Y-47706532D01*
X112919341Y-47696042D01*
X112942440Y-47687777D01*
X112966239Y-47681816D01*
X112990507Y-47678216D01*
X113015011Y-47677012D01*
X113521989Y-47677012D01*
X113546493Y-47678216D01*
G37*
G36*
X113546493Y-46503216D02*
G01*
X113570761Y-46506816D01*
X113594560Y-46512777D01*
X113617659Y-46521042D01*
X113639838Y-46531532D01*
X113660881Y-46544144D01*
X113680587Y-46558759D01*
X113698765Y-46575235D01*
X113715241Y-46593413D01*
X113729856Y-46613119D01*
X113742468Y-46634162D01*
X113752958Y-46656341D01*
X113761223Y-46679440D01*
X113767184Y-46703239D01*
X113770784Y-46727507D01*
X113771988Y-46752011D01*
X113771988Y-47258989D01*
X113770784Y-47283493D01*
X113767184Y-47307761D01*
X113761223Y-47331560D01*
X113752958Y-47354659D01*
X113742468Y-47376838D01*
X113729856Y-47397881D01*
X113715241Y-47417587D01*
X113698765Y-47435765D01*
X113680587Y-47452241D01*
X113660881Y-47466856D01*
X113639838Y-47479468D01*
X113617659Y-47489958D01*
X113594560Y-47498223D01*
X113570761Y-47504184D01*
X113546493Y-47507784D01*
X113521989Y-47508988D01*
X113015011Y-47508988D01*
X112990507Y-47507784D01*
X112966239Y-47504184D01*
X112942440Y-47498223D01*
X112919341Y-47489958D01*
X112897162Y-47479468D01*
X112876119Y-47466856D01*
X112856413Y-47452241D01*
X112838235Y-47435765D01*
X112821759Y-47417587D01*
X112807144Y-47397881D01*
X112794532Y-47376838D01*
X112784042Y-47354659D01*
X112775777Y-47331560D01*
X112769816Y-47307761D01*
X112766216Y-47283493D01*
X112765012Y-47258989D01*
X112765012Y-46752011D01*
X112766216Y-46727507D01*
X112769816Y-46703239D01*
X112775777Y-46679440D01*
X112784042Y-46656341D01*
X112794532Y-46634162D01*
X112807144Y-46613119D01*
X112821759Y-46593413D01*
X112838235Y-46575235D01*
X112856413Y-46558759D01*
X112876119Y-46544144D01*
X112897162Y-46531532D01*
X112919341Y-46521042D01*
X112942440Y-46512777D01*
X112966239Y-46506816D01*
X112990507Y-46503216D01*
X113015011Y-46502012D01*
X113521989Y-46502012D01*
X113546493Y-46503216D01*
G37*
G36*
X108649626Y-51143301D02*
G01*
X108655693Y-51144201D01*
X108661643Y-51145691D01*
X108667418Y-51147758D01*
X108672962Y-51150380D01*
X108678223Y-51153533D01*
X108683150Y-51157187D01*
X108687694Y-51161306D01*
X108691813Y-51165850D01*
X108695467Y-51170777D01*
X108698620Y-51176038D01*
X108701242Y-51181582D01*
X108703309Y-51187357D01*
X108704799Y-51193307D01*
X108705699Y-51199374D01*
X108706000Y-51205500D01*
X108706000Y-51330500D01*
X108705699Y-51336626D01*
X108704799Y-51342693D01*
X108703309Y-51348643D01*
X108701242Y-51354418D01*
X108698620Y-51359962D01*
X108695467Y-51365223D01*
X108691813Y-51370150D01*
X108687694Y-51374694D01*
X108683150Y-51378813D01*
X108678223Y-51382467D01*
X108672962Y-51385620D01*
X108667418Y-51388242D01*
X108661643Y-51390309D01*
X108655693Y-51391799D01*
X108649626Y-51392699D01*
X108643500Y-51393000D01*
X107693500Y-51393000D01*
X107687374Y-51392699D01*
X107681307Y-51391799D01*
X107675357Y-51390309D01*
X107669582Y-51388242D01*
X107664038Y-51385620D01*
X107658777Y-51382467D01*
X107653850Y-51378813D01*
X107649306Y-51374694D01*
X107645187Y-51370150D01*
X107641533Y-51365223D01*
X107638380Y-51359962D01*
X107635758Y-51354418D01*
X107633691Y-51348643D01*
X107632201Y-51342693D01*
X107631301Y-51336626D01*
X107631000Y-51330500D01*
X107631000Y-51205500D01*
X107631301Y-51199374D01*
X107632201Y-51193307D01*
X107633691Y-51187357D01*
X107635758Y-51181582D01*
X107638380Y-51176038D01*
X107641533Y-51170777D01*
X107645187Y-51165850D01*
X107649306Y-51161306D01*
X107653850Y-51157187D01*
X107658777Y-51153533D01*
X107664038Y-51150380D01*
X107669582Y-51147758D01*
X107675357Y-51145691D01*
X107681307Y-51144201D01*
X107687374Y-51143301D01*
X107693500Y-51143000D01*
X108643500Y-51143000D01*
X108649626Y-51143301D01*
G37*
G36*
X108649626Y-50643301D02*
G01*
X108655693Y-50644201D01*
X108661643Y-50645691D01*
X108667418Y-50647758D01*
X108672962Y-50650380D01*
X108678223Y-50653533D01*
X108683150Y-50657187D01*
X108687694Y-50661306D01*
X108691813Y-50665850D01*
X108695467Y-50670777D01*
X108698620Y-50676038D01*
X108701242Y-50681582D01*
X108703309Y-50687357D01*
X108704799Y-50693307D01*
X108705699Y-50699374D01*
X108706000Y-50705500D01*
X108706000Y-50830500D01*
X108705699Y-50836626D01*
X108704799Y-50842693D01*
X108703309Y-50848643D01*
X108701242Y-50854418D01*
X108698620Y-50859962D01*
X108695467Y-50865223D01*
X108691813Y-50870150D01*
X108687694Y-50874694D01*
X108683150Y-50878813D01*
X108678223Y-50882467D01*
X108672962Y-50885620D01*
X108667418Y-50888242D01*
X108661643Y-50890309D01*
X108655693Y-50891799D01*
X108649626Y-50892699D01*
X108643500Y-50893000D01*
X107693500Y-50893000D01*
X107687374Y-50892699D01*
X107681307Y-50891799D01*
X107675357Y-50890309D01*
X107669582Y-50888242D01*
X107664038Y-50885620D01*
X107658777Y-50882467D01*
X107653850Y-50878813D01*
X107649306Y-50874694D01*
X107645187Y-50870150D01*
X107641533Y-50865223D01*
X107638380Y-50859962D01*
X107635758Y-50854418D01*
X107633691Y-50848643D01*
X107632201Y-50842693D01*
X107631301Y-50836626D01*
X107631000Y-50830500D01*
X107631000Y-50705500D01*
X107631301Y-50699374D01*
X107632201Y-50693307D01*
X107633691Y-50687357D01*
X107635758Y-50681582D01*
X107638380Y-50676038D01*
X107641533Y-50670777D01*
X107645187Y-50665850D01*
X107649306Y-50661306D01*
X107653850Y-50657187D01*
X107658777Y-50653533D01*
X107664038Y-50650380D01*
X107669582Y-50647758D01*
X107675357Y-50645691D01*
X107681307Y-50644201D01*
X107687374Y-50643301D01*
X107693500Y-50643000D01*
X108643500Y-50643000D01*
X108649626Y-50643301D01*
G37*
G36*
X108649626Y-50143301D02*
G01*
X108655693Y-50144201D01*
X108661643Y-50145691D01*
X108667418Y-50147758D01*
X108672962Y-50150380D01*
X108678223Y-50153533D01*
X108683150Y-50157187D01*
X108687694Y-50161306D01*
X108691813Y-50165850D01*
X108695467Y-50170777D01*
X108698620Y-50176038D01*
X108701242Y-50181582D01*
X108703309Y-50187357D01*
X108704799Y-50193307D01*
X108705699Y-50199374D01*
X108706000Y-50205500D01*
X108706000Y-50330500D01*
X108705699Y-50336626D01*
X108704799Y-50342693D01*
X108703309Y-50348643D01*
X108701242Y-50354418D01*
X108698620Y-50359962D01*
X108695467Y-50365223D01*
X108691813Y-50370150D01*
X108687694Y-50374694D01*
X108683150Y-50378813D01*
X108678223Y-50382467D01*
X108672962Y-50385620D01*
X108667418Y-50388242D01*
X108661643Y-50390309D01*
X108655693Y-50391799D01*
X108649626Y-50392699D01*
X108643500Y-50393000D01*
X107693500Y-50393000D01*
X107687374Y-50392699D01*
X107681307Y-50391799D01*
X107675357Y-50390309D01*
X107669582Y-50388242D01*
X107664038Y-50385620D01*
X107658777Y-50382467D01*
X107653850Y-50378813D01*
X107649306Y-50374694D01*
X107645187Y-50370150D01*
X107641533Y-50365223D01*
X107638380Y-50359962D01*
X107635758Y-50354418D01*
X107633691Y-50348643D01*
X107632201Y-50342693D01*
X107631301Y-50336626D01*
X107631000Y-50330500D01*
X107631000Y-50205500D01*
X107631301Y-50199374D01*
X107632201Y-50193307D01*
X107633691Y-50187357D01*
X107635758Y-50181582D01*
X107638380Y-50176038D01*
X107641533Y-50170777D01*
X107645187Y-50165850D01*
X107649306Y-50161306D01*
X107653850Y-50157187D01*
X107658777Y-50153533D01*
X107664038Y-50150380D01*
X107669582Y-50147758D01*
X107675357Y-50145691D01*
X107681307Y-50144201D01*
X107687374Y-50143301D01*
X107693500Y-50143000D01*
X108643500Y-50143000D01*
X108649626Y-50143301D01*
G37*
G36*
X108649626Y-49643301D02*
G01*
X108655693Y-49644201D01*
X108661643Y-49645691D01*
X108667418Y-49647758D01*
X108672962Y-49650380D01*
X108678223Y-49653533D01*
X108683150Y-49657187D01*
X108687694Y-49661306D01*
X108691813Y-49665850D01*
X108695467Y-49670777D01*
X108698620Y-49676038D01*
X108701242Y-49681582D01*
X108703309Y-49687357D01*
X108704799Y-49693307D01*
X108705699Y-49699374D01*
X108706000Y-49705500D01*
X108706000Y-49830500D01*
X108705699Y-49836626D01*
X108704799Y-49842693D01*
X108703309Y-49848643D01*
X108701242Y-49854418D01*
X108698620Y-49859962D01*
X108695467Y-49865223D01*
X108691813Y-49870150D01*
X108687694Y-49874694D01*
X108683150Y-49878813D01*
X108678223Y-49882467D01*
X108672962Y-49885620D01*
X108667418Y-49888242D01*
X108661643Y-49890309D01*
X108655693Y-49891799D01*
X108649626Y-49892699D01*
X108643500Y-49893000D01*
X107693500Y-49893000D01*
X107687374Y-49892699D01*
X107681307Y-49891799D01*
X107675357Y-49890309D01*
X107669582Y-49888242D01*
X107664038Y-49885620D01*
X107658777Y-49882467D01*
X107653850Y-49878813D01*
X107649306Y-49874694D01*
X107645187Y-49870150D01*
X107641533Y-49865223D01*
X107638380Y-49859962D01*
X107635758Y-49854418D01*
X107633691Y-49848643D01*
X107632201Y-49842693D01*
X107631301Y-49836626D01*
X107631000Y-49830500D01*
X107631000Y-49705500D01*
X107631301Y-49699374D01*
X107632201Y-49693307D01*
X107633691Y-49687357D01*
X107635758Y-49681582D01*
X107638380Y-49676038D01*
X107641533Y-49670777D01*
X107645187Y-49665850D01*
X107649306Y-49661306D01*
X107653850Y-49657187D01*
X107658777Y-49653533D01*
X107664038Y-49650380D01*
X107669582Y-49647758D01*
X107675357Y-49645691D01*
X107681307Y-49644201D01*
X107687374Y-49643301D01*
X107693500Y-49643000D01*
X108643500Y-49643000D01*
X108649626Y-49643301D01*
G37*
G36*
X108649626Y-49143301D02*
G01*
X108655693Y-49144201D01*
X108661643Y-49145691D01*
X108667418Y-49147758D01*
X108672962Y-49150380D01*
X108678223Y-49153533D01*
X108683150Y-49157187D01*
X108687694Y-49161306D01*
X108691813Y-49165850D01*
X108695467Y-49170777D01*
X108698620Y-49176038D01*
X108701242Y-49181582D01*
X108703309Y-49187357D01*
X108704799Y-49193307D01*
X108705699Y-49199374D01*
X108706000Y-49205500D01*
X108706000Y-49330500D01*
X108705699Y-49336626D01*
X108704799Y-49342693D01*
X108703309Y-49348643D01*
X108701242Y-49354418D01*
X108698620Y-49359962D01*
X108695467Y-49365223D01*
X108691813Y-49370150D01*
X108687694Y-49374694D01*
X108683150Y-49378813D01*
X108678223Y-49382467D01*
X108672962Y-49385620D01*
X108667418Y-49388242D01*
X108661643Y-49390309D01*
X108655693Y-49391799D01*
X108649626Y-49392699D01*
X108643500Y-49393000D01*
X107693500Y-49393000D01*
X107687374Y-49392699D01*
X107681307Y-49391799D01*
X107675357Y-49390309D01*
X107669582Y-49388242D01*
X107664038Y-49385620D01*
X107658777Y-49382467D01*
X107653850Y-49378813D01*
X107649306Y-49374694D01*
X107645187Y-49370150D01*
X107641533Y-49365223D01*
X107638380Y-49359962D01*
X107635758Y-49354418D01*
X107633691Y-49348643D01*
X107632201Y-49342693D01*
X107631301Y-49336626D01*
X107631000Y-49330500D01*
X107631000Y-49205500D01*
X107631301Y-49199374D01*
X107632201Y-49193307D01*
X107633691Y-49187357D01*
X107635758Y-49181582D01*
X107638380Y-49176038D01*
X107641533Y-49170777D01*
X107645187Y-49165850D01*
X107649306Y-49161306D01*
X107653850Y-49157187D01*
X107658777Y-49153533D01*
X107664038Y-49150380D01*
X107669582Y-49147758D01*
X107675357Y-49145691D01*
X107681307Y-49144201D01*
X107687374Y-49143301D01*
X107693500Y-49143000D01*
X108643500Y-49143000D01*
X108649626Y-49143301D01*
G37*
G36*
X108649626Y-48643301D02*
G01*
X108655693Y-48644201D01*
X108661643Y-48645691D01*
X108667418Y-48647758D01*
X108672962Y-48650380D01*
X108678223Y-48653533D01*
X108683150Y-48657187D01*
X108687694Y-48661306D01*
X108691813Y-48665850D01*
X108695467Y-48670777D01*
X108698620Y-48676038D01*
X108701242Y-48681582D01*
X108703309Y-48687357D01*
X108704799Y-48693307D01*
X108705699Y-48699374D01*
X108706000Y-48705500D01*
X108706000Y-48830500D01*
X108705699Y-48836626D01*
X108704799Y-48842693D01*
X108703309Y-48848643D01*
X108701242Y-48854418D01*
X108698620Y-48859962D01*
X108695467Y-48865223D01*
X108691813Y-48870150D01*
X108687694Y-48874694D01*
X108683150Y-48878813D01*
X108678223Y-48882467D01*
X108672962Y-48885620D01*
X108667418Y-48888242D01*
X108661643Y-48890309D01*
X108655693Y-48891799D01*
X108649626Y-48892699D01*
X108643500Y-48893000D01*
X107693500Y-48893000D01*
X107687374Y-48892699D01*
X107681307Y-48891799D01*
X107675357Y-48890309D01*
X107669582Y-48888242D01*
X107664038Y-48885620D01*
X107658777Y-48882467D01*
X107653850Y-48878813D01*
X107649306Y-48874694D01*
X107645187Y-48870150D01*
X107641533Y-48865223D01*
X107638380Y-48859962D01*
X107635758Y-48854418D01*
X107633691Y-48848643D01*
X107632201Y-48842693D01*
X107631301Y-48836626D01*
X107631000Y-48830500D01*
X107631000Y-48705500D01*
X107631301Y-48699374D01*
X107632201Y-48693307D01*
X107633691Y-48687357D01*
X107635758Y-48681582D01*
X107638380Y-48676038D01*
X107641533Y-48670777D01*
X107645187Y-48665850D01*
X107649306Y-48661306D01*
X107653850Y-48657187D01*
X107658777Y-48653533D01*
X107664038Y-48650380D01*
X107669582Y-48647758D01*
X107675357Y-48645691D01*
X107681307Y-48644201D01*
X107687374Y-48643301D01*
X107693500Y-48643000D01*
X108643500Y-48643000D01*
X108649626Y-48643301D01*
G37*
G36*
X108649626Y-48143301D02*
G01*
X108655693Y-48144201D01*
X108661643Y-48145691D01*
X108667418Y-48147758D01*
X108672962Y-48150380D01*
X108678223Y-48153533D01*
X108683150Y-48157187D01*
X108687694Y-48161306D01*
X108691813Y-48165850D01*
X108695467Y-48170777D01*
X108698620Y-48176038D01*
X108701242Y-48181582D01*
X108703309Y-48187357D01*
X108704799Y-48193307D01*
X108705699Y-48199374D01*
X108706000Y-48205500D01*
X108706000Y-48330500D01*
X108705699Y-48336626D01*
X108704799Y-48342693D01*
X108703309Y-48348643D01*
X108701242Y-48354418D01*
X108698620Y-48359962D01*
X108695467Y-48365223D01*
X108691813Y-48370150D01*
X108687694Y-48374694D01*
X108683150Y-48378813D01*
X108678223Y-48382467D01*
X108672962Y-48385620D01*
X108667418Y-48388242D01*
X108661643Y-48390309D01*
X108655693Y-48391799D01*
X108649626Y-48392699D01*
X108643500Y-48393000D01*
X107693500Y-48393000D01*
X107687374Y-48392699D01*
X107681307Y-48391799D01*
X107675357Y-48390309D01*
X107669582Y-48388242D01*
X107664038Y-48385620D01*
X107658777Y-48382467D01*
X107653850Y-48378813D01*
X107649306Y-48374694D01*
X107645187Y-48370150D01*
X107641533Y-48365223D01*
X107638380Y-48359962D01*
X107635758Y-48354418D01*
X107633691Y-48348643D01*
X107632201Y-48342693D01*
X107631301Y-48336626D01*
X107631000Y-48330500D01*
X107631000Y-48205500D01*
X107631301Y-48199374D01*
X107632201Y-48193307D01*
X107633691Y-48187357D01*
X107635758Y-48181582D01*
X107638380Y-48176038D01*
X107641533Y-48170777D01*
X107645187Y-48165850D01*
X107649306Y-48161306D01*
X107653850Y-48157187D01*
X107658777Y-48153533D01*
X107664038Y-48150380D01*
X107669582Y-48147758D01*
X107675357Y-48145691D01*
X107681307Y-48144201D01*
X107687374Y-48143301D01*
X107693500Y-48143000D01*
X108643500Y-48143000D01*
X108649626Y-48143301D01*
G37*
G36*
X108649626Y-47643301D02*
G01*
X108655693Y-47644201D01*
X108661643Y-47645691D01*
X108667418Y-47647758D01*
X108672962Y-47650380D01*
X108678223Y-47653533D01*
X108683150Y-47657187D01*
X108687694Y-47661306D01*
X108691813Y-47665850D01*
X108695467Y-47670777D01*
X108698620Y-47676038D01*
X108701242Y-47681582D01*
X108703309Y-47687357D01*
X108704799Y-47693307D01*
X108705699Y-47699374D01*
X108706000Y-47705500D01*
X108706000Y-47830500D01*
X108705699Y-47836626D01*
X108704799Y-47842693D01*
X108703309Y-47848643D01*
X108701242Y-47854418D01*
X108698620Y-47859962D01*
X108695467Y-47865223D01*
X108691813Y-47870150D01*
X108687694Y-47874694D01*
X108683150Y-47878813D01*
X108678223Y-47882467D01*
X108672962Y-47885620D01*
X108667418Y-47888242D01*
X108661643Y-47890309D01*
X108655693Y-47891799D01*
X108649626Y-47892699D01*
X108643500Y-47893000D01*
X107693500Y-47893000D01*
X107687374Y-47892699D01*
X107681307Y-47891799D01*
X107675357Y-47890309D01*
X107669582Y-47888242D01*
X107664038Y-47885620D01*
X107658777Y-47882467D01*
X107653850Y-47878813D01*
X107649306Y-47874694D01*
X107645187Y-47870150D01*
X107641533Y-47865223D01*
X107638380Y-47859962D01*
X107635758Y-47854418D01*
X107633691Y-47848643D01*
X107632201Y-47842693D01*
X107631301Y-47836626D01*
X107631000Y-47830500D01*
X107631000Y-47705500D01*
X107631301Y-47699374D01*
X107632201Y-47693307D01*
X107633691Y-47687357D01*
X107635758Y-47681582D01*
X107638380Y-47676038D01*
X107641533Y-47670777D01*
X107645187Y-47665850D01*
X107649306Y-47661306D01*
X107653850Y-47657187D01*
X107658777Y-47653533D01*
X107664038Y-47650380D01*
X107669582Y-47647758D01*
X107675357Y-47645691D01*
X107681307Y-47644201D01*
X107687374Y-47643301D01*
X107693500Y-47643000D01*
X108643500Y-47643000D01*
X108649626Y-47643301D01*
G37*
G36*
X108649626Y-47143301D02*
G01*
X108655693Y-47144201D01*
X108661643Y-47145691D01*
X108667418Y-47147758D01*
X108672962Y-47150380D01*
X108678223Y-47153533D01*
X108683150Y-47157187D01*
X108687694Y-47161306D01*
X108691813Y-47165850D01*
X108695467Y-47170777D01*
X108698620Y-47176038D01*
X108701242Y-47181582D01*
X108703309Y-47187357D01*
X108704799Y-47193307D01*
X108705699Y-47199374D01*
X108706000Y-47205500D01*
X108706000Y-47330500D01*
X108705699Y-47336626D01*
X108704799Y-47342693D01*
X108703309Y-47348643D01*
X108701242Y-47354418D01*
X108698620Y-47359962D01*
X108695467Y-47365223D01*
X108691813Y-47370150D01*
X108687694Y-47374694D01*
X108683150Y-47378813D01*
X108678223Y-47382467D01*
X108672962Y-47385620D01*
X108667418Y-47388242D01*
X108661643Y-47390309D01*
X108655693Y-47391799D01*
X108649626Y-47392699D01*
X108643500Y-47393000D01*
X107693500Y-47393000D01*
X107687374Y-47392699D01*
X107681307Y-47391799D01*
X107675357Y-47390309D01*
X107669582Y-47388242D01*
X107664038Y-47385620D01*
X107658777Y-47382467D01*
X107653850Y-47378813D01*
X107649306Y-47374694D01*
X107645187Y-47370150D01*
X107641533Y-47365223D01*
X107638380Y-47359962D01*
X107635758Y-47354418D01*
X107633691Y-47348643D01*
X107632201Y-47342693D01*
X107631301Y-47336626D01*
X107631000Y-47330500D01*
X107631000Y-47205500D01*
X107631301Y-47199374D01*
X107632201Y-47193307D01*
X107633691Y-47187357D01*
X107635758Y-47181582D01*
X107638380Y-47176038D01*
X107641533Y-47170777D01*
X107645187Y-47165850D01*
X107649306Y-47161306D01*
X107653850Y-47157187D01*
X107658777Y-47153533D01*
X107664038Y-47150380D01*
X107669582Y-47147758D01*
X107675357Y-47145691D01*
X107681307Y-47144201D01*
X107687374Y-47143301D01*
X107693500Y-47143000D01*
X108643500Y-47143000D01*
X108649626Y-47143301D01*
G37*
G36*
X108649626Y-46643301D02*
G01*
X108655693Y-46644201D01*
X108661643Y-46645691D01*
X108667418Y-46647758D01*
X108672962Y-46650380D01*
X108678223Y-46653533D01*
X108683150Y-46657187D01*
X108687694Y-46661306D01*
X108691813Y-46665850D01*
X108695467Y-46670777D01*
X108698620Y-46676038D01*
X108701242Y-46681582D01*
X108703309Y-46687357D01*
X108704799Y-46693307D01*
X108705699Y-46699374D01*
X108706000Y-46705500D01*
X108706000Y-46830500D01*
X108705699Y-46836626D01*
X108704799Y-46842693D01*
X108703309Y-46848643D01*
X108701242Y-46854418D01*
X108698620Y-46859962D01*
X108695467Y-46865223D01*
X108691813Y-46870150D01*
X108687694Y-46874694D01*
X108683150Y-46878813D01*
X108678223Y-46882467D01*
X108672962Y-46885620D01*
X108667418Y-46888242D01*
X108661643Y-46890309D01*
X108655693Y-46891799D01*
X108649626Y-46892699D01*
X108643500Y-46893000D01*
X107693500Y-46893000D01*
X107687374Y-46892699D01*
X107681307Y-46891799D01*
X107675357Y-46890309D01*
X107669582Y-46888242D01*
X107664038Y-46885620D01*
X107658777Y-46882467D01*
X107653850Y-46878813D01*
X107649306Y-46874694D01*
X107645187Y-46870150D01*
X107641533Y-46865223D01*
X107638380Y-46859962D01*
X107635758Y-46854418D01*
X107633691Y-46848643D01*
X107632201Y-46842693D01*
X107631301Y-46836626D01*
X107631000Y-46830500D01*
X107631000Y-46705500D01*
X107631301Y-46699374D01*
X107632201Y-46693307D01*
X107633691Y-46687357D01*
X107635758Y-46681582D01*
X107638380Y-46676038D01*
X107641533Y-46670777D01*
X107645187Y-46665850D01*
X107649306Y-46661306D01*
X107653850Y-46657187D01*
X107658777Y-46653533D01*
X107664038Y-46650380D01*
X107669582Y-46647758D01*
X107675357Y-46645691D01*
X107681307Y-46644201D01*
X107687374Y-46643301D01*
X107693500Y-46643000D01*
X108643500Y-46643000D01*
X108649626Y-46643301D01*
G37*
G36*
X108649626Y-46143301D02*
G01*
X108655693Y-46144201D01*
X108661643Y-46145691D01*
X108667418Y-46147758D01*
X108672962Y-46150380D01*
X108678223Y-46153533D01*
X108683150Y-46157187D01*
X108687694Y-46161306D01*
X108691813Y-46165850D01*
X108695467Y-46170777D01*
X108698620Y-46176038D01*
X108701242Y-46181582D01*
X108703309Y-46187357D01*
X108704799Y-46193307D01*
X108705699Y-46199374D01*
X108706000Y-46205500D01*
X108706000Y-46330500D01*
X108705699Y-46336626D01*
X108704799Y-46342693D01*
X108703309Y-46348643D01*
X108701242Y-46354418D01*
X108698620Y-46359962D01*
X108695467Y-46365223D01*
X108691813Y-46370150D01*
X108687694Y-46374694D01*
X108683150Y-46378813D01*
X108678223Y-46382467D01*
X108672962Y-46385620D01*
X108667418Y-46388242D01*
X108661643Y-46390309D01*
X108655693Y-46391799D01*
X108649626Y-46392699D01*
X108643500Y-46393000D01*
X107693500Y-46393000D01*
X107687374Y-46392699D01*
X107681307Y-46391799D01*
X107675357Y-46390309D01*
X107669582Y-46388242D01*
X107664038Y-46385620D01*
X107658777Y-46382467D01*
X107653850Y-46378813D01*
X107649306Y-46374694D01*
X107645187Y-46370150D01*
X107641533Y-46365223D01*
X107638380Y-46359962D01*
X107635758Y-46354418D01*
X107633691Y-46348643D01*
X107632201Y-46342693D01*
X107631301Y-46336626D01*
X107631000Y-46330500D01*
X107631000Y-46205500D01*
X107631301Y-46199374D01*
X107632201Y-46193307D01*
X107633691Y-46187357D01*
X107635758Y-46181582D01*
X107638380Y-46176038D01*
X107641533Y-46170777D01*
X107645187Y-46165850D01*
X107649306Y-46161306D01*
X107653850Y-46157187D01*
X107658777Y-46153533D01*
X107664038Y-46150380D01*
X107669582Y-46147758D01*
X107675357Y-46145691D01*
X107681307Y-46144201D01*
X107687374Y-46143301D01*
X107693500Y-46143000D01*
X108643500Y-46143000D01*
X108649626Y-46143301D01*
G37*
G36*
X109074626Y-44893301D02*
G01*
X109080693Y-44894201D01*
X109086643Y-44895691D01*
X109092418Y-44897758D01*
X109097962Y-44900380D01*
X109103223Y-44903533D01*
X109108150Y-44907187D01*
X109112694Y-44911306D01*
X109116813Y-44915850D01*
X109120467Y-44920777D01*
X109123620Y-44926038D01*
X109126242Y-44931582D01*
X109128309Y-44937357D01*
X109129799Y-44943307D01*
X109130699Y-44949374D01*
X109131000Y-44955500D01*
X109131000Y-45905500D01*
X109130699Y-45911626D01*
X109129799Y-45917693D01*
X109128309Y-45923643D01*
X109126242Y-45929418D01*
X109123620Y-45934962D01*
X109120467Y-45940223D01*
X109116813Y-45945150D01*
X109112694Y-45949694D01*
X109108150Y-45953813D01*
X109103223Y-45957467D01*
X109097962Y-45960620D01*
X109092418Y-45963242D01*
X109086643Y-45965309D01*
X109080693Y-45966799D01*
X109074626Y-45967699D01*
X109068500Y-45968000D01*
X108943500Y-45968000D01*
X108937374Y-45967699D01*
X108931307Y-45966799D01*
X108925357Y-45965309D01*
X108919582Y-45963242D01*
X108914038Y-45960620D01*
X108908777Y-45957467D01*
X108903850Y-45953813D01*
X108899306Y-45949694D01*
X108895187Y-45945150D01*
X108891533Y-45940223D01*
X108888380Y-45934962D01*
X108885758Y-45929418D01*
X108883691Y-45923643D01*
X108882201Y-45917693D01*
X108881301Y-45911626D01*
X108881000Y-45905500D01*
X108881000Y-44955500D01*
X108881301Y-44949374D01*
X108882201Y-44943307D01*
X108883691Y-44937357D01*
X108885758Y-44931582D01*
X108888380Y-44926038D01*
X108891533Y-44920777D01*
X108895187Y-44915850D01*
X108899306Y-44911306D01*
X108903850Y-44907187D01*
X108908777Y-44903533D01*
X108914038Y-44900380D01*
X108919582Y-44897758D01*
X108925357Y-44895691D01*
X108931307Y-44894201D01*
X108937374Y-44893301D01*
X108943500Y-44893000D01*
X109068500Y-44893000D01*
X109074626Y-44893301D01*
G37*
G36*
X109574626Y-44893301D02*
G01*
X109580693Y-44894201D01*
X109586643Y-44895691D01*
X109592418Y-44897758D01*
X109597962Y-44900380D01*
X109603223Y-44903533D01*
X109608150Y-44907187D01*
X109612694Y-44911306D01*
X109616813Y-44915850D01*
X109620467Y-44920777D01*
X109623620Y-44926038D01*
X109626242Y-44931582D01*
X109628309Y-44937357D01*
X109629799Y-44943307D01*
X109630699Y-44949374D01*
X109631000Y-44955500D01*
X109631000Y-45905500D01*
X109630699Y-45911626D01*
X109629799Y-45917693D01*
X109628309Y-45923643D01*
X109626242Y-45929418D01*
X109623620Y-45934962D01*
X109620467Y-45940223D01*
X109616813Y-45945150D01*
X109612694Y-45949694D01*
X109608150Y-45953813D01*
X109603223Y-45957467D01*
X109597962Y-45960620D01*
X109592418Y-45963242D01*
X109586643Y-45965309D01*
X109580693Y-45966799D01*
X109574626Y-45967699D01*
X109568500Y-45968000D01*
X109443500Y-45968000D01*
X109437374Y-45967699D01*
X109431307Y-45966799D01*
X109425357Y-45965309D01*
X109419582Y-45963242D01*
X109414038Y-45960620D01*
X109408777Y-45957467D01*
X109403850Y-45953813D01*
X109399306Y-45949694D01*
X109395187Y-45945150D01*
X109391533Y-45940223D01*
X109388380Y-45934962D01*
X109385758Y-45929418D01*
X109383691Y-45923643D01*
X109382201Y-45917693D01*
X109381301Y-45911626D01*
X109381000Y-45905500D01*
X109381000Y-44955500D01*
X109381301Y-44949374D01*
X109382201Y-44943307D01*
X109383691Y-44937357D01*
X109385758Y-44931582D01*
X109388380Y-44926038D01*
X109391533Y-44920777D01*
X109395187Y-44915850D01*
X109399306Y-44911306D01*
X109403850Y-44907187D01*
X109408777Y-44903533D01*
X109414038Y-44900380D01*
X109419582Y-44897758D01*
X109425357Y-44895691D01*
X109431307Y-44894201D01*
X109437374Y-44893301D01*
X109443500Y-44893000D01*
X109568500Y-44893000D01*
X109574626Y-44893301D01*
G37*
G36*
X110074626Y-44893301D02*
G01*
X110080693Y-44894201D01*
X110086643Y-44895691D01*
X110092418Y-44897758D01*
X110097962Y-44900380D01*
X110103223Y-44903533D01*
X110108150Y-44907187D01*
X110112694Y-44911306D01*
X110116813Y-44915850D01*
X110120467Y-44920777D01*
X110123620Y-44926038D01*
X110126242Y-44931582D01*
X110128309Y-44937357D01*
X110129799Y-44943307D01*
X110130699Y-44949374D01*
X110131000Y-44955500D01*
X110131000Y-45905500D01*
X110130699Y-45911626D01*
X110129799Y-45917693D01*
X110128309Y-45923643D01*
X110126242Y-45929418D01*
X110123620Y-45934962D01*
X110120467Y-45940223D01*
X110116813Y-45945150D01*
X110112694Y-45949694D01*
X110108150Y-45953813D01*
X110103223Y-45957467D01*
X110097962Y-45960620D01*
X110092418Y-45963242D01*
X110086643Y-45965309D01*
X110080693Y-45966799D01*
X110074626Y-45967699D01*
X110068500Y-45968000D01*
X109943500Y-45968000D01*
X109937374Y-45967699D01*
X109931307Y-45966799D01*
X109925357Y-45965309D01*
X109919582Y-45963242D01*
X109914038Y-45960620D01*
X109908777Y-45957467D01*
X109903850Y-45953813D01*
X109899306Y-45949694D01*
X109895187Y-45945150D01*
X109891533Y-45940223D01*
X109888380Y-45934962D01*
X109885758Y-45929418D01*
X109883691Y-45923643D01*
X109882201Y-45917693D01*
X109881301Y-45911626D01*
X109881000Y-45905500D01*
X109881000Y-44955500D01*
X109881301Y-44949374D01*
X109882201Y-44943307D01*
X109883691Y-44937357D01*
X109885758Y-44931582D01*
X109888380Y-44926038D01*
X109891533Y-44920777D01*
X109895187Y-44915850D01*
X109899306Y-44911306D01*
X109903850Y-44907187D01*
X109908777Y-44903533D01*
X109914038Y-44900380D01*
X109919582Y-44897758D01*
X109925357Y-44895691D01*
X109931307Y-44894201D01*
X109937374Y-44893301D01*
X109943500Y-44893000D01*
X110068500Y-44893000D01*
X110074626Y-44893301D01*
G37*
G36*
X110574626Y-44893301D02*
G01*
X110580693Y-44894201D01*
X110586643Y-44895691D01*
X110592418Y-44897758D01*
X110597962Y-44900380D01*
X110603223Y-44903533D01*
X110608150Y-44907187D01*
X110612694Y-44911306D01*
X110616813Y-44915850D01*
X110620467Y-44920777D01*
X110623620Y-44926038D01*
X110626242Y-44931582D01*
X110628309Y-44937357D01*
X110629799Y-44943307D01*
X110630699Y-44949374D01*
X110631000Y-44955500D01*
X110631000Y-45905500D01*
X110630699Y-45911626D01*
X110629799Y-45917693D01*
X110628309Y-45923643D01*
X110626242Y-45929418D01*
X110623620Y-45934962D01*
X110620467Y-45940223D01*
X110616813Y-45945150D01*
X110612694Y-45949694D01*
X110608150Y-45953813D01*
X110603223Y-45957467D01*
X110597962Y-45960620D01*
X110592418Y-45963242D01*
X110586643Y-45965309D01*
X110580693Y-45966799D01*
X110574626Y-45967699D01*
X110568500Y-45968000D01*
X110443500Y-45968000D01*
X110437374Y-45967699D01*
X110431307Y-45966799D01*
X110425357Y-45965309D01*
X110419582Y-45963242D01*
X110414038Y-45960620D01*
X110408777Y-45957467D01*
X110403850Y-45953813D01*
X110399306Y-45949694D01*
X110395187Y-45945150D01*
X110391533Y-45940223D01*
X110388380Y-45934962D01*
X110385758Y-45929418D01*
X110383691Y-45923643D01*
X110382201Y-45917693D01*
X110381301Y-45911626D01*
X110381000Y-45905500D01*
X110381000Y-44955500D01*
X110381301Y-44949374D01*
X110382201Y-44943307D01*
X110383691Y-44937357D01*
X110385758Y-44931582D01*
X110388380Y-44926038D01*
X110391533Y-44920777D01*
X110395187Y-44915850D01*
X110399306Y-44911306D01*
X110403850Y-44907187D01*
X110408777Y-44903533D01*
X110414038Y-44900380D01*
X110419582Y-44897758D01*
X110425357Y-44895691D01*
X110431307Y-44894201D01*
X110437374Y-44893301D01*
X110443500Y-44893000D01*
X110568500Y-44893000D01*
X110574626Y-44893301D01*
G37*
G36*
X111074626Y-44893301D02*
G01*
X111080693Y-44894201D01*
X111086643Y-44895691D01*
X111092418Y-44897758D01*
X111097962Y-44900380D01*
X111103223Y-44903533D01*
X111108150Y-44907187D01*
X111112694Y-44911306D01*
X111116813Y-44915850D01*
X111120467Y-44920777D01*
X111123620Y-44926038D01*
X111126242Y-44931582D01*
X111128309Y-44937357D01*
X111129799Y-44943307D01*
X111130699Y-44949374D01*
X111131000Y-44955500D01*
X111131000Y-45905500D01*
X111130699Y-45911626D01*
X111129799Y-45917693D01*
X111128309Y-45923643D01*
X111126242Y-45929418D01*
X111123620Y-45934962D01*
X111120467Y-45940223D01*
X111116813Y-45945150D01*
X111112694Y-45949694D01*
X111108150Y-45953813D01*
X111103223Y-45957467D01*
X111097962Y-45960620D01*
X111092418Y-45963242D01*
X111086643Y-45965309D01*
X111080693Y-45966799D01*
X111074626Y-45967699D01*
X111068500Y-45968000D01*
X110943500Y-45968000D01*
X110937374Y-45967699D01*
X110931307Y-45966799D01*
X110925357Y-45965309D01*
X110919582Y-45963242D01*
X110914038Y-45960620D01*
X110908777Y-45957467D01*
X110903850Y-45953813D01*
X110899306Y-45949694D01*
X110895187Y-45945150D01*
X110891533Y-45940223D01*
X110888380Y-45934962D01*
X110885758Y-45929418D01*
X110883691Y-45923643D01*
X110882201Y-45917693D01*
X110881301Y-45911626D01*
X110881000Y-45905500D01*
X110881000Y-44955500D01*
X110881301Y-44949374D01*
X110882201Y-44943307D01*
X110883691Y-44937357D01*
X110885758Y-44931582D01*
X110888380Y-44926038D01*
X110891533Y-44920777D01*
X110895187Y-44915850D01*
X110899306Y-44911306D01*
X110903850Y-44907187D01*
X110908777Y-44903533D01*
X110914038Y-44900380D01*
X110919582Y-44897758D01*
X110925357Y-44895691D01*
X110931307Y-44894201D01*
X110937374Y-44893301D01*
X110943500Y-44893000D01*
X111068500Y-44893000D01*
X111074626Y-44893301D01*
G37*
G36*
X111574626Y-44893301D02*
G01*
X111580693Y-44894201D01*
X111586643Y-44895691D01*
X111592418Y-44897758D01*
X111597962Y-44900380D01*
X111603223Y-44903533D01*
X111608150Y-44907187D01*
X111612694Y-44911306D01*
X111616813Y-44915850D01*
X111620467Y-44920777D01*
X111623620Y-44926038D01*
X111626242Y-44931582D01*
X111628309Y-44937357D01*
X111629799Y-44943307D01*
X111630699Y-44949374D01*
X111631000Y-44955500D01*
X111631000Y-45905500D01*
X111630699Y-45911626D01*
X111629799Y-45917693D01*
X111628309Y-45923643D01*
X111626242Y-45929418D01*
X111623620Y-45934962D01*
X111620467Y-45940223D01*
X111616813Y-45945150D01*
X111612694Y-45949694D01*
X111608150Y-45953813D01*
X111603223Y-45957467D01*
X111597962Y-45960620D01*
X111592418Y-45963242D01*
X111586643Y-45965309D01*
X111580693Y-45966799D01*
X111574626Y-45967699D01*
X111568500Y-45968000D01*
X111443500Y-45968000D01*
X111437374Y-45967699D01*
X111431307Y-45966799D01*
X111425357Y-45965309D01*
X111419582Y-45963242D01*
X111414038Y-45960620D01*
X111408777Y-45957467D01*
X111403850Y-45953813D01*
X111399306Y-45949694D01*
X111395187Y-45945150D01*
X111391533Y-45940223D01*
X111388380Y-45934962D01*
X111385758Y-45929418D01*
X111383691Y-45923643D01*
X111382201Y-45917693D01*
X111381301Y-45911626D01*
X111381000Y-45905500D01*
X111381000Y-44955500D01*
X111381301Y-44949374D01*
X111382201Y-44943307D01*
X111383691Y-44937357D01*
X111385758Y-44931582D01*
X111388380Y-44926038D01*
X111391533Y-44920777D01*
X111395187Y-44915850D01*
X111399306Y-44911306D01*
X111403850Y-44907187D01*
X111408777Y-44903533D01*
X111414038Y-44900380D01*
X111419582Y-44897758D01*
X111425357Y-44895691D01*
X111431307Y-44894201D01*
X111437374Y-44893301D01*
X111443500Y-44893000D01*
X111568500Y-44893000D01*
X111574626Y-44893301D01*
G37*
G36*
X112074626Y-44893301D02*
G01*
X112080693Y-44894201D01*
X112086643Y-44895691D01*
X112092418Y-44897758D01*
X112097962Y-44900380D01*
X112103223Y-44903533D01*
X112108150Y-44907187D01*
X112112694Y-44911306D01*
X112116813Y-44915850D01*
X112120467Y-44920777D01*
X112123620Y-44926038D01*
X112126242Y-44931582D01*
X112128309Y-44937357D01*
X112129799Y-44943307D01*
X112130699Y-44949374D01*
X112131000Y-44955500D01*
X112131000Y-45905500D01*
X112130699Y-45911626D01*
X112129799Y-45917693D01*
X112128309Y-45923643D01*
X112126242Y-45929418D01*
X112123620Y-45934962D01*
X112120467Y-45940223D01*
X112116813Y-45945150D01*
X112112694Y-45949694D01*
X112108150Y-45953813D01*
X112103223Y-45957467D01*
X112097962Y-45960620D01*
X112092418Y-45963242D01*
X112086643Y-45965309D01*
X112080693Y-45966799D01*
X112074626Y-45967699D01*
X112068500Y-45968000D01*
X111943500Y-45968000D01*
X111937374Y-45967699D01*
X111931307Y-45966799D01*
X111925357Y-45965309D01*
X111919582Y-45963242D01*
X111914038Y-45960620D01*
X111908777Y-45957467D01*
X111903850Y-45953813D01*
X111899306Y-45949694D01*
X111895187Y-45945150D01*
X111891533Y-45940223D01*
X111888380Y-45934962D01*
X111885758Y-45929418D01*
X111883691Y-45923643D01*
X111882201Y-45917693D01*
X111881301Y-45911626D01*
X111881000Y-45905500D01*
X111881000Y-44955500D01*
X111881301Y-44949374D01*
X111882201Y-44943307D01*
X111883691Y-44937357D01*
X111885758Y-44931582D01*
X111888380Y-44926038D01*
X111891533Y-44920777D01*
X111895187Y-44915850D01*
X111899306Y-44911306D01*
X111903850Y-44907187D01*
X111908777Y-44903533D01*
X111914038Y-44900380D01*
X111919582Y-44897758D01*
X111925357Y-44895691D01*
X111931307Y-44894201D01*
X111937374Y-44893301D01*
X111943500Y-44893000D01*
X112068500Y-44893000D01*
X112074626Y-44893301D01*
G37*
G36*
X112574626Y-44893301D02*
G01*
X112580693Y-44894201D01*
X112586643Y-44895691D01*
X112592418Y-44897758D01*
X112597962Y-44900380D01*
X112603223Y-44903533D01*
X112608150Y-44907187D01*
X112612694Y-44911306D01*
X112616813Y-44915850D01*
X112620467Y-44920777D01*
X112623620Y-44926038D01*
X112626242Y-44931582D01*
X112628309Y-44937357D01*
X112629799Y-44943307D01*
X112630699Y-44949374D01*
X112631000Y-44955500D01*
X112631000Y-45905500D01*
X112630699Y-45911626D01*
X112629799Y-45917693D01*
X112628309Y-45923643D01*
X112626242Y-45929418D01*
X112623620Y-45934962D01*
X112620467Y-45940223D01*
X112616813Y-45945150D01*
X112612694Y-45949694D01*
X112608150Y-45953813D01*
X112603223Y-45957467D01*
X112597962Y-45960620D01*
X112592418Y-45963242D01*
X112586643Y-45965309D01*
X112580693Y-45966799D01*
X112574626Y-45967699D01*
X112568500Y-45968000D01*
X112443500Y-45968000D01*
X112437374Y-45967699D01*
X112431307Y-45966799D01*
X112425357Y-45965309D01*
X112419582Y-45963242D01*
X112414038Y-45960620D01*
X112408777Y-45957467D01*
X112403850Y-45953813D01*
X112399306Y-45949694D01*
X112395187Y-45945150D01*
X112391533Y-45940223D01*
X112388380Y-45934962D01*
X112385758Y-45929418D01*
X112383691Y-45923643D01*
X112382201Y-45917693D01*
X112381301Y-45911626D01*
X112381000Y-45905500D01*
X112381000Y-44955500D01*
X112381301Y-44949374D01*
X112382201Y-44943307D01*
X112383691Y-44937357D01*
X112385758Y-44931582D01*
X112388380Y-44926038D01*
X112391533Y-44920777D01*
X112395187Y-44915850D01*
X112399306Y-44911306D01*
X112403850Y-44907187D01*
X112408777Y-44903533D01*
X112414038Y-44900380D01*
X112419582Y-44897758D01*
X112425357Y-44895691D01*
X112431307Y-44894201D01*
X112437374Y-44893301D01*
X112443500Y-44893000D01*
X112568500Y-44893000D01*
X112574626Y-44893301D01*
G37*
G36*
X113074626Y-44893301D02*
G01*
X113080693Y-44894201D01*
X113086643Y-44895691D01*
X113092418Y-44897758D01*
X113097962Y-44900380D01*
X113103223Y-44903533D01*
X113108150Y-44907187D01*
X113112694Y-44911306D01*
X113116813Y-44915850D01*
X113120467Y-44920777D01*
X113123620Y-44926038D01*
X113126242Y-44931582D01*
X113128309Y-44937357D01*
X113129799Y-44943307D01*
X113130699Y-44949374D01*
X113131000Y-44955500D01*
X113131000Y-45905500D01*
X113130699Y-45911626D01*
X113129799Y-45917693D01*
X113128309Y-45923643D01*
X113126242Y-45929418D01*
X113123620Y-45934962D01*
X113120467Y-45940223D01*
X113116813Y-45945150D01*
X113112694Y-45949694D01*
X113108150Y-45953813D01*
X113103223Y-45957467D01*
X113097962Y-45960620D01*
X113092418Y-45963242D01*
X113086643Y-45965309D01*
X113080693Y-45966799D01*
X113074626Y-45967699D01*
X113068500Y-45968000D01*
X112943500Y-45968000D01*
X112937374Y-45967699D01*
X112931307Y-45966799D01*
X112925357Y-45965309D01*
X112919582Y-45963242D01*
X112914038Y-45960620D01*
X112908777Y-45957467D01*
X112903850Y-45953813D01*
X112899306Y-45949694D01*
X112895187Y-45945150D01*
X112891533Y-45940223D01*
X112888380Y-45934962D01*
X112885758Y-45929418D01*
X112883691Y-45923643D01*
X112882201Y-45917693D01*
X112881301Y-45911626D01*
X112881000Y-45905500D01*
X112881000Y-44955500D01*
X112881301Y-44949374D01*
X112882201Y-44943307D01*
X112883691Y-44937357D01*
X112885758Y-44931582D01*
X112888380Y-44926038D01*
X112891533Y-44920777D01*
X112895187Y-44915850D01*
X112899306Y-44911306D01*
X112903850Y-44907187D01*
X112908777Y-44903533D01*
X112914038Y-44900380D01*
X112919582Y-44897758D01*
X112925357Y-44895691D01*
X112931307Y-44894201D01*
X112937374Y-44893301D01*
X112943500Y-44893000D01*
X113068500Y-44893000D01*
X113074626Y-44893301D01*
G37*
G36*
X113574626Y-44893301D02*
G01*
X113580693Y-44894201D01*
X113586643Y-44895691D01*
X113592418Y-44897758D01*
X113597962Y-44900380D01*
X113603223Y-44903533D01*
X113608150Y-44907187D01*
X113612694Y-44911306D01*
X113616813Y-44915850D01*
X113620467Y-44920777D01*
X113623620Y-44926038D01*
X113626242Y-44931582D01*
X113628309Y-44937357D01*
X113629799Y-44943307D01*
X113630699Y-44949374D01*
X113631000Y-44955500D01*
X113631000Y-45905500D01*
X113630699Y-45911626D01*
X113629799Y-45917693D01*
X113628309Y-45923643D01*
X113626242Y-45929418D01*
X113623620Y-45934962D01*
X113620467Y-45940223D01*
X113616813Y-45945150D01*
X113612694Y-45949694D01*
X113608150Y-45953813D01*
X113603223Y-45957467D01*
X113597962Y-45960620D01*
X113592418Y-45963242D01*
X113586643Y-45965309D01*
X113580693Y-45966799D01*
X113574626Y-45967699D01*
X113568500Y-45968000D01*
X113443500Y-45968000D01*
X113437374Y-45967699D01*
X113431307Y-45966799D01*
X113425357Y-45965309D01*
X113419582Y-45963242D01*
X113414038Y-45960620D01*
X113408777Y-45957467D01*
X113403850Y-45953813D01*
X113399306Y-45949694D01*
X113395187Y-45945150D01*
X113391533Y-45940223D01*
X113388380Y-45934962D01*
X113385758Y-45929418D01*
X113383691Y-45923643D01*
X113382201Y-45917693D01*
X113381301Y-45911626D01*
X113381000Y-45905500D01*
X113381000Y-44955500D01*
X113381301Y-44949374D01*
X113382201Y-44943307D01*
X113383691Y-44937357D01*
X113385758Y-44931582D01*
X113388380Y-44926038D01*
X113391533Y-44920777D01*
X113395187Y-44915850D01*
X113399306Y-44911306D01*
X113403850Y-44907187D01*
X113408777Y-44903533D01*
X113414038Y-44900380D01*
X113419582Y-44897758D01*
X113425357Y-44895691D01*
X113431307Y-44894201D01*
X113437374Y-44893301D01*
X113443500Y-44893000D01*
X113568500Y-44893000D01*
X113574626Y-44893301D01*
G37*
G36*
X114074626Y-44893301D02*
G01*
X114080693Y-44894201D01*
X114086643Y-44895691D01*
X114092418Y-44897758D01*
X114097962Y-44900380D01*
X114103223Y-44903533D01*
X114108150Y-44907187D01*
X114112694Y-44911306D01*
X114116813Y-44915850D01*
X114120467Y-44920777D01*
X114123620Y-44926038D01*
X114126242Y-44931582D01*
X114128309Y-44937357D01*
X114129799Y-44943307D01*
X114130699Y-44949374D01*
X114131000Y-44955500D01*
X114131000Y-45905500D01*
X114130699Y-45911626D01*
X114129799Y-45917693D01*
X114128309Y-45923643D01*
X114126242Y-45929418D01*
X114123620Y-45934962D01*
X114120467Y-45940223D01*
X114116813Y-45945150D01*
X114112694Y-45949694D01*
X114108150Y-45953813D01*
X114103223Y-45957467D01*
X114097962Y-45960620D01*
X114092418Y-45963242D01*
X114086643Y-45965309D01*
X114080693Y-45966799D01*
X114074626Y-45967699D01*
X114068500Y-45968000D01*
X113943500Y-45968000D01*
X113937374Y-45967699D01*
X113931307Y-45966799D01*
X113925357Y-45965309D01*
X113919582Y-45963242D01*
X113914038Y-45960620D01*
X113908777Y-45957467D01*
X113903850Y-45953813D01*
X113899306Y-45949694D01*
X113895187Y-45945150D01*
X113891533Y-45940223D01*
X113888380Y-45934962D01*
X113885758Y-45929418D01*
X113883691Y-45923643D01*
X113882201Y-45917693D01*
X113881301Y-45911626D01*
X113881000Y-45905500D01*
X113881000Y-44955500D01*
X113881301Y-44949374D01*
X113882201Y-44943307D01*
X113883691Y-44937357D01*
X113885758Y-44931582D01*
X113888380Y-44926038D01*
X113891533Y-44920777D01*
X113895187Y-44915850D01*
X113899306Y-44911306D01*
X113903850Y-44907187D01*
X113908777Y-44903533D01*
X113914038Y-44900380D01*
X113919582Y-44897758D01*
X113925357Y-44895691D01*
X113931307Y-44894201D01*
X113937374Y-44893301D01*
X113943500Y-44893000D01*
X114068500Y-44893000D01*
X114074626Y-44893301D01*
G37*
G36*
X115324626Y-46143301D02*
G01*
X115330693Y-46144201D01*
X115336643Y-46145691D01*
X115342418Y-46147758D01*
X115347962Y-46150380D01*
X115353223Y-46153533D01*
X115358150Y-46157187D01*
X115362694Y-46161306D01*
X115366813Y-46165850D01*
X115370467Y-46170777D01*
X115373620Y-46176038D01*
X115376242Y-46181582D01*
X115378309Y-46187357D01*
X115379799Y-46193307D01*
X115380699Y-46199374D01*
X115381000Y-46205500D01*
X115381000Y-46330500D01*
X115380699Y-46336626D01*
X115379799Y-46342693D01*
X115378309Y-46348643D01*
X115376242Y-46354418D01*
X115373620Y-46359962D01*
X115370467Y-46365223D01*
X115366813Y-46370150D01*
X115362694Y-46374694D01*
X115358150Y-46378813D01*
X115353223Y-46382467D01*
X115347962Y-46385620D01*
X115342418Y-46388242D01*
X115336643Y-46390309D01*
X115330693Y-46391799D01*
X115324626Y-46392699D01*
X115318500Y-46393000D01*
X114368500Y-46393000D01*
X114362374Y-46392699D01*
X114356307Y-46391799D01*
X114350357Y-46390309D01*
X114344582Y-46388242D01*
X114339038Y-46385620D01*
X114333777Y-46382467D01*
X114328850Y-46378813D01*
X114324306Y-46374694D01*
X114320187Y-46370150D01*
X114316533Y-46365223D01*
X114313380Y-46359962D01*
X114310758Y-46354418D01*
X114308691Y-46348643D01*
X114307201Y-46342693D01*
X114306301Y-46336626D01*
X114306000Y-46330500D01*
X114306000Y-46205500D01*
X114306301Y-46199374D01*
X114307201Y-46193307D01*
X114308691Y-46187357D01*
X114310758Y-46181582D01*
X114313380Y-46176038D01*
X114316533Y-46170777D01*
X114320187Y-46165850D01*
X114324306Y-46161306D01*
X114328850Y-46157187D01*
X114333777Y-46153533D01*
X114339038Y-46150380D01*
X114344582Y-46147758D01*
X114350357Y-46145691D01*
X114356307Y-46144201D01*
X114362374Y-46143301D01*
X114368500Y-46143000D01*
X115318500Y-46143000D01*
X115324626Y-46143301D01*
G37*
G36*
X115324626Y-46643301D02*
G01*
X115330693Y-46644201D01*
X115336643Y-46645691D01*
X115342418Y-46647758D01*
X115347962Y-46650380D01*
X115353223Y-46653533D01*
X115358150Y-46657187D01*
X115362694Y-46661306D01*
X115366813Y-46665850D01*
X115370467Y-46670777D01*
X115373620Y-46676038D01*
X115376242Y-46681582D01*
X115378309Y-46687357D01*
X115379799Y-46693307D01*
X115380699Y-46699374D01*
X115381000Y-46705500D01*
X115381000Y-46830500D01*
X115380699Y-46836626D01*
X115379799Y-46842693D01*
X115378309Y-46848643D01*
X115376242Y-46854418D01*
X115373620Y-46859962D01*
X115370467Y-46865223D01*
X115366813Y-46870150D01*
X115362694Y-46874694D01*
X115358150Y-46878813D01*
X115353223Y-46882467D01*
X115347962Y-46885620D01*
X115342418Y-46888242D01*
X115336643Y-46890309D01*
X115330693Y-46891799D01*
X115324626Y-46892699D01*
X115318500Y-46893000D01*
X114368500Y-46893000D01*
X114362374Y-46892699D01*
X114356307Y-46891799D01*
X114350357Y-46890309D01*
X114344582Y-46888242D01*
X114339038Y-46885620D01*
X114333777Y-46882467D01*
X114328850Y-46878813D01*
X114324306Y-46874694D01*
X114320187Y-46870150D01*
X114316533Y-46865223D01*
X114313380Y-46859962D01*
X114310758Y-46854418D01*
X114308691Y-46848643D01*
X114307201Y-46842693D01*
X114306301Y-46836626D01*
X114306000Y-46830500D01*
X114306000Y-46705500D01*
X114306301Y-46699374D01*
X114307201Y-46693307D01*
X114308691Y-46687357D01*
X114310758Y-46681582D01*
X114313380Y-46676038D01*
X114316533Y-46670777D01*
X114320187Y-46665850D01*
X114324306Y-46661306D01*
X114328850Y-46657187D01*
X114333777Y-46653533D01*
X114339038Y-46650380D01*
X114344582Y-46647758D01*
X114350357Y-46645691D01*
X114356307Y-46644201D01*
X114362374Y-46643301D01*
X114368500Y-46643000D01*
X115318500Y-46643000D01*
X115324626Y-46643301D01*
G37*
G36*
X115324626Y-47143301D02*
G01*
X115330693Y-47144201D01*
X115336643Y-47145691D01*
X115342418Y-47147758D01*
X115347962Y-47150380D01*
X115353223Y-47153533D01*
X115358150Y-47157187D01*
X115362694Y-47161306D01*
X115366813Y-47165850D01*
X115370467Y-47170777D01*
X115373620Y-47176038D01*
X115376242Y-47181582D01*
X115378309Y-47187357D01*
X115379799Y-47193307D01*
X115380699Y-47199374D01*
X115381000Y-47205500D01*
X115381000Y-47330500D01*
X115380699Y-47336626D01*
X115379799Y-47342693D01*
X115378309Y-47348643D01*
X115376242Y-47354418D01*
X115373620Y-47359962D01*
X115370467Y-47365223D01*
X115366813Y-47370150D01*
X115362694Y-47374694D01*
X115358150Y-47378813D01*
X115353223Y-47382467D01*
X115347962Y-47385620D01*
X115342418Y-47388242D01*
X115336643Y-47390309D01*
X115330693Y-47391799D01*
X115324626Y-47392699D01*
X115318500Y-47393000D01*
X114368500Y-47393000D01*
X114362374Y-47392699D01*
X114356307Y-47391799D01*
X114350357Y-47390309D01*
X114344582Y-47388242D01*
X114339038Y-47385620D01*
X114333777Y-47382467D01*
X114328850Y-47378813D01*
X114324306Y-47374694D01*
X114320187Y-47370150D01*
X114316533Y-47365223D01*
X114313380Y-47359962D01*
X114310758Y-47354418D01*
X114308691Y-47348643D01*
X114307201Y-47342693D01*
X114306301Y-47336626D01*
X114306000Y-47330500D01*
X114306000Y-47205500D01*
X114306301Y-47199374D01*
X114307201Y-47193307D01*
X114308691Y-47187357D01*
X114310758Y-47181582D01*
X114313380Y-47176038D01*
X114316533Y-47170777D01*
X114320187Y-47165850D01*
X114324306Y-47161306D01*
X114328850Y-47157187D01*
X114333777Y-47153533D01*
X114339038Y-47150380D01*
X114344582Y-47147758D01*
X114350357Y-47145691D01*
X114356307Y-47144201D01*
X114362374Y-47143301D01*
X114368500Y-47143000D01*
X115318500Y-47143000D01*
X115324626Y-47143301D01*
G37*
G36*
X115324626Y-47643301D02*
G01*
X115330693Y-47644201D01*
X115336643Y-47645691D01*
X115342418Y-47647758D01*
X115347962Y-47650380D01*
X115353223Y-47653533D01*
X115358150Y-47657187D01*
X115362694Y-47661306D01*
X115366813Y-47665850D01*
X115370467Y-47670777D01*
X115373620Y-47676038D01*
X115376242Y-47681582D01*
X115378309Y-47687357D01*
X115379799Y-47693307D01*
X115380699Y-47699374D01*
X115381000Y-47705500D01*
X115381000Y-47830500D01*
X115380699Y-47836626D01*
X115379799Y-47842693D01*
X115378309Y-47848643D01*
X115376242Y-47854418D01*
X115373620Y-47859962D01*
X115370467Y-47865223D01*
X115366813Y-47870150D01*
X115362694Y-47874694D01*
X115358150Y-47878813D01*
X115353223Y-47882467D01*
X115347962Y-47885620D01*
X115342418Y-47888242D01*
X115336643Y-47890309D01*
X115330693Y-47891799D01*
X115324626Y-47892699D01*
X115318500Y-47893000D01*
X114368500Y-47893000D01*
X114362374Y-47892699D01*
X114356307Y-47891799D01*
X114350357Y-47890309D01*
X114344582Y-47888242D01*
X114339038Y-47885620D01*
X114333777Y-47882467D01*
X114328850Y-47878813D01*
X114324306Y-47874694D01*
X114320187Y-47870150D01*
X114316533Y-47865223D01*
X114313380Y-47859962D01*
X114310758Y-47854418D01*
X114308691Y-47848643D01*
X114307201Y-47842693D01*
X114306301Y-47836626D01*
X114306000Y-47830500D01*
X114306000Y-47705500D01*
X114306301Y-47699374D01*
X114307201Y-47693307D01*
X114308691Y-47687357D01*
X114310758Y-47681582D01*
X114313380Y-47676038D01*
X114316533Y-47670777D01*
X114320187Y-47665850D01*
X114324306Y-47661306D01*
X114328850Y-47657187D01*
X114333777Y-47653533D01*
X114339038Y-47650380D01*
X114344582Y-47647758D01*
X114350357Y-47645691D01*
X114356307Y-47644201D01*
X114362374Y-47643301D01*
X114368500Y-47643000D01*
X115318500Y-47643000D01*
X115324626Y-47643301D01*
G37*
G36*
X115324626Y-48143301D02*
G01*
X115330693Y-48144201D01*
X115336643Y-48145691D01*
X115342418Y-48147758D01*
X115347962Y-48150380D01*
X115353223Y-48153533D01*
X115358150Y-48157187D01*
X115362694Y-48161306D01*
X115366813Y-48165850D01*
X115370467Y-48170777D01*
X115373620Y-48176038D01*
X115376242Y-48181582D01*
X115378309Y-48187357D01*
X115379799Y-48193307D01*
X115380699Y-48199374D01*
X115381000Y-48205500D01*
X115381000Y-48330500D01*
X115380699Y-48336626D01*
X115379799Y-48342693D01*
X115378309Y-48348643D01*
X115376242Y-48354418D01*
X115373620Y-48359962D01*
X115370467Y-48365223D01*
X115366813Y-48370150D01*
X115362694Y-48374694D01*
X115358150Y-48378813D01*
X115353223Y-48382467D01*
X115347962Y-48385620D01*
X115342418Y-48388242D01*
X115336643Y-48390309D01*
X115330693Y-48391799D01*
X115324626Y-48392699D01*
X115318500Y-48393000D01*
X114368500Y-48393000D01*
X114362374Y-48392699D01*
X114356307Y-48391799D01*
X114350357Y-48390309D01*
X114344582Y-48388242D01*
X114339038Y-48385620D01*
X114333777Y-48382467D01*
X114328850Y-48378813D01*
X114324306Y-48374694D01*
X114320187Y-48370150D01*
X114316533Y-48365223D01*
X114313380Y-48359962D01*
X114310758Y-48354418D01*
X114308691Y-48348643D01*
X114307201Y-48342693D01*
X114306301Y-48336626D01*
X114306000Y-48330500D01*
X114306000Y-48205500D01*
X114306301Y-48199374D01*
X114307201Y-48193307D01*
X114308691Y-48187357D01*
X114310758Y-48181582D01*
X114313380Y-48176038D01*
X114316533Y-48170777D01*
X114320187Y-48165850D01*
X114324306Y-48161306D01*
X114328850Y-48157187D01*
X114333777Y-48153533D01*
X114339038Y-48150380D01*
X114344582Y-48147758D01*
X114350357Y-48145691D01*
X114356307Y-48144201D01*
X114362374Y-48143301D01*
X114368500Y-48143000D01*
X115318500Y-48143000D01*
X115324626Y-48143301D01*
G37*
G36*
X115324626Y-48643301D02*
G01*
X115330693Y-48644201D01*
X115336643Y-48645691D01*
X115342418Y-48647758D01*
X115347962Y-48650380D01*
X115353223Y-48653533D01*
X115358150Y-48657187D01*
X115362694Y-48661306D01*
X115366813Y-48665850D01*
X115370467Y-48670777D01*
X115373620Y-48676038D01*
X115376242Y-48681582D01*
X115378309Y-48687357D01*
X115379799Y-48693307D01*
X115380699Y-48699374D01*
X115381000Y-48705500D01*
X115381000Y-48830500D01*
X115380699Y-48836626D01*
X115379799Y-48842693D01*
X115378309Y-48848643D01*
X115376242Y-48854418D01*
X115373620Y-48859962D01*
X115370467Y-48865223D01*
X115366813Y-48870150D01*
X115362694Y-48874694D01*
X115358150Y-48878813D01*
X115353223Y-48882467D01*
X115347962Y-48885620D01*
X115342418Y-48888242D01*
X115336643Y-48890309D01*
X115330693Y-48891799D01*
X115324626Y-48892699D01*
X115318500Y-48893000D01*
X114368500Y-48893000D01*
X114362374Y-48892699D01*
X114356307Y-48891799D01*
X114350357Y-48890309D01*
X114344582Y-48888242D01*
X114339038Y-48885620D01*
X114333777Y-48882467D01*
X114328850Y-48878813D01*
X114324306Y-48874694D01*
X114320187Y-48870150D01*
X114316533Y-48865223D01*
X114313380Y-48859962D01*
X114310758Y-48854418D01*
X114308691Y-48848643D01*
X114307201Y-48842693D01*
X114306301Y-48836626D01*
X114306000Y-48830500D01*
X114306000Y-48705500D01*
X114306301Y-48699374D01*
X114307201Y-48693307D01*
X114308691Y-48687357D01*
X114310758Y-48681582D01*
X114313380Y-48676038D01*
X114316533Y-48670777D01*
X114320187Y-48665850D01*
X114324306Y-48661306D01*
X114328850Y-48657187D01*
X114333777Y-48653533D01*
X114339038Y-48650380D01*
X114344582Y-48647758D01*
X114350357Y-48645691D01*
X114356307Y-48644201D01*
X114362374Y-48643301D01*
X114368500Y-48643000D01*
X115318500Y-48643000D01*
X115324626Y-48643301D01*
G37*
G36*
X115324626Y-49143301D02*
G01*
X115330693Y-49144201D01*
X115336643Y-49145691D01*
X115342418Y-49147758D01*
X115347962Y-49150380D01*
X115353223Y-49153533D01*
X115358150Y-49157187D01*
X115362694Y-49161306D01*
X115366813Y-49165850D01*
X115370467Y-49170777D01*
X115373620Y-49176038D01*
X115376242Y-49181582D01*
X115378309Y-49187357D01*
X115379799Y-49193307D01*
X115380699Y-49199374D01*
X115381000Y-49205500D01*
X115381000Y-49330500D01*
X115380699Y-49336626D01*
X115379799Y-49342693D01*
X115378309Y-49348643D01*
X115376242Y-49354418D01*
X115373620Y-49359962D01*
X115370467Y-49365223D01*
X115366813Y-49370150D01*
X115362694Y-49374694D01*
X115358150Y-49378813D01*
X115353223Y-49382467D01*
X115347962Y-49385620D01*
X115342418Y-49388242D01*
X115336643Y-49390309D01*
X115330693Y-49391799D01*
X115324626Y-49392699D01*
X115318500Y-49393000D01*
X114368500Y-49393000D01*
X114362374Y-49392699D01*
X114356307Y-49391799D01*
X114350357Y-49390309D01*
X114344582Y-49388242D01*
X114339038Y-49385620D01*
X114333777Y-49382467D01*
X114328850Y-49378813D01*
X114324306Y-49374694D01*
X114320187Y-49370150D01*
X114316533Y-49365223D01*
X114313380Y-49359962D01*
X114310758Y-49354418D01*
X114308691Y-49348643D01*
X114307201Y-49342693D01*
X114306301Y-49336626D01*
X114306000Y-49330500D01*
X114306000Y-49205500D01*
X114306301Y-49199374D01*
X114307201Y-49193307D01*
X114308691Y-49187357D01*
X114310758Y-49181582D01*
X114313380Y-49176038D01*
X114316533Y-49170777D01*
X114320187Y-49165850D01*
X114324306Y-49161306D01*
X114328850Y-49157187D01*
X114333777Y-49153533D01*
X114339038Y-49150380D01*
X114344582Y-49147758D01*
X114350357Y-49145691D01*
X114356307Y-49144201D01*
X114362374Y-49143301D01*
X114368500Y-49143000D01*
X115318500Y-49143000D01*
X115324626Y-49143301D01*
G37*
G36*
X115324626Y-49643301D02*
G01*
X115330693Y-49644201D01*
X115336643Y-49645691D01*
X115342418Y-49647758D01*
X115347962Y-49650380D01*
X115353223Y-49653533D01*
X115358150Y-49657187D01*
X115362694Y-49661306D01*
X115366813Y-49665850D01*
X115370467Y-49670777D01*
X115373620Y-49676038D01*
X115376242Y-49681582D01*
X115378309Y-49687357D01*
X115379799Y-49693307D01*
X115380699Y-49699374D01*
X115381000Y-49705500D01*
X115381000Y-49830500D01*
X115380699Y-49836626D01*
X115379799Y-49842693D01*
X115378309Y-49848643D01*
X115376242Y-49854418D01*
X115373620Y-49859962D01*
X115370467Y-49865223D01*
X115366813Y-49870150D01*
X115362694Y-49874694D01*
X115358150Y-49878813D01*
X115353223Y-49882467D01*
X115347962Y-49885620D01*
X115342418Y-49888242D01*
X115336643Y-49890309D01*
X115330693Y-49891799D01*
X115324626Y-49892699D01*
X115318500Y-49893000D01*
X114368500Y-49893000D01*
X114362374Y-49892699D01*
X114356307Y-49891799D01*
X114350357Y-49890309D01*
X114344582Y-49888242D01*
X114339038Y-49885620D01*
X114333777Y-49882467D01*
X114328850Y-49878813D01*
X114324306Y-49874694D01*
X114320187Y-49870150D01*
X114316533Y-49865223D01*
X114313380Y-49859962D01*
X114310758Y-49854418D01*
X114308691Y-49848643D01*
X114307201Y-49842693D01*
X114306301Y-49836626D01*
X114306000Y-49830500D01*
X114306000Y-49705500D01*
X114306301Y-49699374D01*
X114307201Y-49693307D01*
X114308691Y-49687357D01*
X114310758Y-49681582D01*
X114313380Y-49676038D01*
X114316533Y-49670777D01*
X114320187Y-49665850D01*
X114324306Y-49661306D01*
X114328850Y-49657187D01*
X114333777Y-49653533D01*
X114339038Y-49650380D01*
X114344582Y-49647758D01*
X114350357Y-49645691D01*
X114356307Y-49644201D01*
X114362374Y-49643301D01*
X114368500Y-49643000D01*
X115318500Y-49643000D01*
X115324626Y-49643301D01*
G37*
G36*
X115324626Y-50143301D02*
G01*
X115330693Y-50144201D01*
X115336643Y-50145691D01*
X115342418Y-50147758D01*
X115347962Y-50150380D01*
X115353223Y-50153533D01*
X115358150Y-50157187D01*
X115362694Y-50161306D01*
X115366813Y-50165850D01*
X115370467Y-50170777D01*
X115373620Y-50176038D01*
X115376242Y-50181582D01*
X115378309Y-50187357D01*
X115379799Y-50193307D01*
X115380699Y-50199374D01*
X115381000Y-50205500D01*
X115381000Y-50330500D01*
X115380699Y-50336626D01*
X115379799Y-50342693D01*
X115378309Y-50348643D01*
X115376242Y-50354418D01*
X115373620Y-50359962D01*
X115370467Y-50365223D01*
X115366813Y-50370150D01*
X115362694Y-50374694D01*
X115358150Y-50378813D01*
X115353223Y-50382467D01*
X115347962Y-50385620D01*
X115342418Y-50388242D01*
X115336643Y-50390309D01*
X115330693Y-50391799D01*
X115324626Y-50392699D01*
X115318500Y-50393000D01*
X114368500Y-50393000D01*
X114362374Y-50392699D01*
X114356307Y-50391799D01*
X114350357Y-50390309D01*
X114344582Y-50388242D01*
X114339038Y-50385620D01*
X114333777Y-50382467D01*
X114328850Y-50378813D01*
X114324306Y-50374694D01*
X114320187Y-50370150D01*
X114316533Y-50365223D01*
X114313380Y-50359962D01*
X114310758Y-50354418D01*
X114308691Y-50348643D01*
X114307201Y-50342693D01*
X114306301Y-50336626D01*
X114306000Y-50330500D01*
X114306000Y-50205500D01*
X114306301Y-50199374D01*
X114307201Y-50193307D01*
X114308691Y-50187357D01*
X114310758Y-50181582D01*
X114313380Y-50176038D01*
X114316533Y-50170777D01*
X114320187Y-50165850D01*
X114324306Y-50161306D01*
X114328850Y-50157187D01*
X114333777Y-50153533D01*
X114339038Y-50150380D01*
X114344582Y-50147758D01*
X114350357Y-50145691D01*
X114356307Y-50144201D01*
X114362374Y-50143301D01*
X114368500Y-50143000D01*
X115318500Y-50143000D01*
X115324626Y-50143301D01*
G37*
G36*
X115324626Y-50643301D02*
G01*
X115330693Y-50644201D01*
X115336643Y-50645691D01*
X115342418Y-50647758D01*
X115347962Y-50650380D01*
X115353223Y-50653533D01*
X115358150Y-50657187D01*
X115362694Y-50661306D01*
X115366813Y-50665850D01*
X115370467Y-50670777D01*
X115373620Y-50676038D01*
X115376242Y-50681582D01*
X115378309Y-50687357D01*
X115379799Y-50693307D01*
X115380699Y-50699374D01*
X115381000Y-50705500D01*
X115381000Y-50830500D01*
X115380699Y-50836626D01*
X115379799Y-50842693D01*
X115378309Y-50848643D01*
X115376242Y-50854418D01*
X115373620Y-50859962D01*
X115370467Y-50865223D01*
X115366813Y-50870150D01*
X115362694Y-50874694D01*
X115358150Y-50878813D01*
X115353223Y-50882467D01*
X115347962Y-50885620D01*
X115342418Y-50888242D01*
X115336643Y-50890309D01*
X115330693Y-50891799D01*
X115324626Y-50892699D01*
X115318500Y-50893000D01*
X114368500Y-50893000D01*
X114362374Y-50892699D01*
X114356307Y-50891799D01*
X114350357Y-50890309D01*
X114344582Y-50888242D01*
X114339038Y-50885620D01*
X114333777Y-50882467D01*
X114328850Y-50878813D01*
X114324306Y-50874694D01*
X114320187Y-50870150D01*
X114316533Y-50865223D01*
X114313380Y-50859962D01*
X114310758Y-50854418D01*
X114308691Y-50848643D01*
X114307201Y-50842693D01*
X114306301Y-50836626D01*
X114306000Y-50830500D01*
X114306000Y-50705500D01*
X114306301Y-50699374D01*
X114307201Y-50693307D01*
X114308691Y-50687357D01*
X114310758Y-50681582D01*
X114313380Y-50676038D01*
X114316533Y-50670777D01*
X114320187Y-50665850D01*
X114324306Y-50661306D01*
X114328850Y-50657187D01*
X114333777Y-50653533D01*
X114339038Y-50650380D01*
X114344582Y-50647758D01*
X114350357Y-50645691D01*
X114356307Y-50644201D01*
X114362374Y-50643301D01*
X114368500Y-50643000D01*
X115318500Y-50643000D01*
X115324626Y-50643301D01*
G37*
G36*
X115324626Y-51143301D02*
G01*
X115330693Y-51144201D01*
X115336643Y-51145691D01*
X115342418Y-51147758D01*
X115347962Y-51150380D01*
X115353223Y-51153533D01*
X115358150Y-51157187D01*
X115362694Y-51161306D01*
X115366813Y-51165850D01*
X115370467Y-51170777D01*
X115373620Y-51176038D01*
X115376242Y-51181582D01*
X115378309Y-51187357D01*
X115379799Y-51193307D01*
X115380699Y-51199374D01*
X115381000Y-51205500D01*
X115381000Y-51330500D01*
X115380699Y-51336626D01*
X115379799Y-51342693D01*
X115378309Y-51348643D01*
X115376242Y-51354418D01*
X115373620Y-51359962D01*
X115370467Y-51365223D01*
X115366813Y-51370150D01*
X115362694Y-51374694D01*
X115358150Y-51378813D01*
X115353223Y-51382467D01*
X115347962Y-51385620D01*
X115342418Y-51388242D01*
X115336643Y-51390309D01*
X115330693Y-51391799D01*
X115324626Y-51392699D01*
X115318500Y-51393000D01*
X114368500Y-51393000D01*
X114362374Y-51392699D01*
X114356307Y-51391799D01*
X114350357Y-51390309D01*
X114344582Y-51388242D01*
X114339038Y-51385620D01*
X114333777Y-51382467D01*
X114328850Y-51378813D01*
X114324306Y-51374694D01*
X114320187Y-51370150D01*
X114316533Y-51365223D01*
X114313380Y-51359962D01*
X114310758Y-51354418D01*
X114308691Y-51348643D01*
X114307201Y-51342693D01*
X114306301Y-51336626D01*
X114306000Y-51330500D01*
X114306000Y-51205500D01*
X114306301Y-51199374D01*
X114307201Y-51193307D01*
X114308691Y-51187357D01*
X114310758Y-51181582D01*
X114313380Y-51176038D01*
X114316533Y-51170777D01*
X114320187Y-51165850D01*
X114324306Y-51161306D01*
X114328850Y-51157187D01*
X114333777Y-51153533D01*
X114339038Y-51150380D01*
X114344582Y-51147758D01*
X114350357Y-51145691D01*
X114356307Y-51144201D01*
X114362374Y-51143301D01*
X114368500Y-51143000D01*
X115318500Y-51143000D01*
X115324626Y-51143301D01*
G37*
G36*
X114074626Y-51568301D02*
G01*
X114080693Y-51569201D01*
X114086643Y-51570691D01*
X114092418Y-51572758D01*
X114097962Y-51575380D01*
X114103223Y-51578533D01*
X114108150Y-51582187D01*
X114112694Y-51586306D01*
X114116813Y-51590850D01*
X114120467Y-51595777D01*
X114123620Y-51601038D01*
X114126242Y-51606582D01*
X114128309Y-51612357D01*
X114129799Y-51618307D01*
X114130699Y-51624374D01*
X114131000Y-51630500D01*
X114131000Y-52580500D01*
X114130699Y-52586626D01*
X114129799Y-52592693D01*
X114128309Y-52598643D01*
X114126242Y-52604418D01*
X114123620Y-52609962D01*
X114120467Y-52615223D01*
X114116813Y-52620150D01*
X114112694Y-52624694D01*
X114108150Y-52628813D01*
X114103223Y-52632467D01*
X114097962Y-52635620D01*
X114092418Y-52638242D01*
X114086643Y-52640309D01*
X114080693Y-52641799D01*
X114074626Y-52642699D01*
X114068500Y-52643000D01*
X113943500Y-52643000D01*
X113937374Y-52642699D01*
X113931307Y-52641799D01*
X113925357Y-52640309D01*
X113919582Y-52638242D01*
X113914038Y-52635620D01*
X113908777Y-52632467D01*
X113903850Y-52628813D01*
X113899306Y-52624694D01*
X113895187Y-52620150D01*
X113891533Y-52615223D01*
X113888380Y-52609962D01*
X113885758Y-52604418D01*
X113883691Y-52598643D01*
X113882201Y-52592693D01*
X113881301Y-52586626D01*
X113881000Y-52580500D01*
X113881000Y-51630500D01*
X113881301Y-51624374D01*
X113882201Y-51618307D01*
X113883691Y-51612357D01*
X113885758Y-51606582D01*
X113888380Y-51601038D01*
X113891533Y-51595777D01*
X113895187Y-51590850D01*
X113899306Y-51586306D01*
X113903850Y-51582187D01*
X113908777Y-51578533D01*
X113914038Y-51575380D01*
X113919582Y-51572758D01*
X113925357Y-51570691D01*
X113931307Y-51569201D01*
X113937374Y-51568301D01*
X113943500Y-51568000D01*
X114068500Y-51568000D01*
X114074626Y-51568301D01*
G37*
G36*
X113574626Y-51568301D02*
G01*
X113580693Y-51569201D01*
X113586643Y-51570691D01*
X113592418Y-51572758D01*
X113597962Y-51575380D01*
X113603223Y-51578533D01*
X113608150Y-51582187D01*
X113612694Y-51586306D01*
X113616813Y-51590850D01*
X113620467Y-51595777D01*
X113623620Y-51601038D01*
X113626242Y-51606582D01*
X113628309Y-51612357D01*
X113629799Y-51618307D01*
X113630699Y-51624374D01*
X113631000Y-51630500D01*
X113631000Y-52580500D01*
X113630699Y-52586626D01*
X113629799Y-52592693D01*
X113628309Y-52598643D01*
X113626242Y-52604418D01*
X113623620Y-52609962D01*
X113620467Y-52615223D01*
X113616813Y-52620150D01*
X113612694Y-52624694D01*
X113608150Y-52628813D01*
X113603223Y-52632467D01*
X113597962Y-52635620D01*
X113592418Y-52638242D01*
X113586643Y-52640309D01*
X113580693Y-52641799D01*
X113574626Y-52642699D01*
X113568500Y-52643000D01*
X113443500Y-52643000D01*
X113437374Y-52642699D01*
X113431307Y-52641799D01*
X113425357Y-52640309D01*
X113419582Y-52638242D01*
X113414038Y-52635620D01*
X113408777Y-52632467D01*
X113403850Y-52628813D01*
X113399306Y-52624694D01*
X113395187Y-52620150D01*
X113391533Y-52615223D01*
X113388380Y-52609962D01*
X113385758Y-52604418D01*
X113383691Y-52598643D01*
X113382201Y-52592693D01*
X113381301Y-52586626D01*
X113381000Y-52580500D01*
X113381000Y-51630500D01*
X113381301Y-51624374D01*
X113382201Y-51618307D01*
X113383691Y-51612357D01*
X113385758Y-51606582D01*
X113388380Y-51601038D01*
X113391533Y-51595777D01*
X113395187Y-51590850D01*
X113399306Y-51586306D01*
X113403850Y-51582187D01*
X113408777Y-51578533D01*
X113414038Y-51575380D01*
X113419582Y-51572758D01*
X113425357Y-51570691D01*
X113431307Y-51569201D01*
X113437374Y-51568301D01*
X113443500Y-51568000D01*
X113568500Y-51568000D01*
X113574626Y-51568301D01*
G37*
G36*
X113074626Y-51568301D02*
G01*
X113080693Y-51569201D01*
X113086643Y-51570691D01*
X113092418Y-51572758D01*
X113097962Y-51575380D01*
X113103223Y-51578533D01*
X113108150Y-51582187D01*
X113112694Y-51586306D01*
X113116813Y-51590850D01*
X113120467Y-51595777D01*
X113123620Y-51601038D01*
X113126242Y-51606582D01*
X113128309Y-51612357D01*
X113129799Y-51618307D01*
X113130699Y-51624374D01*
X113131000Y-51630500D01*
X113131000Y-52580500D01*
X113130699Y-52586626D01*
X113129799Y-52592693D01*
X113128309Y-52598643D01*
X113126242Y-52604418D01*
X113123620Y-52609962D01*
X113120467Y-52615223D01*
X113116813Y-52620150D01*
X113112694Y-52624694D01*
X113108150Y-52628813D01*
X113103223Y-52632467D01*
X113097962Y-52635620D01*
X113092418Y-52638242D01*
X113086643Y-52640309D01*
X113080693Y-52641799D01*
X113074626Y-52642699D01*
X113068500Y-52643000D01*
X112943500Y-52643000D01*
X112937374Y-52642699D01*
X112931307Y-52641799D01*
X112925357Y-52640309D01*
X112919582Y-52638242D01*
X112914038Y-52635620D01*
X112908777Y-52632467D01*
X112903850Y-52628813D01*
X112899306Y-52624694D01*
X112895187Y-52620150D01*
X112891533Y-52615223D01*
X112888380Y-52609962D01*
X112885758Y-52604418D01*
X112883691Y-52598643D01*
X112882201Y-52592693D01*
X112881301Y-52586626D01*
X112881000Y-52580500D01*
X112881000Y-51630500D01*
X112881301Y-51624374D01*
X112882201Y-51618307D01*
X112883691Y-51612357D01*
X112885758Y-51606582D01*
X112888380Y-51601038D01*
X112891533Y-51595777D01*
X112895187Y-51590850D01*
X112899306Y-51586306D01*
X112903850Y-51582187D01*
X112908777Y-51578533D01*
X112914038Y-51575380D01*
X112919582Y-51572758D01*
X112925357Y-51570691D01*
X112931307Y-51569201D01*
X112937374Y-51568301D01*
X112943500Y-51568000D01*
X113068500Y-51568000D01*
X113074626Y-51568301D01*
G37*
G36*
X112574626Y-51568301D02*
G01*
X112580693Y-51569201D01*
X112586643Y-51570691D01*
X112592418Y-51572758D01*
X112597962Y-51575380D01*
X112603223Y-51578533D01*
X112608150Y-51582187D01*
X112612694Y-51586306D01*
X112616813Y-51590850D01*
X112620467Y-51595777D01*
X112623620Y-51601038D01*
X112626242Y-51606582D01*
X112628309Y-51612357D01*
X112629799Y-51618307D01*
X112630699Y-51624374D01*
X112631000Y-51630500D01*
X112631000Y-52580500D01*
X112630699Y-52586626D01*
X112629799Y-52592693D01*
X112628309Y-52598643D01*
X112626242Y-52604418D01*
X112623620Y-52609962D01*
X112620467Y-52615223D01*
X112616813Y-52620150D01*
X112612694Y-52624694D01*
X112608150Y-52628813D01*
X112603223Y-52632467D01*
X112597962Y-52635620D01*
X112592418Y-52638242D01*
X112586643Y-52640309D01*
X112580693Y-52641799D01*
X112574626Y-52642699D01*
X112568500Y-52643000D01*
X112443500Y-52643000D01*
X112437374Y-52642699D01*
X112431307Y-52641799D01*
X112425357Y-52640309D01*
X112419582Y-52638242D01*
X112414038Y-52635620D01*
X112408777Y-52632467D01*
X112403850Y-52628813D01*
X112399306Y-52624694D01*
X112395187Y-52620150D01*
X112391533Y-52615223D01*
X112388380Y-52609962D01*
X112385758Y-52604418D01*
X112383691Y-52598643D01*
X112382201Y-52592693D01*
X112381301Y-52586626D01*
X112381000Y-52580500D01*
X112381000Y-51630500D01*
X112381301Y-51624374D01*
X112382201Y-51618307D01*
X112383691Y-51612357D01*
X112385758Y-51606582D01*
X112388380Y-51601038D01*
X112391533Y-51595777D01*
X112395187Y-51590850D01*
X112399306Y-51586306D01*
X112403850Y-51582187D01*
X112408777Y-51578533D01*
X112414038Y-51575380D01*
X112419582Y-51572758D01*
X112425357Y-51570691D01*
X112431307Y-51569201D01*
X112437374Y-51568301D01*
X112443500Y-51568000D01*
X112568500Y-51568000D01*
X112574626Y-51568301D01*
G37*
G36*
X112074626Y-51568301D02*
G01*
X112080693Y-51569201D01*
X112086643Y-51570691D01*
X112092418Y-51572758D01*
X112097962Y-51575380D01*
X112103223Y-51578533D01*
X112108150Y-51582187D01*
X112112694Y-51586306D01*
X112116813Y-51590850D01*
X112120467Y-51595777D01*
X112123620Y-51601038D01*
X112126242Y-51606582D01*
X112128309Y-51612357D01*
X112129799Y-51618307D01*
X112130699Y-51624374D01*
X112131000Y-51630500D01*
X112131000Y-52580500D01*
X112130699Y-52586626D01*
X112129799Y-52592693D01*
X112128309Y-52598643D01*
X112126242Y-52604418D01*
X112123620Y-52609962D01*
X112120467Y-52615223D01*
X112116813Y-52620150D01*
X112112694Y-52624694D01*
X112108150Y-52628813D01*
X112103223Y-52632467D01*
X112097962Y-52635620D01*
X112092418Y-52638242D01*
X112086643Y-52640309D01*
X112080693Y-52641799D01*
X112074626Y-52642699D01*
X112068500Y-52643000D01*
X111943500Y-52643000D01*
X111937374Y-52642699D01*
X111931307Y-52641799D01*
X111925357Y-52640309D01*
X111919582Y-52638242D01*
X111914038Y-52635620D01*
X111908777Y-52632467D01*
X111903850Y-52628813D01*
X111899306Y-52624694D01*
X111895187Y-52620150D01*
X111891533Y-52615223D01*
X111888380Y-52609962D01*
X111885758Y-52604418D01*
X111883691Y-52598643D01*
X111882201Y-52592693D01*
X111881301Y-52586626D01*
X111881000Y-52580500D01*
X111881000Y-51630500D01*
X111881301Y-51624374D01*
X111882201Y-51618307D01*
X111883691Y-51612357D01*
X111885758Y-51606582D01*
X111888380Y-51601038D01*
X111891533Y-51595777D01*
X111895187Y-51590850D01*
X111899306Y-51586306D01*
X111903850Y-51582187D01*
X111908777Y-51578533D01*
X111914038Y-51575380D01*
X111919582Y-51572758D01*
X111925357Y-51570691D01*
X111931307Y-51569201D01*
X111937374Y-51568301D01*
X111943500Y-51568000D01*
X112068500Y-51568000D01*
X112074626Y-51568301D01*
G37*
G36*
X111574626Y-51568301D02*
G01*
X111580693Y-51569201D01*
X111586643Y-51570691D01*
X111592418Y-51572758D01*
X111597962Y-51575380D01*
X111603223Y-51578533D01*
X111608150Y-51582187D01*
X111612694Y-51586306D01*
X111616813Y-51590850D01*
X111620467Y-51595777D01*
X111623620Y-51601038D01*
X111626242Y-51606582D01*
X111628309Y-51612357D01*
X111629799Y-51618307D01*
X111630699Y-51624374D01*
X111631000Y-51630500D01*
X111631000Y-52580500D01*
X111630699Y-52586626D01*
X111629799Y-52592693D01*
X111628309Y-52598643D01*
X111626242Y-52604418D01*
X111623620Y-52609962D01*
X111620467Y-52615223D01*
X111616813Y-52620150D01*
X111612694Y-52624694D01*
X111608150Y-52628813D01*
X111603223Y-52632467D01*
X111597962Y-52635620D01*
X111592418Y-52638242D01*
X111586643Y-52640309D01*
X111580693Y-52641799D01*
X111574626Y-52642699D01*
X111568500Y-52643000D01*
X111443500Y-52643000D01*
X111437374Y-52642699D01*
X111431307Y-52641799D01*
X111425357Y-52640309D01*
X111419582Y-52638242D01*
X111414038Y-52635620D01*
X111408777Y-52632467D01*
X111403850Y-52628813D01*
X111399306Y-52624694D01*
X111395187Y-52620150D01*
X111391533Y-52615223D01*
X111388380Y-52609962D01*
X111385758Y-52604418D01*
X111383691Y-52598643D01*
X111382201Y-52592693D01*
X111381301Y-52586626D01*
X111381000Y-52580500D01*
X111381000Y-51630500D01*
X111381301Y-51624374D01*
X111382201Y-51618307D01*
X111383691Y-51612357D01*
X111385758Y-51606582D01*
X111388380Y-51601038D01*
X111391533Y-51595777D01*
X111395187Y-51590850D01*
X111399306Y-51586306D01*
X111403850Y-51582187D01*
X111408777Y-51578533D01*
X111414038Y-51575380D01*
X111419582Y-51572758D01*
X111425357Y-51570691D01*
X111431307Y-51569201D01*
X111437374Y-51568301D01*
X111443500Y-51568000D01*
X111568500Y-51568000D01*
X111574626Y-51568301D01*
G37*
G36*
X111074626Y-51568301D02*
G01*
X111080693Y-51569201D01*
X111086643Y-51570691D01*
X111092418Y-51572758D01*
X111097962Y-51575380D01*
X111103223Y-51578533D01*
X111108150Y-51582187D01*
X111112694Y-51586306D01*
X111116813Y-51590850D01*
X111120467Y-51595777D01*
X111123620Y-51601038D01*
X111126242Y-51606582D01*
X111128309Y-51612357D01*
X111129799Y-51618307D01*
X111130699Y-51624374D01*
X111131000Y-51630500D01*
X111131000Y-52580500D01*
X111130699Y-52586626D01*
X111129799Y-52592693D01*
X111128309Y-52598643D01*
X111126242Y-52604418D01*
X111123620Y-52609962D01*
X111120467Y-52615223D01*
X111116813Y-52620150D01*
X111112694Y-52624694D01*
X111108150Y-52628813D01*
X111103223Y-52632467D01*
X111097962Y-52635620D01*
X111092418Y-52638242D01*
X111086643Y-52640309D01*
X111080693Y-52641799D01*
X111074626Y-52642699D01*
X111068500Y-52643000D01*
X110943500Y-52643000D01*
X110937374Y-52642699D01*
X110931307Y-52641799D01*
X110925357Y-52640309D01*
X110919582Y-52638242D01*
X110914038Y-52635620D01*
X110908777Y-52632467D01*
X110903850Y-52628813D01*
X110899306Y-52624694D01*
X110895187Y-52620150D01*
X110891533Y-52615223D01*
X110888380Y-52609962D01*
X110885758Y-52604418D01*
X110883691Y-52598643D01*
X110882201Y-52592693D01*
X110881301Y-52586626D01*
X110881000Y-52580500D01*
X110881000Y-51630500D01*
X110881301Y-51624374D01*
X110882201Y-51618307D01*
X110883691Y-51612357D01*
X110885758Y-51606582D01*
X110888380Y-51601038D01*
X110891533Y-51595777D01*
X110895187Y-51590850D01*
X110899306Y-51586306D01*
X110903850Y-51582187D01*
X110908777Y-51578533D01*
X110914038Y-51575380D01*
X110919582Y-51572758D01*
X110925357Y-51570691D01*
X110931307Y-51569201D01*
X110937374Y-51568301D01*
X110943500Y-51568000D01*
X111068500Y-51568000D01*
X111074626Y-51568301D01*
G37*
G36*
X110574626Y-51568301D02*
G01*
X110580693Y-51569201D01*
X110586643Y-51570691D01*
X110592418Y-51572758D01*
X110597962Y-51575380D01*
X110603223Y-51578533D01*
X110608150Y-51582187D01*
X110612694Y-51586306D01*
X110616813Y-51590850D01*
X110620467Y-51595777D01*
X110623620Y-51601038D01*
X110626242Y-51606582D01*
X110628309Y-51612357D01*
X110629799Y-51618307D01*
X110630699Y-51624374D01*
X110631000Y-51630500D01*
X110631000Y-52580500D01*
X110630699Y-52586626D01*
X110629799Y-52592693D01*
X110628309Y-52598643D01*
X110626242Y-52604418D01*
X110623620Y-52609962D01*
X110620467Y-52615223D01*
X110616813Y-52620150D01*
X110612694Y-52624694D01*
X110608150Y-52628813D01*
X110603223Y-52632467D01*
X110597962Y-52635620D01*
X110592418Y-52638242D01*
X110586643Y-52640309D01*
X110580693Y-52641799D01*
X110574626Y-52642699D01*
X110568500Y-52643000D01*
X110443500Y-52643000D01*
X110437374Y-52642699D01*
X110431307Y-52641799D01*
X110425357Y-52640309D01*
X110419582Y-52638242D01*
X110414038Y-52635620D01*
X110408777Y-52632467D01*
X110403850Y-52628813D01*
X110399306Y-52624694D01*
X110395187Y-52620150D01*
X110391533Y-52615223D01*
X110388380Y-52609962D01*
X110385758Y-52604418D01*
X110383691Y-52598643D01*
X110382201Y-52592693D01*
X110381301Y-52586626D01*
X110381000Y-52580500D01*
X110381000Y-51630500D01*
X110381301Y-51624374D01*
X110382201Y-51618307D01*
X110383691Y-51612357D01*
X110385758Y-51606582D01*
X110388380Y-51601038D01*
X110391533Y-51595777D01*
X110395187Y-51590850D01*
X110399306Y-51586306D01*
X110403850Y-51582187D01*
X110408777Y-51578533D01*
X110414038Y-51575380D01*
X110419582Y-51572758D01*
X110425357Y-51570691D01*
X110431307Y-51569201D01*
X110437374Y-51568301D01*
X110443500Y-51568000D01*
X110568500Y-51568000D01*
X110574626Y-51568301D01*
G37*
G36*
X110074626Y-51568301D02*
G01*
X110080693Y-51569201D01*
X110086643Y-51570691D01*
X110092418Y-51572758D01*
X110097962Y-51575380D01*
X110103223Y-51578533D01*
X110108150Y-51582187D01*
X110112694Y-51586306D01*
X110116813Y-51590850D01*
X110120467Y-51595777D01*
X110123620Y-51601038D01*
X110126242Y-51606582D01*
X110128309Y-51612357D01*
X110129799Y-51618307D01*
X110130699Y-51624374D01*
X110131000Y-51630500D01*
X110131000Y-52580500D01*
X110130699Y-52586626D01*
X110129799Y-52592693D01*
X110128309Y-52598643D01*
X110126242Y-52604418D01*
X110123620Y-52609962D01*
X110120467Y-52615223D01*
X110116813Y-52620150D01*
X110112694Y-52624694D01*
X110108150Y-52628813D01*
X110103223Y-52632467D01*
X110097962Y-52635620D01*
X110092418Y-52638242D01*
X110086643Y-52640309D01*
X110080693Y-52641799D01*
X110074626Y-52642699D01*
X110068500Y-52643000D01*
X109943500Y-52643000D01*
X109937374Y-52642699D01*
X109931307Y-52641799D01*
X109925357Y-52640309D01*
X109919582Y-52638242D01*
X109914038Y-52635620D01*
X109908777Y-52632467D01*
X109903850Y-52628813D01*
X109899306Y-52624694D01*
X109895187Y-52620150D01*
X109891533Y-52615223D01*
X109888380Y-52609962D01*
X109885758Y-52604418D01*
X109883691Y-52598643D01*
X109882201Y-52592693D01*
X109881301Y-52586626D01*
X109881000Y-52580500D01*
X109881000Y-51630500D01*
X109881301Y-51624374D01*
X109882201Y-51618307D01*
X109883691Y-51612357D01*
X109885758Y-51606582D01*
X109888380Y-51601038D01*
X109891533Y-51595777D01*
X109895187Y-51590850D01*
X109899306Y-51586306D01*
X109903850Y-51582187D01*
X109908777Y-51578533D01*
X109914038Y-51575380D01*
X109919582Y-51572758D01*
X109925357Y-51570691D01*
X109931307Y-51569201D01*
X109937374Y-51568301D01*
X109943500Y-51568000D01*
X110068500Y-51568000D01*
X110074626Y-51568301D01*
G37*
G36*
X109574626Y-51568301D02*
G01*
X109580693Y-51569201D01*
X109586643Y-51570691D01*
X109592418Y-51572758D01*
X109597962Y-51575380D01*
X109603223Y-51578533D01*
X109608150Y-51582187D01*
X109612694Y-51586306D01*
X109616813Y-51590850D01*
X109620467Y-51595777D01*
X109623620Y-51601038D01*
X109626242Y-51606582D01*
X109628309Y-51612357D01*
X109629799Y-51618307D01*
X109630699Y-51624374D01*
X109631000Y-51630500D01*
X109631000Y-52580500D01*
X109630699Y-52586626D01*
X109629799Y-52592693D01*
X109628309Y-52598643D01*
X109626242Y-52604418D01*
X109623620Y-52609962D01*
X109620467Y-52615223D01*
X109616813Y-52620150D01*
X109612694Y-52624694D01*
X109608150Y-52628813D01*
X109603223Y-52632467D01*
X109597962Y-52635620D01*
X109592418Y-52638242D01*
X109586643Y-52640309D01*
X109580693Y-52641799D01*
X109574626Y-52642699D01*
X109568500Y-52643000D01*
X109443500Y-52643000D01*
X109437374Y-52642699D01*
X109431307Y-52641799D01*
X109425357Y-52640309D01*
X109419582Y-52638242D01*
X109414038Y-52635620D01*
X109408777Y-52632467D01*
X109403850Y-52628813D01*
X109399306Y-52624694D01*
X109395187Y-52620150D01*
X109391533Y-52615223D01*
X109388380Y-52609962D01*
X109385758Y-52604418D01*
X109383691Y-52598643D01*
X109382201Y-52592693D01*
X109381301Y-52586626D01*
X109381000Y-52580500D01*
X109381000Y-51630500D01*
X109381301Y-51624374D01*
X109382201Y-51618307D01*
X109383691Y-51612357D01*
X109385758Y-51606582D01*
X109388380Y-51601038D01*
X109391533Y-51595777D01*
X109395187Y-51590850D01*
X109399306Y-51586306D01*
X109403850Y-51582187D01*
X109408777Y-51578533D01*
X109414038Y-51575380D01*
X109419582Y-51572758D01*
X109425357Y-51570691D01*
X109431307Y-51569201D01*
X109437374Y-51568301D01*
X109443500Y-51568000D01*
X109568500Y-51568000D01*
X109574626Y-51568301D01*
G37*
G36*
X109074626Y-51568301D02*
G01*
X109080693Y-51569201D01*
X109086643Y-51570691D01*
X109092418Y-51572758D01*
X109097962Y-51575380D01*
X109103223Y-51578533D01*
X109108150Y-51582187D01*
X109112694Y-51586306D01*
X109116813Y-51590850D01*
X109120467Y-51595777D01*
X109123620Y-51601038D01*
X109126242Y-51606582D01*
X109128309Y-51612357D01*
X109129799Y-51618307D01*
X109130699Y-51624374D01*
X109131000Y-51630500D01*
X109131000Y-52580500D01*
X109130699Y-52586626D01*
X109129799Y-52592693D01*
X109128309Y-52598643D01*
X109126242Y-52604418D01*
X109123620Y-52609962D01*
X109120467Y-52615223D01*
X109116813Y-52620150D01*
X109112694Y-52624694D01*
X109108150Y-52628813D01*
X109103223Y-52632467D01*
X109097962Y-52635620D01*
X109092418Y-52638242D01*
X109086643Y-52640309D01*
X109080693Y-52641799D01*
X109074626Y-52642699D01*
X109068500Y-52643000D01*
X108943500Y-52643000D01*
X108937374Y-52642699D01*
X108931307Y-52641799D01*
X108925357Y-52640309D01*
X108919582Y-52638242D01*
X108914038Y-52635620D01*
X108908777Y-52632467D01*
X108903850Y-52628813D01*
X108899306Y-52624694D01*
X108895187Y-52620150D01*
X108891533Y-52615223D01*
X108888380Y-52609962D01*
X108885758Y-52604418D01*
X108883691Y-52598643D01*
X108882201Y-52592693D01*
X108881301Y-52586626D01*
X108881000Y-52580500D01*
X108881000Y-51630500D01*
X108881301Y-51624374D01*
X108882201Y-51618307D01*
X108883691Y-51612357D01*
X108885758Y-51606582D01*
X108888380Y-51601038D01*
X108891533Y-51595777D01*
X108895187Y-51590850D01*
X108899306Y-51586306D01*
X108903850Y-51582187D01*
X108908777Y-51578533D01*
X108914038Y-51575380D01*
X108919582Y-51572758D01*
X108925357Y-51570691D01*
X108931307Y-51569201D01*
X108937374Y-51568301D01*
X108943500Y-51568000D01*
X109068500Y-51568000D01*
X109074626Y-51568301D01*
G37*
M02*
